<?xml version="1.0" encoding="utf-8" ?>
<svg baseProfile="full" height="600" version="1.1" width="800" xmlns="http://www.w3.org/2000/svg" xmlns:ev="http://www.w3.org/2001/xml-events" xmlns:inkscape="http://www.inkscape.org/namespaces/inkscape" xmlns:sodipodi="http://sodipodi.sourceforge.net/DTD/sodipodi-0.dtd" xmlns:xlink="http://www.w3.org/1999/xlink"><defs /><g inkscape:groupmode="layer" inkscape:label="axis"><line fill="none" stroke="#040404" stroke-dasharray="10,4" stroke-width="2.0" x1="0" x2="800" y1="300.0" y2="300.0" /></g><g inkscape:groupmode="layer" inkscape:label="optics"><path d="M 228.57142857142858,300.0 m -5.0,-90.0 a 669.4999999999999,669.4999999999999 0 0 0    0,180.0 h   10 v -180.0 z" fill="#CCCCCC" id="lens1" stroke="#000000" stroke-dasharray="100,0" stroke-width="1.0" /><path d="M 271.42857142857144,300.0 m -5.0,-72.0 a 399.09999999999997,399.09999999999997 0 0 0    0,144.0 h   10 v -144.0 z" fill="#CCCCCC" id="lens2" stroke="#000000" stroke-dasharray="100,0" stroke-width="1.0" /><path d="M 371.42857142857144,300.0 m -5.0,-48.6 v 97.2 h   10 a 240.49999999999997,240.49999999999997 0 0 0    0,-97.2 z" fill="#CCCCCC" id="lens3" stroke="#000000" stroke-dasharray="100,0" stroke-width="1.0" /><path d="M 442.8571428571429,300.0 m -5.0,-81.0 v 162.0 h   10 a 431.59999999999997,431.59999999999997 0 0 0    0,-162.0 z" fill="#CCCCCC" id="lens4" stroke="#000000" stroke-dasharray="100,0" stroke-width="1.0" /></g><g inkscape:groupmode="layer" inkscape:label="stops"><path d="M 271.42857142857144,300.0 m -5.0,72.0 h   10 m    0,-144.0 h  -10 m  5.0,   0 v -108.0 m    0,252.0 v 108.0 " fill="none" id="lens2" stroke="#FF0000" stroke-dasharray="100,0" stroke-width="2" /><path d="M 371.42857142857144,300.0 m -5.0,48.6 h   10 m    0,-97.2 h  -10 m  5.0,   0 v -131.4 m    0,228.60000000000002 v 131.4 " fill="none" id="lens3" stroke="#00FF00" stroke-dasharray="100,0" stroke-width="2" /></g><g inkscape:groupmode="layer" inkscape:label="pupils"><path d="M 289.041095890411,300.0 m -5.0,101.58904109589041 h   10 m    0,-203.17808219178082 h  -10 m  5.0,   0 v -78.41095890410959 m    0,281.5890410958904 v 78.41095890410959 " fill="none" id="__entrance_pupil__" stroke="#FF2020" stroke-dasharray="100,0" stroke-width="1.5" /><path d="M 471.33367399080225,300.0 m -5.0,56.492590700051096 h   10 m    0,-112.98518140010219 h  -10 m  5.0,   0 v -123.5074092999489 m    0,236.4925907000511 v 123.5074092999489 " fill="none" id="__exit_pupil__" stroke="#FF1010" stroke-dasharray="100,0" stroke-width="1.5" /></g><g inkscape:groupmode="layer" inkscape:label="windows"><path d="M 107.8890738560234,300.0 m -5.0,62.39719842462137 h   10 m    0,-124.79439684924274 h  -10 m  5.0,   0 v -117.60280157537863 m    0,242.39719842462137 v 117.60280157537863 " fill="none" id="__entrance_window__" stroke="#20FF20" stroke-dasharray="100,0" stroke-width="1.5" /><path d="M 153.65853658536594,300.0 m -5.0,196.770731707317 h   10 m    0,-393.541463414634 h  -10 m  5.0,   0 v   -5 m    0,398.541463414634 v    5 " fill="none" id="__exit_window__" stroke="#10FF10" stroke-dasharray="100,0" stroke-width="1.5" /></g><g inkscape:groupmode="layer" inkscape:label="objects"><path d="M 68.57142857142858,300.0 m    0,45.0 v -90.0 l   -3, 7.0 l    6,   0 l   -3,-7.0 " fill="#000000" stroke="#000000" stroke-dasharray="100,0" stroke-width="1.0" /></g><g inkscape:groupmode="layer" inkscape:label="images"><path d="M 28529.67825171278,300.0 m    0,10298.668543424526 v -20597.337086849053 l   -3, 7.0 l    6,   0 l   -3,-7.0 " fill="#020202" stroke="#020202" stroke-dasharray="100,0" stroke-width="1.0" /></g><g inkscape:groupmode="layer" inkscape:label="rayGroup1"><line fill="none" stroke="#E00000" stroke-dasharray="100,0" stroke-width="0.5" x1="68.57142857142858" x2="228.57142857142858" y1="300.0" y2="373.6518203443991" /><line fill="none" stroke="#E00000" stroke-dasharray="100,0" stroke-width="0.5" x1="228.57142857142858" x2="271.42857142857144" y1="373.6518203443991" y2="371.928" /><line fill="none" stroke="#E00000" stroke-dasharray="100,0" stroke-width="0.5" x1="271.42857142857144" x2="371.42857142857144" y1="371.928" y2="285.9031466665433" /><line fill="none" stroke="#E00000" stroke-dasharray="100,0" stroke-width="0.5" x1="371.42857142857144" x2="442.8571428571429" y1="285.9031466665433" y2="243.50662465889988" /><line fill="none" stroke="#E00000" stroke-dasharray="100,0" stroke-width="0.5" x1="442.8571428571429" x2="28529.67825171278" y1="243.50662465889988" y2="300.0000000000043" /><line fill="none" stroke="#E00000" stroke-dasharray="100,0" stroke-width="0.5" x1="68.57142857142858" x2="228.57142857142858" y1="300.0" y2="226.34817965560092" /><line fill="none" stroke="#E00000" stroke-dasharray="100,0" stroke-width="0.5" x1="228.57142857142858" x2="271.42857142857144" y1="226.34817965560092" y2="228.072" /><line fill="none" stroke="#E00000" stroke-dasharray="100,0" stroke-width="0.5" x1="271.42857142857144" x2="371.42857142857144" y1="228.072" y2="314.0968533334567" /><line fill="none" stroke="#E00000" stroke-dasharray="100,0" stroke-width="0.5" x1="371.42857142857144" x2="442.8571428571429" y1="314.0968533334567" y2="356.4933753411001" /><line fill="none" stroke="#E00000" stroke-dasharray="100,0" stroke-width="0.5" x1="442.8571428571429" x2="28529.67825171278" y1="356.4933753411001" y2="299.9999999999957" /></g><g inkscape:groupmode="layer" inkscape:label="rayGroup2"><line fill="none" stroke="#29ab93" stroke-dasharray="100,0" stroke-width="0.5" x1="68.57142857142858" x2="228.57142857142858" y1="375.18062746185853" y2="320.6202857142857" /><line fill="none" stroke="#29ab93" stroke-dasharray="100,0" stroke-width="0.5" x1="228.57142857142858" x2="271.42857142857144" y1="320.6202857142857" y2="300.0" /><line fill="none" stroke="#29ab93" stroke-dasharray="100,0" stroke-width="0.5" x1="271.42857142857144" x2="371.42857142857144" y1="300.0" y2="251.88600000000002" /><line fill="none" stroke="#29ab93" stroke-dasharray="100,0" stroke-width="0.5" x1="371.42857142857144" x2="442.8571428571429" y1="251.88600000000002" y2="282.53777606177607" /><line fill="none" stroke="#29ab93" stroke-dasharray="100,0" stroke-width="0.5" x1="442.8571428571429" x2="28529.67825171278" y1="282.53777606177607" y2="17505.785847030227" /><line fill="none" stroke="#29ab93" stroke-dasharray="100,0" stroke-width="0.5" x1="68.57142857142858" x2="228.57142857142858" y1="224.8193725381415" y2="279.3797142857143" /><line fill="none" stroke="#29ab93" stroke-dasharray="100,0" stroke-width="0.5" x1="228.57142857142858" x2="271.42857142857144" y1="279.3797142857143" y2="300.0" /><line fill="none" stroke="#29ab93" stroke-dasharray="100,0" stroke-width="0.5" x1="271.42857142857144" x2="371.42857142857144" y1="300.0" y2="348.114" /><line fill="none" stroke="#29ab93" stroke-dasharray="100,0" stroke-width="0.5" x1="371.42857142857144" x2="442.8571428571429" y1="348.114" y2="317.46222393822393" /><line fill="none" stroke="#29ab93" stroke-dasharray="100,0" stroke-width="0.5" x1="442.8571428571429" x2="28529.67825171278" y1="317.46222393822393" y2="-16905.785847030227" /></g></svg>