<?xml version="1.0" encoding="utf-8" ?>
<svg baseProfile="full" height="600" version="1.1" width="800" xmlns="http://www.w3.org/2000/svg" xmlns:ev="http://www.w3.org/2001/xml-events" xmlns:inkscape="http://www.inkscape.org/namespaces/inkscape" xmlns:sodipodi="http://sodipodi.sourceforge.net/DTD/sodipodi-0.dtd" xmlns:xlink="http://www.w3.org/1999/xlink"><defs /><g inkscape:groupmode="layer" inkscape:label="axis"><line fill="none" stroke="#040404" stroke-dasharray="10,4" stroke-width="2.0" x1="0" x2="800" y1="300.0" y2="300.0" /></g><g inkscape:groupmode="layer" inkscape:label="optics"><path d="M 228.57142857142858,300.0 m -5.0,-90.0 a 676.0,676.0 0 0 0    0,180.0 h   10 v -180.0 z" fill="#CCCCCC" id="lens1" stroke="#000000" stroke-dasharray="100,0" stroke-width="1.0" /><path d="M 271.42857142857144,300.0 m -5.0,-72.0 a 519.9999999999999,519.9999999999999 0 0 0    0,144.0 h   10 v -144.0 z" fill="#CCCCCC" id="lens2" stroke="#000000" stroke-dasharray="100,0" stroke-width="1.0" /><path d="M 428.57142857142856,300.0 m -5.0,-30.6 v 61.2 h   10 a 246.99999999999994,246.99999999999994 0 0 0    0,-61.2 z" fill="#CCCCCC" id="lens3" stroke="#000000" stroke-dasharray="100,0" stroke-width="1.0" /><path d="M 485.7142857142858,300.0 m -5.0,-81.0 v 162.0 h   10 a 428.9999999999999,428.9999999999999 0 0 0    0,-162.0 z" fill="#CCCCCC" id="lens4" stroke="#000000" stroke-dasharray="100,0" stroke-width="1.0" /></g><g inkscape:groupmode="layer" inkscape:label="stops"><path d="M 428.57142857142856,300.0 m -5.0,30.6 h   10 m    0,-61.2 h  -10 m  5.0,   0 v -149.4 m    0,210.60000000000002 v 149.4 " fill="none" id="lens3" stroke="#FF0000" stroke-dasharray="100,0" stroke-width="2" /><path d="M 271.42857142857144,300.0 m -5.0,72.0 h   10 m    0,-144.0 h  -10 m  5.0,   0 v -108.0 m    0,252.0 v 108.0 " fill="none" id="lens2" stroke="#00FF00" stroke-dasharray="100,0" stroke-width="2" /></g><g inkscape:groupmode="layer" inkscape:label="pupils"><path d="M 122.06378014000519,300.0 m -5.0,23.102722323049 h   10 m    0,-46.205444646098 h  -10 m  5.0,   0 v -156.897277676951 m    0,203.10272232304902 v 156.897277676951 " fill="none" id="__entrance_pupil__" stroke="#FF2020" stroke-dasharray="100,0" stroke-width="1.5" /><path d="M 340.65934065934067,300.0 m -5.0,77.67692307692307 h   10 m    0,-155.35384615384615 h  -10 m  5.0,   0 v -102.32307692307693 m    0,257.67692307692306 v 102.32307692307693 " fill="none" id="__exit_pupil__" stroke="#FF1010" stroke-dasharray="100,0" stroke-width="1.5" /></g><g inkscape:groupmode="layer" inkscape:label="windows"><path d="M 288.8030888030888,300.0 m -5.0,101.1891891891892 h   10 m    0,-202.3783783783784 h  -10 m  5.0,   0 v -78.8108108108108 m    0,281.18918918918916 v 78.8108108108108 " fill="none" id="__entrance_window__" stroke="#20FF20" stroke-dasharray="100,0" stroke-width="1.5" /><path d="M 505.96733075252575,300.0 m -5.0,29.837409120951758 h   10 m    0,-59.674818241903516 h  -10 m  5.0,   0 v -150.16259087904825 m    0,209.83740912095178 v 150.16259087904825 " fill="none" id="__exit_window__" stroke="#10FF10" stroke-dasharray="100,0" stroke-width="1.5" /></g><g inkscape:groupmode="layer" inkscape:label="objects"><path d="M 68.57142857142858,300.0 m    0,45.0 v -90.0 l   -3, 7.0 l    6,   0 l   -3,-7.0 " fill="#000000" stroke="#000000" stroke-dasharray="100,0" stroke-width="1.0" /></g><g inkscape:groupmode="layer" inkscape:label="images"><path d="M 599.3838805503536,300.0 m    0,64.73357482274342 v -129.46714964548684 l   -3, 7.0 l    6,   0 l   -3,-7.0 " fill="#020202" stroke="#020202" stroke-dasharray="100,0" stroke-width="1.0" /></g><g inkscape:groupmode="layer" inkscape:label="rayGroup1"><line fill="none" stroke="#E00000" stroke-dasharray="100,0" stroke-width="0.5" x1="68.57142857142858" x2="228.57142857142858" y1="300.0" y2="369.033030476929" /><line fill="none" stroke="#E00000" stroke-dasharray="100,0" stroke-width="0.5" x1="228.57142857142858" x2="271.42857142857144" y1="369.033030476929" y2="367.61064660721206" /><line fill="none" stroke="#E00000" stroke-dasharray="100,0" stroke-width="0.5" x1="271.42857142857144" x2="428.57142857142856" y1="367.61064660721206" y2="269.4306" /><line fill="none" stroke="#E00000" stroke-dasharray="100,0" stroke-width="0.5" x1="428.57142857142856" x2="485.7142857142858" y1="269.4306" y2="265.9070806595784" /><line fill="none" stroke="#E00000" stroke-dasharray="100,0" stroke-width="0.5" x1="485.7142857142858" x2="599.3838805503536" y1="265.9070806595784" y2="299.99999999999994" /><line fill="none" stroke="#E00000" stroke-dasharray="1,1" stroke-width="0.5" x1="485.7142857142858" x2="599.3838805503536" y1="265.9070806595784" y2="299.99999999999994" /><line fill="none" stroke="#E00000" stroke-dasharray="100,0" stroke-width="0.5" x1="68.57142857142858" x2="228.57142857142858" y1="300.0" y2="230.966969523071" /><line fill="none" stroke="#E00000" stroke-dasharray="100,0" stroke-width="0.5" x1="228.57142857142858" x2="271.42857142857144" y1="230.966969523071" y2="232.38935339278794" /><line fill="none" stroke="#E00000" stroke-dasharray="100,0" stroke-width="0.5" x1="271.42857142857144" x2="428.57142857142856" y1="232.38935339278794" y2="330.5694" /><line fill="none" stroke="#E00000" stroke-dasharray="100,0" stroke-width="0.5" x1="428.57142857142856" x2="485.7142857142858" y1="330.5694" y2="334.0929193404216" /><line fill="none" stroke="#E00000" stroke-dasharray="100,0" stroke-width="0.5" x1="485.7142857142858" x2="599.3838805503536" y1="334.0929193404216" y2="300.00000000000006" /><line fill="none" stroke="#E00000" stroke-dasharray="1,1" stroke-width="0.5" x1="485.7142857142858" x2="599.3838805503536" y1="334.0929193404216" y2="300.00000000000006" /></g><g inkscape:groupmode="layer" inkscape:label="rayGroup2"><line fill="none" stroke="#29ab93" stroke-dasharray="100,0" stroke-width="0.5" x1="68.57142857142858" x2="228.57142857142858" y1="332.1383076923077" y2="236.01" /><line fill="none" stroke="#29ab93" stroke-dasharray="100,0" stroke-width="0.5" x1="228.57142857142858" x2="271.42857142857144" y1="236.01" y2="228.72000000000003" /><line fill="none" stroke="#29ab93" stroke-dasharray="100,0" stroke-width="0.5" x1="271.42857142857144" x2="428.57142857142856" y1="228.72000000000003" y2="300.0" /><line fill="none" stroke="#29ab93" stroke-dasharray="100,0" stroke-width="0.5" x1="428.57142857142856" x2="485.7142857142858" y1="300.0" y2="325.92" /><line fill="none" stroke="#29ab93" stroke-dasharray="100,0" stroke-width="0.5" x1="485.7142857142858" x2="599.3838805503536" y1="325.92" y2="346.23172323725225" /><line fill="none" stroke="#29ab93" stroke-dasharray="1,1" stroke-width="0.5" x1="485.7142857142858" x2="599.3838805503536" y1="325.92" y2="346.23172323725225" /><line fill="none" stroke="#29ab93" stroke-dasharray="100,0" stroke-width="0.5" x1="68.57142857142858" x2="228.57142857142858" y1="267.8616923076923" y2="363.99" /><line fill="none" stroke="#29ab93" stroke-dasharray="100,0" stroke-width="0.5" x1="228.57142857142858" x2="271.42857142857144" y1="363.99" y2="371.28" /><line fill="none" stroke="#29ab93" stroke-dasharray="100,0" stroke-width="0.5" x1="271.42857142857144" x2="428.57142857142856" y1="371.28" y2="300.0" /><line fill="none" stroke="#29ab93" stroke-dasharray="100,0" stroke-width="0.5" x1="428.57142857142856" x2="485.7142857142858" y1="300.0" y2="274.08" /><line fill="none" stroke="#29ab93" stroke-dasharray="100,0" stroke-width="0.5" x1="485.7142857142858" x2="599.3838805503536" y1="274.08" y2="253.76827676274772" /><line fill="none" stroke="#29ab93" stroke-dasharray="1,1" stroke-width="0.5" x1="485.7142857142858" x2="599.3838805503536" y1="274.08" y2="253.76827676274772" /></g><g inkscape:groupmode="layer" inkscape:label="rayGroup3"><line fill="none" stroke="#0000FF" stroke-dasharray="100,0" stroke-width="0.5" x1="68.57142857142858" x2="228.57142857142858" y1="300.0" y2="251.61599999999999" /><line fill="none" stroke="#0000FF" stroke-dasharray="100,0" stroke-width="0.5" x1="228.57142857142858" x2="271.42857142857144" y1="251.61599999999999" y2="252.6129230769231" /><line fill="none" stroke="#0000FF" stroke-dasharray="100,0" stroke-width="0.5" x1="271.42857142857144" x2="428.57142857142856" y1="252.6129230769231" y2="321.42553846153845" /><line fill="none" stroke="#0000FF" stroke-dasharray="100,0" stroke-width="0.5" x1="428.57142857142856" x2="485.7142857142858" y1="321.42553846153845" y2="323.8951093117409" /><line fill="none" stroke="#0000FF" stroke-dasharray="100,0" stroke-width="0.5" x1="485.7142857142858" x2="599.3838805503536" y1="323.8951093117409" y2="300.00000000000006" /><line fill="none" stroke="#0000FF" stroke-dasharray="1,1" stroke-width="0.5" x1="485.7142857142858" x2="599.3838805503536" y1="323.8951093117409" y2="300.00000000000006" /></g></svg>