<?xml version="1.0" encoding="utf-8" ?>
<svg baseProfile="full" height="600" version="1.1" width="600" xmlns="http://www.w3.org/2000/svg" xmlns:ev="http://www.w3.org/2001/xml-events" xmlns:inkscape="http://www.inkscape.org/namespaces/inkscape" xmlns:sodipodi="http://sodipodi.sourceforge.net/DTD/sodipodi-0.dtd" xmlns:xlink="http://www.w3.org/1999/xlink"><defs /><g inkscape:groupmode="layer" inkscape:label="axis"><line fill="none" stroke="#040404" stroke-dasharray="10,4" stroke-width="2.0" x1="0" x2="600" y1="300.0" y2="300.0" /></g><g inkscape:groupmode="layer" inkscape:label="optics"><path d="M 211.76470588235293,300.0 m -8.0,-75.0 a 259.99999999999994,259.99999999999994 0 0 0    0,150.0 h   16 a 259.99999999999994,259.99999999999994 0 0 0    0,-150.0 z" fill="#CCCCCC" id="lens1" stroke="#000000" stroke-dasharray="100,0" stroke-width="0.5" /><path d="M 374.11764705882354,300.0 m -8.0,-105.0 a 415.99999999999994,415.99999999999994 0 0 0    0,210.0 h   16 a 415.99999999999994,415.99999999999994 0 0 0    0,-210.0 z" fill="#CCCCCC" id="lens2" stroke="#000000" stroke-dasharray="100,0" stroke-width="0.5" /></g><g inkscape:groupmode="layer" inkscape:label="stops"><path d="M 211.76470588235293,300.0 m -8.0,75.0 h   16 m    0,-150.0 h  -16 m  8.0,   0 v -225.0 m    0,375.0 v 225.0 " fill="none" id="lens1" stroke="#009900" stroke-dasharray="100,0" stroke-width="1.5" /><path d="M 374.11764705882354,300.0 m -8.0,105.0 h   16 m    0,-210.0 h  -16 m  8.0,   0 v -195.0 m    0,405.0 v 195.0 " fill="none" id="lens2" stroke="#990000" stroke-dasharray="100,0" stroke-width="1.5" /></g><g inkscape:groupmode="layer" inkscape:label="pupils"><path d="M 211.76470588235293,300.0 m -8.0,75.0 h   16 m    0,-150.0 h  -16 m  8.0,   0 v -225.0 m    0,375.0 v 225.0 " fill="none" id="__entrance_pupil__" stroke="#007710" stroke-dasharray="100,0" stroke-width="1.5" /><path d="M 460.70588235294116,300.0 m -8.0,40.00000000000001 h   16 m    0,-80.00000000000001 h  -16 m  8.0,   0 v -260.0 m    0,340.0 v 260.0 " fill="none" id="__exit_pupil__" stroke="#005010" stroke-dasharray="100,0" stroke-width="1.5" /></g><g inkscape:groupmode="layer" inkscape:label="windows"><path d="M 166.66666666666666,300.0 m -8.0,29.166666666666654 h   16 m    0,-58.33333333333331 h  -16 m  8.0,   0 v -270.83333333333337 m    0,329.1666666666667 v 270.83333333333337 " fill="none" id="__entrance_window__" stroke="#770010" stroke-dasharray="100,0" stroke-width="1.5" /><path d="M 374.11764705882354,300.0 m -8.0,105.0 h   16 m    0,-210.0 h  -16 m  8.0,   0 v -195.0 m    0,405.0 v 195.0 " fill="none" id="__exit_window__" stroke="#500010" stroke-dasharray="100,0" stroke-width="1.5" /></g><g inkscape:groupmode="layer" inkscape:label="objects"><path d="M 158.8235294117647,300.0 m    0,15.0 v -30.0 l   -3, 7.0 l    6,   0 l   -3,-7.0 " fill="#000000" stroke="#000000" stroke-dasharray="100,0" stroke-width="1.0" /></g><g inkscape:groupmode="layer" inkscape:label="images" /><g inkscape:groupmode="layer" inkscape:label="rayGroup1"><line fill="none" stroke="#E00000" stroke-dasharray="100,0" stroke-width="0.5" x1="158.8235294117647" x2="211.76470588235293" y1="285.0" y2="312.0" /><line fill="none" stroke="#E00000" stroke-dasharray="100,0" stroke-width="0.5" x1="211.76470588235293" x2="374.11764705882354" y1="312.0" y2="339.6" /><line fill="none" stroke="#E00000" stroke-dasharray="100,0" stroke-width="0.5" x1="374.11764705882354" x2="656.4705882352941" y1="339.6" y2="189.60000000000002" /><line fill="none" stroke="#E00000" stroke-dasharray="100,0" stroke-width="0.5" x1="158.8235294117647" x2="211.76470588235293" y1="285.0" y2="304.2857142857143" /><line fill="none" stroke="#E00000" stroke-dasharray="100,0" stroke-width="0.5" x1="211.76470588235293" x2="374.11764705882354" y1="304.2857142857143" y2="343.7142857142857" /><line fill="none" stroke="#E00000" stroke-dasharray="100,0" stroke-width="0.5" x1="374.11764705882354" x2="656.4705882352941" y1="343.7142857142857" y2="193.71428571428572" /><line fill="none" stroke="#E00000" stroke-dasharray="100,0" stroke-width="0.5" x1="158.8235294117647" x2="211.76470588235293" y1="285.0" y2="296.57142857142856" /><line fill="none" stroke="#E00000" stroke-dasharray="100,0" stroke-width="0.5" x1="211.76470588235293" x2="374.11764705882354" y1="296.57142857142856" y2="347.8285714285714" /><line fill="none" stroke="#E00000" stroke-dasharray="100,0" stroke-width="0.5" x1="374.11764705882354" x2="656.4705882352941" y1="347.8285714285714" y2="197.82857142857142" /><line fill="none" stroke="#E00000" stroke-dasharray="100,0" stroke-width="0.5" x1="158.8235294117647" x2="211.76470588235293" y1="285.0" y2="288.85714285714283" /><line fill="none" stroke="#E00000" stroke-dasharray="100,0" stroke-width="0.5" x1="211.76470588235293" x2="374.11764705882354" y1="288.85714285714283" y2="351.9428571428572" /><line fill="none" stroke="#E00000" stroke-dasharray="100,0" stroke-width="0.5" x1="374.11764705882354" x2="656.4705882352941" y1="351.9428571428572" y2="201.94285714285712" /><line fill="none" stroke="#E00000" stroke-dasharray="100,0" stroke-width="0.5" x1="158.8235294117647" x2="211.76470588235293" y1="285.0" y2="281.1428571428571" /><line fill="none" stroke="#E00000" stroke-dasharray="100,0" stroke-width="0.5" x1="211.76470588235293" x2="374.11764705882354" y1="281.1428571428571" y2="356.0571428571429" /><line fill="none" stroke="#E00000" stroke-dasharray="100,0" stroke-width="0.5" x1="374.11764705882354" x2="656.4705882352941" y1="356.0571428571429" y2="206.05714285714282" /><line fill="none" stroke="#E00000" stroke-dasharray="100,0" stroke-width="0.5" x1="158.8235294117647" x2="211.76470588235293" y1="285.0" y2="273.42857142857144" /><line fill="none" stroke="#E00000" stroke-dasharray="100,0" stroke-width="0.5" x1="211.76470588235293" x2="374.11764705882354" y1="273.42857142857144" y2="360.1714285714286" /><line fill="none" stroke="#E00000" stroke-dasharray="100,0" stroke-width="0.5" x1="374.11764705882354" x2="656.4705882352941" y1="360.1714285714286" y2="210.17142857142858" /><line fill="none" stroke="#E00000" stroke-dasharray="100,0" stroke-width="0.5" x1="158.8235294117647" x2="211.76470588235293" y1="285.0" y2="265.7142857142857" /><line fill="none" stroke="#E00000" stroke-dasharray="100,0" stroke-width="0.5" x1="211.76470588235293" x2="374.11764705882354" y1="265.7142857142857" y2="364.28571428571433" /><line fill="none" stroke="#E00000" stroke-dasharray="100,0" stroke-width="0.5" x1="374.11764705882354" x2="656.4705882352941" y1="364.28571428571433" y2="214.28571428571422" /><line fill="none" stroke="#E00000" stroke-dasharray="100,0" stroke-width="0.5" x1="158.8235294117647" x2="211.76470588235293" y1="285.0" y2="258.0" /><line fill="none" stroke="#E00000" stroke-dasharray="100,0" stroke-width="0.5" x1="211.76470588235293" x2="374.11764705882354" y1="258.0" y2="368.4" /><line fill="none" stroke="#E00000" stroke-dasharray="100,0" stroke-width="0.5" x1="374.11764705882354" x2="656.4705882352941" y1="368.4" y2="218.39999999999998" /></g><g inkscape:groupmode="layer" inkscape:label="rayGroup2"><line fill="none" stroke="#29ab93" stroke-dasharray="100,0" stroke-width="0.5" x1="158.8235294117647" x2="211.76470588235293" y1="315.0" y2="288.0" /><line fill="none" stroke="#29ab93" stroke-dasharray="100,0" stroke-width="0.5" x1="211.76470588235293" x2="374.11764705882354" y1="288.0" y2="260.4" /><line fill="none" stroke="#29ab93" stroke-dasharray="100,0" stroke-width="0.5" x1="374.11764705882354" x2="656.4705882352941" y1="260.4" y2="410.4" /><line fill="none" stroke="#29ab93" stroke-dasharray="100,0" stroke-width="0.5" x1="158.8235294117647" x2="211.76470588235293" y1="315.0" y2="295.7142857142857" /><line fill="none" stroke="#29ab93" stroke-dasharray="100,0" stroke-width="0.5" x1="211.76470588235293" x2="374.11764705882354" y1="295.7142857142857" y2="256.2857142857143" /><line fill="none" stroke="#29ab93" stroke-dasharray="100,0" stroke-width="0.5" x1="374.11764705882354" x2="656.4705882352941" y1="256.2857142857143" y2="406.2857142857143" /><line fill="none" stroke="#29ab93" stroke-dasharray="100,0" stroke-width="0.5" x1="158.8235294117647" x2="211.76470588235293" y1="315.0" y2="303.42857142857144" /><line fill="none" stroke="#29ab93" stroke-dasharray="100,0" stroke-width="0.5" x1="211.76470588235293" x2="374.11764705882354" y1="303.42857142857144" y2="252.17142857142858" /><line fill="none" stroke="#29ab93" stroke-dasharray="100,0" stroke-width="0.5" x1="374.11764705882354" x2="656.4705882352941" y1="252.17142857142858" y2="402.1714285714286" /><line fill="none" stroke="#29ab93" stroke-dasharray="100,0" stroke-width="0.5" x1="158.8235294117647" x2="211.76470588235293" y1="315.0" y2="311.14285714285717" /><line fill="none" stroke="#29ab93" stroke-dasharray="100,0" stroke-width="0.5" x1="211.76470588235293" x2="374.11764705882354" y1="311.14285714285717" y2="248.05714285714285" /><line fill="none" stroke="#29ab93" stroke-dasharray="100,0" stroke-width="0.5" x1="374.11764705882354" x2="656.4705882352941" y1="248.05714285714285" y2="398.0571428571429" /><line fill="none" stroke="#29ab93" stroke-dasharray="100,0" stroke-width="0.5" x1="158.8235294117647" x2="211.76470588235293" y1="315.0" y2="318.8571428571429" /><line fill="none" stroke="#29ab93" stroke-dasharray="100,0" stroke-width="0.5" x1="211.76470588235293" x2="374.11764705882354" y1="318.8571428571429" y2="243.94285714285712" /><line fill="none" stroke="#29ab93" stroke-dasharray="100,0" stroke-width="0.5" x1="374.11764705882354" x2="656.4705882352941" y1="243.94285714285712" y2="393.9428571428572" /><line fill="none" stroke="#29ab93" stroke-dasharray="100,0" stroke-width="0.5" x1="158.8235294117647" x2="211.76470588235293" y1="315.0" y2="326.57142857142856" /><line fill="none" stroke="#29ab93" stroke-dasharray="100,0" stroke-width="0.5" x1="211.76470588235293" x2="374.11764705882354" y1="326.57142857142856" y2="239.82857142857142" /><line fill="none" stroke="#29ab93" stroke-dasharray="100,0" stroke-width="0.5" x1="374.11764705882354" x2="656.4705882352941" y1="239.82857142857142" y2="389.8285714285714" /><line fill="none" stroke="#29ab93" stroke-dasharray="100,0" stroke-width="0.5" x1="158.8235294117647" x2="211.76470588235293" y1="315.0" y2="334.2857142857143" /><line fill="none" stroke="#29ab93" stroke-dasharray="100,0" stroke-width="0.5" x1="211.76470588235293" x2="374.11764705882354" y1="334.2857142857143" y2="235.7142857142857" /><line fill="none" stroke="#29ab93" stroke-dasharray="100,0" stroke-width="0.5" x1="374.11764705882354" x2="656.4705882352941" y1="235.7142857142857" y2="385.7142857142858" /><line fill="none" stroke="#29ab93" stroke-dasharray="100,0" stroke-width="0.5" x1="158.8235294117647" x2="211.76470588235293" y1="315.0" y2="342.0" /><line fill="none" stroke="#29ab93" stroke-dasharray="100,0" stroke-width="0.5" x1="211.76470588235293" x2="374.11764705882354" y1="342.0" y2="231.6" /><line fill="none" stroke="#29ab93" stroke-dasharray="100,0" stroke-width="0.5" x1="374.11764705882354" x2="656.4705882352941" y1="231.6" y2="381.6" /></g></svg>