<?xml version="1.0" encoding="utf-8" ?>
<svg baseProfile="full" height="600" version="1.1" width="800" xmlns="http://www.w3.org/2000/svg" xmlns:ev="http://www.w3.org/2001/xml-events" xmlns:inkscape="http://www.inkscape.org/namespaces/inkscape" xmlns:sodipodi="http://sodipodi.sourceforge.net/DTD/sodipodi-0.dtd" xmlns:xlink="http://www.w3.org/1999/xlink"><defs /><g inkscape:groupmode="layer" inkscape:label="axis"><line fill="none" stroke="#040404" stroke-dasharray="10,4" stroke-width="2.0" x1="0" x2="800" y1="300.0" y2="300.0" /></g><g inkscape:groupmode="layer" inkscape:label="optics"><path d="M 228.57142857142858,300.0 m -5.0,-39.6 a 2599.9999999999995,2599.9999999999995 0 0 0    0,79.2 h   10 a 2599.9999999999995,2599.9999999999995 0 0 0    0,-79.2 z" fill="#CCCCCC" id="lens1" stroke="#000000" stroke-dasharray="100,0" stroke-width="1.0" /><path d="M 442.8571428571429,300.0 m -5.149545629453769,-21.6 a 1559.9999999999998,1559.9999999999998 0 0 1    0,43.2 h 10.299091258907538 a 1559.9999999999998,1559.9999999999998 0 0 1    0,-43.2 z" fill="#CCCCCC" id="lens2" stroke="#000000" stroke-dasharray="100,0" stroke-width="1.0" /></g><g inkscape:groupmode="layer" inkscape:label="stops"><path d="M 228.57142857142858,300.0 m -5.0,39.6 h   10 m    0,-79.2 h  -10 m  5.0,   0 v -140.4 m    0,219.60000000000002 v 140.4 " fill="none" id="lens1" stroke="#FF0000" stroke-dasharray="100,0" stroke-width="2" /><path d="M 442.8571428571429,300.0 m -5.0,21.6 h   10 m    0,-43.2 h  -10 m  5.0,   0 v -158.4 m    0,201.60000000000002 v 158.4 " fill="none" id="lens2" stroke="#00FF00" stroke-dasharray="100,0" stroke-width="2" /></g><g inkscape:groupmode="layer" inkscape:label="pupils"><path d="M 228.57142857142858,300.0 m -5.0,39.6 h   10 m    0,-79.2 h  -10 m  5.0,   0 v -140.4 m    0,219.60000000000002 v 140.4 " fill="none" id="__entrance_pupil__" stroke="#FF2020" stroke-dasharray="100,0" stroke-width="1.5" /><path d="M 347.6190476190476,300.0 m -5.0,17.599999999999998 h   10 m    0,-35.199999999999996 h  -10 m  5.0,   0 v -162.4 m    0,197.6 v 162.4 " fill="none" id="__exit_pupil__" stroke="#FF1010" stroke-dasharray="100,0" stroke-width="1.5" /></g><g inkscape:groupmode="layer" inkscape:label="windows"><path d="M 1085.7142857142858,300.0 m -5.0,86.4 h   10 m    0,-172.8 h  -10 m  5.0,   0 v -93.6 m    0,266.4 v 93.6 " fill="none" id="__entrance_window__" stroke="#20FF20" stroke-dasharray="100,0" stroke-width="1.5" /><path d="M 442.8571428571429,300.0 m -5.0,21.6 h   10 m    0,-43.2 h  -10 m  5.0,   0 v -158.4 m    0,201.60000000000002 v 158.4 " fill="none" id="__exit_window__" stroke="#10FF10" stroke-dasharray="100,0" stroke-width="1.5" /></g><g inkscape:groupmode="layer" inkscape:label="objects"><path d="M -2856914.285714286,300.0 m    0,27.0 v -54.0 l   -3, 7.0 l    6,   0 l   -3,-7.0 " fill="#000000" stroke="#000000" stroke-dasharray="100,0" stroke-width="1.0" /></g><g inkscape:groupmode="layer" inkscape:label="images"><path d="M 565.3901198625592,300.0 m    0,-0.004630357423576842 v 0.009260714847153684 l   -3,-7.0 l    6,   0 l   -3, 7.0 " fill="#020202" stroke="#020202" stroke-dasharray="100,0" stroke-width="1.0" /></g><g inkscape:groupmode="layer" inkscape:label="rayGroup1"><line fill="none" stroke="#E00000" stroke-dasharray="100,0" stroke-width="0.5" x1="-2856914.285714286" x2="228.57142857142858" y1="300.0" y2="339.5604" /><line fill="none" stroke="#E00000" stroke-dasharray="100,0" stroke-width="0.5" x1="228.57142857142858" x2="442.8571428571429" y1="339.5604" y2="309.89306703" /><line fill="none" stroke="#E00000" stroke-dasharray="100,0" stroke-width="0.5" x1="442.8571428571429" x2="565.3901198625592" y1="309.89306703" y2="300.0" /><line fill="none" stroke="#E00000" stroke-dasharray="1,1" stroke-width="0.5" x1="442.8571428571429" x2="565.3901198625592" y1="309.89306703" y2="300.0" /><line fill="none" stroke="#E00000" stroke-dasharray="100,0" stroke-width="0.5" x1="-2856914.285714286" x2="228.57142857142858" y1="300.0" y2="329.6703" /><line fill="none" stroke="#E00000" stroke-dasharray="100,0" stroke-width="0.5" x1="228.57142857142858" x2="442.8571428571429" y1="329.6703" y2="307.41980027249997" /><line fill="none" stroke="#E00000" stroke-dasharray="100,0" stroke-width="0.5" x1="442.8571428571429" x2="565.3901198625592" y1="307.41980027249997" y2="300.0" /><line fill="none" stroke="#E00000" stroke-dasharray="1,1" stroke-width="0.5" x1="442.8571428571429" x2="565.3901198625592" y1="307.41980027249997" y2="300.0" /><line fill="none" stroke="#E00000" stroke-dasharray="100,0" stroke-width="0.5" x1="-2856914.285714286" x2="228.57142857142858" y1="300.0" y2="319.7802" /><line fill="none" stroke="#E00000" stroke-dasharray="100,0" stroke-width="0.5" x1="228.57142857142858" x2="442.8571428571429" y1="319.7802" y2="304.946533515" /><line fill="none" stroke="#E00000" stroke-dasharray="100,0" stroke-width="0.5" x1="442.8571428571429" x2="565.3901198625592" y1="304.946533515" y2="300.0" /><line fill="none" stroke="#E00000" stroke-dasharray="1,1" stroke-width="0.5" x1="442.8571428571429" x2="565.3901198625592" y1="304.946533515" y2="300.0" /><line fill="none" stroke="#E00000" stroke-dasharray="100,0" stroke-width="0.5" x1="-2856914.285714286" x2="228.57142857142858" y1="300.0" y2="309.8901" /><line fill="none" stroke="#E00000" stroke-dasharray="100,0" stroke-width="0.5" x1="228.57142857142858" x2="442.8571428571429" y1="309.8901" y2="302.4732667575" /><line fill="none" stroke="#E00000" stroke-dasharray="100,0" stroke-width="0.5" x1="442.8571428571429" x2="565.3901198625592" y1="302.4732667575" y2="300.0" /><line fill="none" stroke="#E00000" stroke-dasharray="1,1" stroke-width="0.5" x1="442.8571428571429" x2="565.3901198625592" y1="302.4732667575" y2="300.0" /><line fill="none" stroke="#E00000" stroke-dasharray="100,0" stroke-width="0.5" x1="-2856914.285714286" x2="228.57142857142858" y1="300.0" y2="300.0" /><line fill="none" stroke="#E00000" stroke-dasharray="100,0" stroke-width="0.5" x1="228.57142857142858" x2="442.8571428571429" y1="300.0" y2="300.0" /><line fill="none" stroke="#E00000" stroke-dasharray="100,0" stroke-width="0.5" x1="442.8571428571429" x2="565.3901198625592" y1="300.0" y2="300.0" /><line fill="none" stroke="#E00000" stroke-dasharray="1,1" stroke-width="0.5" x1="442.8571428571429" x2="565.3901198625592" y1="300.0" y2="300.0" /><line fill="none" stroke="#E00000" stroke-dasharray="100,0" stroke-width="0.5" x1="-2856914.285714286" x2="228.57142857142858" y1="300.0" y2="290.1099" /><line fill="none" stroke="#E00000" stroke-dasharray="100,0" stroke-width="0.5" x1="228.57142857142858" x2="442.8571428571429" y1="290.1099" y2="297.5267332425" /><line fill="none" stroke="#E00000" stroke-dasharray="100,0" stroke-width="0.5" x1="442.8571428571429" x2="565.3901198625592" y1="297.5267332425" y2="300.0" /><line fill="none" stroke="#E00000" stroke-dasharray="1,1" stroke-width="0.5" x1="442.8571428571429" x2="565.3901198625592" y1="297.5267332425" y2="300.0" /><line fill="none" stroke="#E00000" stroke-dasharray="100,0" stroke-width="0.5" x1="-2856914.285714286" x2="228.57142857142858" y1="300.0" y2="280.2198" /><line fill="none" stroke="#E00000" stroke-dasharray="100,0" stroke-width="0.5" x1="228.57142857142858" x2="442.8571428571429" y1="280.2198" y2="295.053466485" /><line fill="none" stroke="#E00000" stroke-dasharray="100,0" stroke-width="0.5" x1="442.8571428571429" x2="565.3901198625592" y1="295.053466485" y2="300.0" /><line fill="none" stroke="#E00000" stroke-dasharray="1,1" stroke-width="0.5" x1="442.8571428571429" x2="565.3901198625592" y1="295.053466485" y2="300.0" /><line fill="none" stroke="#E00000" stroke-dasharray="100,0" stroke-width="0.5" x1="-2856914.285714286" x2="228.57142857142858" y1="300.0" y2="270.3297" /><line fill="none" stroke="#E00000" stroke-dasharray="100,0" stroke-width="0.5" x1="228.57142857142858" x2="442.8571428571429" y1="270.3297" y2="292.58019972750003" /><line fill="none" stroke="#E00000" stroke-dasharray="100,0" stroke-width="0.5" x1="442.8571428571429" x2="565.3901198625592" y1="292.58019972750003" y2="300.0" /><line fill="none" stroke="#E00000" stroke-dasharray="1,1" stroke-width="0.5" x1="442.8571428571429" x2="565.3901198625592" y1="292.58019972750003" y2="300.0" /><line fill="none" stroke="#E00000" stroke-dasharray="100,0" stroke-width="0.5" x1="-2856914.285714286" x2="228.57142857142858" y1="300.0" y2="260.4396" /><line fill="none" stroke="#E00000" stroke-dasharray="100,0" stroke-width="0.5" x1="228.57142857142858" x2="442.8571428571429" y1="260.4396" y2="290.10693297" /><line fill="none" stroke="#E00000" stroke-dasharray="100,0" stroke-width="0.5" x1="442.8571428571429" x2="565.3901198625592" y1="290.10693297" y2="300.0" /><line fill="none" stroke="#E00000" stroke-dasharray="1,1" stroke-width="0.5" x1="442.8571428571429" x2="565.3901198625592" y1="290.10693297" y2="300.0" /></g><g inkscape:groupmode="layer" inkscape:label="rayGroup2"><line fill="none" stroke="#29ab93" stroke-dasharray="100,0" stroke-width="0.5" x1="-2856914.285714286" x2="228.57142857142858" y1="273.0" y2="339.5604" /><line fill="none" stroke="#29ab93" stroke-dasharray="100,0" stroke-width="0.5" x1="228.57142857142858" x2="442.8571428571429" y1="339.5604" y2="309.89509203" /><line fill="none" stroke="#29ab93" stroke-dasharray="100,0" stroke-width="0.5" x1="442.8571428571429" x2="565.3901198625592" y1="309.89509203" y2="300.0046303574236" /><line fill="none" stroke="#29ab93" stroke-dasharray="1,1" stroke-width="0.5" x1="442.8571428571429" x2="565.3901198625592" y1="309.89509203" y2="300.0046303574236" /><line fill="none" stroke="#29ab93" stroke-dasharray="100,0" stroke-width="0.5" x1="-2856914.285714286" x2="228.57142857142858" y1="273.0" y2="329.6703" /><line fill="none" stroke="#29ab93" stroke-dasharray="100,0" stroke-width="0.5" x1="228.57142857142858" x2="442.8571428571429" y1="329.6703" y2="307.4218252725" /><line fill="none" stroke="#29ab93" stroke-dasharray="100,0" stroke-width="0.5" x1="442.8571428571429" x2="565.3901198625592" y1="307.4218252725" y2="300.0046303574236" /><line fill="none" stroke="#29ab93" stroke-dasharray="1,1" stroke-width="0.5" x1="442.8571428571429" x2="565.3901198625592" y1="307.4218252725" y2="300.0046303574236" /><line fill="none" stroke="#29ab93" stroke-dasharray="100,0" stroke-width="0.5" x1="-2856914.285714286" x2="228.57142857142858" y1="273.0" y2="319.7802" /><line fill="none" stroke="#29ab93" stroke-dasharray="100,0" stroke-width="0.5" x1="228.57142857142858" x2="442.8571428571429" y1="319.7802" y2="304.948558515" /><line fill="none" stroke="#29ab93" stroke-dasharray="100,0" stroke-width="0.5" x1="442.8571428571429" x2="565.3901198625592" y1="304.948558515" y2="300.0046303574236" /><line fill="none" stroke="#29ab93" stroke-dasharray="1,1" stroke-width="0.5" x1="442.8571428571429" x2="565.3901198625592" y1="304.948558515" y2="300.0046303574236" /><line fill="none" stroke="#29ab93" stroke-dasharray="100,0" stroke-width="0.5" x1="-2856914.285714286" x2="228.57142857142858" y1="273.0" y2="309.8901" /><line fill="none" stroke="#29ab93" stroke-dasharray="100,0" stroke-width="0.5" x1="228.57142857142858" x2="442.8571428571429" y1="309.8901" y2="302.4752917575" /><line fill="none" stroke="#29ab93" stroke-dasharray="100,0" stroke-width="0.5" x1="442.8571428571429" x2="565.3901198625592" y1="302.4752917575" y2="300.0046303574236" /><line fill="none" stroke="#29ab93" stroke-dasharray="1,1" stroke-width="0.5" x1="442.8571428571429" x2="565.3901198625592" y1="302.4752917575" y2="300.0046303574236" /><line fill="none" stroke="#29ab93" stroke-dasharray="100,0" stroke-width="0.5" x1="-2856914.285714286" x2="228.57142857142858" y1="273.0" y2="300.0" /><line fill="none" stroke="#29ab93" stroke-dasharray="100,0" stroke-width="0.5" x1="228.57142857142858" x2="442.8571428571429" y1="300.0" y2="300.002025" /><line fill="none" stroke="#29ab93" stroke-dasharray="100,0" stroke-width="0.5" x1="442.8571428571429" x2="565.3901198625592" y1="300.002025" y2="300.0046303574236" /><line fill="none" stroke="#29ab93" stroke-dasharray="1,1" stroke-width="0.5" x1="442.8571428571429" x2="565.3901198625592" y1="300.002025" y2="300.0046303574236" /><line fill="none" stroke="#29ab93" stroke-dasharray="100,0" stroke-width="0.5" x1="-2856914.285714286" x2="228.57142857142858" y1="273.0" y2="290.1099" /><line fill="none" stroke="#29ab93" stroke-dasharray="100,0" stroke-width="0.5" x1="228.57142857142858" x2="442.8571428571429" y1="290.1099" y2="297.5287582425" /><line fill="none" stroke="#29ab93" stroke-dasharray="100,0" stroke-width="0.5" x1="442.8571428571429" x2="565.3901198625592" y1="297.5287582425" y2="300.0046303574236" /><line fill="none" stroke="#29ab93" stroke-dasharray="1,1" stroke-width="0.5" x1="442.8571428571429" x2="565.3901198625592" y1="297.5287582425" y2="300.0046303574236" /><line fill="none" stroke="#29ab93" stroke-dasharray="100,0" stroke-width="0.5" x1="-2856914.285714286" x2="228.57142857142858" y1="273.0" y2="280.2198" /><line fill="none" stroke="#29ab93" stroke-dasharray="100,0" stroke-width="0.5" x1="228.57142857142858" x2="442.8571428571429" y1="280.2198" y2="295.055491485" /><line fill="none" stroke="#29ab93" stroke-dasharray="100,0" stroke-width="0.5" x1="442.8571428571429" x2="565.3901198625592" y1="295.055491485" y2="300.0046303574236" /><line fill="none" stroke="#29ab93" stroke-dasharray="1,1" stroke-width="0.5" x1="442.8571428571429" x2="565.3901198625592" y1="295.055491485" y2="300.0046303574236" /><line fill="none" stroke="#29ab93" stroke-dasharray="100,0" stroke-width="0.5" x1="-2856914.285714286" x2="228.57142857142858" y1="273.0" y2="270.3297" /><line fill="none" stroke="#29ab93" stroke-dasharray="100,0" stroke-width="0.5" x1="228.57142857142858" x2="442.8571428571429" y1="270.3297" y2="292.5822247275" /><line fill="none" stroke="#29ab93" stroke-dasharray="100,0" stroke-width="0.5" x1="442.8571428571429" x2="565.3901198625592" y1="292.5822247275" y2="300.0046303574236" /><line fill="none" stroke="#29ab93" stroke-dasharray="1,1" stroke-width="0.5" x1="442.8571428571429" x2="565.3901198625592" y1="292.5822247275" y2="300.0046303574236" /><line fill="none" stroke="#29ab93" stroke-dasharray="100,0" stroke-width="0.5" x1="-2856914.285714286" x2="228.57142857142858" y1="273.0" y2="260.4396" /><line fill="none" stroke="#29ab93" stroke-dasharray="100,0" stroke-width="0.5" x1="228.57142857142858" x2="442.8571428571429" y1="260.4396" y2="290.10895797" /><line fill="none" stroke="#29ab93" stroke-dasharray="100,0" stroke-width="0.5" x1="442.8571428571429" x2="565.3901198625592" y1="290.10895797" y2="300.0046303574236" /><line fill="none" stroke="#29ab93" stroke-dasharray="1,1" stroke-width="0.5" x1="442.8571428571429" x2="565.3901198625592" y1="290.10895797" y2="300.0046303574236" /><line fill="none" stroke="#29ab93" stroke-dasharray="100,0" stroke-width="0.5" x1="-2856914.285714286" x2="228.57142857142858" y1="327.0" y2="339.5604" /><line fill="none" stroke="#29ab93" stroke-dasharray="100,0" stroke-width="0.5" x1="228.57142857142858" x2="442.8571428571429" y1="339.5604" y2="309.89104203" /><line fill="none" stroke="#29ab93" stroke-dasharray="100,0" stroke-width="0.5" x1="442.8571428571429" x2="565.3901198625592" y1="309.89104203" y2="299.9953696425764" /><line fill="none" stroke="#29ab93" stroke-dasharray="1,1" stroke-width="0.5" x1="442.8571428571429" x2="565.3901198625592" y1="309.89104203" y2="299.9953696425764" /><line fill="none" stroke="#29ab93" stroke-dasharray="100,0" stroke-width="0.5" x1="-2856914.285714286" x2="228.57142857142858" y1="327.0" y2="329.6703" /><line fill="none" stroke="#29ab93" stroke-dasharray="100,0" stroke-width="0.5" x1="228.57142857142858" x2="442.8571428571429" y1="329.6703" y2="307.4177752725" /><line fill="none" stroke="#29ab93" stroke-dasharray="100,0" stroke-width="0.5" x1="442.8571428571429" x2="565.3901198625592" y1="307.4177752725" y2="299.9953696425764" /><line fill="none" stroke="#29ab93" stroke-dasharray="1,1" stroke-width="0.5" x1="442.8571428571429" x2="565.3901198625592" y1="307.4177752725" y2="299.9953696425764" /><line fill="none" stroke="#29ab93" stroke-dasharray="100,0" stroke-width="0.5" x1="-2856914.285714286" x2="228.57142857142858" y1="327.0" y2="319.7802" /><line fill="none" stroke="#29ab93" stroke-dasharray="100,0" stroke-width="0.5" x1="228.57142857142858" x2="442.8571428571429" y1="319.7802" y2="304.944508515" /><line fill="none" stroke="#29ab93" stroke-dasharray="100,0" stroke-width="0.5" x1="442.8571428571429" x2="565.3901198625592" y1="304.944508515" y2="299.9953696425764" /><line fill="none" stroke="#29ab93" stroke-dasharray="1,1" stroke-width="0.5" x1="442.8571428571429" x2="565.3901198625592" y1="304.944508515" y2="299.9953696425764" /><line fill="none" stroke="#29ab93" stroke-dasharray="100,0" stroke-width="0.5" x1="-2856914.285714286" x2="228.57142857142858" y1="327.0" y2="309.8901" /><line fill="none" stroke="#29ab93" stroke-dasharray="100,0" stroke-width="0.5" x1="228.57142857142858" x2="442.8571428571429" y1="309.8901" y2="302.4712417575" /><line fill="none" stroke="#29ab93" stroke-dasharray="100,0" stroke-width="0.5" x1="442.8571428571429" x2="565.3901198625592" y1="302.4712417575" y2="299.9953696425764" /><line fill="none" stroke="#29ab93" stroke-dasharray="1,1" stroke-width="0.5" x1="442.8571428571429" x2="565.3901198625592" y1="302.4712417575" y2="299.9953696425764" /><line fill="none" stroke="#29ab93" stroke-dasharray="100,0" stroke-width="0.5" x1="-2856914.285714286" x2="228.57142857142858" y1="327.0" y2="300.0" /><line fill="none" stroke="#29ab93" stroke-dasharray="100,0" stroke-width="0.5" x1="228.57142857142858" x2="442.8571428571429" y1="300.0" y2="299.997975" /><line fill="none" stroke="#29ab93" stroke-dasharray="100,0" stroke-width="0.5" x1="442.8571428571429" x2="565.3901198625592" y1="299.997975" y2="299.9953696425764" /><line fill="none" stroke="#29ab93" stroke-dasharray="1,1" stroke-width="0.5" x1="442.8571428571429" x2="565.3901198625592" y1="299.997975" y2="299.9953696425764" /><line fill="none" stroke="#29ab93" stroke-dasharray="100,0" stroke-width="0.5" x1="-2856914.285714286" x2="228.57142857142858" y1="327.0" y2="290.1099" /><line fill="none" stroke="#29ab93" stroke-dasharray="100,0" stroke-width="0.5" x1="228.57142857142858" x2="442.8571428571429" y1="290.1099" y2="297.5247082425" /><line fill="none" stroke="#29ab93" stroke-dasharray="100,0" stroke-width="0.5" x1="442.8571428571429" x2="565.3901198625592" y1="297.5247082425" y2="299.9953696425764" /><line fill="none" stroke="#29ab93" stroke-dasharray="1,1" stroke-width="0.5" x1="442.8571428571429" x2="565.3901198625592" y1="297.5247082425" y2="299.9953696425764" /><line fill="none" stroke="#29ab93" stroke-dasharray="100,0" stroke-width="0.5" x1="-2856914.285714286" x2="228.57142857142858" y1="327.0" y2="280.2198" /><line fill="none" stroke="#29ab93" stroke-dasharray="100,0" stroke-width="0.5" x1="228.57142857142858" x2="442.8571428571429" y1="280.2198" y2="295.051441485" /><line fill="none" stroke="#29ab93" stroke-dasharray="100,0" stroke-width="0.5" x1="442.8571428571429" x2="565.3901198625592" y1="295.051441485" y2="299.9953696425764" /><line fill="none" stroke="#29ab93" stroke-dasharray="1,1" stroke-width="0.5" x1="442.8571428571429" x2="565.3901198625592" y1="295.051441485" y2="299.9953696425764" /><line fill="none" stroke="#29ab93" stroke-dasharray="100,0" stroke-width="0.5" x1="-2856914.285714286" x2="228.57142857142858" y1="327.0" y2="270.3297" /><line fill="none" stroke="#29ab93" stroke-dasharray="100,0" stroke-width="0.5" x1="228.57142857142858" x2="442.8571428571429" y1="270.3297" y2="292.5781747275" /><line fill="none" stroke="#29ab93" stroke-dasharray="100,0" stroke-width="0.5" x1="442.8571428571429" x2="565.3901198625592" y1="292.5781747275" y2="299.9953696425764" /><line fill="none" stroke="#29ab93" stroke-dasharray="1,1" stroke-width="0.5" x1="442.8571428571429" x2="565.3901198625592" y1="292.5781747275" y2="299.9953696425764" /><line fill="none" stroke="#29ab93" stroke-dasharray="100,0" stroke-width="0.5" x1="-2856914.285714286" x2="228.57142857142858" y1="327.0" y2="260.4396" /><line fill="none" stroke="#29ab93" stroke-dasharray="100,0" stroke-width="0.5" x1="228.57142857142858" x2="442.8571428571429" y1="260.4396" y2="290.10490797" /><line fill="none" stroke="#29ab93" stroke-dasharray="100,0" stroke-width="0.5" x1="442.8571428571429" x2="565.3901198625592" y1="290.10490797" y2="299.9953696425764" /><line fill="none" stroke="#29ab93" stroke-dasharray="1,1" stroke-width="0.5" x1="442.8571428571429" x2="565.3901198625592" y1="290.10490797" y2="299.9953696425764" /></g></svg>