<?xml version="1.0" encoding="utf-8" ?>
<svg baseProfile="full" height="600" version="1.1" width="800" xmlns="http://www.w3.org/2000/svg" xmlns:ev="http://www.w3.org/2001/xml-events" xmlns:inkscape="http://www.inkscape.org/namespaces/inkscape" xmlns:sodipodi="http://sodipodi.sourceforge.net/DTD/sodipodi-0.dtd" xmlns:xlink="http://www.w3.org/1999/xlink"><defs /><g inkscape:groupmode="layer" inkscape:label="axis"><line fill="none" stroke="#040404" stroke-dasharray="10,4" stroke-width="2.0" x1="0" x2="800" y1="300.0" y2="300.0" /></g><g inkscape:groupmode="layer" inkscape:label="optics"><path d="M 228.57142857142858,300.0 m -5.0,-90.0 a 3899.9999999999995,3899.9999999999995 0 0 0    0,180.0 h   10 a 3899.9999999999995,3899.9999999999995 0 0 0    0,-180.0 z" fill="#CCCCCC" id="lens1" stroke="#000000" stroke-dasharray="100,0" stroke-width="1.0" /><path d="M 514.2857142857143,300.0 m -5.474745914257255,-72.0 a 5459.999999999999,5459.999999999999 0 0 1    0,144.0 h 10.94949182851451 a 5459.999999999999,5459.999999999999 0 0 1    0,-144.0 z" fill="#CCCCCC" id="lens2" stroke="#000000" stroke-dasharray="100,0" stroke-width="1.0" /></g><g inkscape:groupmode="layer" inkscape:label="stops"><path d="M 228.57142857142858,300.0 m -5.0,90.0 h   10 m    0,-180.0 h  -10 m  5.0,   0 v -90.0 m    0,270.0 v 90.0 " fill="none" id="lens1" stroke="#FF0000" stroke-dasharray="100,0" stroke-width="2" /><path d="M 514.2857142857143,300.0 m -5.0,72.0 h   10 m    0,-144.0 h  -10 m  5.0,   0 v -108.0 m    0,252.0 v 108.0 " fill="none" id="lens2" stroke="#00FF00" stroke-dasharray="100,0" stroke-width="2" /></g><g inkscape:groupmode="layer" inkscape:label="pupils"><path d="M 228.57142857142858,300.0 m -5.0,90.0 h   10 m    0,-180.0 h  -10 m  5.0,   0 v -90.0 m    0,270.0 v 90.0 " fill="none" id="__entrance_pupil__" stroke="#FF2020" stroke-dasharray="100,0" stroke-width="1.5" /><path d="M 320.7373271889401,300.0 m -5.0,60.96774193548388 h   10 m    0,-121.93548387096776 h  -10 m  5.0,   0 v -119.03225806451613 m    0,240.9677419354839 v 119.03225806451613 " fill="none" id="__exit_pupil__" stroke="#FF1010" stroke-dasharray="100,0" stroke-width="1.5" /></g><g inkscape:groupmode="layer" inkscape:label="windows"><path d="M 1085.714285714286,300.0 m -5.0,216.00000000000003 h   10 m    0,-432.00000000000006 h  -10 m  5.0,   0 v   -5 m    0,437.00000000000006 v    5 " fill="none" id="__entrance_window__" stroke="#20FF20" stroke-dasharray="100,0" stroke-width="1.5" /><path d="M 514.2857142857143,300.0 m -5.0,72.0 h   10 m    0,-144.0 h  -10 m  5.0,   0 v -108.0 m    0,252.0 v 108.0 " fill="none" id="__exit_window__" stroke="#10FF10" stroke-dasharray="100,0" stroke-width="1.5" /></g><g inkscape:groupmode="layer" inkscape:label="objects"><path d="M -2857142628.5714283,300.0 m    0,18.0 v -36.0 l   -3, 7.0 l    6,   0 l   -3,-7.0 " fill="#000000" stroke="#000000" stroke-dasharray="100,0" stroke-width="1.0" /></g><g inkscape:groupmode="layer" inkscape:label="images"><path d="M 701.7858250279339,300.0 m    0,-3.543751029622122e-06 v 7.087502059244244e-06 l   -3,-7.0 l    6,   0 l   -3, 7.0 " fill="#020202" stroke="#020202" stroke-dasharray="100,0" stroke-width="1.0" /></g><g inkscape:groupmode="layer" inkscape:label="rayGroup1"><line fill="none" stroke="#E00000" stroke-dasharray="100,0" stroke-width="0.5" x1="-2857142628.5714283" x2="228.57142857142858" y1="300.0" y2="389.91" /><line fill="none" stroke="#E00000" stroke-dasharray="100,0" stroke-width="0.5" x1="228.57142857142858" x2="514.2857142857143" y1="389.91" y2="329.970008991" /><line fill="none" stroke="#E00000" stroke-dasharray="100,0" stroke-width="0.5" x1="514.2857142857143" x2="701.7858250279339" y1="329.970008991" y2="300.0" /><line fill="none" stroke="#E00000" stroke-dasharray="1,1" stroke-width="0.5" x1="514.2857142857143" x2="701.7858250279339" y1="329.970008991" y2="300.0" /><line fill="none" stroke="#E00000" stroke-dasharray="100,0" stroke-width="0.5" x1="-2857142628.5714283" x2="228.57142857142858" y1="300.0" y2="367.4325" /><line fill="none" stroke="#E00000" stroke-dasharray="100,0" stroke-width="0.5" x1="228.57142857142858" x2="514.2857142857143" y1="367.4325" y2="322.47750674325" /><line fill="none" stroke="#E00000" stroke-dasharray="100,0" stroke-width="0.5" x1="514.2857142857143" x2="701.7858250279339" y1="322.47750674325" y2="300.0" /><line fill="none" stroke="#E00000" stroke-dasharray="1,1" stroke-width="0.5" x1="514.2857142857143" x2="701.7858250279339" y1="322.47750674325" y2="300.0" /><line fill="none" stroke="#E00000" stroke-dasharray="100,0" stroke-width="0.5" x1="-2857142628.5714283" x2="228.57142857142858" y1="300.0" y2="344.955" /><line fill="none" stroke="#E00000" stroke-dasharray="100,0" stroke-width="0.5" x1="228.57142857142858" x2="514.2857142857143" y1="344.955" y2="314.9850044955" /><line fill="none" stroke="#E00000" stroke-dasharray="100,0" stroke-width="0.5" x1="514.2857142857143" x2="701.7858250279339" y1="314.9850044955" y2="300.0" /><line fill="none" stroke="#E00000" stroke-dasharray="1,1" stroke-width="0.5" x1="514.2857142857143" x2="701.7858250279339" y1="314.9850044955" y2="300.0" /><line fill="none" stroke="#E00000" stroke-dasharray="100,0" stroke-width="0.5" x1="-2857142628.5714283" x2="228.57142857142858" y1="300.0" y2="322.4775" /><line fill="none" stroke="#E00000" stroke-dasharray="100,0" stroke-width="0.5" x1="228.57142857142858" x2="514.2857142857143" y1="322.4775" y2="307.49250224775" /><line fill="none" stroke="#E00000" stroke-dasharray="100,0" stroke-width="0.5" x1="514.2857142857143" x2="701.7858250279339" y1="307.49250224775" y2="300.0" /><line fill="none" stroke="#E00000" stroke-dasharray="1,1" stroke-width="0.5" x1="514.2857142857143" x2="701.7858250279339" y1="307.49250224775" y2="300.0" /><line fill="none" stroke="#E00000" stroke-dasharray="100,0" stroke-width="0.5" x1="-2857142628.5714283" x2="228.57142857142858" y1="300.0" y2="300.0" /><line fill="none" stroke="#E00000" stroke-dasharray="100,0" stroke-width="0.5" x1="228.57142857142858" x2="514.2857142857143" y1="300.0" y2="300.0" /><line fill="none" stroke="#E00000" stroke-dasharray="100,0" stroke-width="0.5" x1="514.2857142857143" x2="701.7858250279339" y1="300.0" y2="300.0" /><line fill="none" stroke="#E00000" stroke-dasharray="1,1" stroke-width="0.5" x1="514.2857142857143" x2="701.7858250279339" y1="300.0" y2="300.0" /><line fill="none" stroke="#E00000" stroke-dasharray="100,0" stroke-width="0.5" x1="-2857142628.5714283" x2="228.57142857142858" y1="300.0" y2="277.5225" /><line fill="none" stroke="#E00000" stroke-dasharray="100,0" stroke-width="0.5" x1="228.57142857142858" x2="514.2857142857143" y1="277.5225" y2="292.50749775225" /><line fill="none" stroke="#E00000" stroke-dasharray="100,0" stroke-width="0.5" x1="514.2857142857143" x2="701.7858250279339" y1="292.50749775225" y2="300.0" /><line fill="none" stroke="#E00000" stroke-dasharray="1,1" stroke-width="0.5" x1="514.2857142857143" x2="701.7858250279339" y1="292.50749775225" y2="300.0" /><line fill="none" stroke="#E00000" stroke-dasharray="100,0" stroke-width="0.5" x1="-2857142628.5714283" x2="228.57142857142858" y1="300.0" y2="255.045" /><line fill="none" stroke="#E00000" stroke-dasharray="100,0" stroke-width="0.5" x1="228.57142857142858" x2="514.2857142857143" y1="255.045" y2="285.0149955045" /><line fill="none" stroke="#E00000" stroke-dasharray="100,0" stroke-width="0.5" x1="514.2857142857143" x2="701.7858250279339" y1="285.0149955045" y2="300.0" /><line fill="none" stroke="#E00000" stroke-dasharray="1,1" stroke-width="0.5" x1="514.2857142857143" x2="701.7858250279339" y1="285.0149955045" y2="300.0" /><line fill="none" stroke="#E00000" stroke-dasharray="100,0" stroke-width="0.5" x1="-2857142628.5714283" x2="228.57142857142858" y1="300.0" y2="232.5675" /><line fill="none" stroke="#E00000" stroke-dasharray="100,0" stroke-width="0.5" x1="228.57142857142858" x2="514.2857142857143" y1="232.5675" y2="277.52249325675" /><line fill="none" stroke="#E00000" stroke-dasharray="100,0" stroke-width="0.5" x1="514.2857142857143" x2="701.7858250279339" y1="277.52249325675" y2="300.0" /><line fill="none" stroke="#E00000" stroke-dasharray="1,1" stroke-width="0.5" x1="514.2857142857143" x2="701.7858250279339" y1="277.52249325675" y2="300.0" /><line fill="none" stroke="#E00000" stroke-dasharray="100,0" stroke-width="0.5" x1="-2857142628.5714283" x2="228.57142857142858" y1="300.0" y2="210.08999999999997" /><line fill="none" stroke="#E00000" stroke-dasharray="100,0" stroke-width="0.5" x1="228.57142857142858" x2="514.2857142857143" y1="210.08999999999997" y2="270.029991009" /><line fill="none" stroke="#E00000" stroke-dasharray="100,0" stroke-width="0.5" x1="514.2857142857143" x2="701.7858250279339" y1="270.029991009" y2="300.0" /><line fill="none" stroke="#E00000" stroke-dasharray="1,1" stroke-width="0.5" x1="514.2857142857143" x2="701.7858250279339" y1="270.029991009" y2="300.0" /></g><g inkscape:groupmode="layer" inkscape:label="rayGroup2"><line fill="none" stroke="#29ab93" stroke-dasharray="100,0" stroke-width="0.5" x1="-2857142628.5714283" x2="228.57142857142858" y1="282.0" y2="389.91" /><line fill="none" stroke="#29ab93" stroke-dasharray="100,0" stroke-width="0.5" x1="228.57142857142858" x2="514.2857142857143" y1="389.91" y2="329.970010791" /><line fill="none" stroke="#29ab93" stroke-dasharray="100,0" stroke-width="0.5" x1="514.2857142857143" x2="701.7858250279339" y1="329.970010791" y2="300.000003543751" /><line fill="none" stroke="#29ab93" stroke-dasharray="1,1" stroke-width="0.5" x1="514.2857142857143" x2="701.7858250279339" y1="329.970010791" y2="300.000003543751" /><line fill="none" stroke="#29ab93" stroke-dasharray="100,0" stroke-width="0.5" x1="-2857142628.5714283" x2="228.57142857142858" y1="282.0" y2="367.4325" /><line fill="none" stroke="#29ab93" stroke-dasharray="100,0" stroke-width="0.5" x1="228.57142857142858" x2="514.2857142857143" y1="367.4325" y2="322.47750854325" /><line fill="none" stroke="#29ab93" stroke-dasharray="100,0" stroke-width="0.5" x1="514.2857142857143" x2="701.7858250279339" y1="322.47750854325" y2="300.000003543751" /><line fill="none" stroke="#29ab93" stroke-dasharray="1,1" stroke-width="0.5" x1="514.2857142857143" x2="701.7858250279339" y1="322.47750854325" y2="300.000003543751" /><line fill="none" stroke="#29ab93" stroke-dasharray="100,0" stroke-width="0.5" x1="-2857142628.5714283" x2="228.57142857142858" y1="282.0" y2="344.95500000000004" /><line fill="none" stroke="#29ab93" stroke-dasharray="100,0" stroke-width="0.5" x1="228.57142857142858" x2="514.2857142857143" y1="344.95500000000004" y2="314.9850062955" /><line fill="none" stroke="#29ab93" stroke-dasharray="100,0" stroke-width="0.5" x1="514.2857142857143" x2="701.7858250279339" y1="314.9850062955" y2="300.000003543751" /><line fill="none" stroke="#29ab93" stroke-dasharray="1,1" stroke-width="0.5" x1="514.2857142857143" x2="701.7858250279339" y1="314.9850062955" y2="300.000003543751" /><line fill="none" stroke="#29ab93" stroke-dasharray="100,0" stroke-width="0.5" x1="-2857142628.5714283" x2="228.57142857142858" y1="282.0" y2="322.4775" /><line fill="none" stroke="#29ab93" stroke-dasharray="100,0" stroke-width="0.5" x1="228.57142857142858" x2="514.2857142857143" y1="322.4775" y2="307.49250404775" /><line fill="none" stroke="#29ab93" stroke-dasharray="100,0" stroke-width="0.5" x1="514.2857142857143" x2="701.7858250279339" y1="307.49250404775" y2="300.000003543751" /><line fill="none" stroke="#29ab93" stroke-dasharray="1,1" stroke-width="0.5" x1="514.2857142857143" x2="701.7858250279339" y1="307.49250404775" y2="300.000003543751" /><line fill="none" stroke="#29ab93" stroke-dasharray="100,0" stroke-width="0.5" x1="-2857142628.5714283" x2="228.57142857142858" y1="282.0" y2="300.0" /><line fill="none" stroke="#29ab93" stroke-dasharray="100,0" stroke-width="0.5" x1="228.57142857142858" x2="514.2857142857143" y1="300.0" y2="300.0000018" /><line fill="none" stroke="#29ab93" stroke-dasharray="100,0" stroke-width="0.5" x1="514.2857142857143" x2="701.7858250279339" y1="300.0000018" y2="300.000003543751" /><line fill="none" stroke="#29ab93" stroke-dasharray="1,1" stroke-width="0.5" x1="514.2857142857143" x2="701.7858250279339" y1="300.0000018" y2="300.000003543751" /><line fill="none" stroke="#29ab93" stroke-dasharray="100,0" stroke-width="0.5" x1="-2857142628.5714283" x2="228.57142857142858" y1="282.0" y2="277.5225" /><line fill="none" stroke="#29ab93" stroke-dasharray="100,0" stroke-width="0.5" x1="228.57142857142858" x2="514.2857142857143" y1="277.5225" y2="292.50749955225" /><line fill="none" stroke="#29ab93" stroke-dasharray="100,0" stroke-width="0.5" x1="514.2857142857143" x2="701.7858250279339" y1="292.50749955225" y2="300.000003543751" /><line fill="none" stroke="#29ab93" stroke-dasharray="1,1" stroke-width="0.5" x1="514.2857142857143" x2="701.7858250279339" y1="292.50749955225" y2="300.000003543751" /><line fill="none" stroke="#29ab93" stroke-dasharray="100,0" stroke-width="0.5" x1="-2857142628.5714283" x2="228.57142857142858" y1="282.0" y2="255.045" /><line fill="none" stroke="#29ab93" stroke-dasharray="100,0" stroke-width="0.5" x1="228.57142857142858" x2="514.2857142857143" y1="255.045" y2="285.0149973045" /><line fill="none" stroke="#29ab93" stroke-dasharray="100,0" stroke-width="0.5" x1="514.2857142857143" x2="701.7858250279339" y1="285.0149973045" y2="300.000003543751" /><line fill="none" stroke="#29ab93" stroke-dasharray="1,1" stroke-width="0.5" x1="514.2857142857143" x2="701.7858250279339" y1="285.0149973045" y2="300.000003543751" /><line fill="none" stroke="#29ab93" stroke-dasharray="100,0" stroke-width="0.5" x1="-2857142628.5714283" x2="228.57142857142858" y1="282.0" y2="232.5675" /><line fill="none" stroke="#29ab93" stroke-dasharray="100,0" stroke-width="0.5" x1="228.57142857142858" x2="514.2857142857143" y1="232.5675" y2="277.52249505675" /><line fill="none" stroke="#29ab93" stroke-dasharray="100,0" stroke-width="0.5" x1="514.2857142857143" x2="701.7858250279339" y1="277.52249505675" y2="300.000003543751" /><line fill="none" stroke="#29ab93" stroke-dasharray="1,1" stroke-width="0.5" x1="514.2857142857143" x2="701.7858250279339" y1="277.52249505675" y2="300.000003543751" /><line fill="none" stroke="#29ab93" stroke-dasharray="100,0" stroke-width="0.5" x1="-2857142628.5714283" x2="228.57142857142858" y1="282.0" y2="210.09" /><line fill="none" stroke="#29ab93" stroke-dasharray="100,0" stroke-width="0.5" x1="228.57142857142858" x2="514.2857142857143" y1="210.09" y2="270.029992809" /><line fill="none" stroke="#29ab93" stroke-dasharray="100,0" stroke-width="0.5" x1="514.2857142857143" x2="701.7858250279339" y1="270.029992809" y2="300.00000354375106" /><line fill="none" stroke="#29ab93" stroke-dasharray="1,1" stroke-width="0.5" x1="514.2857142857143" x2="701.7858250279339" y1="270.029992809" y2="300.00000354375106" /><line fill="none" stroke="#29ab93" stroke-dasharray="100,0" stroke-width="0.5" x1="-2857142628.5714283" x2="228.57142857142858" y1="318.0" y2="389.90999999999997" /><line fill="none" stroke="#29ab93" stroke-dasharray="100,0" stroke-width="0.5" x1="228.57142857142858" x2="514.2857142857143" y1="389.90999999999997" y2="329.970007191" /><line fill="none" stroke="#29ab93" stroke-dasharray="100,0" stroke-width="0.5" x1="514.2857142857143" x2="701.7858250279339" y1="329.970007191" y2="299.99999645624894" /><line fill="none" stroke="#29ab93" stroke-dasharray="1,1" stroke-width="0.5" x1="514.2857142857143" x2="701.7858250279339" y1="329.970007191" y2="299.99999645624894" /><line fill="none" stroke="#29ab93" stroke-dasharray="100,0" stroke-width="0.5" x1="-2857142628.5714283" x2="228.57142857142858" y1="318.0" y2="367.4325" /><line fill="none" stroke="#29ab93" stroke-dasharray="100,0" stroke-width="0.5" x1="228.57142857142858" x2="514.2857142857143" y1="367.4325" y2="322.47750494325" /><line fill="none" stroke="#29ab93" stroke-dasharray="100,0" stroke-width="0.5" x1="514.2857142857143" x2="701.7858250279339" y1="322.47750494325" y2="299.999996456249" /><line fill="none" stroke="#29ab93" stroke-dasharray="1,1" stroke-width="0.5" x1="514.2857142857143" x2="701.7858250279339" y1="322.47750494325" y2="299.999996456249" /><line fill="none" stroke="#29ab93" stroke-dasharray="100,0" stroke-width="0.5" x1="-2857142628.5714283" x2="228.57142857142858" y1="318.0" y2="344.955" /><line fill="none" stroke="#29ab93" stroke-dasharray="100,0" stroke-width="0.5" x1="228.57142857142858" x2="514.2857142857143" y1="344.955" y2="314.9850026955" /><line fill="none" stroke="#29ab93" stroke-dasharray="100,0" stroke-width="0.5" x1="514.2857142857143" x2="701.7858250279339" y1="314.9850026955" y2="299.99999645624894" /><line fill="none" stroke="#29ab93" stroke-dasharray="1,1" stroke-width="0.5" x1="514.2857142857143" x2="701.7858250279339" y1="314.9850026955" y2="299.99999645624894" /><line fill="none" stroke="#29ab93" stroke-dasharray="100,0" stroke-width="0.5" x1="-2857142628.5714283" x2="228.57142857142858" y1="318.0" y2="322.47749999999996" /><line fill="none" stroke="#29ab93" stroke-dasharray="100,0" stroke-width="0.5" x1="228.57142857142858" x2="514.2857142857143" y1="322.47749999999996" y2="307.49250044775" /><line fill="none" stroke="#29ab93" stroke-dasharray="100,0" stroke-width="0.5" x1="514.2857142857143" x2="701.7858250279339" y1="307.49250044775" y2="299.999996456249" /><line fill="none" stroke="#29ab93" stroke-dasharray="1,1" stroke-width="0.5" x1="514.2857142857143" x2="701.7858250279339" y1="307.49250044775" y2="299.999996456249" /><line fill="none" stroke="#29ab93" stroke-dasharray="100,0" stroke-width="0.5" x1="-2857142628.5714283" x2="228.57142857142858" y1="318.0" y2="300.0" /><line fill="none" stroke="#29ab93" stroke-dasharray="100,0" stroke-width="0.5" x1="228.57142857142858" x2="514.2857142857143" y1="300.0" y2="299.9999982" /><line fill="none" stroke="#29ab93" stroke-dasharray="100,0" stroke-width="0.5" x1="514.2857142857143" x2="701.7858250279339" y1="299.9999982" y2="299.999996456249" /><line fill="none" stroke="#29ab93" stroke-dasharray="1,1" stroke-width="0.5" x1="514.2857142857143" x2="701.7858250279339" y1="299.9999982" y2="299.999996456249" /><line fill="none" stroke="#29ab93" stroke-dasharray="100,0" stroke-width="0.5" x1="-2857142628.5714283" x2="228.57142857142858" y1="318.0" y2="277.5225" /><line fill="none" stroke="#29ab93" stroke-dasharray="100,0" stroke-width="0.5" x1="228.57142857142858" x2="514.2857142857143" y1="277.5225" y2="292.50749595225" /><line fill="none" stroke="#29ab93" stroke-dasharray="100,0" stroke-width="0.5" x1="514.2857142857143" x2="701.7858250279339" y1="292.50749595225" y2="299.999996456249" /><line fill="none" stroke="#29ab93" stroke-dasharray="1,1" stroke-width="0.5" x1="514.2857142857143" x2="701.7858250279339" y1="292.50749595225" y2="299.999996456249" /><line fill="none" stroke="#29ab93" stroke-dasharray="100,0" stroke-width="0.5" x1="-2857142628.5714283" x2="228.57142857142858" y1="318.0" y2="255.045" /><line fill="none" stroke="#29ab93" stroke-dasharray="100,0" stroke-width="0.5" x1="228.57142857142858" x2="514.2857142857143" y1="255.045" y2="285.0149937045" /><line fill="none" stroke="#29ab93" stroke-dasharray="100,0" stroke-width="0.5" x1="514.2857142857143" x2="701.7858250279339" y1="285.0149937045" y2="299.999996456249" /><line fill="none" stroke="#29ab93" stroke-dasharray="1,1" stroke-width="0.5" x1="514.2857142857143" x2="701.7858250279339" y1="285.0149937045" y2="299.999996456249" /><line fill="none" stroke="#29ab93" stroke-dasharray="100,0" stroke-width="0.5" x1="-2857142628.5714283" x2="228.57142857142858" y1="318.0" y2="232.5675" /><line fill="none" stroke="#29ab93" stroke-dasharray="100,0" stroke-width="0.5" x1="228.57142857142858" x2="514.2857142857143" y1="232.5675" y2="277.52249145675" /><line fill="none" stroke="#29ab93" stroke-dasharray="100,0" stroke-width="0.5" x1="514.2857142857143" x2="701.7858250279339" y1="277.52249145675" y2="299.999996456249" /><line fill="none" stroke="#29ab93" stroke-dasharray="1,1" stroke-width="0.5" x1="514.2857142857143" x2="701.7858250279339" y1="277.52249145675" y2="299.999996456249" /><line fill="none" stroke="#29ab93" stroke-dasharray="100,0" stroke-width="0.5" x1="-2857142628.5714283" x2="228.57142857142858" y1="318.0" y2="210.08999999999997" /><line fill="none" stroke="#29ab93" stroke-dasharray="100,0" stroke-width="0.5" x1="228.57142857142858" x2="514.2857142857143" y1="210.08999999999997" y2="270.029989209" /><line fill="none" stroke="#29ab93" stroke-dasharray="100,0" stroke-width="0.5" x1="514.2857142857143" x2="701.7858250279339" y1="270.029989209" y2="299.999996456249" /><line fill="none" stroke="#29ab93" stroke-dasharray="1,1" stroke-width="0.5" x1="514.2857142857143" x2="701.7858250279339" y1="270.029989209" y2="299.999996456249" /></g></svg>