<?xml version="1.0" encoding="UTF-8" standalone="no"?>
<svg
   height="600"
   version="1.1"
   width="600"
   id="svg2534"
   sodipodi:docname="lens4single.svg"
   inkscape:export-filename="lens4norays.png"
   inkscape:export-xdpi="96"
   inkscape:export-ydpi="96"
   inkscape:version="1.2 (dc2aedaf03, 2022-05-15)"
   xmlns:inkscape="http://www.inkscape.org/namespaces/inkscape"
   xmlns:sodipodi="http://sodipodi.sourceforge.net/DTD/sodipodi-0.dtd"
   xmlns="http://www.w3.org/2000/svg"
   xmlns:svg="http://www.w3.org/2000/svg">
  <sodipodi:namedview
     id="namedview2536"
     pagecolor="#505050"
     bordercolor="#eeeeee"
     borderopacity="1"
     inkscape:showpageshadow="0"
     inkscape:pageopacity="0"
     inkscape:pagecheckerboard="0"
     inkscape:deskcolor="#505050"
     showgrid="false"
     inkscape:zoom="1.2783333"
     inkscape:cx="300.39114"
     inkscape:cy="300.39114"
     inkscape:window-width="1920"
     inkscape:window-height="1013"
     inkscape:window-x="-9"
     inkscape:window-y="-9"
     inkscape:window-maximized="1"
     inkscape:current-layer="g2532" />
  <defs
     id="defs2491" />
  <g
     inkscape:groupmode="layer"
     inkscape:label="axis"
     id="g2495">
    <line
       fill="none"
       stroke="#040404"
       stroke-dasharray="10, 4"
       stroke-width="2"
       x1="663.09644"
       x2="63.096432"
       y1="300"
       y2="300"
       id="line2493" />
  </g>
  <g
     inkscape:groupmode="layer"
     inkscape:label="optics"
     id="g2501">
    <path
       d="m 563.09643,300 m 8.5,-150 a 669.5,669.5 0 0 1 0,300 h -17 V 150 Z"
       fill="#cccccc"
       id="lens1"
       stroke="#000000"
       stroke-dasharray="100, 0"
       stroke-width="1" />
    <path
       d="m 513.09643,300 m 8.5,-120 a 399.1,399.1 0 0 1 0,240 h -17 V 180 Z"
       fill="#cccccc"
       id="lens2"
       stroke="#000000"
       stroke-dasharray="100, 0"
       stroke-width="1" />
    <path
       d="m 396.42976,300 m 8.5,-81 v 162 h -17 a 240.5,240.5 0 0 1 0,-162 z"
       fill="#cccccc"
       id="lens3"
       stroke="#000000"
       stroke-dasharray="100, 0"
       stroke-width="1" />
    <path
       d="m 279.7631,300 m 8.5,-165 v 330 h -17 a 431.6,431.6 0 0 1 0,-330 z"
       fill="#cccccc"
       id="lens4"
       stroke="#000000"
       stroke-dasharray="100, 0"
       stroke-width="1" />
  </g>
  <g
     inkscape:groupmode="layer"
     inkscape:label="stops"
     id="g2507"
     style="display:none">
    <path
       d="m 266.66667,300 m -8.5,81 h 17 m 0,-162 h -17 m 8.5,0 V 0 m 0,381 v 219"
       fill="none"
       id="path2503"
       stroke="#009900"
       stroke-dasharray="100, 0"
       stroke-width="1.5" />
    <path
       d="m 150,300 m -8.5,120 h 17 m 0,-240 h -17 m 8.5,0 V 0 m 0,420 v 180"
       fill="none"
       id="path2505"
       stroke="#990000"
       stroke-dasharray="100, 0"
       stroke-width="1.5" />
  </g>
  <g
     inkscape:groupmode="layer"
     inkscape:label="pupils"
     id="g2510"
     style="display:none">
    <path
       d="m -40.796081,300 m -8.5,103.99533 h 17 m 0,-207.99066 h -17 m 8.5,0 V 0 m 0,403.99533 V 600"
       fill="none"
       id="__entrance_pupil__"
       stroke="#007710"
       stroke-dasharray="100, 0"
       stroke-width="1.5" />
  </g>
  <g
     inkscape:groupmode="layer"
     inkscape:label="windows"
     id="g2514"
     style="display:none">
    <path
       d="m 170.54795,300 m -8.5,169.31507 h 17 m 0,-338.63014 h -17 m 8.5,0 V 0 m 0,469.31507 V 600"
       fill="none"
       id="__entrance_window__"
       stroke="#770010"
       stroke-dasharray="100, 0"
       stroke-width="1.5" />
    <path
       d="m 395.87245,300 m -8.5,119.30074 h 17 m 0,-238.60148 h -17 m 8.5,0 V 0 m 0,419.30074 V 600"
       fill="none"
       id="__exit_window__"
       stroke="#500010"
       stroke-dasharray="100, 0"
       stroke-width="1.5" />
  </g>
  <g
     inkscape:groupmode="layer"
     inkscape:label="objects"
     id="g2516"
     style="display:none" />
  <g
     inkscape:groupmode="layer"
     inkscape:label="images"
     id="g2520"
     style="display:none">
    <path
       d="m 495.89322,300 m 0,-1277.57134 V 1577.5713 l -3,-7 h 6 l -3,7"
       fill="#020202"
       stroke="#020202"
       stroke-dasharray="100, 0"
       stroke-width="1"
       id="path2518" />
  </g>
  <g
     inkscape:groupmode="layer"
     inkscape:label="rayGroup1"
     id="g2532"
     style="display:none">
    <line
       fill="none"
       stroke="#e00000"
       stroke-dasharray="100, 0"
       stroke-width="0.5"
       x1="647.76312"
       x2="563.09644"
       y1="253.14"
       y2="276"
       id="line2522" />
    <line
       fill="none"
       stroke="#e00000"
       stroke-dasharray="100, 0"
       stroke-width="0.5"
       x1="563.09644"
       x2="513.09644"
       y1="276"
       y2="296.4903"
       id="line2524" />
    <line
       fill="none"
       stroke="#e00000"
       stroke-dasharray="100, 0"
       stroke-width="0.5"
       x1="513.09644"
       x2="396.42978"
       y1="296.4903"
       y2="348.30228"
       id="line2526" />
    <line
       fill="none"
       stroke="#e00000"
       stroke-dasharray="100, 0"
       stroke-width="0.5"
       x1="396.42978"
       x2="279.76309"
       y1="348.30228"
       y2="308.73157"
       id="line2528" />
    <line
       fill="none"
       stroke="#e00000"
       stroke-dasharray="100, 0"
       stroke-width="0.5"
       x1="279.76309"
       x2="0.096430972"
       y1="308.73157"
       y2="191.80934"
       id="line2530" />
  </g>
</svg>
