<?xml version="1.0" encoding="utf-8" ?>
<svg baseProfile="full" height="600" version="1.1" width="800" xmlns="http://www.w3.org/2000/svg" xmlns:ev="http://www.w3.org/2001/xml-events" xmlns:inkscape="http://www.inkscape.org/namespaces/inkscape" xmlns:sodipodi="http://sodipodi.sourceforge.net/DTD/sodipodi-0.dtd" xmlns:xlink="http://www.w3.org/1999/xlink"><defs /><g inkscape:groupmode="layer" inkscape:label="axis"><line fill="none" stroke="#040404" stroke-dasharray="10,4" stroke-width="2.0" x1="0" x2="800" y1="300.0" y2="300.0" /></g><g inkscape:groupmode="layer" inkscape:label="optics"><path d="M 350.0,300.0 m -10.0,-90.0 a 1169.9999999999998,1169.9999999999998 0 0 0    0,180.0 h   20 a 1169.9999999999998,1169.9999999999998 0 0 0    0,-180.0 z" fill="#CCCCCC" id="objective" stroke="#000000" stroke-dasharray="100,0" stroke-width="1.0" /><path d="M 590.0,300.0 m -12.474396409521205,-90.0 a 1637.9999999999995,1637.9999999999995 0 0 1    0,180.0 h 24.94879281904241 a 1637.9999999999995,1637.9999999999995 0 0 1    0,-180.0 z" fill="#CCCCCC" id="eyepiece" stroke="#000000" stroke-dasharray="100,0" stroke-width="1.0" /></g><g inkscape:groupmode="layer" inkscape:label="stops"><path d="M 350.0,300.0 m -10.0,90.0 h   20 m    0,-180.0 h  -20 m 10.0,   0 v -90.0 m    0,270.0 v 90.0 " fill="none" id="objective" stroke="#009900" stroke-dasharray="100,0" stroke-width="1.5" /><path d="M 590.0,300.0 m -10.0,90.0 h   20 m    0,-180.0 h  -20 m 10.0,   0 v -90.0 m    0,270.0 v 90.0 " fill="none" id="eyepiece" stroke="#990000" stroke-dasharray="100,0" stroke-width="1.5" /></g><g inkscape:groupmode="layer" inkscape:label="pupils"><path d="M 350.0,300.0 m -10.0,90.0 h   20 m    0,-180.0 h  -20 m 10.0,   0 v -90.0 m    0,270.0 v 90.0 " fill="none" id="__entrance_pupil__" stroke="#007710" stroke-dasharray="100,0" stroke-width="1.5" /><path d="M 478.0,300.0 m -10.0,42.0 h   20 m    0,-84.0 h  -20 m 10.0,   0 v -138.0 m    0,222.0 v 138.0 " fill="none" id="__exit_pupil__" stroke="#005010" stroke-dasharray="100,0" stroke-width="1.5" /></g><g inkscape:groupmode="layer" inkscape:label="windows"><path d="M -49.99999999999994,300.0 m -10.0,150.0 h   20 m    0,-300.0 h  -20 m 10.0,   0 v -30.0 m    0,330.0 v 30.0 " fill="none" id="__entrance_window__" stroke="#770010" stroke-dasharray="100,0" stroke-width="1.5" /><path d="M 590.0,300.0 m -10.0,90.0 h   20 m    0,-180.0 h  -20 m 10.0,   0 v -90.0 m    0,270.0 v 90.0 " fill="none" id="__exit_window__" stroke="#500010" stroke-dasharray="100,0" stroke-width="1.5" /></g><g inkscape:groupmode="layer" inkscape:label="objects"><path d="M 80.0,300.0 m    0,18.0 v -36.0 l   -3, 7.0 l    6,   0 l   -3,-7.0 " fill="#000000" stroke="#000000" stroke-dasharray="100,0" stroke-width="1.0" /></g><g inkscape:groupmode="layer" inkscape:label="images"><path d="M 772.0,300.0 m    0,-42.000000000000014 v 84.00000000000003 l   -3,-7.0 l    6,   0 l   -3, 7.0 " fill="#020202" stroke="#020202" stroke-dasharray="100,0" stroke-width="1.0" /></g><g inkscape:groupmode="layer" inkscape:label="rayGroup1"><line fill="none" stroke="#E00000" stroke-dasharray="100,0" stroke-width="0.5" x1="80.0" x2="350.0" y1="282.0" y2="389.90999999999997" /><line fill="none" stroke="#E00000" stroke-dasharray="100,0" stroke-width="0.5" x1="350.0" x2="590.0" y1="389.90999999999997" y2="341.974" /><line fill="none" stroke="#E00000" stroke-dasharray="100,0" stroke-width="0.5" x1="590.0" x2="872.0" y1="341.974" y2="342.0142857142857" /><line fill="none" stroke="#E00000" stroke-dasharray="1,1" stroke-width="0.5" x1="590.0" x2="772.0" y1="341.974" y2="341.99999999999994" /><line fill="none" stroke="#E00000" stroke-dasharray="100,0" stroke-width="0.5" x1="80.0" x2="350.0" y1="282.0" y2="378.67125" /><line fill="none" stroke="#E00000" stroke-dasharray="100,0" stroke-width="0.5" x1="350.0" x2="590.0" y1="378.67125" y2="338.72724999999997" /><line fill="none" stroke="#E00000" stroke-dasharray="100,0" stroke-width="0.5" x1="590.0" x2="872.0" y1="338.72724999999997" y2="343.79821428571427" /><line fill="none" stroke="#E00000" stroke-dasharray="1,1" stroke-width="0.5" x1="590.0" x2="772.0" y1="338.72724999999997" y2="342.0" /><line fill="none" stroke="#E00000" stroke-dasharray="100,0" stroke-width="0.5" x1="80.0" x2="350.0" y1="282.0" y2="367.4325" /><line fill="none" stroke="#E00000" stroke-dasharray="100,0" stroke-width="0.5" x1="350.0" x2="590.0" y1="367.4325" y2="335.4805" /><line fill="none" stroke="#E00000" stroke-dasharray="100,0" stroke-width="0.5" x1="590.0" x2="872.0" y1="335.4805" y2="345.5821428571428" /><line fill="none" stroke="#E00000" stroke-dasharray="1,1" stroke-width="0.5" x1="590.0" x2="772.0" y1="335.4805" y2="342.0" /><line fill="none" stroke="#E00000" stroke-dasharray="100,0" stroke-width="0.5" x1="80.0" x2="350.0" y1="282.0" y2="356.19375" /><line fill="none" stroke="#E00000" stroke-dasharray="100,0" stroke-width="0.5" x1="350.0" x2="590.0" y1="356.19375" y2="332.23375" /><line fill="none" stroke="#E00000" stroke-dasharray="100,0" stroke-width="0.5" x1="590.0" x2="872.0" y1="332.23375" y2="347.36607142857144" /><line fill="none" stroke="#E00000" stroke-dasharray="1,1" stroke-width="0.5" x1="590.0" x2="772.0" y1="332.23375" y2="342.0" /><line fill="none" stroke="#E00000" stroke-dasharray="100,0" stroke-width="0.5" x1="80.0" x2="350.0" y1="282.0" y2="344.955" /><line fill="none" stroke="#E00000" stroke-dasharray="100,0" stroke-width="0.5" x1="350.0" x2="590.0" y1="344.955" y2="328.987" /><line fill="none" stroke="#E00000" stroke-dasharray="100,0" stroke-width="0.5" x1="590.0" x2="872.0" y1="328.987" y2="349.15" /><line fill="none" stroke="#E00000" stroke-dasharray="1,1" stroke-width="0.5" x1="590.0" x2="772.0" y1="328.987" y2="342.0" /><line fill="none" stroke="#E00000" stroke-dasharray="100,0" stroke-width="0.5" x1="80.0" x2="350.0" y1="282.0" y2="333.71625" /><line fill="none" stroke="#E00000" stroke-dasharray="100,0" stroke-width="0.5" x1="350.0" x2="590.0" y1="333.71625" y2="325.74025" /><line fill="none" stroke="#E00000" stroke-dasharray="100,0" stroke-width="0.5" x1="590.0" x2="872.0" y1="325.74025" y2="350.93392857142857" /><line fill="none" stroke="#E00000" stroke-dasharray="1,1" stroke-width="0.5" x1="590.0" x2="772.0" y1="325.74025" y2="342.0" /><line fill="none" stroke="#E00000" stroke-dasharray="100,0" stroke-width="0.5" x1="80.0" x2="350.0" y1="282.0" y2="322.4775" /><line fill="none" stroke="#E00000" stroke-dasharray="100,0" stroke-width="0.5" x1="350.0" x2="590.0" y1="322.4775" y2="322.4935" /><line fill="none" stroke="#E00000" stroke-dasharray="100,0" stroke-width="0.5" x1="590.0" x2="872.0" y1="322.4935" y2="352.71785714285716" /><line fill="none" stroke="#E00000" stroke-dasharray="1,1" stroke-width="0.5" x1="590.0" x2="772.0" y1="322.4935" y2="342.0" /><line fill="none" stroke="#E00000" stroke-dasharray="100,0" stroke-width="0.5" x1="80.0" x2="350.0" y1="282.0" y2="311.23875" /><line fill="none" stroke="#E00000" stroke-dasharray="100,0" stroke-width="0.5" x1="350.0" x2="590.0" y1="311.23875" y2="319.24675" /><line fill="none" stroke="#E00000" stroke-dasharray="100,0" stroke-width="0.5" x1="590.0" x2="872.0" y1="319.24675" y2="354.5017857142857" /><line fill="none" stroke="#E00000" stroke-dasharray="1,1" stroke-width="0.5" x1="590.0" x2="772.0" y1="319.24675" y2="342.0" /><line fill="none" stroke="#E00000" stroke-dasharray="100,0" stroke-width="0.5" x1="80.0" x2="350.0" y1="282.0" y2="300.0" /><line fill="none" stroke="#E00000" stroke-dasharray="100,0" stroke-width="0.5" x1="350.0" x2="590.0" y1="300.0" y2="316.0" /><line fill="none" stroke="#E00000" stroke-dasharray="100,0" stroke-width="0.5" x1="590.0" x2="872.0" y1="316.0" y2="356.2857142857143" /><line fill="none" stroke="#E00000" stroke-dasharray="1,1" stroke-width="0.5" x1="590.0" x2="772.0" y1="316.0" y2="342.0" /><line fill="none" stroke="#E00000" stroke-dasharray="100,0" stroke-width="0.5" x1="80.0" x2="350.0" y1="282.0" y2="288.76125" /><line fill="none" stroke="#E00000" stroke-dasharray="100,0" stroke-width="0.5" x1="350.0" x2="590.0" y1="288.76125" y2="312.75325" /><line fill="none" stroke="#E00000" stroke-dasharray="100,0" stroke-width="0.5" x1="590.0" x2="872.0" y1="312.75325" y2="358.06964285714287" /><line fill="none" stroke="#E00000" stroke-dasharray="1,1" stroke-width="0.5" x1="590.0" x2="772.0" y1="312.75325" y2="342.0" /><line fill="none" stroke="#E00000" stroke-dasharray="100,0" stroke-width="0.5" x1="80.0" x2="350.0" y1="282.0" y2="277.5225" /><line fill="none" stroke="#E00000" stroke-dasharray="100,0" stroke-width="0.5" x1="350.0" x2="590.0" y1="277.5225" y2="309.5065" /><line fill="none" stroke="#E00000" stroke-dasharray="100,0" stroke-width="0.5" x1="590.0" x2="872.0" y1="309.5065" y2="359.8535714285714" /><line fill="none" stroke="#E00000" stroke-dasharray="1,1" stroke-width="0.5" x1="590.0" x2="772.0" y1="309.5065" y2="342.0" /><line fill="none" stroke="#E00000" stroke-dasharray="100,0" stroke-width="0.5" x1="80.0" x2="350.0" y1="282.0" y2="266.28375" /><line fill="none" stroke="#E00000" stroke-dasharray="100,0" stroke-width="0.5" x1="350.0" x2="590.0" y1="266.28375" y2="306.25975" /><line fill="none" stroke="#E00000" stroke-dasharray="100,0" stroke-width="0.5" x1="590.0" x2="872.0" y1="306.25975" y2="361.63750000000005" /><line fill="none" stroke="#E00000" stroke-dasharray="1,1" stroke-width="0.5" x1="590.0" x2="772.0" y1="306.25975" y2="342.0" /><line fill="none" stroke="#E00000" stroke-dasharray="100,0" stroke-width="0.5" x1="80.0" x2="350.0" y1="282.0" y2="255.04500000000002" /><line fill="none" stroke="#E00000" stroke-dasharray="100,0" stroke-width="0.5" x1="350.0" x2="590.0" y1="255.04500000000002" y2="303.01300000000003" /><line fill="none" stroke="#E00000" stroke-dasharray="100,0" stroke-width="0.5" x1="590.0" x2="872.0" y1="303.01300000000003" y2="363.4214285714286" /><line fill="none" stroke="#E00000" stroke-dasharray="1,1" stroke-width="0.5" x1="590.0" x2="772.0" y1="303.01300000000003" y2="342.0" /><line fill="none" stroke="#E00000" stroke-dasharray="100,0" stroke-width="0.5" x1="80.0" x2="350.0" y1="282.0" y2="243.80625" /><line fill="none" stroke="#E00000" stroke-dasharray="100,0" stroke-width="0.5" x1="350.0" x2="590.0" y1="243.80625" y2="299.76625" /><line fill="none" stroke="#E00000" stroke-dasharray="100,0" stroke-width="0.5" x1="590.0" x2="872.0" y1="299.76625" y2="365.20535714285717" /><line fill="none" stroke="#E00000" stroke-dasharray="1,1" stroke-width="0.5" x1="590.0" x2="772.0" y1="299.76625" y2="342.0" /><line fill="none" stroke="#E00000" stroke-dasharray="100,0" stroke-width="0.5" x1="80.0" x2="350.0" y1="282.0" y2="232.5675" /><line fill="none" stroke="#E00000" stroke-dasharray="100,0" stroke-width="0.5" x1="350.0" x2="590.0" y1="232.5675" y2="296.5195" /><line fill="none" stroke="#E00000" stroke-dasharray="100,0" stroke-width="0.5" x1="590.0" x2="872.0" y1="296.5195" y2="366.98928571428576" /><line fill="none" stroke="#E00000" stroke-dasharray="1,1" stroke-width="0.5" x1="590.0" x2="772.0" y1="296.5195" y2="342.0" /><line fill="none" stroke="#E00000" stroke-dasharray="100,0" stroke-width="0.5" x1="80.0" x2="350.0" y1="282.0" y2="221.32875" /><line fill="none" stroke="#E00000" stroke-dasharray="100,0" stroke-width="0.5" x1="350.0" x2="590.0" y1="221.32875" y2="293.27275000000003" /><line fill="none" stroke="#E00000" stroke-dasharray="100,0" stroke-width="0.5" x1="590.0" x2="872.0" y1="293.27275000000003" y2="368.7732142857143" /><line fill="none" stroke="#E00000" stroke-dasharray="1,1" stroke-width="0.5" x1="590.0" x2="772.0" y1="293.27275000000003" y2="342.0" /><line fill="none" stroke="#E00000" stroke-dasharray="100,0" stroke-width="0.5" x1="80.0" x2="350.0" y1="282.0" y2="210.08999999999997" /><line fill="none" stroke="#E00000" stroke-dasharray="100,0" stroke-width="0.5" x1="350.0" x2="590.0" y1="210.08999999999997" y2="290.026" /><line fill="none" stroke="#E00000" stroke-dasharray="100,0" stroke-width="0.5" x1="590.0" x2="872.0" y1="290.026" y2="370.5571428571429" /><line fill="none" stroke="#E00000" stroke-dasharray="1,1" stroke-width="0.5" x1="590.0" x2="772.0" y1="290.026" y2="342.0" /></g><g inkscape:groupmode="layer" inkscape:label="rayGroup2"><line fill="none" stroke="#29ab93" stroke-dasharray="100,0" stroke-width="0.5" x1="80.0" x2="350.0" y1="318.0" y2="389.91" /><line fill="none" stroke="#29ab93" stroke-dasharray="100,0" stroke-width="0.5" x1="350.0" x2="590.0" y1="389.91" y2="309.974" /><line fill="none" stroke="#29ab93" stroke-dasharray="100,0" stroke-width="0.5" x1="590.0" x2="872.0" y1="309.974" y2="229.44285714285712" /><line fill="none" stroke="#29ab93" stroke-dasharray="1,1" stroke-width="0.5" x1="590.0" x2="772.0" y1="309.974" y2="258.0" /><line fill="none" stroke="#29ab93" stroke-dasharray="100,0" stroke-width="0.5" x1="80.0" x2="350.0" y1="318.0" y2="378.67125" /><line fill="none" stroke="#29ab93" stroke-dasharray="100,0" stroke-width="0.5" x1="350.0" x2="590.0" y1="378.67125" y2="306.72724999999997" /><line fill="none" stroke="#29ab93" stroke-dasharray="100,0" stroke-width="0.5" x1="590.0" x2="872.0" y1="306.72724999999997" y2="231.2267857142857" /><line fill="none" stroke="#29ab93" stroke-dasharray="1,1" stroke-width="0.5" x1="590.0" x2="772.0" y1="306.72724999999997" y2="258.0" /><line fill="none" stroke="#29ab93" stroke-dasharray="100,0" stroke-width="0.5" x1="80.0" x2="350.0" y1="318.0" y2="367.4325" /><line fill="none" stroke="#29ab93" stroke-dasharray="100,0" stroke-width="0.5" x1="350.0" x2="590.0" y1="367.4325" y2="303.4805" /><line fill="none" stroke="#29ab93" stroke-dasharray="100,0" stroke-width="0.5" x1="590.0" x2="872.0" y1="303.4805" y2="233.0107142857143" /><line fill="none" stroke="#29ab93" stroke-dasharray="1,1" stroke-width="0.5" x1="590.0" x2="772.0" y1="303.4805" y2="258.0" /><line fill="none" stroke="#29ab93" stroke-dasharray="100,0" stroke-width="0.5" x1="80.0" x2="350.0" y1="318.0" y2="356.19375" /><line fill="none" stroke="#29ab93" stroke-dasharray="100,0" stroke-width="0.5" x1="350.0" x2="590.0" y1="356.19375" y2="300.23375" /><line fill="none" stroke="#29ab93" stroke-dasharray="100,0" stroke-width="0.5" x1="590.0" x2="872.0" y1="300.23375" y2="234.79464285714283" /><line fill="none" stroke="#29ab93" stroke-dasharray="1,1" stroke-width="0.5" x1="590.0" x2="772.0" y1="300.23375" y2="258.0" /><line fill="none" stroke="#29ab93" stroke-dasharray="100,0" stroke-width="0.5" x1="80.0" x2="350.0" y1="318.0" y2="344.955" /><line fill="none" stroke="#29ab93" stroke-dasharray="100,0" stroke-width="0.5" x1="350.0" x2="590.0" y1="344.955" y2="296.987" /><line fill="none" stroke="#29ab93" stroke-dasharray="100,0" stroke-width="0.5" x1="590.0" x2="872.0" y1="296.987" y2="236.57857142857142" /><line fill="none" stroke="#29ab93" stroke-dasharray="1,1" stroke-width="0.5" x1="590.0" x2="772.0" y1="296.987" y2="258.0" /><line fill="none" stroke="#29ab93" stroke-dasharray="100,0" stroke-width="0.5" x1="80.0" x2="350.0" y1="318.0" y2="333.71625" /><line fill="none" stroke="#29ab93" stroke-dasharray="100,0" stroke-width="0.5" x1="350.0" x2="590.0" y1="333.71625" y2="293.74025" /><line fill="none" stroke="#29ab93" stroke-dasharray="100,0" stroke-width="0.5" x1="590.0" x2="872.0" y1="293.74025" y2="238.3625" /><line fill="none" stroke="#29ab93" stroke-dasharray="1,1" stroke-width="0.5" x1="590.0" x2="772.0" y1="293.74025" y2="258.0" /><line fill="none" stroke="#29ab93" stroke-dasharray="100,0" stroke-width="0.5" x1="80.0" x2="350.0" y1="318.0" y2="322.4775" /><line fill="none" stroke="#29ab93" stroke-dasharray="100,0" stroke-width="0.5" x1="350.0" x2="590.0" y1="322.4775" y2="290.4935" /><line fill="none" stroke="#29ab93" stroke-dasharray="100,0" stroke-width="0.5" x1="590.0" x2="872.0" y1="290.4935" y2="240.14642857142857" /><line fill="none" stroke="#29ab93" stroke-dasharray="1,1" stroke-width="0.5" x1="590.0" x2="772.0" y1="290.4935" y2="258.0" /><line fill="none" stroke="#29ab93" stroke-dasharray="100,0" stroke-width="0.5" x1="80.0" x2="350.0" y1="318.0" y2="311.23875" /><line fill="none" stroke="#29ab93" stroke-dasharray="100,0" stroke-width="0.5" x1="350.0" x2="590.0" y1="311.23875" y2="287.24675" /><line fill="none" stroke="#29ab93" stroke-dasharray="100,0" stroke-width="0.5" x1="590.0" x2="872.0" y1="287.24675" y2="241.93035714285713" /><line fill="none" stroke="#29ab93" stroke-dasharray="1,1" stroke-width="0.5" x1="590.0" x2="772.0" y1="287.24675" y2="258.0" /><line fill="none" stroke="#29ab93" stroke-dasharray="100,0" stroke-width="0.5" x1="80.0" x2="350.0" y1="318.0" y2="300.0" /><line fill="none" stroke="#29ab93" stroke-dasharray="100,0" stroke-width="0.5" x1="350.0" x2="590.0" y1="300.0" y2="284.0" /><line fill="none" stroke="#29ab93" stroke-dasharray="100,0" stroke-width="0.5" x1="590.0" x2="872.0" y1="284.0" y2="243.71428571428572" /><line fill="none" stroke="#29ab93" stroke-dasharray="1,1" stroke-width="0.5" x1="590.0" x2="772.0" y1="284.0" y2="258.0" /><line fill="none" stroke="#29ab93" stroke-dasharray="100,0" stroke-width="0.5" x1="80.0" x2="350.0" y1="318.0" y2="288.76125" /><line fill="none" stroke="#29ab93" stroke-dasharray="100,0" stroke-width="0.5" x1="350.0" x2="590.0" y1="288.76125" y2="280.75325" /><line fill="none" stroke="#29ab93" stroke-dasharray="100,0" stroke-width="0.5" x1="590.0" x2="872.0" y1="280.75325" y2="245.4982142857143" /><line fill="none" stroke="#29ab93" stroke-dasharray="1,1" stroke-width="0.5" x1="590.0" x2="772.0" y1="280.75325" y2="258.0" /><line fill="none" stroke="#29ab93" stroke-dasharray="100,0" stroke-width="0.5" x1="80.0" x2="350.0" y1="318.0" y2="277.5225" /><line fill="none" stroke="#29ab93" stroke-dasharray="100,0" stroke-width="0.5" x1="350.0" x2="590.0" y1="277.5225" y2="277.5065" /><line fill="none" stroke="#29ab93" stroke-dasharray="100,0" stroke-width="0.5" x1="590.0" x2="872.0" y1="277.5065" y2="247.28214285714287" /><line fill="none" stroke="#29ab93" stroke-dasharray="1,1" stroke-width="0.5" x1="590.0" x2="772.0" y1="277.5065" y2="258.0" /><line fill="none" stroke="#29ab93" stroke-dasharray="100,0" stroke-width="0.5" x1="80.0" x2="350.0" y1="318.0" y2="266.28375" /><line fill="none" stroke="#29ab93" stroke-dasharray="100,0" stroke-width="0.5" x1="350.0" x2="590.0" y1="266.28375" y2="274.25975" /><line fill="none" stroke="#29ab93" stroke-dasharray="100,0" stroke-width="0.5" x1="590.0" x2="872.0" y1="274.25975" y2="249.06607142857146" /><line fill="none" stroke="#29ab93" stroke-dasharray="1,1" stroke-width="0.5" x1="590.0" x2="772.0" y1="274.25975" y2="258.0" /><line fill="none" stroke="#29ab93" stroke-dasharray="100,0" stroke-width="0.5" x1="80.0" x2="350.0" y1="318.0" y2="255.04500000000002" /><line fill="none" stroke="#29ab93" stroke-dasharray="100,0" stroke-width="0.5" x1="350.0" x2="590.0" y1="255.04500000000002" y2="271.01300000000003" /><line fill="none" stroke="#29ab93" stroke-dasharray="100,0" stroke-width="0.5" x1="590.0" x2="872.0" y1="271.01300000000003" y2="250.85000000000002" /><line fill="none" stroke="#29ab93" stroke-dasharray="1,1" stroke-width="0.5" x1="590.0" x2="772.0" y1="271.01300000000003" y2="258.0" /><line fill="none" stroke="#29ab93" stroke-dasharray="100,0" stroke-width="0.5" x1="80.0" x2="350.0" y1="318.0" y2="243.80625" /><line fill="none" stroke="#29ab93" stroke-dasharray="100,0" stroke-width="0.5" x1="350.0" x2="590.0" y1="243.80625" y2="267.76625" /><line fill="none" stroke="#29ab93" stroke-dasharray="100,0" stroke-width="0.5" x1="590.0" x2="872.0" y1="267.76625" y2="252.6339285714286" /><line fill="none" stroke="#29ab93" stroke-dasharray="1,1" stroke-width="0.5" x1="590.0" x2="772.0" y1="267.76625" y2="258.0" /><line fill="none" stroke="#29ab93" stroke-dasharray="100,0" stroke-width="0.5" x1="80.0" x2="350.0" y1="318.0" y2="232.5675" /><line fill="none" stroke="#29ab93" stroke-dasharray="100,0" stroke-width="0.5" x1="350.0" x2="590.0" y1="232.5675" y2="264.5195" /><line fill="none" stroke="#29ab93" stroke-dasharray="100,0" stroke-width="0.5" x1="590.0" x2="872.0" y1="264.5195" y2="254.41785714285717" /><line fill="none" stroke="#29ab93" stroke-dasharray="1,1" stroke-width="0.5" x1="590.0" x2="772.0" y1="264.5195" y2="258.0" /><line fill="none" stroke="#29ab93" stroke-dasharray="100,0" stroke-width="0.5" x1="80.0" x2="350.0" y1="318.0" y2="221.32875" /><line fill="none" stroke="#29ab93" stroke-dasharray="100,0" stroke-width="0.5" x1="350.0" x2="590.0" y1="221.32875" y2="261.27275000000003" /><line fill="none" stroke="#29ab93" stroke-dasharray="100,0" stroke-width="0.5" x1="590.0" x2="872.0" y1="261.27275000000003" y2="256.20178571428573" /><line fill="none" stroke="#29ab93" stroke-dasharray="1,1" stroke-width="0.5" x1="590.0" x2="772.0" y1="261.27275000000003" y2="258.0" /><line fill="none" stroke="#29ab93" stroke-dasharray="100,0" stroke-width="0.5" x1="80.0" x2="350.0" y1="318.0" y2="210.09" /><line fill="none" stroke="#29ab93" stroke-dasharray="100,0" stroke-width="0.5" x1="350.0" x2="590.0" y1="210.09" y2="258.026" /><line fill="none" stroke="#29ab93" stroke-dasharray="100,0" stroke-width="0.5" x1="590.0" x2="872.0" y1="258.026" y2="257.9857142857143" /><line fill="none" stroke="#29ab93" stroke-dasharray="1,1" stroke-width="0.5" x1="590.0" x2="772.0" y1="258.026" y2="258.00000000000006" /></g></svg>