<?xml version="1.0" encoding="utf-8" ?>
<svg baseProfile="full" height="600" version="1.1" width="800" xmlns="http://www.w3.org/2000/svg" xmlns:ev="http://www.w3.org/2001/xml-events" xmlns:inkscape="http://www.inkscape.org/namespaces/inkscape" xmlns:sodipodi="http://sodipodi.sourceforge.net/DTD/sodipodi-0.dtd" xmlns:xlink="http://www.w3.org/1999/xlink"><defs /><g inkscape:groupmode="layer" inkscape:label="axis"><line fill="none" stroke="#040404" stroke-dasharray="10,4" stroke-width="2.0" x1="0" x2="800" y1="300.0" y2="300.0" /></g><g inkscape:groupmode="layer" inkscape:label="optics"><path d="M 400.0,300.0 m -1.0,-120.0 a 1169.9999999999998,1169.9999999999998 0 0 0    0,240.0 h    2 a 1169.9999999999998,1169.9999999999998 0 0 0    0,-240.0 z" fill="#CCCCCC" id="objective" stroke="#000000" stroke-dasharray="100,0" stroke-width="0.5" /><path d="M 500.0,300.0 m -1.0,-120.0 a 311.99999999999994,311.99999999999994 0 0 1    0,240.0 h    2 a 311.99999999999994,311.99999999999994 0 0 1    0,-240.0 z" fill="#CCCCCC" id="eyepiece" stroke="#000000" stroke-dasharray="100,0" stroke-width="0.5" /></g><g inkscape:groupmode="layer" inkscape:label="stops"><path d="M 400.0,300.0 m -1.0,120.0 h    2 m    0,-240.0 h   -2 m  1.0,   0 v -120.0 m    0,360.0 v 120.0 " fill="none" id="objective" stroke="#009900" stroke-dasharray="100,0" stroke-width="1.5" /><path d="M 500.0,300.0 m -1.0,120.0 h    2 m    0,-240.0 h   -2 m  1.0,   0 v -120.0 m    0,360.0 v 120.0 " fill="none" id="eyepiece" stroke="#990000" stroke-dasharray="100,0" stroke-width="1.5" /></g><g inkscape:groupmode="layer" inkscape:label="pupils"><path d="M 400.0,300.0 m -1.0,120.0 h    2 m    0,-240.0 h   -2 m  1.0,   0 v -120.0 m    0,360.0 v 120.0 " fill="none" id="__entrance_pupil__" stroke="#007710" stroke-dasharray="100,0" stroke-width="1.5" /><path d="M 471.42857142857144,300.0 m -1.0,34.28571428571427 h    2 m    0,-68.57142857142854 h   -2 m  1.0,   0 v -205.71428571428572 m    0,274.2857142857143 v 205.71428571428572 " fill="none" id="__exit_pupil__" stroke="#005010" stroke-dasharray="100,0" stroke-width="1.5" /></g><g inkscape:groupmode="layer" inkscape:label="windows"><path d="M 700.0,300.0 m -1.0,360.00000000000006 h    2 m    0,-720.0000000000001 h   -2 m  1.0,   0 v   -5 m    0,725.0000000000001 v    5 " fill="none" id="__entrance_window__" stroke="#770010" stroke-dasharray="100,0" stroke-width="1.5" /><path d="M 500.0,300.0 m -1.0,120.0 h    2 m    0,-240.0 h   -2 m  1.0,   0 v -120.0 m    0,360.0 v 120.0 " fill="none" id="__exit_window__" stroke="#500010" stroke-dasharray="100,0" stroke-width="1.5" /></g><g inkscape:groupmode="layer" inkscape:label="objects"><path d="M 120.0,300.0 m    0,60.959999999999994 v -121.91999999999999 l   -3, 7.0 l    6,   0 l   -3,-7.0 " fill="#000000" stroke="#000000" stroke-dasharray="100,0" stroke-width="1.0" /></g><g inkscape:groupmode="layer" inkscape:label="images"><path d="M 451.26050420168065,300.0 m    0,15.368067226890755 v -30.73613445378151 l   -3, 7.0 l    6,   0 l   -3,-7.0 " fill="#020202" stroke="#020202" stroke-dasharray="100,0" stroke-width="1.0" /></g><g inkscape:groupmode="layer" inkscape:label="rayGroup1"><line fill="none" stroke="#FF0000" stroke-dasharray="100,0" stroke-width="0.5" x1="120.0" x2="400.0" y1="239.04000000000002" y2="420.0" /><line fill="none" stroke="#FF0000" stroke-dasharray="100,0" stroke-width="0.5" x1="120.0" x2="400.0" y1="239.04000000000002" y2="390.0" /><line fill="none" stroke="#FF0000" stroke-dasharray="100,0" stroke-width="0.5" x1="400.0" x2="500.0" y1="390.0" y2="383.9142857142857" /><line fill="none" stroke="#FF0000" stroke-dasharray="100,0" stroke-width="0.5" x1="120.0" x2="400.0" y1="239.04000000000002" y2="360.0" /><line fill="none" stroke="#FF0000" stroke-dasharray="100,0" stroke-width="0.5" x1="400.0" x2="500.0" y1="360.0" y2="363.2" /><line fill="none" stroke="#FF0000" stroke-dasharray="100,0" stroke-width="0.5" x1="120.0" x2="400.0" y1="239.04000000000002" y2="330.0" /><line fill="none" stroke="#FF0000" stroke-dasharray="100,0" stroke-width="0.5" x1="400.0" x2="500.0" y1="330.0" y2="342.48571428571427" /><line fill="none" stroke="#FF0000" stroke-dasharray="100,0" stroke-width="0.5" x1="120.0" x2="400.0" y1="239.04000000000002" y2="300.0" /><line fill="none" stroke="#FF0000" stroke-dasharray="100,0" stroke-width="0.5" x1="400.0" x2="500.0" y1="300.0" y2="321.7714285714286" /><line fill="none" stroke="#FF0000" stroke-dasharray="100,0" stroke-width="0.5" x1="120.0" x2="400.0" y1="239.04000000000002" y2="270.0" /><line fill="none" stroke="#FF0000" stroke-dasharray="100,0" stroke-width="0.5" x1="400.0" x2="500.0" y1="270.0" y2="301.0571428571429" /><line fill="none" stroke="#FF0000" stroke-dasharray="100,0" stroke-width="0.5" x1="120.0" x2="400.0" y1="239.04000000000002" y2="240.00000000000003" /><line fill="none" stroke="#FF0000" stroke-dasharray="100,0" stroke-width="0.5" x1="400.0" x2="500.0" y1="240.00000000000003" y2="280.34285714285716" /><line fill="none" stroke="#FF0000" stroke-dasharray="100,0" stroke-width="0.5" x1="120.0" x2="400.0" y1="239.04000000000002" y2="210.0" /><line fill="none" stroke="#FF0000" stroke-dasharray="100,0" stroke-width="0.5" x1="400.0" x2="500.0" y1="210.0" y2="259.62857142857143" /><line fill="none" stroke="#FF0000" stroke-dasharray="100,0" stroke-width="0.5" x1="120.0" x2="400.0" y1="239.04000000000002" y2="180.0" /></g><g inkscape:groupmode="layer" inkscape:label="rayGroup2"><line fill="none" stroke="#00FF00" stroke-dasharray="100,0" stroke-width="0.5" x1="120.0" x2="400.0" y1="360.96" y2="420.0" /><line fill="none" stroke="#00FF00" stroke-dasharray="100,0" stroke-width="0.5" x1="120.0" x2="400.0" y1="360.96" y2="390.0" /><line fill="none" stroke="#00FF00" stroke-dasharray="100,0" stroke-width="0.5" x1="400.0" x2="500.0" y1="390.0" y2="340.37142857142857" /><line fill="none" stroke="#00FF00" stroke-dasharray="100,0" stroke-width="0.5" x1="120.0" x2="400.0" y1="360.96" y2="360.0" /><line fill="none" stroke="#00FF00" stroke-dasharray="100,0" stroke-width="0.5" x1="400.0" x2="500.0" y1="360.0" y2="319.65714285714284" /><line fill="none" stroke="#00FF00" stroke-dasharray="100,0" stroke-width="0.5" x1="120.0" x2="400.0" y1="360.96" y2="330.0" /><line fill="none" stroke="#00FF00" stroke-dasharray="100,0" stroke-width="0.5" x1="400.0" x2="500.0" y1="330.0" y2="298.9428571428571" /><line fill="none" stroke="#00FF00" stroke-dasharray="100,0" stroke-width="0.5" x1="120.0" x2="400.0" y1="360.96" y2="300.0" /><line fill="none" stroke="#00FF00" stroke-dasharray="100,0" stroke-width="0.5" x1="400.0" x2="500.0" y1="300.0" y2="278.22857142857146" /><line fill="none" stroke="#00FF00" stroke-dasharray="100,0" stroke-width="0.5" x1="120.0" x2="400.0" y1="360.96" y2="270.0" /><line fill="none" stroke="#00FF00" stroke-dasharray="100,0" stroke-width="0.5" x1="400.0" x2="500.0" y1="270.0" y2="257.51428571428573" /><line fill="none" stroke="#00FF00" stroke-dasharray="100,0" stroke-width="0.5" x1="120.0" x2="400.0" y1="360.96" y2="240.0" /><line fill="none" stroke="#00FF00" stroke-dasharray="100,0" stroke-width="0.5" x1="400.0" x2="500.0" y1="240.0" y2="236.8" /><line fill="none" stroke="#00FF00" stroke-dasharray="100,0" stroke-width="0.5" x1="120.0" x2="400.0" y1="360.96" y2="210.0" /><line fill="none" stroke="#00FF00" stroke-dasharray="100,0" stroke-width="0.5" x1="400.0" x2="500.0" y1="210.0" y2="216.0857142857143" /><line fill="none" stroke="#00FF00" stroke-dasharray="100,0" stroke-width="0.5" x1="120.0" x2="400.0" y1="360.96" y2="180.0" /></g></svg>