<?xml version="1.0" encoding="utf-8" ?>
<svg baseProfile="full" height="600" version="1.1" width="800" xmlns="http://www.w3.org/2000/svg" xmlns:ev="http://www.w3.org/2001/xml-events" xmlns:inkscape="http://www.inkscape.org/namespaces/inkscape" xmlns:sodipodi="http://sodipodi.sourceforge.net/DTD/sodipodi-0.dtd" xmlns:xlink="http://www.w3.org/1999/xlink"><defs /><g inkscape:groupmode="layer" inkscape:label="axis"><line fill="none" stroke="#040404" stroke-dasharray="10,4" stroke-width="2.0" x1="0" x2="800" y1="300.0" y2="300.0" /></g><g inkscape:groupmode="layer" inkscape:label="optics"><path d="M 228.57142857142858,300.0 m -5.0,-45.72 a 234.0,234.0 0 0 0    0,91.44 h   10 v -91.44 z" fill="#CCCCCC" id="objective" stroke="#000000" stroke-dasharray="100,0" stroke-width="1.0" /><path d="M 637.1428571428571,300.0 m -5.0,-45.72 a 454.99999999999994,454.99999999999994 0 0 0    0,91.44 h   10 v -91.44 z" fill="#CCCCCC" id="eyepiece" stroke="#000000" stroke-dasharray="100,0" stroke-width="1.0" /><path d="M 665.7142857142858,300.0 m -5.0,-18.0 a 75.84199999999998,75.84199999999998 0 0 0    0,36.0 h   10 a 75.84199999999998,75.84199999999998 0 0 0    0,-36.0 z" fill="#CCCCCC" id="camera" stroke="#000000" stroke-dasharray="100,0" stroke-width="1.0" /><path d="M 674.0485714285714,300.0 m -5.0,6.6132 h   10 m    0,-13.2264 h  -10 m  5.0,   0 v -173.3868 m    0,186.6132 v 173.3868 " fill="none" id="sensor" stroke="#000000" stroke-dasharray="100,0" stroke-width="1.5" /></g><g inkscape:groupmode="layer" inkscape:label="stops"><path d="M 228.57142857142858,300.0 m -5.0,45.72 h   10 m    0,-91.44 h  -10 m  5.0,   0 v -134.28 m    0,225.72 v 134.28 " fill="none" id="objective" stroke="#FF0000" stroke-dasharray="100,0" stroke-width="2" /><path d="M 665.7142857142858,300.0 m -5.0,18.0 h   10 m    0,-36.0 h  -10 m  5.0,   0 v -162.0 m    0,198.0 v 162.0 " fill="none" id="camera" stroke="#00FF00" stroke-dasharray="100,0" stroke-width="2" /></g><g inkscape:groupmode="layer" inkscape:label="pupils"><path d="M 228.57142857142858,300.0 m -5.0,45.72 h   10 m    0,-91.44 h  -10 m  5.0,   0 v -134.28 m    0,225.72 v 134.28 " fill="none" id="__entrance_pupil__" stroke="#FF2020" stroke-dasharray="100,0" stroke-width="1.5" /><path d="M 673.4293313951647,300.0 m -5.0,1.100882964201244 h   10 m    0,-2.201765928402488 h  -10 m  5.0,   0 v -178.89911703579875 m    0,181.10088296420125 v 178.89911703579875 " fill="none" id="__exit_pupil__" stroke="#FF1010" stroke-dasharray="100,0" stroke-width="1.5" /></g><g inkscape:groupmode="layer" inkscape:label="windows"><path d="M 170.4830421377184,300.0 m -5.0,3.2633093525179877 h   10 m    0,-6.526618705035975 h  -10 m  5.0,   0 v -176.73669064748202 m    0,183.263309352518 v 176.73669064748202 " fill="none" id="__entrance_window__" stroke="#20FF20" stroke-dasharray="100,0" stroke-width="1.5" /><path d="M 665.7142857142858,300.0 m -5.0,18.0 h   10 m    0,-36.0 h  -10 m  5.0,   0 v -162.0 m    0,198.0 v 162.0 " fill="none" id="__exit_window__" stroke="#10FF10" stroke-dasharray="100,0" stroke-width="1.5" /></g><g inkscape:groupmode="layer" inkscape:label="objects"><path d="M 166.85714285714286,300.0 m    0,45.0 v -90.0 l   -3, 7.0 l    6,   0 l   -3,-7.0 " fill="#000000" stroke="#000000" stroke-dasharray="100,0" stroke-width="1.0" /></g><g inkscape:groupmode="layer" inkscape:label="images"><path d="M 674.0485714285714,300.0 m    0,18.752142857142886 v -37.50428571428577 l   -3, 7.0 l    6,   0 l   -3,-7.0 " fill="#020202" stroke="#020202" stroke-dasharray="100,0" stroke-width="1.0" /></g><g inkscape:groupmode="layer" inkscape:label="rayGroup1"><line fill="none" stroke="#E00000" stroke-dasharray="100,0" stroke-width="0.5" x1="166.85714285714286" x2="228.57142857142858" y1="300.0" y2="345.67428" /><line fill="none" stroke="#E00000" stroke-dasharray="100,0" stroke-width="0.5" x1="228.57142857142858" x2="637.1428571428571" y1="345.67428" y2="285.19815" /><line fill="none" stroke="#E00000" stroke-dasharray="100,0" stroke-width="0.5" x1="637.1428571428571" x2="665.7142857142858" y1="285.19815" y2="285.19815" /><line fill="none" stroke="#E00000" stroke-dasharray="100,0" stroke-width="0.5" x1="665.7142857142858" x2="674.0485714285714" y1="285.19815" y2="300.0" /><line fill="none" stroke="#E00000" stroke-dasharray="1,1" stroke-width="0.5" x1="665.7142857142858" x2="674.0485714285714" y1="285.19815" y2="300.0" /><line fill="none" stroke="#E00000" stroke-dasharray="100,0" stroke-width="0.5" x1="166.85714285714286" x2="228.57142857142858" y1="300.0" y2="254.32572" /><line fill="none" stroke="#E00000" stroke-dasharray="100,0" stroke-width="0.5" x1="228.57142857142858" x2="637.1428571428571" y1="254.32572" y2="314.80185" /><line fill="none" stroke="#E00000" stroke-dasharray="100,0" stroke-width="0.5" x1="637.1428571428571" x2="665.7142857142858" y1="314.80185" y2="314.80185" /><line fill="none" stroke="#E00000" stroke-dasharray="100,0" stroke-width="0.5" x1="665.7142857142858" x2="674.0485714285714" y1="314.80185" y2="300.0" /><line fill="none" stroke="#E00000" stroke-dasharray="1,1" stroke-width="0.5" x1="665.7142857142858" x2="674.0485714285714" y1="314.80185" y2="300.0" /></g><g inkscape:groupmode="layer" inkscape:label="rayGroup2"><line fill="none" stroke="#29ab93" stroke-dasharray="100,0" stroke-width="0.5" x1="166.85714285714286" x2="228.57142857142858" y1="303.43233630573246" y2="300.0" /><line fill="none" stroke="#29ab93" stroke-dasharray="100,0" stroke-width="0.5" x1="228.57142857142858" x2="637.1428571428571" y1="300.0" y2="277.27666242038214" /><line fill="none" stroke="#29ab93" stroke-dasharray="100,0" stroke-width="0.5" x1="637.1428571428571" x2="665.7142857142858" y1="277.27666242038214" y2="282.18" /><line fill="none" stroke="#29ab93" stroke-dasharray="100,0" stroke-width="0.5" x1="665.7142857142858" x2="674.0485714285714" y1="282.18" y2="301.43030357197455" /><line fill="none" stroke="#29ab93" stroke-dasharray="1,1" stroke-width="0.5" x1="665.7142857142858" x2="674.0485714285714" y1="282.18" y2="301.43030357197455" /><line fill="none" stroke="#29ab93" stroke-dasharray="100,0" stroke-width="0.5" x1="166.85714285714286" x2="228.57142857142858" y1="296.56766369426754" y2="300.0" /><line fill="none" stroke="#29ab93" stroke-dasharray="100,0" stroke-width="0.5" x1="228.57142857142858" x2="637.1428571428571" y1="300.0" y2="322.72333757961786" /><line fill="none" stroke="#29ab93" stroke-dasharray="100,0" stroke-width="0.5" x1="637.1428571428571" x2="665.7142857142858" y1="322.72333757961786" y2="317.82" /><line fill="none" stroke="#29ab93" stroke-dasharray="100,0" stroke-width="0.5" x1="665.7142857142858" x2="674.0485714285714" y1="317.82" y2="298.56969642802545" /><line fill="none" stroke="#29ab93" stroke-dasharray="1,1" stroke-width="0.5" x1="665.7142857142858" x2="674.0485714285714" y1="317.82" y2="298.56969642802545" /></g><g inkscape:groupmode="layer" inkscape:label="rayGroup3"><line fill="none" stroke="#0000FF" stroke-dasharray="100,0" stroke-width="0.5" x1="166.85714285714286" x2="228.57142857142858" y1="300.0" y2="281.3376" /><line fill="none" stroke="#0000FF" stroke-dasharray="100,0" stroke-width="0.5" x1="228.57142857142858" x2="637.1428571428571" y1="281.3376" y2="306.048" /><line fill="none" stroke="#0000FF" stroke-dasharray="100,0" stroke-width="0.5" x1="637.1428571428571" x2="665.7142857142858" y1="306.048" y2="306.048" /><line fill="none" stroke="#0000FF" stroke-dasharray="100,0" stroke-width="0.5" x1="665.7142857142858" x2="674.0485714285714" y1="306.048" y2="300.0" /><line fill="none" stroke="#0000FF" stroke-dasharray="1,1" stroke-width="0.5" x1="665.7142857142858" x2="674.0485714285714" y1="306.048" y2="300.0" /></g></svg>