<?xml version="1.0" encoding="utf-8" ?>
<svg baseProfile="full" height="600" version="1.1" width="800" xmlns="http://www.w3.org/2000/svg" xmlns:ev="http://www.w3.org/2001/xml-events" xmlns:inkscape="http://www.inkscape.org/namespaces/inkscape" xmlns:sodipodi="http://sodipodi.sourceforge.net/DTD/sodipodi-0.dtd" xmlns:xlink="http://www.w3.org/1999/xlink"><defs /><g inkscape:groupmode="layer" inkscape:label="axis"><line fill="none" stroke="#040404" stroke-dasharray="10,4" stroke-width="2.0" x1="0" x2="800" y1="300.0" y2="300.0" /></g><g inkscape:groupmode="layer" inkscape:label="optics"><path d="M 228.57142857142858,300.0 m -10.669506350496789,-54.0 a 259.99999999999994,259.99999999999994 0 0 1    0,108.0 h 21.339012700993578 a 259.99999999999994,259.99999999999994 0 0 1    0,-108.0 z" fill="#CCCCCC" id="lens1" stroke="#000000" stroke-dasharray="100,0" stroke-width="1.0" /><path d="M 314.28571428571433,300.0 m -5.0,-54.0 a 389.99999999999994,389.99999999999994 0 0 0    0,108.0 h   10 a 389.99999999999994,389.99999999999994 0 0 0    0,-108.0 z" fill="#CCCCCC" id="lens2" stroke="#000000" stroke-dasharray="100,0" stroke-width="1.0" /><path d="M 371.42857142857144,300.0 m -7.811446375695596,-54.0 a 519.9999999999999,519.9999999999999 0 0 1    0,108.0 h 15.622892751391191 a 519.9999999999999,519.9999999999999 0 0 1    0,-108.0 z" fill="#CCCCCC" id="lens3" stroke="#000000" stroke-dasharray="100,0" stroke-width="1.0" /></g><g inkscape:groupmode="layer" inkscape:label="stops"><path d="M 314.28571428571433,300.0 m -5.0,54.0 h   10 m    0,-108.0 h  -10 m  5.0,   0 v -126.0 m    0,234.0 v 126.0 " fill="none" id="lens2" stroke="#FF0000" stroke-dasharray="100,0" stroke-width="2" /><path d="M 228.57142857142858,300.0 m -5.0,54.0 h   10 m    0,-108.0 h  -10 m  5.0,   0 v -126.0 m    0,234.0 v 126.0 " fill="none" id="lens1" stroke="#00FF00" stroke-dasharray="100,0" stroke-width="2" /></g><g inkscape:groupmode="layer" inkscape:label="pupils"><path d="M 250.0,300.0 m -5.0,13.5 h   10 m    0,-27.0 h  -10 m  5.0,   0 v -166.5 m    0,193.5 v 166.5 " fill="none" id="__entrance_pupil__" stroke="#FF2020" stroke-dasharray="100,0" stroke-width="1.5" /><path d="M 342.8571428571429,300.0 m -5.0,27.0 h   10 m    0,-54.0 h  -10 m  5.0,   0 v -153.0 m    0,207.0 v 153.0 " fill="none" id="__exit_pupil__" stroke="#FF1010" stroke-dasharray="100,0" stroke-width="1.5" /></g><g inkscape:groupmode="layer" inkscape:label="windows"><path d="M 228.57142857142858,300.0 m -5.0,54.0 h   10 m    0,-108.0 h  -10 m  5.0,   0 v -126.0 m    0,234.0 v 126.0 " fill="none" id="__entrance_window__" stroke="#20FF20" stroke-dasharray="100,0" stroke-width="1.5" /><path d="M 428.57142857142856,300.0 m -5.0,107.99999999999999 h   10 m    0,-215.99999999999997 h  -10 m  5.0,   0 v -72.00000000000001 m    0,288.0 v 72.00000000000001 " fill="none" id="__exit_window__" stroke="#10FF10" stroke-dasharray="100,0" stroke-width="1.5" /></g><g inkscape:groupmode="layer" inkscape:label="objects"><path d="M 171.42857142857144,300.0 m    0,18.0 v -36.0 l   -3, 7.0 l    6,   0 l   -3,-7.0 " fill="#000000" stroke="#000000" stroke-dasharray="100,0" stroke-width="1.0" /></g><g inkscape:groupmode="layer" inkscape:label="images"><path d="M 392.48120300751884,300.0 m    0,-5.684210526315789 v 11.368421052631579 l   -3,-7.0 l    6,   0 l   -3, 7.0 " fill="#020202" stroke="#020202" stroke-dasharray="100,0" stroke-width="1.0" /></g><g inkscape:groupmode="layer" inkscape:label="rayGroup1"><line fill="none" stroke="#E00000" stroke-dasharray="100,0" stroke-width="0.5" x1="171.42857142857144" x2="228.57142857142858" y1="300.0" y2="309.80836363636365" /><line fill="none" stroke="#E00000" stroke-dasharray="100,0" stroke-width="0.5" x1="228.57142857142858" x2="314.28571428571433" y1="309.80836363636365" y2="353.946" /><line fill="none" stroke="#E00000" stroke-dasharray="100,0" stroke-width="0.5" x1="314.28571428571433" x2="371.42857142857144" y1="353.946" y2="311.4430909090909" /><line fill="none" stroke="#E00000" stroke-dasharray="100,0" stroke-width="0.5" x1="371.42857142857144" x2="392.48120300751884" y1="311.4430909090909" y2="300.0" /><line fill="none" stroke="#E00000" stroke-dasharray="1,1" stroke-width="0.5" x1="371.42857142857144" x2="392.48120300751884" y1="311.4430909090909" y2="300.0" /><line fill="none" stroke="#E00000" stroke-dasharray="100,0" stroke-width="0.5" x1="171.42857142857144" x2="228.57142857142858" y1="300.0" y2="307.3562727272727" /><line fill="none" stroke="#E00000" stroke-dasharray="100,0" stroke-width="0.5" x1="228.57142857142858" x2="314.28571428571433" y1="307.3562727272727" y2="340.4595" /><line fill="none" stroke="#E00000" stroke-dasharray="100,0" stroke-width="0.5" x1="314.28571428571433" x2="371.42857142857144" y1="340.4595" y2="308.58231818181815" /><line fill="none" stroke="#E00000" stroke-dasharray="100,0" stroke-width="0.5" x1="371.42857142857144" x2="392.48120300751884" y1="308.58231818181815" y2="300.0" /><line fill="none" stroke="#E00000" stroke-dasharray="1,1" stroke-width="0.5" x1="371.42857142857144" x2="392.48120300751884" y1="308.58231818181815" y2="300.0" /><line fill="none" stroke="#E00000" stroke-dasharray="100,0" stroke-width="0.5" x1="171.42857142857144" x2="228.57142857142858" y1="300.0" y2="304.9041818181818" /><line fill="none" stroke="#E00000" stroke-dasharray="100,0" stroke-width="0.5" x1="228.57142857142858" x2="314.28571428571433" y1="304.9041818181818" y2="326.973" /><line fill="none" stroke="#E00000" stroke-dasharray="100,0" stroke-width="0.5" x1="314.28571428571433" x2="371.42857142857144" y1="326.973" y2="305.72154545454543" /><line fill="none" stroke="#E00000" stroke-dasharray="100,0" stroke-width="0.5" x1="371.42857142857144" x2="392.48120300751884" y1="305.72154545454543" y2="300.0" /><line fill="none" stroke="#E00000" stroke-dasharray="1,1" stroke-width="0.5" x1="371.42857142857144" x2="392.48120300751884" y1="305.72154545454543" y2="300.0" /><line fill="none" stroke="#E00000" stroke-dasharray="100,0" stroke-width="0.5" x1="171.42857142857144" x2="228.57142857142858" y1="300.0" y2="302.4520909090909" /><line fill="none" stroke="#E00000" stroke-dasharray="100,0" stroke-width="0.5" x1="228.57142857142858" x2="314.28571428571433" y1="302.4520909090909" y2="313.4865" /><line fill="none" stroke="#E00000" stroke-dasharray="100,0" stroke-width="0.5" x1="314.28571428571433" x2="371.42857142857144" y1="313.4865" y2="302.8607727272727" /><line fill="none" stroke="#E00000" stroke-dasharray="100,0" stroke-width="0.5" x1="371.42857142857144" x2="392.48120300751884" y1="302.8607727272727" y2="300.0" /><line fill="none" stroke="#E00000" stroke-dasharray="1,1" stroke-width="0.5" x1="371.42857142857144" x2="392.48120300751884" y1="302.8607727272727" y2="300.0" /><line fill="none" stroke="#E00000" stroke-dasharray="100,0" stroke-width="0.5" x1="171.42857142857144" x2="228.57142857142858" y1="300.0" y2="300.0" /><line fill="none" stroke="#E00000" stroke-dasharray="100,0" stroke-width="0.5" x1="228.57142857142858" x2="314.28571428571433" y1="300.0" y2="300.0" /><line fill="none" stroke="#E00000" stroke-dasharray="100,0" stroke-width="0.5" x1="314.28571428571433" x2="371.42857142857144" y1="300.0" y2="300.0" /><line fill="none" stroke="#E00000" stroke-dasharray="100,0" stroke-width="0.5" x1="371.42857142857144" x2="392.48120300751884" y1="300.0" y2="300.0" /><line fill="none" stroke="#E00000" stroke-dasharray="1,1" stroke-width="0.5" x1="371.42857142857144" x2="392.48120300751884" y1="300.0" y2="300.0" /><line fill="none" stroke="#E00000" stroke-dasharray="100,0" stroke-width="0.5" x1="171.42857142857144" x2="228.57142857142858" y1="300.0" y2="297.5479090909091" /><line fill="none" stroke="#E00000" stroke-dasharray="100,0" stroke-width="0.5" x1="228.57142857142858" x2="314.28571428571433" y1="297.5479090909091" y2="286.5135" /><line fill="none" stroke="#E00000" stroke-dasharray="100,0" stroke-width="0.5" x1="314.28571428571433" x2="371.42857142857144" y1="286.5135" y2="297.1392272727273" /><line fill="none" stroke="#E00000" stroke-dasharray="100,0" stroke-width="0.5" x1="371.42857142857144" x2="392.48120300751884" y1="297.1392272727273" y2="300.0" /><line fill="none" stroke="#E00000" stroke-dasharray="1,1" stroke-width="0.5" x1="371.42857142857144" x2="392.48120300751884" y1="297.1392272727273" y2="300.0" /><line fill="none" stroke="#E00000" stroke-dasharray="100,0" stroke-width="0.5" x1="171.42857142857144" x2="228.57142857142858" y1="300.0" y2="295.0958181818182" /><line fill="none" stroke="#E00000" stroke-dasharray="100,0" stroke-width="0.5" x1="228.57142857142858" x2="314.28571428571433" y1="295.0958181818182" y2="273.027" /><line fill="none" stroke="#E00000" stroke-dasharray="100,0" stroke-width="0.5" x1="314.28571428571433" x2="371.42857142857144" y1="273.027" y2="294.27845454545457" /><line fill="none" stroke="#E00000" stroke-dasharray="100,0" stroke-width="0.5" x1="371.42857142857144" x2="392.48120300751884" y1="294.27845454545457" y2="300.0" /><line fill="none" stroke="#E00000" stroke-dasharray="1,1" stroke-width="0.5" x1="371.42857142857144" x2="392.48120300751884" y1="294.27845454545457" y2="300.0" /><line fill="none" stroke="#E00000" stroke-dasharray="100,0" stroke-width="0.5" x1="171.42857142857144" x2="228.57142857142858" y1="300.0" y2="292.6437272727273" /><line fill="none" stroke="#E00000" stroke-dasharray="100,0" stroke-width="0.5" x1="228.57142857142858" x2="314.28571428571433" y1="292.6437272727273" y2="259.5405" /><line fill="none" stroke="#E00000" stroke-dasharray="100,0" stroke-width="0.5" x1="314.28571428571433" x2="371.42857142857144" y1="259.5405" y2="291.41768181818185" /><line fill="none" stroke="#E00000" stroke-dasharray="100,0" stroke-width="0.5" x1="371.42857142857144" x2="392.48120300751884" y1="291.41768181818185" y2="300.0" /><line fill="none" stroke="#E00000" stroke-dasharray="1,1" stroke-width="0.5" x1="371.42857142857144" x2="392.48120300751884" y1="291.41768181818185" y2="300.0" /><line fill="none" stroke="#E00000" stroke-dasharray="100,0" stroke-width="0.5" x1="171.42857142857144" x2="228.57142857142858" y1="300.0" y2="290.19163636363635" /><line fill="none" stroke="#E00000" stroke-dasharray="100,0" stroke-width="0.5" x1="228.57142857142858" x2="314.28571428571433" y1="290.19163636363635" y2="246.054" /><line fill="none" stroke="#E00000" stroke-dasharray="100,0" stroke-width="0.5" x1="314.28571428571433" x2="371.42857142857144" y1="246.054" y2="288.5569090909091" /><line fill="none" stroke="#E00000" stroke-dasharray="100,0" stroke-width="0.5" x1="371.42857142857144" x2="392.48120300751884" y1="288.5569090909091" y2="300.0" /><line fill="none" stroke="#E00000" stroke-dasharray="1,1" stroke-width="0.5" x1="371.42857142857144" x2="392.48120300751884" y1="288.5569090909091" y2="300.0" /></g><g inkscape:groupmode="layer" inkscape:label="rayGroup2"><line fill="none" stroke="#29ab93" stroke-dasharray="100,0" stroke-width="0.5" x1="171.42857142857144" x2="228.57142857142858" y1="282.0" y2="304.8992727272727" /><line fill="none" stroke="#29ab93" stroke-dasharray="100,0" stroke-width="0.5" x1="228.57142857142858" x2="314.28571428571433" y1="304.8992727272727" y2="353.94599999999997" /><line fill="none" stroke="#29ab93" stroke-dasharray="100,0" stroke-width="0.5" x1="314.28571428571433" x2="371.42857142857144" y1="353.94599999999997" y2="314.7158181818182" /><line fill="none" stroke="#29ab93" stroke-dasharray="100,0" stroke-width="0.5" x1="371.42857142857144" x2="392.48120300751884" y1="314.7158181818182" y2="305.6842105263158" /><line fill="none" stroke="#29ab93" stroke-dasharray="1,1" stroke-width="0.5" x1="371.42857142857144" x2="392.48120300751884" y1="314.7158181818182" y2="305.6842105263158" /><line fill="none" stroke="#29ab93" stroke-dasharray="100,0" stroke-width="0.5" x1="171.42857142857144" x2="228.57142857142858" y1="282.0" y2="302.44718181818183" /><line fill="none" stroke="#29ab93" stroke-dasharray="100,0" stroke-width="0.5" x1="228.57142857142858" x2="314.28571428571433" y1="302.44718181818183" y2="340.4595" /><line fill="none" stroke="#29ab93" stroke-dasharray="100,0" stroke-width="0.5" x1="314.28571428571433" x2="371.42857142857144" y1="340.4595" y2="311.85504545454546" /><line fill="none" stroke="#29ab93" stroke-dasharray="100,0" stroke-width="0.5" x1="371.42857142857144" x2="392.48120300751884" y1="311.85504545454546" y2="305.6842105263158" /><line fill="none" stroke="#29ab93" stroke-dasharray="1,1" stroke-width="0.5" x1="371.42857142857144" x2="392.48120300751884" y1="311.85504545454546" y2="305.6842105263158" /><line fill="none" stroke="#29ab93" stroke-dasharray="100,0" stroke-width="0.5" x1="171.42857142857144" x2="228.57142857142858" y1="282.0" y2="299.9950909090909" /><line fill="none" stroke="#29ab93" stroke-dasharray="100,0" stroke-width="0.5" x1="228.57142857142858" x2="314.28571428571433" y1="299.9950909090909" y2="326.973" /><line fill="none" stroke="#29ab93" stroke-dasharray="100,0" stroke-width="0.5" x1="314.28571428571433" x2="371.42857142857144" y1="326.973" y2="308.99427272727274" /><line fill="none" stroke="#29ab93" stroke-dasharray="100,0" stroke-width="0.5" x1="371.42857142857144" x2="392.48120300751884" y1="308.99427272727274" y2="305.6842105263158" /><line fill="none" stroke="#29ab93" stroke-dasharray="1,1" stroke-width="0.5" x1="371.42857142857144" x2="392.48120300751884" y1="308.99427272727274" y2="305.6842105263158" /><line fill="none" stroke="#29ab93" stroke-dasharray="100,0" stroke-width="0.5" x1="171.42857142857144" x2="228.57142857142858" y1="282.0" y2="297.543" /><line fill="none" stroke="#29ab93" stroke-dasharray="100,0" stroke-width="0.5" x1="228.57142857142858" x2="314.28571428571433" y1="297.543" y2="313.4865" /><line fill="none" stroke="#29ab93" stroke-dasharray="100,0" stroke-width="0.5" x1="314.28571428571433" x2="371.42857142857144" y1="313.4865" y2="306.1335" /><line fill="none" stroke="#29ab93" stroke-dasharray="100,0" stroke-width="0.5" x1="371.42857142857144" x2="392.48120300751884" y1="306.1335" y2="305.6842105263158" /><line fill="none" stroke="#29ab93" stroke-dasharray="1,1" stroke-width="0.5" x1="371.42857142857144" x2="392.48120300751884" y1="306.1335" y2="305.6842105263158" /><line fill="none" stroke="#29ab93" stroke-dasharray="100,0" stroke-width="0.5" x1="171.42857142857144" x2="228.57142857142858" y1="282.0" y2="295.09090909090907" /><line fill="none" stroke="#29ab93" stroke-dasharray="100,0" stroke-width="0.5" x1="228.57142857142858" x2="314.28571428571433" y1="295.09090909090907" y2="300.0" /><line fill="none" stroke="#29ab93" stroke-dasharray="100,0" stroke-width="0.5" x1="314.28571428571433" x2="371.42857142857144" y1="300.0" y2="303.27272727272725" /><line fill="none" stroke="#29ab93" stroke-dasharray="100,0" stroke-width="0.5" x1="371.42857142857144" x2="392.48120300751884" y1="303.27272727272725" y2="305.6842105263158" /><line fill="none" stroke="#29ab93" stroke-dasharray="1,1" stroke-width="0.5" x1="371.42857142857144" x2="392.48120300751884" y1="303.27272727272725" y2="305.6842105263158" /><line fill="none" stroke="#29ab93" stroke-dasharray="100,0" stroke-width="0.5" x1="171.42857142857144" x2="228.57142857142858" y1="282.0" y2="292.6388181818182" /><line fill="none" stroke="#29ab93" stroke-dasharray="100,0" stroke-width="0.5" x1="228.57142857142858" x2="314.28571428571433" y1="292.6388181818182" y2="286.5135" /><line fill="none" stroke="#29ab93" stroke-dasharray="100,0" stroke-width="0.5" x1="314.28571428571433" x2="371.42857142857144" y1="286.5135" y2="300.41195454545453" /><line fill="none" stroke="#29ab93" stroke-dasharray="100,0" stroke-width="0.5" x1="371.42857142857144" x2="392.48120300751884" y1="300.41195454545453" y2="305.6842105263158" /><line fill="none" stroke="#29ab93" stroke-dasharray="1,1" stroke-width="0.5" x1="371.42857142857144" x2="392.48120300751884" y1="300.41195454545453" y2="305.6842105263158" /><line fill="none" stroke="#29ab93" stroke-dasharray="100,0" stroke-width="0.5" x1="171.42857142857144" x2="228.57142857142858" y1="282.0" y2="290.1867272727273" /><line fill="none" stroke="#29ab93" stroke-dasharray="100,0" stroke-width="0.5" x1="228.57142857142858" x2="314.28571428571433" y1="290.1867272727273" y2="273.027" /><line fill="none" stroke="#29ab93" stroke-dasharray="100,0" stroke-width="0.5" x1="314.28571428571433" x2="371.42857142857144" y1="273.027" y2="297.5511818181818" /><line fill="none" stroke="#29ab93" stroke-dasharray="100,0" stroke-width="0.5" x1="371.42857142857144" x2="392.48120300751884" y1="297.5511818181818" y2="305.6842105263158" /><line fill="none" stroke="#29ab93" stroke-dasharray="1,1" stroke-width="0.5" x1="371.42857142857144" x2="392.48120300751884" y1="297.5511818181818" y2="305.6842105263158" /><line fill="none" stroke="#29ab93" stroke-dasharray="100,0" stroke-width="0.5" x1="171.42857142857144" x2="228.57142857142858" y1="282.0" y2="287.73463636363635" /><line fill="none" stroke="#29ab93" stroke-dasharray="100,0" stroke-width="0.5" x1="228.57142857142858" x2="314.28571428571433" y1="287.73463636363635" y2="259.5405" /><line fill="none" stroke="#29ab93" stroke-dasharray="100,0" stroke-width="0.5" x1="314.28571428571433" x2="371.42857142857144" y1="259.5405" y2="294.6904090909091" /><line fill="none" stroke="#29ab93" stroke-dasharray="100,0" stroke-width="0.5" x1="371.42857142857144" x2="392.48120300751884" y1="294.6904090909091" y2="305.6842105263158" /><line fill="none" stroke="#29ab93" stroke-dasharray="1,1" stroke-width="0.5" x1="371.42857142857144" x2="392.48120300751884" y1="294.6904090909091" y2="305.6842105263158" /><line fill="none" stroke="#29ab93" stroke-dasharray="100,0" stroke-width="0.5" x1="171.42857142857144" x2="228.57142857142858" y1="282.0" y2="285.28254545454547" /><line fill="none" stroke="#29ab93" stroke-dasharray="100,0" stroke-width="0.5" x1="228.57142857142858" x2="314.28571428571433" y1="285.28254545454547" y2="246.054" /><line fill="none" stroke="#29ab93" stroke-dasharray="100,0" stroke-width="0.5" x1="314.28571428571433" x2="371.42857142857144" y1="246.054" y2="291.8296363636364" /><line fill="none" stroke="#29ab93" stroke-dasharray="100,0" stroke-width="0.5" x1="371.42857142857144" x2="392.48120300751884" y1="291.8296363636364" y2="305.6842105263158" /><line fill="none" stroke="#29ab93" stroke-dasharray="1,1" stroke-width="0.5" x1="371.42857142857144" x2="392.48120300751884" y1="291.8296363636364" y2="305.6842105263158" /><line fill="none" stroke="#29ab93" stroke-dasharray="100,0" stroke-width="0.5" x1="171.42857142857144" x2="228.57142857142858" y1="318.0" y2="314.71745454545453" /><line fill="none" stroke="#29ab93" stroke-dasharray="100,0" stroke-width="0.5" x1="228.57142857142858" x2="314.28571428571433" y1="314.71745454545453" y2="353.946" /><line fill="none" stroke="#29ab93" stroke-dasharray="100,0" stroke-width="0.5" x1="314.28571428571433" x2="371.42857142857144" y1="353.946" y2="308.1703636363636" /><line fill="none" stroke="#29ab93" stroke-dasharray="100,0" stroke-width="0.5" x1="371.42857142857144" x2="392.48120300751884" y1="308.1703636363636" y2="294.3157894736842" /><line fill="none" stroke="#29ab93" stroke-dasharray="1,1" stroke-width="0.5" x1="371.42857142857144" x2="392.48120300751884" y1="308.1703636363636" y2="294.3157894736842" /><line fill="none" stroke="#29ab93" stroke-dasharray="100,0" stroke-width="0.5" x1="171.42857142857144" x2="228.57142857142858" y1="318.0" y2="312.26536363636365" /><line fill="none" stroke="#29ab93" stroke-dasharray="100,0" stroke-width="0.5" x1="228.57142857142858" x2="314.28571428571433" y1="312.26536363636365" y2="340.4595" /><line fill="none" stroke="#29ab93" stroke-dasharray="100,0" stroke-width="0.5" x1="314.28571428571433" x2="371.42857142857144" y1="340.4595" y2="305.3095909090909" /><line fill="none" stroke="#29ab93" stroke-dasharray="100,0" stroke-width="0.5" x1="371.42857142857144" x2="392.48120300751884" y1="305.3095909090909" y2="294.3157894736842" /><line fill="none" stroke="#29ab93" stroke-dasharray="1,1" stroke-width="0.5" x1="371.42857142857144" x2="392.48120300751884" y1="305.3095909090909" y2="294.3157894736842" /><line fill="none" stroke="#29ab93" stroke-dasharray="100,0" stroke-width="0.5" x1="171.42857142857144" x2="228.57142857142858" y1="318.0" y2="309.8132727272727" /><line fill="none" stroke="#29ab93" stroke-dasharray="100,0" stroke-width="0.5" x1="228.57142857142858" x2="314.28571428571433" y1="309.8132727272727" y2="326.973" /><line fill="none" stroke="#29ab93" stroke-dasharray="100,0" stroke-width="0.5" x1="314.28571428571433" x2="371.42857142857144" y1="326.973" y2="302.4488181818182" /><line fill="none" stroke="#29ab93" stroke-dasharray="100,0" stroke-width="0.5" x1="371.42857142857144" x2="392.48120300751884" y1="302.4488181818182" y2="294.3157894736842" /><line fill="none" stroke="#29ab93" stroke-dasharray="1,1" stroke-width="0.5" x1="371.42857142857144" x2="392.48120300751884" y1="302.4488181818182" y2="294.3157894736842" /><line fill="none" stroke="#29ab93" stroke-dasharray="100,0" stroke-width="0.5" x1="171.42857142857144" x2="228.57142857142858" y1="318.0" y2="307.3611818181818" /><line fill="none" stroke="#29ab93" stroke-dasharray="100,0" stroke-width="0.5" x1="228.57142857142858" x2="314.28571428571433" y1="307.3611818181818" y2="313.48650000000004" /><line fill="none" stroke="#29ab93" stroke-dasharray="100,0" stroke-width="0.5" x1="314.28571428571433" x2="371.42857142857144" y1="313.48650000000004" y2="299.58804545454547" /><line fill="none" stroke="#29ab93" stroke-dasharray="100,0" stroke-width="0.5" x1="371.42857142857144" x2="392.48120300751884" y1="299.58804545454547" y2="294.3157894736842" /><line fill="none" stroke="#29ab93" stroke-dasharray="1,1" stroke-width="0.5" x1="371.42857142857144" x2="392.48120300751884" y1="299.58804545454547" y2="294.3157894736842" /><line fill="none" stroke="#29ab93" stroke-dasharray="100,0" stroke-width="0.5" x1="171.42857142857144" x2="228.57142857142858" y1="318.0" y2="304.90909090909093" /><line fill="none" stroke="#29ab93" stroke-dasharray="100,0" stroke-width="0.5" x1="228.57142857142858" x2="314.28571428571433" y1="304.90909090909093" y2="300.0" /><line fill="none" stroke="#29ab93" stroke-dasharray="100,0" stroke-width="0.5" x1="314.28571428571433" x2="371.42857142857144" y1="300.0" y2="296.72727272727275" /><line fill="none" stroke="#29ab93" stroke-dasharray="100,0" stroke-width="0.5" x1="371.42857142857144" x2="392.48120300751884" y1="296.72727272727275" y2="294.3157894736842" /><line fill="none" stroke="#29ab93" stroke-dasharray="1,1" stroke-width="0.5" x1="371.42857142857144" x2="392.48120300751884" y1="296.72727272727275" y2="294.3157894736842" /><line fill="none" stroke="#29ab93" stroke-dasharray="100,0" stroke-width="0.5" x1="171.42857142857144" x2="228.57142857142858" y1="318.0" y2="302.457" /><line fill="none" stroke="#29ab93" stroke-dasharray="100,0" stroke-width="0.5" x1="228.57142857142858" x2="314.28571428571433" y1="302.457" y2="286.5135" /><line fill="none" stroke="#29ab93" stroke-dasharray="100,0" stroke-width="0.5" x1="314.28571428571433" x2="371.42857142857144" y1="286.5135" y2="293.86650000000003" /><line fill="none" stroke="#29ab93" stroke-dasharray="100,0" stroke-width="0.5" x1="371.42857142857144" x2="392.48120300751884" y1="293.86650000000003" y2="294.3157894736842" /><line fill="none" stroke="#29ab93" stroke-dasharray="1,1" stroke-width="0.5" x1="371.42857142857144" x2="392.48120300751884" y1="293.86650000000003" y2="294.3157894736842" /><line fill="none" stroke="#29ab93" stroke-dasharray="100,0" stroke-width="0.5" x1="171.42857142857144" x2="228.57142857142858" y1="318.0" y2="300.0049090909091" /><line fill="none" stroke="#29ab93" stroke-dasharray="100,0" stroke-width="0.5" x1="228.57142857142858" x2="314.28571428571433" y1="300.0049090909091" y2="273.027" /><line fill="none" stroke="#29ab93" stroke-dasharray="100,0" stroke-width="0.5" x1="314.28571428571433" x2="371.42857142857144" y1="273.027" y2="291.00572727272726" /><line fill="none" stroke="#29ab93" stroke-dasharray="100,0" stroke-width="0.5" x1="371.42857142857144" x2="392.48120300751884" y1="291.00572727272726" y2="294.3157894736842" /><line fill="none" stroke="#29ab93" stroke-dasharray="1,1" stroke-width="0.5" x1="371.42857142857144" x2="392.48120300751884" y1="291.00572727272726" y2="294.3157894736842" /><line fill="none" stroke="#29ab93" stroke-dasharray="100,0" stroke-width="0.5" x1="171.42857142857144" x2="228.57142857142858" y1="318.0" y2="297.55281818181817" /><line fill="none" stroke="#29ab93" stroke-dasharray="100,0" stroke-width="0.5" x1="228.57142857142858" x2="314.28571428571433" y1="297.55281818181817" y2="259.5405" /><line fill="none" stroke="#29ab93" stroke-dasharray="100,0" stroke-width="0.5" x1="314.28571428571433" x2="371.42857142857144" y1="259.5405" y2="288.14495454545454" /><line fill="none" stroke="#29ab93" stroke-dasharray="100,0" stroke-width="0.5" x1="371.42857142857144" x2="392.48120300751884" y1="288.14495454545454" y2="294.3157894736842" /><line fill="none" stroke="#29ab93" stroke-dasharray="1,1" stroke-width="0.5" x1="371.42857142857144" x2="392.48120300751884" y1="288.14495454545454" y2="294.3157894736842" /><line fill="none" stroke="#29ab93" stroke-dasharray="100,0" stroke-width="0.5" x1="171.42857142857144" x2="228.57142857142858" y1="318.0" y2="295.1007272727273" /><line fill="none" stroke="#29ab93" stroke-dasharray="100,0" stroke-width="0.5" x1="228.57142857142858" x2="314.28571428571433" y1="295.1007272727273" y2="246.05400000000003" /><line fill="none" stroke="#29ab93" stroke-dasharray="100,0" stroke-width="0.5" x1="314.28571428571433" x2="371.42857142857144" y1="246.05400000000003" y2="285.2841818181818" /><line fill="none" stroke="#29ab93" stroke-dasharray="100,0" stroke-width="0.5" x1="371.42857142857144" x2="392.48120300751884" y1="285.2841818181818" y2="294.3157894736842" /><line fill="none" stroke="#29ab93" stroke-dasharray="1,1" stroke-width="0.5" x1="371.42857142857144" x2="392.48120300751884" y1="285.2841818181818" y2="294.3157894736842" /></g></svg>