<?xml version="1.0" encoding="utf-8" ?>
<svg baseProfile="full" height="600" version="1.1" width="800" xmlns="http://www.w3.org/2000/svg" xmlns:ev="http://www.w3.org/2001/xml-events" xmlns:inkscape="http://www.inkscape.org/namespaces/inkscape" xmlns:sodipodi="http://sodipodi.sourceforge.net/DTD/sodipodi-0.dtd" xmlns:xlink="http://www.w3.org/1999/xlink"><defs /><g inkscape:groupmode="layer" inkscape:label="axis"><line fill="none" stroke="#040404" stroke-dasharray="10,4" stroke-width="2.0" x1="0" x2="800" y1="300.0" y2="300.0" /></g><g inkscape:groupmode="layer" inkscape:label="optics"><path d="M 228.57142857142858,300.0 m -5.0,-54.0 a 259.99999999999994,259.99999999999994 0 0 0    0,108.0 h   10 a 259.99999999999994,259.99999999999994 0 0 0    0,-108.0 z" fill="#CCCCCC" id="lens1" stroke="#000000" stroke-dasharray="100,0" stroke-width="1.0" /><path d="M 314.28571428571433,300.0 m -8.756553453654078,-54.0 a 389.99999999999994,389.99999999999994 0 0 1    0,108.0 h 17.513106907308156 a 389.99999999999994,389.99999999999994 0 0 1    0,-108.0 z" fill="#CCCCCC" id="lens2" stroke="#000000" stroke-dasharray="100,0" stroke-width="1.0" /><path d="M 371.42857142857144,300.0 m -5.0,-54.0 a 519.9999999999999,519.9999999999999 0 0 0    0,108.0 h   10 a 519.9999999999999,519.9999999999999 0 0 0    0,-108.0 z" fill="#CCCCCC" id="lens3" stroke="#000000" stroke-dasharray="100,0" stroke-width="1.0" /></g><g inkscape:groupmode="layer" inkscape:label="stops"><path d="M 371.42857142857144,300.0 m -5.0,54.0 h   10 m    0,-108.0 h  -10 m  5.0,   0 v -126.0 m    0,234.0 v 126.0 " fill="none" id="lens3" stroke="#FF0000" stroke-dasharray="100,0" stroke-width="2" /><path d="M 228.57142857142858,300.0 m -5.0,54.0 h   10 m    0,-108.0 h  -10 m  5.0,   0 v -126.0 m    0,234.0 v 126.0 " fill="none" id="lens1" stroke="#00FF00" stroke-dasharray="100,0" stroke-width="2" /></g><g inkscape:groupmode="layer" inkscape:label="pupils"><path d="M 190.0,300.0 m -5.0,8.100000000000044 h   10 m    0,-16.200000000000088 h  -10 m  5.0,   0 v -171.89999999999995 m    0,188.10000000000002 v 171.89999999999995 " fill="none" id="__entrance_pupil__" stroke="#FF2020" stroke-dasharray="100,0" stroke-width="1.5" /><path d="M 371.42857142857144,300.0 m -5.0,54.0 h   10 m    0,-108.0 h  -10 m  5.0,   0 v -126.0 m    0,234.0 v 126.0 " fill="none" id="__exit_pupil__" stroke="#FF1010" stroke-dasharray="100,0" stroke-width="1.5" /></g><g inkscape:groupmode="layer" inkscape:label="windows"><path d="M 228.57142857142858,300.0 m -5.0,54.0 h   10 m    0,-108.0 h  -10 m  5.0,   0 v -126.0 m    0,234.0 v 126.0 " fill="none" id="__entrance_window__" stroke="#20FF20" stroke-dasharray="100,0" stroke-width="1.5" /><path d="M 542.8571428571429,300.0 m -5.0,36.00000000000004 h   10 m    0,-72.00000000000009 h  -10 m  5.0,   0 v -143.99999999999994 m    0,216.00000000000003 v 143.99999999999994 " fill="none" id="__exit_window__" stroke="#10FF10" stroke-dasharray="100,0" stroke-width="1.5" /></g><g inkscape:groupmode="layer" inkscape:label="objects"><path d="M 171.42857142857144,300.0 m    0,18.0 v -36.0 l   -3, 7.0 l    6,   0 l   -3,-7.0 " fill="#000000" stroke="#000000" stroke-dasharray="100,0" stroke-width="1.0" /></g><g inkscape:groupmode="layer" inkscape:label="images"><path d="M 619.0476190476186,300.0 m    0,35.999999999999794 v -71.99999999999959 l   -3, 7.0 l    6,   0 l   -3,-7.0 " fill="#020202" stroke="#020202" stroke-dasharray="100,0" stroke-width="1.0" /></g><g inkscape:groupmode="layer" inkscape:label="rayGroup1"><line fill="none" stroke="#E00000" stroke-dasharray="100,0" stroke-width="0.5" x1="171.42857142857144" x2="228.57142857142858" y1="300.0" y2="324.89815384615383" /><line fill="none" stroke="#E00000" stroke-dasharray="100,0" stroke-width="0.5" x1="228.57142857142858" x2="314.28571428571433" y1="324.89815384615383" y2="287.5509230769231" /><line fill="none" stroke="#E00000" stroke-dasharray="100,0" stroke-width="0.5" x1="314.28571428571433" x2="371.42857142857144" y1="287.5509230769231" y2="246.05400000000003" /><line fill="none" stroke="#E00000" stroke-dasharray="100,0" stroke-width="0.5" x1="371.42857142857144" x2="619.0476190476186" y1="246.05400000000003" y2="299.9999999999999" /><line fill="none" stroke="#E00000" stroke-dasharray="1,1" stroke-width="0.5" x1="371.42857142857144" x2="619.0476190476186" y1="246.05400000000003" y2="299.9999999999999" /><line fill="none" stroke="#E00000" stroke-dasharray="100,0" stroke-width="0.5" x1="171.42857142857144" x2="228.57142857142858" y1="300.0" y2="318.6736153846154" /><line fill="none" stroke="#E00000" stroke-dasharray="100,0" stroke-width="0.5" x1="228.57142857142858" x2="314.28571428571433" y1="318.6736153846154" y2="290.6631923076923" /><line fill="none" stroke="#E00000" stroke-dasharray="100,0" stroke-width="0.5" x1="314.28571428571433" x2="371.42857142857144" y1="290.6631923076923" y2="259.5405" /><line fill="none" stroke="#E00000" stroke-dasharray="100,0" stroke-width="0.5" x1="371.42857142857144" x2="619.0476190476186" y1="259.5405" y2="299.99999999999994" /><line fill="none" stroke="#E00000" stroke-dasharray="1,1" stroke-width="0.5" x1="371.42857142857144" x2="619.0476190476186" y1="259.5405" y2="299.99999999999994" /><line fill="none" stroke="#E00000" stroke-dasharray="100,0" stroke-width="0.5" x1="171.42857142857144" x2="228.57142857142858" y1="300.0" y2="312.4490769230769" /><line fill="none" stroke="#E00000" stroke-dasharray="100,0" stroke-width="0.5" x1="228.57142857142858" x2="314.28571428571433" y1="312.4490769230769" y2="293.7754615384615" /><line fill="none" stroke="#E00000" stroke-dasharray="100,0" stroke-width="0.5" x1="314.28571428571433" x2="371.42857142857144" y1="293.7754615384615" y2="273.027" /><line fill="none" stroke="#E00000" stroke-dasharray="100,0" stroke-width="0.5" x1="371.42857142857144" x2="619.0476190476186" y1="273.027" y2="299.99999999999994" /><line fill="none" stroke="#E00000" stroke-dasharray="1,1" stroke-width="0.5" x1="371.42857142857144" x2="619.0476190476186" y1="273.027" y2="299.99999999999994" /><line fill="none" stroke="#E00000" stroke-dasharray="100,0" stroke-width="0.5" x1="171.42857142857144" x2="228.57142857142858" y1="300.0" y2="306.2245384615385" /><line fill="none" stroke="#E00000" stroke-dasharray="100,0" stroke-width="0.5" x1="228.57142857142858" x2="314.28571428571433" y1="306.2245384615385" y2="296.88773076923076" /><line fill="none" stroke="#E00000" stroke-dasharray="100,0" stroke-width="0.5" x1="314.28571428571433" x2="371.42857142857144" y1="296.88773076923076" y2="286.5135" /><line fill="none" stroke="#E00000" stroke-dasharray="100,0" stroke-width="0.5" x1="371.42857142857144" x2="619.0476190476186" y1="286.5135" y2="300.0" /><line fill="none" stroke="#E00000" stroke-dasharray="1,1" stroke-width="0.5" x1="371.42857142857144" x2="619.0476190476186" y1="286.5135" y2="300.0" /><line fill="none" stroke="#E00000" stroke-dasharray="100,0" stroke-width="0.5" x1="171.42857142857144" x2="228.57142857142858" y1="300.0" y2="300.0" /><line fill="none" stroke="#E00000" stroke-dasharray="100,0" stroke-width="0.5" x1="228.57142857142858" x2="314.28571428571433" y1="300.0" y2="300.0" /><line fill="none" stroke="#E00000" stroke-dasharray="100,0" stroke-width="0.5" x1="314.28571428571433" x2="371.42857142857144" y1="300.0" y2="300.0" /><line fill="none" stroke="#E00000" stroke-dasharray="100,0" stroke-width="0.5" x1="371.42857142857144" x2="619.0476190476186" y1="300.0" y2="300.0" /><line fill="none" stroke="#E00000" stroke-dasharray="1,1" stroke-width="0.5" x1="371.42857142857144" x2="619.0476190476186" y1="300.0" y2="300.0" /><line fill="none" stroke="#E00000" stroke-dasharray="100,0" stroke-width="0.5" x1="171.42857142857144" x2="228.57142857142858" y1="300.0" y2="293.7754615384615" /><line fill="none" stroke="#E00000" stroke-dasharray="100,0" stroke-width="0.5" x1="228.57142857142858" x2="314.28571428571433" y1="293.7754615384615" y2="303.11226923076924" /><line fill="none" stroke="#E00000" stroke-dasharray="100,0" stroke-width="0.5" x1="314.28571428571433" x2="371.42857142857144" y1="303.11226923076924" y2="313.4865" /><line fill="none" stroke="#E00000" stroke-dasharray="100,0" stroke-width="0.5" x1="371.42857142857144" x2="619.0476190476186" y1="313.4865" y2="300.0" /><line fill="none" stroke="#E00000" stroke-dasharray="1,1" stroke-width="0.5" x1="371.42857142857144" x2="619.0476190476186" y1="313.4865" y2="300.0" /><line fill="none" stroke="#E00000" stroke-dasharray="100,0" stroke-width="0.5" x1="171.42857142857144" x2="228.57142857142858" y1="300.0" y2="287.5509230769231" /><line fill="none" stroke="#E00000" stroke-dasharray="100,0" stroke-width="0.5" x1="228.57142857142858" x2="314.28571428571433" y1="287.5509230769231" y2="306.2245384615385" /><line fill="none" stroke="#E00000" stroke-dasharray="100,0" stroke-width="0.5" x1="314.28571428571433" x2="371.42857142857144" y1="306.2245384615385" y2="326.973" /><line fill="none" stroke="#E00000" stroke-dasharray="100,0" stroke-width="0.5" x1="371.42857142857144" x2="619.0476190476186" y1="326.973" y2="300.00000000000006" /><line fill="none" stroke="#E00000" stroke-dasharray="1,1" stroke-width="0.5" x1="371.42857142857144" x2="619.0476190476186" y1="326.973" y2="300.00000000000006" /><line fill="none" stroke="#E00000" stroke-dasharray="100,0" stroke-width="0.5" x1="171.42857142857144" x2="228.57142857142858" y1="300.0" y2="281.3263846153846" /><line fill="none" stroke="#E00000" stroke-dasharray="100,0" stroke-width="0.5" x1="228.57142857142858" x2="314.28571428571433" y1="281.3263846153846" y2="309.3368076923077" /><line fill="none" stroke="#E00000" stroke-dasharray="100,0" stroke-width="0.5" x1="314.28571428571433" x2="371.42857142857144" y1="309.3368076923077" y2="340.4595" /><line fill="none" stroke="#E00000" stroke-dasharray="100,0" stroke-width="0.5" x1="371.42857142857144" x2="619.0476190476186" y1="340.4595" y2="300.00000000000006" /><line fill="none" stroke="#E00000" stroke-dasharray="1,1" stroke-width="0.5" x1="371.42857142857144" x2="619.0476190476186" y1="340.4595" y2="300.00000000000006" /><line fill="none" stroke="#E00000" stroke-dasharray="100,0" stroke-width="0.5" x1="171.42857142857144" x2="228.57142857142858" y1="300.0" y2="275.10184615384617" /><line fill="none" stroke="#E00000" stroke-dasharray="100,0" stroke-width="0.5" x1="228.57142857142858" x2="314.28571428571433" y1="275.10184615384617" y2="312.4490769230769" /><line fill="none" stroke="#E00000" stroke-dasharray="100,0" stroke-width="0.5" x1="314.28571428571433" x2="371.42857142857144" y1="312.4490769230769" y2="353.94599999999997" /><line fill="none" stroke="#E00000" stroke-dasharray="100,0" stroke-width="0.5" x1="371.42857142857144" x2="619.0476190476186" y1="353.94599999999997" y2="300.0000000000001" /><line fill="none" stroke="#E00000" stroke-dasharray="1,1" stroke-width="0.5" x1="371.42857142857144" x2="619.0476190476186" y1="353.94599999999997" y2="300.0000000000001" /></g><g inkscape:groupmode="layer" inkscape:label="rayGroup2"><line fill="none" stroke="#29ab93" stroke-dasharray="100,0" stroke-width="0.5" x1="171.42857142857144" x2="228.57142857142858" y1="282.0" y2="362.2827692307692" /><line fill="none" stroke="#29ab93" stroke-dasharray="100,0" stroke-width="0.5" x1="171.42857142857144" x2="228.57142857142858" y1="282.0" y2="356.05823076923076" /><line fill="none" stroke="#29ab93" stroke-dasharray="100,0" stroke-width="0.5" x1="171.42857142857144" x2="228.57142857142858" y1="282.0" y2="349.83369230769233" /><line fill="none" stroke="#29ab93" stroke-dasharray="100,0" stroke-width="0.5" x1="228.57142857142858" x2="314.28571428571433" y1="349.83369230769233" y2="302.08315384615383" /><line fill="none" stroke="#29ab93" stroke-dasharray="100,0" stroke-width="0.5" x1="314.28571428571433" x2="371.42857142857144" y1="302.08315384615383" y2="273.02699999999993" /><line fill="none" stroke="#29ab93" stroke-dasharray="100,0" stroke-width="0.5" x1="371.42857142857144" x2="619.0476190476186" y1="273.02699999999993" y2="264.00000000000006" /><line fill="none" stroke="#29ab93" stroke-dasharray="1,1" stroke-width="0.5" x1="371.42857142857144" x2="619.0476190476186" y1="273.02699999999993" y2="264.00000000000006" /><line fill="none" stroke="#29ab93" stroke-dasharray="100,0" stroke-width="0.5" x1="171.42857142857144" x2="228.57142857142858" y1="282.0" y2="343.60915384615384" /><line fill="none" stroke="#29ab93" stroke-dasharray="100,0" stroke-width="0.5" x1="228.57142857142858" x2="314.28571428571433" y1="343.60915384615384" y2="305.1954230769231" /><line fill="none" stroke="#29ab93" stroke-dasharray="100,0" stroke-width="0.5" x1="314.28571428571433" x2="371.42857142857144" y1="305.1954230769231" y2="286.51349999999996" /><line fill="none" stroke="#29ab93" stroke-dasharray="100,0" stroke-width="0.5" x1="371.42857142857144" x2="619.0476190476186" y1="286.51349999999996" y2="264.00000000000006" /><line fill="none" stroke="#29ab93" stroke-dasharray="1,1" stroke-width="0.5" x1="371.42857142857144" x2="619.0476190476186" y1="286.51349999999996" y2="264.00000000000006" /><line fill="none" stroke="#29ab93" stroke-dasharray="100,0" stroke-width="0.5" x1="171.42857142857144" x2="228.57142857142858" y1="282.0" y2="337.38461538461536" /><line fill="none" stroke="#29ab93" stroke-dasharray="100,0" stroke-width="0.5" x1="228.57142857142858" x2="314.28571428571433" y1="337.38461538461536" y2="308.3076923076923" /><line fill="none" stroke="#29ab93" stroke-dasharray="100,0" stroke-width="0.5" x1="314.28571428571433" x2="371.42857142857144" y1="308.3076923076923" y2="300.0" /><line fill="none" stroke="#29ab93" stroke-dasharray="100,0" stroke-width="0.5" x1="371.42857142857144" x2="619.0476190476186" y1="300.0" y2="264.00000000000006" /><line fill="none" stroke="#29ab93" stroke-dasharray="1,1" stroke-width="0.5" x1="371.42857142857144" x2="619.0476190476186" y1="300.0" y2="264.00000000000006" /><line fill="none" stroke="#29ab93" stroke-dasharray="100,0" stroke-width="0.5" x1="171.42857142857144" x2="228.57142857142858" y1="282.0" y2="331.16007692307693" /><line fill="none" stroke="#29ab93" stroke-dasharray="100,0" stroke-width="0.5" x1="228.57142857142858" x2="314.28571428571433" y1="331.16007692307693" y2="311.4199615384615" /><line fill="none" stroke="#29ab93" stroke-dasharray="100,0" stroke-width="0.5" x1="314.28571428571433" x2="371.42857142857144" y1="311.4199615384615" y2="313.4865" /><line fill="none" stroke="#29ab93" stroke-dasharray="100,0" stroke-width="0.5" x1="371.42857142857144" x2="619.0476190476186" y1="313.4865" y2="264.0000000000001" /><line fill="none" stroke="#29ab93" stroke-dasharray="1,1" stroke-width="0.5" x1="371.42857142857144" x2="619.0476190476186" y1="313.4865" y2="264.0000000000001" /><line fill="none" stroke="#29ab93" stroke-dasharray="100,0" stroke-width="0.5" x1="171.42857142857144" x2="228.57142857142858" y1="282.0" y2="324.93553846153844" /><line fill="none" stroke="#29ab93" stroke-dasharray="100,0" stroke-width="0.5" x1="228.57142857142858" x2="314.28571428571433" y1="324.93553846153844" y2="314.53223076923075" /><line fill="none" stroke="#29ab93" stroke-dasharray="100,0" stroke-width="0.5" x1="314.28571428571433" x2="371.42857142857144" y1="314.53223076923075" y2="326.97299999999996" /><line fill="none" stroke="#29ab93" stroke-dasharray="100,0" stroke-width="0.5" x1="371.42857142857144" x2="619.0476190476186" y1="326.97299999999996" y2="264.0000000000001" /><line fill="none" stroke="#29ab93" stroke-dasharray="1,1" stroke-width="0.5" x1="371.42857142857144" x2="619.0476190476186" y1="326.97299999999996" y2="264.0000000000001" /><line fill="none" stroke="#29ab93" stroke-dasharray="100,0" stroke-width="0.5" x1="171.42857142857144" x2="228.57142857142858" y1="282.0" y2="318.711" /><line fill="none" stroke="#29ab93" stroke-dasharray="100,0" stroke-width="0.5" x1="228.57142857142858" x2="314.28571428571433" y1="318.711" y2="317.6445" /><line fill="none" stroke="#29ab93" stroke-dasharray="100,0" stroke-width="0.5" x1="314.28571428571433" x2="371.42857142857144" y1="317.6445" y2="340.4595" /><line fill="none" stroke="#29ab93" stroke-dasharray="100,0" stroke-width="0.5" x1="371.42857142857144" x2="619.0476190476186" y1="340.4595" y2="264.0000000000001" /><line fill="none" stroke="#29ab93" stroke-dasharray="1,1" stroke-width="0.5" x1="371.42857142857144" x2="619.0476190476186" y1="340.4595" y2="264.0000000000001" /><line fill="none" stroke="#29ab93" stroke-dasharray="100,0" stroke-width="0.5" x1="171.42857142857144" x2="228.57142857142858" y1="282.0" y2="312.4864615384615" /><line fill="none" stroke="#29ab93" stroke-dasharray="100,0" stroke-width="0.5" x1="228.57142857142858" x2="314.28571428571433" y1="312.4864615384615" y2="320.75676923076924" /><line fill="none" stroke="#29ab93" stroke-dasharray="100,0" stroke-width="0.5" x1="314.28571428571433" x2="371.42857142857144" y1="320.75676923076924" y2="353.94599999999997" /><line fill="none" stroke="#29ab93" stroke-dasharray="100,0" stroke-width="0.5" x1="371.42857142857144" x2="619.0476190476186" y1="353.94599999999997" y2="264.0000000000001" /><line fill="none" stroke="#29ab93" stroke-dasharray="1,1" stroke-width="0.5" x1="371.42857142857144" x2="619.0476190476186" y1="353.94599999999997" y2="264.0000000000001" /><line fill="none" stroke="#29ab93" stroke-dasharray="100,0" stroke-width="0.5" x1="171.42857142857144" x2="228.57142857142858" y1="318.0" y2="287.5135384615385" /><line fill="none" stroke="#29ab93" stroke-dasharray="100,0" stroke-width="0.5" x1="228.57142857142858" x2="314.28571428571433" y1="287.5135384615385" y2="279.24323076923076" /><line fill="none" stroke="#29ab93" stroke-dasharray="100,0" stroke-width="0.5" x1="314.28571428571433" x2="371.42857142857144" y1="279.24323076923076" y2="246.05400000000003" /><line fill="none" stroke="#29ab93" stroke-dasharray="100,0" stroke-width="0.5" x1="371.42857142857144" x2="619.0476190476186" y1="246.05400000000003" y2="335.9999999999999" /><line fill="none" stroke="#29ab93" stroke-dasharray="1,1" stroke-width="0.5" x1="371.42857142857144" x2="619.0476190476186" y1="246.05400000000003" y2="335.9999999999999" /><line fill="none" stroke="#29ab93" stroke-dasharray="100,0" stroke-width="0.5" x1="171.42857142857144" x2="228.57142857142858" y1="318.0" y2="281.289" /><line fill="none" stroke="#29ab93" stroke-dasharray="100,0" stroke-width="0.5" x1="228.57142857142858" x2="314.28571428571433" y1="281.289" y2="282.3555" /><line fill="none" stroke="#29ab93" stroke-dasharray="100,0" stroke-width="0.5" x1="314.28571428571433" x2="371.42857142857144" y1="282.3555" y2="259.5405" /><line fill="none" stroke="#29ab93" stroke-dasharray="100,0" stroke-width="0.5" x1="371.42857142857144" x2="619.0476190476186" y1="259.5405" y2="335.9999999999999" /><line fill="none" stroke="#29ab93" stroke-dasharray="1,1" stroke-width="0.5" x1="371.42857142857144" x2="619.0476190476186" y1="259.5405" y2="335.9999999999999" /><line fill="none" stroke="#29ab93" stroke-dasharray="100,0" stroke-width="0.5" x1="171.42857142857144" x2="228.57142857142858" y1="318.0" y2="275.06446153846156" /><line fill="none" stroke="#29ab93" stroke-dasharray="100,0" stroke-width="0.5" x1="228.57142857142858" x2="314.28571428571433" y1="275.06446153846156" y2="285.46776923076925" /><line fill="none" stroke="#29ab93" stroke-dasharray="100,0" stroke-width="0.5" x1="314.28571428571433" x2="371.42857142857144" y1="285.46776923076925" y2="273.02700000000004" /><line fill="none" stroke="#29ab93" stroke-dasharray="100,0" stroke-width="0.5" x1="371.42857142857144" x2="619.0476190476186" y1="273.02700000000004" y2="335.9999999999999" /><line fill="none" stroke="#29ab93" stroke-dasharray="1,1" stroke-width="0.5" x1="371.42857142857144" x2="619.0476190476186" y1="273.02700000000004" y2="335.9999999999999" /><line fill="none" stroke="#29ab93" stroke-dasharray="100,0" stroke-width="0.5" x1="171.42857142857144" x2="228.57142857142858" y1="318.0" y2="268.83992307692307" /><line fill="none" stroke="#29ab93" stroke-dasharray="100,0" stroke-width="0.5" x1="228.57142857142858" x2="314.28571428571433" y1="268.83992307692307" y2="288.5800384615385" /><line fill="none" stroke="#29ab93" stroke-dasharray="100,0" stroke-width="0.5" x1="314.28571428571433" x2="371.42857142857144" y1="288.5800384615385" y2="286.5135" /><line fill="none" stroke="#29ab93" stroke-dasharray="100,0" stroke-width="0.5" x1="371.42857142857144" x2="619.0476190476186" y1="286.5135" y2="335.9999999999999" /><line fill="none" stroke="#29ab93" stroke-dasharray="1,1" stroke-width="0.5" x1="371.42857142857144" x2="619.0476190476186" y1="286.5135" y2="335.9999999999999" /><line fill="none" stroke="#29ab93" stroke-dasharray="100,0" stroke-width="0.5" x1="171.42857142857144" x2="228.57142857142858" y1="318.0" y2="262.61538461538464" /><line fill="none" stroke="#29ab93" stroke-dasharray="100,0" stroke-width="0.5" x1="228.57142857142858" x2="314.28571428571433" y1="262.61538461538464" y2="291.6923076923077" /><line fill="none" stroke="#29ab93" stroke-dasharray="100,0" stroke-width="0.5" x1="314.28571428571433" x2="371.42857142857144" y1="291.6923076923077" y2="300.0" /><line fill="none" stroke="#29ab93" stroke-dasharray="100,0" stroke-width="0.5" x1="371.42857142857144" x2="619.0476190476186" y1="300.0" y2="335.99999999999994" /><line fill="none" stroke="#29ab93" stroke-dasharray="1,1" stroke-width="0.5" x1="371.42857142857144" x2="619.0476190476186" y1="300.0" y2="335.99999999999994" /><line fill="none" stroke="#29ab93" stroke-dasharray="100,0" stroke-width="0.5" x1="171.42857142857144" x2="228.57142857142858" y1="318.0" y2="256.39084615384616" /><line fill="none" stroke="#29ab93" stroke-dasharray="100,0" stroke-width="0.5" x1="228.57142857142858" x2="314.28571428571433" y1="256.39084615384616" y2="294.8045769230769" /><line fill="none" stroke="#29ab93" stroke-dasharray="100,0" stroke-width="0.5" x1="314.28571428571433" x2="371.42857142857144" y1="294.8045769230769" y2="313.48650000000004" /><line fill="none" stroke="#29ab93" stroke-dasharray="100,0" stroke-width="0.5" x1="371.42857142857144" x2="619.0476190476186" y1="313.48650000000004" y2="335.99999999999994" /><line fill="none" stroke="#29ab93" stroke-dasharray="1,1" stroke-width="0.5" x1="371.42857142857144" x2="619.0476190476186" y1="313.48650000000004" y2="335.99999999999994" /><line fill="none" stroke="#29ab93" stroke-dasharray="100,0" stroke-width="0.5" x1="171.42857142857144" x2="228.57142857142858" y1="318.0" y2="250.1663076923077" /><line fill="none" stroke="#29ab93" stroke-dasharray="100,0" stroke-width="0.5" x1="228.57142857142858" x2="314.28571428571433" y1="250.1663076923077" y2="297.91684615384617" /><line fill="none" stroke="#29ab93" stroke-dasharray="100,0" stroke-width="0.5" x1="314.28571428571433" x2="371.42857142857144" y1="297.91684615384617" y2="326.97300000000007" /><line fill="none" stroke="#29ab93" stroke-dasharray="100,0" stroke-width="0.5" x1="371.42857142857144" x2="619.0476190476186" y1="326.97300000000007" y2="335.99999999999994" /><line fill="none" stroke="#29ab93" stroke-dasharray="1,1" stroke-width="0.5" x1="371.42857142857144" x2="619.0476190476186" y1="326.97300000000007" y2="335.99999999999994" /><line fill="none" stroke="#29ab93" stroke-dasharray="100,0" stroke-width="0.5" x1="171.42857142857144" x2="228.57142857142858" y1="318.0" y2="243.94176923076924" /><line fill="none" stroke="#29ab93" stroke-dasharray="100,0" stroke-width="0.5" x1="171.42857142857144" x2="228.57142857142858" y1="318.0" y2="237.71723076923078" /></g></svg>