<?xml version="1.0" encoding="utf-8" ?>
<svg baseProfile="full" height="600" version="1.1" width="800" xmlns="http://www.w3.org/2000/svg" xmlns:ev="http://www.w3.org/2001/xml-events" xmlns:inkscape="http://www.inkscape.org/namespaces/inkscape" xmlns:sodipodi="http://sodipodi.sourceforge.net/DTD/sodipodi-0.dtd" xmlns:xlink="http://www.w3.org/1999/xlink"><defs /><g inkscape:groupmode="layer" inkscape:label="axis"><line fill="none" stroke="#040404" stroke-dasharray="10,4" stroke-width="2.0" x1="0" x2="800" y1="300.0" y2="300.0" /></g><g inkscape:groupmode="layer" inkscape:label="optics"><path d="M 228.57142857142858,300.0 m -5.0,-54.0 a 259.99999999999994,259.99999999999994 0 0 0    0,108.0 h   10 a 259.99999999999994,259.99999999999994 0 0 0    0,-108.0 z" fill="#CCCCCC" id="lens1" stroke="#000000" stroke-dasharray="100,0" stroke-width="1.0" /><path d="M 314.28571428571433,300.0 m -5.0,-54.0 a 389.99999999999994,389.99999999999994 0 0 0    0,108.0 h   10 a 389.99999999999994,389.99999999999994 0 0 0    0,-108.0 z" fill="#CCCCCC" id="lens2" stroke="#000000" stroke-dasharray="100,0" stroke-width="1.0" /><path d="M 371.42857142857144,300.0 m -5.0,-54.0 a 519.9999999999999,519.9999999999999 0 0 0    0,108.0 h   10 a 519.9999999999999,519.9999999999999 0 0 0    0,-108.0 z" fill="#CCCCCC" id="lens3" stroke="#000000" stroke-dasharray="100,0" stroke-width="1.0" /></g><g inkscape:groupmode="layer" inkscape:label="stops"><path d="M 228.57142857142858,300.0 m -5.0,54.0 h   10 m    0,-108.0 h  -10 m  5.0,   0 v -126.0 m    0,234.0 v 126.0 " fill="none" id="lens1" stroke="#FF0000" stroke-dasharray="100,0" stroke-width="2" /><path d="M 314.28571428571433,300.0 m -5.0,54.0 h   10 m    0,-108.0 h  -10 m  5.0,   0 v -126.0 m    0,234.0 v 126.0 " fill="none" id="lens2" stroke="#00FF00" stroke-dasharray="100,0" stroke-width="2" /></g><g inkscape:groupmode="layer" inkscape:label="pupils"><path d="M 228.57142857142858,300.0 m -5.0,54.0 h   10 m    0,-108.0 h  -10 m  5.0,   0 v -126.0 m    0,234.0 v 126.0 " fill="none" id="__entrance_pupil__" stroke="#FF2020" stroke-dasharray="100,0" stroke-width="1.5" /><path d="M 390.4761904761905,300.0 m -5.0,36.00000000000001 h   10 m    0,-72.00000000000001 h  -10 m  5.0,   0 v -144.0 m    0,216.0 v 144.0 " fill="none" id="__exit_pupil__" stroke="#FF1010" stroke-dasharray="100,0" stroke-width="1.5" /></g><g inkscape:groupmode="layer" inkscape:label="windows"><path d="M 185.71428571428572,300.0 m -5.0,27.0 h   10 m    0,-54.0 h  -10 m  5.0,   0 v -153.0 m    0,207.0 v 153.0 " fill="none" id="__entrance_window__" stroke="#20FF20" stroke-dasharray="100,0" stroke-width="1.5" /></g><g inkscape:groupmode="layer" inkscape:label="objects"><path d="M 171.42857142857144,300.0 m    0,18.0 v -36.0 l   -3, 7.0 l    6,   0 l   -3,-7.0 " fill="#000000" stroke="#000000" stroke-dasharray="100,0" stroke-width="1.0" /></g><g inkscape:groupmode="layer" inkscape:label="images"><path d="M 466.66666666666674,300.0 m    0,36.000000000000014 v -72.00000000000003 l   -3, 7.0 l    6,   0 l   -3,-7.0 " fill="#020202" stroke="#020202" stroke-dasharray="100,0" stroke-width="1.0" /></g><g inkscape:groupmode="layer" inkscape:label="rayGroup1"><line fill="none" stroke="#E00000" stroke-dasharray="100,0" stroke-width="0.5" x1="171.42857142857144" x2="228.57142857142858" y1="300.0" y2="353.946" /><line fill="none" stroke="#E00000" stroke-dasharray="100,0" stroke-width="0.5" x1="228.57142857142858" x2="314.28571428571433" y1="353.946" y2="273.027" /><line fill="none" stroke="#E00000" stroke-dasharray="100,0" stroke-width="0.5" x1="314.28571428571433" x2="371.42857142857144" y1="273.027" y2="255.04500000000002" /><line fill="none" stroke="#E00000" stroke-dasharray="100,0" stroke-width="0.5" x1="371.42857142857144" x2="466.66666666666674" y1="255.04500000000002" y2="300.0" /><line fill="none" stroke="#E00000" stroke-dasharray="1,1" stroke-width="0.5" x1="371.42857142857144" x2="466.66666666666674" y1="255.04500000000002" y2="300.0" /><line fill="none" stroke="#E00000" stroke-dasharray="100,0" stroke-width="0.5" x1="171.42857142857144" x2="228.57142857142858" y1="300.0" y2="340.4595" /><line fill="none" stroke="#E00000" stroke-dasharray="100,0" stroke-width="0.5" x1="228.57142857142858" x2="314.28571428571433" y1="340.4595" y2="279.77025" /><line fill="none" stroke="#E00000" stroke-dasharray="100,0" stroke-width="0.5" x1="314.28571428571433" x2="371.42857142857144" y1="279.77025" y2="266.28375" /><line fill="none" stroke="#E00000" stroke-dasharray="100,0" stroke-width="0.5" x1="371.42857142857144" x2="466.66666666666674" y1="266.28375" y2="300.0" /><line fill="none" stroke="#E00000" stroke-dasharray="1,1" stroke-width="0.5" x1="371.42857142857144" x2="466.66666666666674" y1="266.28375" y2="300.0" /><line fill="none" stroke="#E00000" stroke-dasharray="100,0" stroke-width="0.5" x1="171.42857142857144" x2="228.57142857142858" y1="300.0" y2="326.973" /><line fill="none" stroke="#E00000" stroke-dasharray="100,0" stroke-width="0.5" x1="228.57142857142858" x2="314.28571428571433" y1="326.973" y2="286.5135" /><line fill="none" stroke="#E00000" stroke-dasharray="100,0" stroke-width="0.5" x1="314.28571428571433" x2="371.42857142857144" y1="286.5135" y2="277.5225" /><line fill="none" stroke="#E00000" stroke-dasharray="100,0" stroke-width="0.5" x1="371.42857142857144" x2="466.66666666666674" y1="277.5225" y2="300.0" /><line fill="none" stroke="#E00000" stroke-dasharray="1,1" stroke-width="0.5" x1="371.42857142857144" x2="466.66666666666674" y1="277.5225" y2="300.0" /><line fill="none" stroke="#E00000" stroke-dasharray="100,0" stroke-width="0.5" x1="171.42857142857144" x2="228.57142857142858" y1="300.0" y2="313.4865" /><line fill="none" stroke="#E00000" stroke-dasharray="100,0" stroke-width="0.5" x1="228.57142857142858" x2="314.28571428571433" y1="313.4865" y2="293.25675" /><line fill="none" stroke="#E00000" stroke-dasharray="100,0" stroke-width="0.5" x1="314.28571428571433" x2="371.42857142857144" y1="293.25675" y2="288.76125" /><line fill="none" stroke="#E00000" stroke-dasharray="100,0" stroke-width="0.5" x1="371.42857142857144" x2="466.66666666666674" y1="288.76125" y2="300.0" /><line fill="none" stroke="#E00000" stroke-dasharray="1,1" stroke-width="0.5" x1="371.42857142857144" x2="466.66666666666674" y1="288.76125" y2="300.0" /><line fill="none" stroke="#E00000" stroke-dasharray="100,0" stroke-width="0.5" x1="171.42857142857144" x2="228.57142857142858" y1="300.0" y2="300.0" /><line fill="none" stroke="#E00000" stroke-dasharray="100,0" stroke-width="0.5" x1="228.57142857142858" x2="314.28571428571433" y1="300.0" y2="300.0" /><line fill="none" stroke="#E00000" stroke-dasharray="100,0" stroke-width="0.5" x1="314.28571428571433" x2="371.42857142857144" y1="300.0" y2="300.0" /><line fill="none" stroke="#E00000" stroke-dasharray="100,0" stroke-width="0.5" x1="371.42857142857144" x2="466.66666666666674" y1="300.0" y2="300.0" /><line fill="none" stroke="#E00000" stroke-dasharray="1,1" stroke-width="0.5" x1="371.42857142857144" x2="466.66666666666674" y1="300.0" y2="300.0" /><line fill="none" stroke="#E00000" stroke-dasharray="100,0" stroke-width="0.5" x1="171.42857142857144" x2="228.57142857142858" y1="300.0" y2="286.5135" /><line fill="none" stroke="#E00000" stroke-dasharray="100,0" stroke-width="0.5" x1="228.57142857142858" x2="314.28571428571433" y1="286.5135" y2="306.74325" /><line fill="none" stroke="#E00000" stroke-dasharray="100,0" stroke-width="0.5" x1="314.28571428571433" x2="371.42857142857144" y1="306.74325" y2="311.23875" /><line fill="none" stroke="#E00000" stroke-dasharray="100,0" stroke-width="0.5" x1="371.42857142857144" x2="466.66666666666674" y1="311.23875" y2="300.0" /><line fill="none" stroke="#E00000" stroke-dasharray="1,1" stroke-width="0.5" x1="371.42857142857144" x2="466.66666666666674" y1="311.23875" y2="300.0" /><line fill="none" stroke="#E00000" stroke-dasharray="100,0" stroke-width="0.5" x1="171.42857142857144" x2="228.57142857142858" y1="300.0" y2="273.027" /><line fill="none" stroke="#E00000" stroke-dasharray="100,0" stroke-width="0.5" x1="228.57142857142858" x2="314.28571428571433" y1="273.027" y2="313.4865" /><line fill="none" stroke="#E00000" stroke-dasharray="100,0" stroke-width="0.5" x1="314.28571428571433" x2="371.42857142857144" y1="313.4865" y2="322.4775" /><line fill="none" stroke="#E00000" stroke-dasharray="100,0" stroke-width="0.5" x1="371.42857142857144" x2="466.66666666666674" y1="322.4775" y2="300.0" /><line fill="none" stroke="#E00000" stroke-dasharray="1,1" stroke-width="0.5" x1="371.42857142857144" x2="466.66666666666674" y1="322.4775" y2="300.0" /><line fill="none" stroke="#E00000" stroke-dasharray="100,0" stroke-width="0.5" x1="171.42857142857144" x2="228.57142857142858" y1="300.0" y2="259.5405" /><line fill="none" stroke="#E00000" stroke-dasharray="100,0" stroke-width="0.5" x1="228.57142857142858" x2="314.28571428571433" y1="259.5405" y2="320.22975" /><line fill="none" stroke="#E00000" stroke-dasharray="100,0" stroke-width="0.5" x1="314.28571428571433" x2="371.42857142857144" y1="320.22975" y2="333.71625" /><line fill="none" stroke="#E00000" stroke-dasharray="100,0" stroke-width="0.5" x1="371.42857142857144" x2="466.66666666666674" y1="333.71625" y2="300.0" /><line fill="none" stroke="#E00000" stroke-dasharray="1,1" stroke-width="0.5" x1="371.42857142857144" x2="466.66666666666674" y1="333.71625" y2="300.0" /><line fill="none" stroke="#E00000" stroke-dasharray="100,0" stroke-width="0.5" x1="171.42857142857144" x2="228.57142857142858" y1="300.0" y2="246.054" /><line fill="none" stroke="#E00000" stroke-dasharray="100,0" stroke-width="0.5" x1="228.57142857142858" x2="314.28571428571433" y1="246.054" y2="326.973" /><line fill="none" stroke="#E00000" stroke-dasharray="100,0" stroke-width="0.5" x1="314.28571428571433" x2="371.42857142857144" y1="326.973" y2="344.955" /><line fill="none" stroke="#E00000" stroke-dasharray="100,0" stroke-width="0.5" x1="371.42857142857144" x2="466.66666666666674" y1="344.955" y2="300.0" /><line fill="none" stroke="#E00000" stroke-dasharray="1,1" stroke-width="0.5" x1="371.42857142857144" x2="466.66666666666674" y1="344.955" y2="300.0" /></g><g inkscape:groupmode="layer" inkscape:label="rayGroup2"><line fill="none" stroke="#29ab93" stroke-dasharray="100,0" stroke-width="0.5" x1="171.42857142857144" x2="228.57142857142858" y1="282.0" y2="353.946" /><line fill="none" stroke="#29ab93" stroke-dasharray="100,0" stroke-width="0.5" x1="228.57142857142858" x2="314.28571428571433" y1="353.946" y2="300.027" /><line fill="none" stroke="#29ab93" stroke-dasharray="100,0" stroke-width="0.5" x1="314.28571428571433" x2="371.42857142857144" y1="300.027" y2="264.045" /><line fill="none" stroke="#29ab93" stroke-dasharray="100,0" stroke-width="0.5" x1="371.42857142857144" x2="466.66666666666674" y1="264.045" y2="264.0" /><line fill="none" stroke="#29ab93" stroke-dasharray="1,1" stroke-width="0.5" x1="371.42857142857144" x2="466.66666666666674" y1="264.045" y2="264.0" /><line fill="none" stroke="#29ab93" stroke-dasharray="100,0" stroke-width="0.5" x1="171.42857142857144" x2="228.57142857142858" y1="282.0" y2="340.4595" /><line fill="none" stroke="#29ab93" stroke-dasharray="100,0" stroke-width="0.5" x1="228.57142857142858" x2="314.28571428571433" y1="340.4595" y2="306.77025" /><line fill="none" stroke="#29ab93" stroke-dasharray="100,0" stroke-width="0.5" x1="314.28571428571433" x2="371.42857142857144" y1="306.77025" y2="275.28375" /><line fill="none" stroke="#29ab93" stroke-dasharray="100,0" stroke-width="0.5" x1="371.42857142857144" x2="466.66666666666674" y1="275.28375" y2="264.0" /><line fill="none" stroke="#29ab93" stroke-dasharray="1,1" stroke-width="0.5" x1="371.42857142857144" x2="466.66666666666674" y1="275.28375" y2="264.0" /><line fill="none" stroke="#29ab93" stroke-dasharray="100,0" stroke-width="0.5" x1="171.42857142857144" x2="228.57142857142858" y1="282.0" y2="326.973" /><line fill="none" stroke="#29ab93" stroke-dasharray="100,0" stroke-width="0.5" x1="228.57142857142858" x2="314.28571428571433" y1="326.973" y2="313.5135" /><line fill="none" stroke="#29ab93" stroke-dasharray="100,0" stroke-width="0.5" x1="314.28571428571433" x2="371.42857142857144" y1="313.5135" y2="286.5225" /><line fill="none" stroke="#29ab93" stroke-dasharray="100,0" stroke-width="0.5" x1="371.42857142857144" x2="466.66666666666674" y1="286.5225" y2="264.0" /><line fill="none" stroke="#29ab93" stroke-dasharray="1,1" stroke-width="0.5" x1="371.42857142857144" x2="466.66666666666674" y1="286.5225" y2="264.0" /><line fill="none" stroke="#29ab93" stroke-dasharray="100,0" stroke-width="0.5" x1="171.42857142857144" x2="228.57142857142858" y1="282.0" y2="313.4865" /><line fill="none" stroke="#29ab93" stroke-dasharray="100,0" stroke-width="0.5" x1="228.57142857142858" x2="314.28571428571433" y1="313.4865" y2="320.25675" /><line fill="none" stroke="#29ab93" stroke-dasharray="100,0" stroke-width="0.5" x1="314.28571428571433" x2="371.42857142857144" y1="320.25675" y2="297.76125" /><line fill="none" stroke="#29ab93" stroke-dasharray="100,0" stroke-width="0.5" x1="371.42857142857144" x2="466.66666666666674" y1="297.76125" y2="264.0" /><line fill="none" stroke="#29ab93" stroke-dasharray="1,1" stroke-width="0.5" x1="371.42857142857144" x2="466.66666666666674" y1="297.76125" y2="264.0" /><line fill="none" stroke="#29ab93" stroke-dasharray="100,0" stroke-width="0.5" x1="171.42857142857144" x2="228.57142857142858" y1="282.0" y2="300.0" /><line fill="none" stroke="#29ab93" stroke-dasharray="100,0" stroke-width="0.5" x1="228.57142857142858" x2="314.28571428571433" y1="300.0" y2="327.0" /><line fill="none" stroke="#29ab93" stroke-dasharray="100,0" stroke-width="0.5" x1="314.28571428571433" x2="371.42857142857144" y1="327.0" y2="309.0" /><line fill="none" stroke="#29ab93" stroke-dasharray="100,0" stroke-width="0.5" x1="371.42857142857144" x2="466.66666666666674" y1="309.0" y2="264.0" /><line fill="none" stroke="#29ab93" stroke-dasharray="1,1" stroke-width="0.5" x1="371.42857142857144" x2="466.66666666666674" y1="309.0" y2="264.0" /><line fill="none" stroke="#29ab93" stroke-dasharray="100,0" stroke-width="0.5" x1="171.42857142857144" x2="228.57142857142858" y1="282.0" y2="286.5135" /><line fill="none" stroke="#29ab93" stroke-dasharray="100,0" stroke-width="0.5" x1="228.57142857142858" x2="314.28571428571433" y1="286.5135" y2="333.74325" /><line fill="none" stroke="#29ab93" stroke-dasharray="100,0" stroke-width="0.5" x1="314.28571428571433" x2="371.42857142857144" y1="333.74325" y2="320.23875" /><line fill="none" stroke="#29ab93" stroke-dasharray="100,0" stroke-width="0.5" x1="371.42857142857144" x2="466.66666666666674" y1="320.23875" y2="264.0" /><line fill="none" stroke="#29ab93" stroke-dasharray="1,1" stroke-width="0.5" x1="371.42857142857144" x2="466.66666666666674" y1="320.23875" y2="264.0" /><line fill="none" stroke="#29ab93" stroke-dasharray="100,0" stroke-width="0.5" x1="171.42857142857144" x2="228.57142857142858" y1="282.0" y2="273.027" /><line fill="none" stroke="#29ab93" stroke-dasharray="100,0" stroke-width="0.5" x1="228.57142857142858" x2="314.28571428571433" y1="273.027" y2="340.4865" /><line fill="none" stroke="#29ab93" stroke-dasharray="100,0" stroke-width="0.5" x1="314.28571428571433" x2="371.42857142857144" y1="340.4865" y2="331.4775" /><line fill="none" stroke="#29ab93" stroke-dasharray="100,0" stroke-width="0.5" x1="371.42857142857144" x2="466.66666666666674" y1="331.4775" y2="264.0" /><line fill="none" stroke="#29ab93" stroke-dasharray="1,1" stroke-width="0.5" x1="371.42857142857144" x2="466.66666666666674" y1="331.4775" y2="264.0" /><line fill="none" stroke="#29ab93" stroke-dasharray="100,0" stroke-width="0.5" x1="171.42857142857144" x2="228.57142857142858" y1="282.0" y2="259.5405" /><line fill="none" stroke="#29ab93" stroke-dasharray="100,0" stroke-width="0.5" x1="228.57142857142858" x2="314.28571428571433" y1="259.5405" y2="347.22975" /><line fill="none" stroke="#29ab93" stroke-dasharray="100,0" stroke-width="0.5" x1="314.28571428571433" x2="371.42857142857144" y1="347.22975" y2="342.71625" /><line fill="none" stroke="#29ab93" stroke-dasharray="100,0" stroke-width="0.5" x1="371.42857142857144" x2="466.66666666666674" y1="342.71625" y2="263.99999999999994" /><line fill="none" stroke="#29ab93" stroke-dasharray="1,1" stroke-width="0.5" x1="371.42857142857144" x2="466.66666666666674" y1="342.71625" y2="263.99999999999994" /><line fill="none" stroke="#29ab93" stroke-dasharray="100,0" stroke-width="0.5" x1="171.42857142857144" x2="228.57142857142858" y1="282.0" y2="246.054" /><line fill="none" stroke="#29ab93" stroke-dasharray="100,0" stroke-width="0.5" x1="228.57142857142858" x2="314.28571428571433" y1="246.054" y2="353.973" /><line fill="none" stroke="#29ab93" stroke-dasharray="100,0" stroke-width="0.5" x1="314.28571428571433" x2="371.42857142857144" y1="353.973" y2="353.955" /><line fill="none" stroke="#29ab93" stroke-dasharray="100,0" stroke-width="0.5" x1="371.42857142857144" x2="466.66666666666674" y1="353.955" y2="263.99999999999994" /><line fill="none" stroke="#29ab93" stroke-dasharray="1,1" stroke-width="0.5" x1="371.42857142857144" x2="466.66666666666674" y1="353.955" y2="263.99999999999994" /><line fill="none" stroke="#29ab93" stroke-dasharray="100,0" stroke-width="0.5" x1="171.42857142857144" x2="228.57142857142858" y1="318.0" y2="353.946" /><line fill="none" stroke="#29ab93" stroke-dasharray="100,0" stroke-width="0.5" x1="228.57142857142858" x2="314.28571428571433" y1="353.946" y2="246.027" /><line fill="none" stroke="#29ab93" stroke-dasharray="100,0" stroke-width="0.5" x1="314.28571428571433" x2="371.42857142857144" y1="246.027" y2="246.045" /><line fill="none" stroke="#29ab93" stroke-dasharray="100,0" stroke-width="0.5" x1="371.42857142857144" x2="466.66666666666674" y1="246.045" y2="336.00000000000006" /><line fill="none" stroke="#29ab93" stroke-dasharray="1,1" stroke-width="0.5" x1="371.42857142857144" x2="466.66666666666674" y1="246.045" y2="336.00000000000006" /><line fill="none" stroke="#29ab93" stroke-dasharray="100,0" stroke-width="0.5" x1="171.42857142857144" x2="228.57142857142858" y1="318.0" y2="340.4595" /><line fill="none" stroke="#29ab93" stroke-dasharray="100,0" stroke-width="0.5" x1="228.57142857142858" x2="314.28571428571433" y1="340.4595" y2="252.77024999999998" /><line fill="none" stroke="#29ab93" stroke-dasharray="100,0" stroke-width="0.5" x1="314.28571428571433" x2="371.42857142857144" y1="252.77024999999998" y2="257.28375" /><line fill="none" stroke="#29ab93" stroke-dasharray="100,0" stroke-width="0.5" x1="371.42857142857144" x2="466.66666666666674" y1="257.28375" y2="336.00000000000006" /><line fill="none" stroke="#29ab93" stroke-dasharray="1,1" stroke-width="0.5" x1="371.42857142857144" x2="466.66666666666674" y1="257.28375" y2="336.00000000000006" /><line fill="none" stroke="#29ab93" stroke-dasharray="100,0" stroke-width="0.5" x1="171.42857142857144" x2="228.57142857142858" y1="318.0" y2="326.973" /><line fill="none" stroke="#29ab93" stroke-dasharray="100,0" stroke-width="0.5" x1="228.57142857142858" x2="314.28571428571433" y1="326.973" y2="259.5135" /><line fill="none" stroke="#29ab93" stroke-dasharray="100,0" stroke-width="0.5" x1="314.28571428571433" x2="371.42857142857144" y1="259.5135" y2="268.5225" /><line fill="none" stroke="#29ab93" stroke-dasharray="100,0" stroke-width="0.5" x1="371.42857142857144" x2="466.66666666666674" y1="268.5225" y2="336.0" /><line fill="none" stroke="#29ab93" stroke-dasharray="1,1" stroke-width="0.5" x1="371.42857142857144" x2="466.66666666666674" y1="268.5225" y2="336.0" /><line fill="none" stroke="#29ab93" stroke-dasharray="100,0" stroke-width="0.5" x1="171.42857142857144" x2="228.57142857142858" y1="318.0" y2="313.4865" /><line fill="none" stroke="#29ab93" stroke-dasharray="100,0" stroke-width="0.5" x1="228.57142857142858" x2="314.28571428571433" y1="313.4865" y2="266.25675" /><line fill="none" stroke="#29ab93" stroke-dasharray="100,0" stroke-width="0.5" x1="314.28571428571433" x2="371.42857142857144" y1="266.25675" y2="279.76125" /><line fill="none" stroke="#29ab93" stroke-dasharray="100,0" stroke-width="0.5" x1="371.42857142857144" x2="466.66666666666674" y1="279.76125" y2="336.0" /><line fill="none" stroke="#29ab93" stroke-dasharray="1,1" stroke-width="0.5" x1="371.42857142857144" x2="466.66666666666674" y1="279.76125" y2="336.0" /><line fill="none" stroke="#29ab93" stroke-dasharray="100,0" stroke-width="0.5" x1="171.42857142857144" x2="228.57142857142858" y1="318.0" y2="300.0" /><line fill="none" stroke="#29ab93" stroke-dasharray="100,0" stroke-width="0.5" x1="228.57142857142858" x2="314.28571428571433" y1="300.0" y2="273.0" /><line fill="none" stroke="#29ab93" stroke-dasharray="100,0" stroke-width="0.5" x1="314.28571428571433" x2="371.42857142857144" y1="273.0" y2="291.0" /><line fill="none" stroke="#29ab93" stroke-dasharray="100,0" stroke-width="0.5" x1="371.42857142857144" x2="466.66666666666674" y1="291.0" y2="336.0" /><line fill="none" stroke="#29ab93" stroke-dasharray="1,1" stroke-width="0.5" x1="371.42857142857144" x2="466.66666666666674" y1="291.0" y2="336.0" /><line fill="none" stroke="#29ab93" stroke-dasharray="100,0" stroke-width="0.5" x1="171.42857142857144" x2="228.57142857142858" y1="318.0" y2="286.5135" /><line fill="none" stroke="#29ab93" stroke-dasharray="100,0" stroke-width="0.5" x1="228.57142857142858" x2="314.28571428571433" y1="286.5135" y2="279.74325" /><line fill="none" stroke="#29ab93" stroke-dasharray="100,0" stroke-width="0.5" x1="314.28571428571433" x2="371.42857142857144" y1="279.74325" y2="302.23875" /><line fill="none" stroke="#29ab93" stroke-dasharray="100,0" stroke-width="0.5" x1="371.42857142857144" x2="466.66666666666674" y1="302.23875" y2="336.0" /><line fill="none" stroke="#29ab93" stroke-dasharray="1,1" stroke-width="0.5" x1="371.42857142857144" x2="466.66666666666674" y1="302.23875" y2="336.0" /><line fill="none" stroke="#29ab93" stroke-dasharray="100,0" stroke-width="0.5" x1="171.42857142857144" x2="228.57142857142858" y1="318.0" y2="273.027" /><line fill="none" stroke="#29ab93" stroke-dasharray="100,0" stroke-width="0.5" x1="228.57142857142858" x2="314.28571428571433" y1="273.027" y2="286.4865" /><line fill="none" stroke="#29ab93" stroke-dasharray="100,0" stroke-width="0.5" x1="314.28571428571433" x2="371.42857142857144" y1="286.4865" y2="313.4775" /><line fill="none" stroke="#29ab93" stroke-dasharray="100,0" stroke-width="0.5" x1="371.42857142857144" x2="466.66666666666674" y1="313.4775" y2="336.0" /><line fill="none" stroke="#29ab93" stroke-dasharray="1,1" stroke-width="0.5" x1="371.42857142857144" x2="466.66666666666674" y1="313.4775" y2="336.0" /><line fill="none" stroke="#29ab93" stroke-dasharray="100,0" stroke-width="0.5" x1="171.42857142857144" x2="228.57142857142858" y1="318.0" y2="259.5405" /><line fill="none" stroke="#29ab93" stroke-dasharray="100,0" stroke-width="0.5" x1="228.57142857142858" x2="314.28571428571433" y1="259.5405" y2="293.22975" /><line fill="none" stroke="#29ab93" stroke-dasharray="100,0" stroke-width="0.5" x1="314.28571428571433" x2="371.42857142857144" y1="293.22975" y2="324.71625" /><line fill="none" stroke="#29ab93" stroke-dasharray="100,0" stroke-width="0.5" x1="371.42857142857144" x2="466.66666666666674" y1="324.71625" y2="336.0" /><line fill="none" stroke="#29ab93" stroke-dasharray="1,1" stroke-width="0.5" x1="371.42857142857144" x2="466.66666666666674" y1="324.71625" y2="336.0" /><line fill="none" stroke="#29ab93" stroke-dasharray="100,0" stroke-width="0.5" x1="171.42857142857144" x2="228.57142857142858" y1="318.0" y2="246.054" /><line fill="none" stroke="#29ab93" stroke-dasharray="100,0" stroke-width="0.5" x1="228.57142857142858" x2="314.28571428571433" y1="246.054" y2="299.973" /><line fill="none" stroke="#29ab93" stroke-dasharray="100,0" stroke-width="0.5" x1="314.28571428571433" x2="371.42857142857144" y1="299.973" y2="335.955" /><line fill="none" stroke="#29ab93" stroke-dasharray="100,0" stroke-width="0.5" x1="371.42857142857144" x2="466.66666666666674" y1="335.955" y2="336.0" /><line fill="none" stroke="#29ab93" stroke-dasharray="1,1" stroke-width="0.5" x1="371.42857142857144" x2="466.66666666666674" y1="335.955" y2="336.0" /></g></svg>