<?xml version="1.0" encoding="utf-8" ?>
<svg baseProfile="full" height="600" version="1.1" width="800" xmlns="http://www.w3.org/2000/svg" xmlns:ev="http://www.w3.org/2001/xml-events" xmlns:inkscape="http://www.inkscape.org/namespaces/inkscape" xmlns:sodipodi="http://sodipodi.sourceforge.net/DTD/sodipodi-0.dtd" xmlns:xlink="http://www.w3.org/1999/xlink"><defs /><g inkscape:groupmode="layer" inkscape:label="axis"><line fill="none" stroke="#040404" stroke-dasharray="10,4" stroke-width="2.0" x1="0" x2="800" y1="300.0" y2="300.0" /></g><g inkscape:groupmode="layer" inkscape:label="optics"><path d="M 228.57142857142858,300.0 m -5.0,-63.0 a 727.9999999999998,727.9999999999998 0 0 0    0,126.0 h   10 a 727.9999999999998,727.9999999999998 0 0 0    0,-126.0 z" fill="#CCCCCC" id="objective" stroke="#000000" stroke-dasharray="100,0" stroke-width="1.0" /><path d="M 388.57142857142856,300.0 m -5.0,48.6 h   10 m    0,-97.2 h  -10 m  5.0,   0 v -131.4 m    0,228.60000000000002 v 131.4 " fill="none" id="forcefs" stroke="#000000" stroke-dasharray="100,0" stroke-width="1.5" /><path d="M 514.2857142857143,300.0 m -5.0,-144.0 a 676.0,676.0 0 0 0    0,288.0 h   10 a 676.0,676.0 0 0 0    0,-288.0 z" fill="#CCCCCC" id="eyepiece" stroke="#000000" stroke-dasharray="100,0" stroke-width="1.0" /></g><g inkscape:groupmode="layer" inkscape:label="stops"><path d="M 228.57142857142858,300.0 m -5.0,63.0 h   10 m    0,-126.0 h  -10 m  5.0,   0 v -117.0 m    0,243.0 v 117.0 " fill="none" id="objective" stroke="#FF0000" stroke-dasharray="100,0" stroke-width="2" /><path d="M 388.57142857142856,300.0 m -5.0,48.6 h   10 m    0,-97.2 h  -10 m  5.0,   0 v -131.4 m    0,228.60000000000002 v 131.4 " fill="none" id="forcefs" stroke="#00FF00" stroke-dasharray="100,0" stroke-width="2" /></g><g inkscape:groupmode="layer" inkscape:label="pupils"><path d="M 228.57142857142858,300.0 m -5.0,63.0 h   10 m    0,-126.0 h  -10 m  5.0,   0 v -117.0 m    0,243.0 v 117.0 " fill="none" id="__entrance_pupil__" stroke="#FF2020" stroke-dasharray="100,0" stroke-width="1.5" /><path d="M 614.6718146718147,300.0 m -5.0,22.135135135135148 h   10 m    0,-44.270270270270295 h  -10 m  5.0,   0 v -157.86486486486484 m    0,202.13513513513513 v 157.86486486486484 " fill="none" id="__exit_pupil__" stroke="#FF1010" stroke-dasharray="100,0" stroke-width="1.5" /></g><g inkscape:groupmode="layer" inkscape:label="windows"><path d="M 68.57142857142858,300.0 m -5.0,48.6 h   10 m    0,-97.2 h  -10 m  5.0,   0 v -131.4 m    0,228.60000000000002 v 131.4 " fill="none" id="__entrance_window__" stroke="#20FF20" stroke-dasharray="100,0" stroke-width="1.5" /><path d="M 695.8730158730159,300.0 m -5.0,70.19999999999996 h   10 m    0,-140.39999999999992 h  -10 m  5.0,   0 v -109.80000000000004 m    0,250.19999999999996 v 109.80000000000004 " fill="none" id="__exit_window__" stroke="#10FF10" stroke-dasharray="100,0" stroke-width="1.5" /></g><g inkscape:groupmode="layer" inkscape:label="objects"><path d="M 68.57142857142858,300.0 m    0,45.0 v -90.0 l   -3, 7.0 l    6,   0 l   -3,-7.0 " fill="#000000" stroke="#000000" stroke-dasharray="100,0" stroke-width="1.0" /></g><g inkscape:groupmode="layer" inkscape:label="images"><path d="M 695.8730158730159,300.0 m    0,65.00000000000009 v -130.00000000000017 l   -3, 7.0 l    6,   0 l   -3,-7.0 " fill="#020202" stroke="#020202" stroke-dasharray="100,0" stroke-width="1.0" /></g><g inkscape:groupmode="layer" inkscape:label="rayGroup1"><line fill="none" stroke="#E00000" stroke-dasharray="100,0" stroke-width="0.5" x1="68.57142857142858" x2="228.57142857142858" y1="300.0" y2="362.937" /><line fill="none" stroke="#E00000" stroke-dasharray="100,0" stroke-width="0.5" x1="228.57142857142858" x2="388.57142857142856" y1="362.937" y2="300.0" /><line fill="none" stroke="#E00000" stroke-dasharray="100,0" stroke-width="0.5" x1="388.57142857142856" x2="514.2857142857143" y1="300.0" y2="250.5495" /><line fill="none" stroke="#E00000" stroke-dasharray="100,0" stroke-width="0.5" x1="514.2857142857143" x2="695.8730158730159" y1="250.5495" y2="300.0" /><line fill="none" stroke="#E00000" stroke-dasharray="1,1" stroke-width="0.5" x1="514.2857142857143" x2="695.8730158730159" y1="250.5495" y2="300.0" /><line fill="none" stroke="#E00000" stroke-dasharray="100,0" stroke-width="0.5" x1="68.57142857142858" x2="228.57142857142858" y1="300.0" y2="347.20275" /><line fill="none" stroke="#E00000" stroke-dasharray="100,0" stroke-width="0.5" x1="228.57142857142858" x2="388.57142857142856" y1="347.20275" y2="300.0" /><line fill="none" stroke="#E00000" stroke-dasharray="100,0" stroke-width="0.5" x1="388.57142857142856" x2="514.2857142857143" y1="300.0" y2="262.912125" /><line fill="none" stroke="#E00000" stroke-dasharray="100,0" stroke-width="0.5" x1="514.2857142857143" x2="695.8730158730159" y1="262.912125" y2="300.0" /><line fill="none" stroke="#E00000" stroke-dasharray="1,1" stroke-width="0.5" x1="514.2857142857143" x2="695.8730158730159" y1="262.912125" y2="300.0" /><line fill="none" stroke="#E00000" stroke-dasharray="100,0" stroke-width="0.5" x1="68.57142857142858" x2="228.57142857142858" y1="300.0" y2="331.4685" /><line fill="none" stroke="#E00000" stroke-dasharray="100,0" stroke-width="0.5" x1="228.57142857142858" x2="388.57142857142856" y1="331.4685" y2="300.0" /><line fill="none" stroke="#E00000" stroke-dasharray="100,0" stroke-width="0.5" x1="388.57142857142856" x2="514.2857142857143" y1="300.0" y2="275.27475" /><line fill="none" stroke="#E00000" stroke-dasharray="100,0" stroke-width="0.5" x1="514.2857142857143" x2="695.8730158730159" y1="275.27475" y2="300.0" /><line fill="none" stroke="#E00000" stroke-dasharray="1,1" stroke-width="0.5" x1="514.2857142857143" x2="695.8730158730159" y1="275.27475" y2="300.0" /><line fill="none" stroke="#E00000" stroke-dasharray="100,0" stroke-width="0.5" x1="68.57142857142858" x2="228.57142857142858" y1="300.0" y2="315.73425" /><line fill="none" stroke="#E00000" stroke-dasharray="100,0" stroke-width="0.5" x1="228.57142857142858" x2="388.57142857142856" y1="315.73425" y2="300.0" /><line fill="none" stroke="#E00000" stroke-dasharray="100,0" stroke-width="0.5" x1="388.57142857142856" x2="514.2857142857143" y1="300.0" y2="287.637375" /><line fill="none" stroke="#E00000" stroke-dasharray="100,0" stroke-width="0.5" x1="514.2857142857143" x2="695.8730158730159" y1="287.637375" y2="300.0" /><line fill="none" stroke="#E00000" stroke-dasharray="1,1" stroke-width="0.5" x1="514.2857142857143" x2="695.8730158730159" y1="287.637375" y2="300.0" /><line fill="none" stroke="#E00000" stroke-dasharray="100,0" stroke-width="0.5" x1="68.57142857142858" x2="228.57142857142858" y1="300.0" y2="300.0" /><line fill="none" stroke="#E00000" stroke-dasharray="100,0" stroke-width="0.5" x1="228.57142857142858" x2="388.57142857142856" y1="300.0" y2="300.0" /><line fill="none" stroke="#E00000" stroke-dasharray="100,0" stroke-width="0.5" x1="388.57142857142856" x2="514.2857142857143" y1="300.0" y2="300.0" /><line fill="none" stroke="#E00000" stroke-dasharray="100,0" stroke-width="0.5" x1="514.2857142857143" x2="695.8730158730159" y1="300.0" y2="300.0" /><line fill="none" stroke="#E00000" stroke-dasharray="1,1" stroke-width="0.5" x1="514.2857142857143" x2="695.8730158730159" y1="300.0" y2="300.0" /><line fill="none" stroke="#E00000" stroke-dasharray="100,0" stroke-width="0.5" x1="68.57142857142858" x2="228.57142857142858" y1="300.0" y2="284.26575" /><line fill="none" stroke="#E00000" stroke-dasharray="100,0" stroke-width="0.5" x1="228.57142857142858" x2="388.57142857142856" y1="284.26575" y2="300.0" /><line fill="none" stroke="#E00000" stroke-dasharray="100,0" stroke-width="0.5" x1="388.57142857142856" x2="514.2857142857143" y1="300.0" y2="312.362625" /><line fill="none" stroke="#E00000" stroke-dasharray="100,0" stroke-width="0.5" x1="514.2857142857143" x2="695.8730158730159" y1="312.362625" y2="300.0" /><line fill="none" stroke="#E00000" stroke-dasharray="1,1" stroke-width="0.5" x1="514.2857142857143" x2="695.8730158730159" y1="312.362625" y2="300.0" /><line fill="none" stroke="#E00000" stroke-dasharray="100,0" stroke-width="0.5" x1="68.57142857142858" x2="228.57142857142858" y1="300.0" y2="268.5315" /><line fill="none" stroke="#E00000" stroke-dasharray="100,0" stroke-width="0.5" x1="228.57142857142858" x2="388.57142857142856" y1="268.5315" y2="300.0" /><line fill="none" stroke="#E00000" stroke-dasharray="100,0" stroke-width="0.5" x1="388.57142857142856" x2="514.2857142857143" y1="300.0" y2="324.72525" /><line fill="none" stroke="#E00000" stroke-dasharray="100,0" stroke-width="0.5" x1="514.2857142857143" x2="695.8730158730159" y1="324.72525" y2="300.0" /><line fill="none" stroke="#E00000" stroke-dasharray="1,1" stroke-width="0.5" x1="514.2857142857143" x2="695.8730158730159" y1="324.72525" y2="300.0" /><line fill="none" stroke="#E00000" stroke-dasharray="100,0" stroke-width="0.5" x1="68.57142857142858" x2="228.57142857142858" y1="300.0" y2="252.79725" /><line fill="none" stroke="#E00000" stroke-dasharray="100,0" stroke-width="0.5" x1="228.57142857142858" x2="388.57142857142856" y1="252.79725" y2="300.0" /><line fill="none" stroke="#E00000" stroke-dasharray="100,0" stroke-width="0.5" x1="388.57142857142856" x2="514.2857142857143" y1="300.0" y2="337.087875" /><line fill="none" stroke="#E00000" stroke-dasharray="100,0" stroke-width="0.5" x1="514.2857142857143" x2="695.8730158730159" y1="337.087875" y2="300.0" /><line fill="none" stroke="#E00000" stroke-dasharray="1,1" stroke-width="0.5" x1="514.2857142857143" x2="695.8730158730159" y1="337.087875" y2="300.0" /><line fill="none" stroke="#E00000" stroke-dasharray="100,0" stroke-width="0.5" x1="68.57142857142858" x2="228.57142857142858" y1="300.0" y2="237.063" /><line fill="none" stroke="#E00000" stroke-dasharray="100,0" stroke-width="0.5" x1="228.57142857142858" x2="388.57142857142856" y1="237.063" y2="300.0" /><line fill="none" stroke="#E00000" stroke-dasharray="100,0" stroke-width="0.5" x1="388.57142857142856" x2="514.2857142857143" y1="300.0" y2="349.4505" /><line fill="none" stroke="#E00000" stroke-dasharray="100,0" stroke-width="0.5" x1="514.2857142857143" x2="695.8730158730159" y1="349.4505" y2="300.0" /><line fill="none" stroke="#E00000" stroke-dasharray="1,1" stroke-width="0.5" x1="514.2857142857143" x2="695.8730158730159" y1="349.4505" y2="300.0" /></g><g inkscape:groupmode="layer" inkscape:label="rayGroup2"><line fill="none" stroke="#29ab93" stroke-dasharray="100,0" stroke-width="0.5" x1="68.57142857142858" x2="228.57142857142858" y1="348.11400000000003" y2="362.937" /><line fill="none" stroke="#29ab93" stroke-dasharray="100,0" stroke-width="0.5" x1="228.57142857142858" x2="388.57142857142856" y1="362.937" y2="251.886" /><line fill="none" stroke="#29ab93" stroke-dasharray="100,0" stroke-width="0.5" x1="388.57142857142856" x2="514.2857142857143" y1="251.886" y2="164.63164285714285" /><line fill="none" stroke="#29ab93" stroke-dasharray="100,0" stroke-width="0.5" x1="514.2857142857143" x2="695.8730158730159" y1="164.63164285714285" y2="369.49800000000005" /><line fill="none" stroke="#29ab93" stroke-dasharray="1,1" stroke-width="0.5" x1="514.2857142857143" x2="695.8730158730159" y1="164.63164285714285" y2="369.49800000000005" /><line fill="none" stroke="#29ab93" stroke-dasharray="100,0" stroke-width="0.5" x1="68.57142857142858" x2="228.57142857142858" y1="348.11400000000003" y2="347.20275000000004" /><line fill="none" stroke="#29ab93" stroke-dasharray="100,0" stroke-width="0.5" x1="228.57142857142858" x2="388.57142857142856" y1="347.20275000000004" y2="251.886" /><line fill="none" stroke="#29ab93" stroke-dasharray="100,0" stroke-width="0.5" x1="388.57142857142856" x2="514.2857142857143" y1="251.886" y2="176.99426785714286" /><line fill="none" stroke="#29ab93" stroke-dasharray="100,0" stroke-width="0.5" x1="514.2857142857143" x2="695.8730158730159" y1="176.99426785714286" y2="369.4980000000001" /><line fill="none" stroke="#29ab93" stroke-dasharray="1,1" stroke-width="0.5" x1="514.2857142857143" x2="695.8730158730159" y1="176.99426785714286" y2="369.4980000000001" /><line fill="none" stroke="#29ab93" stroke-dasharray="100,0" stroke-width="0.5" x1="68.57142857142858" x2="228.57142857142858" y1="348.11400000000003" y2="331.4685" /><line fill="none" stroke="#29ab93" stroke-dasharray="100,0" stroke-width="0.5" x1="228.57142857142858" x2="388.57142857142856" y1="331.4685" y2="251.886" /><line fill="none" stroke="#29ab93" stroke-dasharray="100,0" stroke-width="0.5" x1="388.57142857142856" x2="514.2857142857143" y1="251.886" y2="189.35689285714287" /><line fill="none" stroke="#29ab93" stroke-dasharray="100,0" stroke-width="0.5" x1="514.2857142857143" x2="695.8730158730159" y1="189.35689285714287" y2="369.49800000000005" /><line fill="none" stroke="#29ab93" stroke-dasharray="1,1" stroke-width="0.5" x1="514.2857142857143" x2="695.8730158730159" y1="189.35689285714287" y2="369.49800000000005" /><line fill="none" stroke="#29ab93" stroke-dasharray="100,0" stroke-width="0.5" x1="68.57142857142858" x2="228.57142857142858" y1="348.11400000000003" y2="315.73425000000003" /><line fill="none" stroke="#29ab93" stroke-dasharray="100,0" stroke-width="0.5" x1="228.57142857142858" x2="388.57142857142856" y1="315.73425000000003" y2="251.88600000000002" /><line fill="none" stroke="#29ab93" stroke-dasharray="100,0" stroke-width="0.5" x1="388.57142857142856" x2="514.2857142857143" y1="251.88600000000002" y2="201.71951785714288" /><line fill="none" stroke="#29ab93" stroke-dasharray="100,0" stroke-width="0.5" x1="514.2857142857143" x2="695.8730158730159" y1="201.71951785714288" y2="369.49800000000005" /><line fill="none" stroke="#29ab93" stroke-dasharray="1,1" stroke-width="0.5" x1="514.2857142857143" x2="695.8730158730159" y1="201.71951785714288" y2="369.49800000000005" /><line fill="none" stroke="#29ab93" stroke-dasharray="100,0" stroke-width="0.5" x1="68.57142857142858" x2="228.57142857142858" y1="348.11400000000003" y2="300.0" /><line fill="none" stroke="#29ab93" stroke-dasharray="100,0" stroke-width="0.5" x1="228.57142857142858" x2="388.57142857142856" y1="300.0" y2="251.886" /><line fill="none" stroke="#29ab93" stroke-dasharray="100,0" stroke-width="0.5" x1="388.57142857142856" x2="514.2857142857143" y1="251.886" y2="214.08214285714286" /><line fill="none" stroke="#29ab93" stroke-dasharray="100,0" stroke-width="0.5" x1="514.2857142857143" x2="695.8730158730159" y1="214.08214285714286" y2="369.49800000000005" /><line fill="none" stroke="#29ab93" stroke-dasharray="1,1" stroke-width="0.5" x1="514.2857142857143" x2="695.8730158730159" y1="214.08214285714286" y2="369.49800000000005" /><line fill="none" stroke="#29ab93" stroke-dasharray="100,0" stroke-width="0.5" x1="68.57142857142858" x2="228.57142857142858" y1="348.11400000000003" y2="284.26575" /><line fill="none" stroke="#29ab93" stroke-dasharray="100,0" stroke-width="0.5" x1="228.57142857142858" x2="388.57142857142856" y1="284.26575" y2="251.886" /><line fill="none" stroke="#29ab93" stroke-dasharray="100,0" stroke-width="0.5" x1="388.57142857142856" x2="514.2857142857143" y1="251.886" y2="226.44476785714284" /><line fill="none" stroke="#29ab93" stroke-dasharray="100,0" stroke-width="0.5" x1="514.2857142857143" x2="695.8730158730159" y1="226.44476785714284" y2="369.49800000000005" /><line fill="none" stroke="#29ab93" stroke-dasharray="1,1" stroke-width="0.5" x1="514.2857142857143" x2="695.8730158730159" y1="226.44476785714284" y2="369.49800000000005" /><line fill="none" stroke="#29ab93" stroke-dasharray="100,0" stroke-width="0.5" x1="68.57142857142858" x2="228.57142857142858" y1="348.11400000000003" y2="268.5315" /><line fill="none" stroke="#29ab93" stroke-dasharray="100,0" stroke-width="0.5" x1="228.57142857142858" x2="388.57142857142856" y1="268.5315" y2="251.886" /><line fill="none" stroke="#29ab93" stroke-dasharray="100,0" stroke-width="0.5" x1="388.57142857142856" x2="514.2857142857143" y1="251.886" y2="238.80739285714284" /><line fill="none" stroke="#29ab93" stroke-dasharray="100,0" stroke-width="0.5" x1="514.2857142857143" x2="695.8730158730159" y1="238.80739285714284" y2="369.49800000000005" /><line fill="none" stroke="#29ab93" stroke-dasharray="1,1" stroke-width="0.5" x1="514.2857142857143" x2="695.8730158730159" y1="238.80739285714284" y2="369.49800000000005" /><line fill="none" stroke="#29ab93" stroke-dasharray="100,0" stroke-width="0.5" x1="68.57142857142858" x2="228.57142857142858" y1="348.11400000000003" y2="252.79725" /><line fill="none" stroke="#29ab93" stroke-dasharray="100,0" stroke-width="0.5" x1="228.57142857142858" x2="388.57142857142856" y1="252.79725" y2="251.886" /><line fill="none" stroke="#29ab93" stroke-dasharray="100,0" stroke-width="0.5" x1="388.57142857142856" x2="514.2857142857143" y1="251.886" y2="251.17001785714285" /><line fill="none" stroke="#29ab93" stroke-dasharray="100,0" stroke-width="0.5" x1="514.2857142857143" x2="695.8730158730159" y1="251.17001785714285" y2="369.49800000000005" /><line fill="none" stroke="#29ab93" stroke-dasharray="1,1" stroke-width="0.5" x1="514.2857142857143" x2="695.8730158730159" y1="251.17001785714285" y2="369.49800000000005" /><line fill="none" stroke="#29ab93" stroke-dasharray="100,0" stroke-width="0.5" x1="68.57142857142858" x2="228.57142857142858" y1="348.11400000000003" y2="237.063" /><line fill="none" stroke="#29ab93" stroke-dasharray="100,0" stroke-width="0.5" x1="228.57142857142858" x2="388.57142857142856" y1="237.063" y2="251.886" /><line fill="none" stroke="#29ab93" stroke-dasharray="100,0" stroke-width="0.5" x1="388.57142857142856" x2="514.2857142857143" y1="251.886" y2="263.53264285714283" /><line fill="none" stroke="#29ab93" stroke-dasharray="100,0" stroke-width="0.5" x1="514.2857142857143" x2="695.8730158730159" y1="263.53264285714283" y2="369.49800000000005" /><line fill="none" stroke="#29ab93" stroke-dasharray="1,1" stroke-width="0.5" x1="514.2857142857143" x2="695.8730158730159" y1="263.53264285714283" y2="369.49800000000005" /><line fill="none" stroke="#29ab93" stroke-dasharray="100,0" stroke-width="0.5" x1="68.57142857142858" x2="228.57142857142858" y1="251.886" y2="362.937" /><line fill="none" stroke="#29ab93" stroke-dasharray="100,0" stroke-width="0.5" x1="228.57142857142858" x2="388.57142857142856" y1="362.937" y2="348.11400000000003" /><line fill="none" stroke="#29ab93" stroke-dasharray="100,0" stroke-width="0.5" x1="388.57142857142856" x2="514.2857142857143" y1="348.11400000000003" y2="336.46735714285717" /><line fill="none" stroke="#29ab93" stroke-dasharray="100,0" stroke-width="0.5" x1="514.2857142857143" x2="695.8730158730159" y1="336.46735714285717" y2="230.50199999999995" /><line fill="none" stroke="#29ab93" stroke-dasharray="1,1" stroke-width="0.5" x1="514.2857142857143" x2="695.8730158730159" y1="336.46735714285717" y2="230.50199999999995" /><line fill="none" stroke="#29ab93" stroke-dasharray="100,0" stroke-width="0.5" x1="68.57142857142858" x2="228.57142857142858" y1="251.886" y2="347.20275" /><line fill="none" stroke="#29ab93" stroke-dasharray="100,0" stroke-width="0.5" x1="228.57142857142858" x2="388.57142857142856" y1="347.20275" y2="348.11400000000003" /><line fill="none" stroke="#29ab93" stroke-dasharray="100,0" stroke-width="0.5" x1="388.57142857142856" x2="514.2857142857143" y1="348.11400000000003" y2="348.82998214285715" /><line fill="none" stroke="#29ab93" stroke-dasharray="100,0" stroke-width="0.5" x1="514.2857142857143" x2="695.8730158730159" y1="348.82998214285715" y2="230.50199999999995" /><line fill="none" stroke="#29ab93" stroke-dasharray="1,1" stroke-width="0.5" x1="514.2857142857143" x2="695.8730158730159" y1="348.82998214285715" y2="230.50199999999995" /><line fill="none" stroke="#29ab93" stroke-dasharray="100,0" stroke-width="0.5" x1="68.57142857142858" x2="228.57142857142858" y1="251.886" y2="331.4685" /><line fill="none" stroke="#29ab93" stroke-dasharray="100,0" stroke-width="0.5" x1="228.57142857142858" x2="388.57142857142856" y1="331.4685" y2="348.11400000000003" /><line fill="none" stroke="#29ab93" stroke-dasharray="100,0" stroke-width="0.5" x1="388.57142857142856" x2="514.2857142857143" y1="348.11400000000003" y2="361.1926071428571" /><line fill="none" stroke="#29ab93" stroke-dasharray="100,0" stroke-width="0.5" x1="514.2857142857143" x2="695.8730158730159" y1="361.1926071428571" y2="230.50199999999995" /><line fill="none" stroke="#29ab93" stroke-dasharray="1,1" stroke-width="0.5" x1="514.2857142857143" x2="695.8730158730159" y1="361.1926071428571" y2="230.50199999999995" /><line fill="none" stroke="#29ab93" stroke-dasharray="100,0" stroke-width="0.5" x1="68.57142857142858" x2="228.57142857142858" y1="251.886" y2="315.73425" /><line fill="none" stroke="#29ab93" stroke-dasharray="100,0" stroke-width="0.5" x1="228.57142857142858" x2="388.57142857142856" y1="315.73425" y2="348.11400000000003" /><line fill="none" stroke="#29ab93" stroke-dasharray="100,0" stroke-width="0.5" x1="388.57142857142856" x2="514.2857142857143" y1="348.11400000000003" y2="373.55523214285716" /><line fill="none" stroke="#29ab93" stroke-dasharray="100,0" stroke-width="0.5" x1="514.2857142857143" x2="695.8730158730159" y1="373.55523214285716" y2="230.50199999999992" /><line fill="none" stroke="#29ab93" stroke-dasharray="1,1" stroke-width="0.5" x1="514.2857142857143" x2="695.8730158730159" y1="373.55523214285716" y2="230.50199999999992" /><line fill="none" stroke="#29ab93" stroke-dasharray="100,0" stroke-width="0.5" x1="68.57142857142858" x2="228.57142857142858" y1="251.886" y2="300.0" /><line fill="none" stroke="#29ab93" stroke-dasharray="100,0" stroke-width="0.5" x1="228.57142857142858" x2="388.57142857142856" y1="300.0" y2="348.11400000000003" /><line fill="none" stroke="#29ab93" stroke-dasharray="100,0" stroke-width="0.5" x1="388.57142857142856" x2="514.2857142857143" y1="348.11400000000003" y2="385.91785714285714" /><line fill="none" stroke="#29ab93" stroke-dasharray="100,0" stroke-width="0.5" x1="514.2857142857143" x2="695.8730158730159" y1="385.91785714285714" y2="230.50199999999992" /><line fill="none" stroke="#29ab93" stroke-dasharray="1,1" stroke-width="0.5" x1="514.2857142857143" x2="695.8730158730159" y1="385.91785714285714" y2="230.50199999999992" /><line fill="none" stroke="#29ab93" stroke-dasharray="100,0" stroke-width="0.5" x1="68.57142857142858" x2="228.57142857142858" y1="251.886" y2="284.26574999999997" /><line fill="none" stroke="#29ab93" stroke-dasharray="100,0" stroke-width="0.5" x1="228.57142857142858" x2="388.57142857142856" y1="284.26574999999997" y2="348.114" /><line fill="none" stroke="#29ab93" stroke-dasharray="100,0" stroke-width="0.5" x1="388.57142857142856" x2="514.2857142857143" y1="348.114" y2="398.2804821428571" /><line fill="none" stroke="#29ab93" stroke-dasharray="100,0" stroke-width="0.5" x1="514.2857142857143" x2="695.8730158730159" y1="398.2804821428571" y2="230.50199999999995" /><line fill="none" stroke="#29ab93" stroke-dasharray="1,1" stroke-width="0.5" x1="514.2857142857143" x2="695.8730158730159" y1="398.2804821428571" y2="230.50199999999995" /><line fill="none" stroke="#29ab93" stroke-dasharray="100,0" stroke-width="0.5" x1="68.57142857142858" x2="228.57142857142858" y1="251.886" y2="268.5315" /><line fill="none" stroke="#29ab93" stroke-dasharray="100,0" stroke-width="0.5" x1="228.57142857142858" x2="388.57142857142856" y1="268.5315" y2="348.11400000000003" /><line fill="none" stroke="#29ab93" stroke-dasharray="100,0" stroke-width="0.5" x1="388.57142857142856" x2="514.2857142857143" y1="348.11400000000003" y2="410.64310714285716" /><line fill="none" stroke="#29ab93" stroke-dasharray="100,0" stroke-width="0.5" x1="514.2857142857143" x2="695.8730158730159" y1="410.64310714285716" y2="230.50199999999992" /><line fill="none" stroke="#29ab93" stroke-dasharray="1,1" stroke-width="0.5" x1="514.2857142857143" x2="695.8730158730159" y1="410.64310714285716" y2="230.50199999999992" /><line fill="none" stroke="#29ab93" stroke-dasharray="100,0" stroke-width="0.5" x1="68.57142857142858" x2="228.57142857142858" y1="251.886" y2="252.79725" /><line fill="none" stroke="#29ab93" stroke-dasharray="100,0" stroke-width="0.5" x1="228.57142857142858" x2="388.57142857142856" y1="252.79725" y2="348.11400000000003" /><line fill="none" stroke="#29ab93" stroke-dasharray="100,0" stroke-width="0.5" x1="388.57142857142856" x2="514.2857142857143" y1="348.11400000000003" y2="423.00573214285714" /><line fill="none" stroke="#29ab93" stroke-dasharray="100,0" stroke-width="0.5" x1="514.2857142857143" x2="695.8730158730159" y1="423.00573214285714" y2="230.5019999999999" /><line fill="none" stroke="#29ab93" stroke-dasharray="1,1" stroke-width="0.5" x1="514.2857142857143" x2="695.8730158730159" y1="423.00573214285714" y2="230.5019999999999" /><line fill="none" stroke="#29ab93" stroke-dasharray="100,0" stroke-width="0.5" x1="68.57142857142858" x2="228.57142857142858" y1="251.886" y2="237.063" /><line fill="none" stroke="#29ab93" stroke-dasharray="100,0" stroke-width="0.5" x1="228.57142857142858" x2="388.57142857142856" y1="237.063" y2="348.114" /><line fill="none" stroke="#29ab93" stroke-dasharray="100,0" stroke-width="0.5" x1="388.57142857142856" x2="514.2857142857143" y1="348.114" y2="435.3683571428571" /><line fill="none" stroke="#29ab93" stroke-dasharray="100,0" stroke-width="0.5" x1="514.2857142857143" x2="695.8730158730159" y1="435.3683571428571" y2="230.50199999999995" /><line fill="none" stroke="#29ab93" stroke-dasharray="1,1" stroke-width="0.5" x1="514.2857142857143" x2="695.8730158730159" y1="435.3683571428571" y2="230.50199999999995" /></g><g inkscape:groupmode="layer" inkscape:label="rayGroup3"><line fill="none" stroke="#0000FF" stroke-dasharray="100,0" stroke-width="0.5" x1="68.57142857142858" x2="228.57142857142858" y1="255.0" y2="362.937" /><line fill="none" stroke="#0000FF" stroke-dasharray="100,0" stroke-width="0.5" x1="228.57142857142858" x2="388.57142857142856" y1="362.937" y2="345.0" /><line fill="none" stroke="#0000FF" stroke-dasharray="100,0" stroke-width="0.5" x1="388.57142857142856" x2="514.2857142857143" y1="345.0" y2="330.90664285714286" /><line fill="none" stroke="#0000FF" stroke-dasharray="100,0" stroke-width="0.5" x1="514.2857142857143" x2="695.8730158730159" y1="330.90664285714286" y2="234.99999999999997" /><line fill="none" stroke="#0000FF" stroke-dasharray="1,1" stroke-width="0.5" x1="514.2857142857143" x2="695.8730158730159" y1="330.90664285714286" y2="234.99999999999997" /><line fill="none" stroke="#0000FF" stroke-dasharray="100,0" stroke-width="0.5" x1="68.57142857142858" x2="228.57142857142858" y1="255.0" y2="347.20275000000004" /><line fill="none" stroke="#0000FF" stroke-dasharray="100,0" stroke-width="0.5" x1="228.57142857142858" x2="388.57142857142856" y1="347.20275000000004" y2="345.0" /><line fill="none" stroke="#0000FF" stroke-dasharray="100,0" stroke-width="0.5" x1="388.57142857142856" x2="514.2857142857143" y1="345.0" y2="343.26926785714284" /><line fill="none" stroke="#0000FF" stroke-dasharray="100,0" stroke-width="0.5" x1="514.2857142857143" x2="695.8730158730159" y1="343.26926785714284" y2="234.99999999999997" /><line fill="none" stroke="#0000FF" stroke-dasharray="1,1" stroke-width="0.5" x1="514.2857142857143" x2="695.8730158730159" y1="343.26926785714284" y2="234.99999999999997" /><line fill="none" stroke="#0000FF" stroke-dasharray="100,0" stroke-width="0.5" x1="68.57142857142858" x2="228.57142857142858" y1="255.0" y2="331.4685" /><line fill="none" stroke="#0000FF" stroke-dasharray="100,0" stroke-width="0.5" x1="228.57142857142858" x2="388.57142857142856" y1="331.4685" y2="345.0" /><line fill="none" stroke="#0000FF" stroke-dasharray="100,0" stroke-width="0.5" x1="388.57142857142856" x2="514.2857142857143" y1="345.0" y2="355.6318928571429" /><line fill="none" stroke="#0000FF" stroke-dasharray="100,0" stroke-width="0.5" x1="514.2857142857143" x2="695.8730158730159" y1="355.6318928571429" y2="234.99999999999994" /><line fill="none" stroke="#0000FF" stroke-dasharray="1,1" stroke-width="0.5" x1="514.2857142857143" x2="695.8730158730159" y1="355.6318928571429" y2="234.99999999999994" /><line fill="none" stroke="#0000FF" stroke-dasharray="100,0" stroke-width="0.5" x1="68.57142857142858" x2="228.57142857142858" y1="255.0" y2="315.73425000000003" /><line fill="none" stroke="#0000FF" stroke-dasharray="100,0" stroke-width="0.5" x1="228.57142857142858" x2="388.57142857142856" y1="315.73425000000003" y2="345.0" /><line fill="none" stroke="#0000FF" stroke-dasharray="100,0" stroke-width="0.5" x1="388.57142857142856" x2="514.2857142857143" y1="345.0" y2="367.99451785714285" /><line fill="none" stroke="#0000FF" stroke-dasharray="100,0" stroke-width="0.5" x1="514.2857142857143" x2="695.8730158730159" y1="367.99451785714285" y2="234.99999999999997" /><line fill="none" stroke="#0000FF" stroke-dasharray="1,1" stroke-width="0.5" x1="514.2857142857143" x2="695.8730158730159" y1="367.99451785714285" y2="234.99999999999997" /><line fill="none" stroke="#0000FF" stroke-dasharray="100,0" stroke-width="0.5" x1="68.57142857142858" x2="228.57142857142858" y1="255.0" y2="300.0" /><line fill="none" stroke="#0000FF" stroke-dasharray="100,0" stroke-width="0.5" x1="228.57142857142858" x2="388.57142857142856" y1="300.0" y2="345.0" /><line fill="none" stroke="#0000FF" stroke-dasharray="100,0" stroke-width="0.5" x1="388.57142857142856" x2="514.2857142857143" y1="345.0" y2="380.3571428571429" /><line fill="none" stroke="#0000FF" stroke-dasharray="100,0" stroke-width="0.5" x1="514.2857142857143" x2="695.8730158730159" y1="380.3571428571429" y2="234.99999999999994" /><line fill="none" stroke="#0000FF" stroke-dasharray="1,1" stroke-width="0.5" x1="514.2857142857143" x2="695.8730158730159" y1="380.3571428571429" y2="234.99999999999994" /><line fill="none" stroke="#0000FF" stroke-dasharray="100,0" stroke-width="0.5" x1="68.57142857142858" x2="228.57142857142858" y1="255.0" y2="284.26575" /><line fill="none" stroke="#0000FF" stroke-dasharray="100,0" stroke-width="0.5" x1="228.57142857142858" x2="388.57142857142856" y1="284.26575" y2="345.0" /><line fill="none" stroke="#0000FF" stroke-dasharray="100,0" stroke-width="0.5" x1="388.57142857142856" x2="514.2857142857143" y1="345.0" y2="392.71976785714287" /><line fill="none" stroke="#0000FF" stroke-dasharray="100,0" stroke-width="0.5" x1="514.2857142857143" x2="695.8730158730159" y1="392.71976785714287" y2="234.99999999999997" /><line fill="none" stroke="#0000FF" stroke-dasharray="1,1" stroke-width="0.5" x1="514.2857142857143" x2="695.8730158730159" y1="392.71976785714287" y2="234.99999999999997" /><line fill="none" stroke="#0000FF" stroke-dasharray="100,0" stroke-width="0.5" x1="68.57142857142858" x2="228.57142857142858" y1="255.0" y2="268.5315" /><line fill="none" stroke="#0000FF" stroke-dasharray="100,0" stroke-width="0.5" x1="228.57142857142858" x2="388.57142857142856" y1="268.5315" y2="345.0" /><line fill="none" stroke="#0000FF" stroke-dasharray="100,0" stroke-width="0.5" x1="388.57142857142856" x2="514.2857142857143" y1="345.0" y2="405.08239285714285" /><line fill="none" stroke="#0000FF" stroke-dasharray="100,0" stroke-width="0.5" x1="514.2857142857143" x2="695.8730158730159" y1="405.08239285714285" y2="234.99999999999994" /><line fill="none" stroke="#0000FF" stroke-dasharray="1,1" stroke-width="0.5" x1="514.2857142857143" x2="695.8730158730159" y1="405.08239285714285" y2="234.99999999999994" /><line fill="none" stroke="#0000FF" stroke-dasharray="100,0" stroke-width="0.5" x1="68.57142857142858" x2="228.57142857142858" y1="255.0" y2="252.79725" /><line fill="none" stroke="#0000FF" stroke-dasharray="100,0" stroke-width="0.5" x1="228.57142857142858" x2="388.57142857142856" y1="252.79725" y2="345.0" /><line fill="none" stroke="#0000FF" stroke-dasharray="100,0" stroke-width="0.5" x1="388.57142857142856" x2="514.2857142857143" y1="345.0" y2="417.44501785714283" /><line fill="none" stroke="#0000FF" stroke-dasharray="100,0" stroke-width="0.5" x1="514.2857142857143" x2="695.8730158730159" y1="417.44501785714283" y2="234.99999999999994" /><line fill="none" stroke="#0000FF" stroke-dasharray="1,1" stroke-width="0.5" x1="514.2857142857143" x2="695.8730158730159" y1="417.44501785714283" y2="234.99999999999994" /><line fill="none" stroke="#0000FF" stroke-dasharray="100,0" stroke-width="0.5" x1="68.57142857142858" x2="228.57142857142858" y1="255.0" y2="237.063" /><line fill="none" stroke="#0000FF" stroke-dasharray="100,0" stroke-width="0.5" x1="228.57142857142858" x2="388.57142857142856" y1="237.063" y2="345.0" /><line fill="none" stroke="#0000FF" stroke-dasharray="100,0" stroke-width="0.5" x1="388.57142857142856" x2="514.2857142857143" y1="345.0" y2="429.80764285714287" /><line fill="none" stroke="#0000FF" stroke-dasharray="100,0" stroke-width="0.5" x1="514.2857142857143" x2="695.8730158730159" y1="429.80764285714287" y2="234.99999999999994" /><line fill="none" stroke="#0000FF" stroke-dasharray="1,1" stroke-width="0.5" x1="514.2857142857143" x2="695.8730158730159" y1="429.80764285714287" y2="234.99999999999994" /><line fill="none" stroke="#0000FF" stroke-dasharray="100,0" stroke-width="0.5" x1="68.57142857142858" x2="228.57142857142858" y1="345.0" y2="362.937" /><line fill="none" stroke="#0000FF" stroke-dasharray="100,0" stroke-width="0.5" x1="228.57142857142858" x2="388.57142857142856" y1="362.937" y2="255.0" /><line fill="none" stroke="#0000FF" stroke-dasharray="100,0" stroke-width="0.5" x1="388.57142857142856" x2="514.2857142857143" y1="255.0" y2="170.19235714285713" /><line fill="none" stroke="#0000FF" stroke-dasharray="100,0" stroke-width="0.5" x1="514.2857142857143" x2="695.8730158730159" y1="170.19235714285713" y2="365.00000000000006" /><line fill="none" stroke="#0000FF" stroke-dasharray="1,1" stroke-width="0.5" x1="514.2857142857143" x2="695.8730158730159" y1="170.19235714285713" y2="365.00000000000006" /><line fill="none" stroke="#0000FF" stroke-dasharray="100,0" stroke-width="0.5" x1="68.57142857142858" x2="228.57142857142858" y1="345.0" y2="347.20275" /><line fill="none" stroke="#0000FF" stroke-dasharray="100,0" stroke-width="0.5" x1="228.57142857142858" x2="388.57142857142856" y1="347.20275" y2="255.0" /><line fill="none" stroke="#0000FF" stroke-dasharray="100,0" stroke-width="0.5" x1="388.57142857142856" x2="514.2857142857143" y1="255.0" y2="182.55498214285714" /><line fill="none" stroke="#0000FF" stroke-dasharray="100,0" stroke-width="0.5" x1="514.2857142857143" x2="695.8730158730159" y1="182.55498214285714" y2="365.0000000000001" /><line fill="none" stroke="#0000FF" stroke-dasharray="1,1" stroke-width="0.5" x1="514.2857142857143" x2="695.8730158730159" y1="182.55498214285714" y2="365.0000000000001" /><line fill="none" stroke="#0000FF" stroke-dasharray="100,0" stroke-width="0.5" x1="68.57142857142858" x2="228.57142857142858" y1="345.0" y2="331.4685" /><line fill="none" stroke="#0000FF" stroke-dasharray="100,0" stroke-width="0.5" x1="228.57142857142858" x2="388.57142857142856" y1="331.4685" y2="255.0" /><line fill="none" stroke="#0000FF" stroke-dasharray="100,0" stroke-width="0.5" x1="388.57142857142856" x2="514.2857142857143" y1="255.0" y2="194.91760714285715" /><line fill="none" stroke="#0000FF" stroke-dasharray="100,0" stroke-width="0.5" x1="514.2857142857143" x2="695.8730158730159" y1="194.91760714285715" y2="365.00000000000006" /><line fill="none" stroke="#0000FF" stroke-dasharray="1,1" stroke-width="0.5" x1="514.2857142857143" x2="695.8730158730159" y1="194.91760714285715" y2="365.00000000000006" /><line fill="none" stroke="#0000FF" stroke-dasharray="100,0" stroke-width="0.5" x1="68.57142857142858" x2="228.57142857142858" y1="345.0" y2="315.73425" /><line fill="none" stroke="#0000FF" stroke-dasharray="100,0" stroke-width="0.5" x1="228.57142857142858" x2="388.57142857142856" y1="315.73425" y2="255.0" /><line fill="none" stroke="#0000FF" stroke-dasharray="100,0" stroke-width="0.5" x1="388.57142857142856" x2="514.2857142857143" y1="255.0" y2="207.28023214285713" /><line fill="none" stroke="#0000FF" stroke-dasharray="100,0" stroke-width="0.5" x1="514.2857142857143" x2="695.8730158730159" y1="207.28023214285713" y2="365.00000000000006" /><line fill="none" stroke="#0000FF" stroke-dasharray="1,1" stroke-width="0.5" x1="514.2857142857143" x2="695.8730158730159" y1="207.28023214285713" y2="365.00000000000006" /><line fill="none" stroke="#0000FF" stroke-dasharray="100,0" stroke-width="0.5" x1="68.57142857142858" x2="228.57142857142858" y1="345.0" y2="300.0" /><line fill="none" stroke="#0000FF" stroke-dasharray="100,0" stroke-width="0.5" x1="228.57142857142858" x2="388.57142857142856" y1="300.0" y2="255.0" /><line fill="none" stroke="#0000FF" stroke-dasharray="100,0" stroke-width="0.5" x1="388.57142857142856" x2="514.2857142857143" y1="255.0" y2="219.64285714285717" /><line fill="none" stroke="#0000FF" stroke-dasharray="100,0" stroke-width="0.5" x1="514.2857142857143" x2="695.8730158730159" y1="219.64285714285717" y2="365.0" /><line fill="none" stroke="#0000FF" stroke-dasharray="1,1" stroke-width="0.5" x1="514.2857142857143" x2="695.8730158730159" y1="219.64285714285717" y2="365.0" /><line fill="none" stroke="#0000FF" stroke-dasharray="100,0" stroke-width="0.5" x1="68.57142857142858" x2="228.57142857142858" y1="345.0" y2="284.26574999999997" /><line fill="none" stroke="#0000FF" stroke-dasharray="100,0" stroke-width="0.5" x1="228.57142857142858" x2="388.57142857142856" y1="284.26574999999997" y2="255.0" /><line fill="none" stroke="#0000FF" stroke-dasharray="100,0" stroke-width="0.5" x1="388.57142857142856" x2="514.2857142857143" y1="255.0" y2="232.00548214285715" /><line fill="none" stroke="#0000FF" stroke-dasharray="100,0" stroke-width="0.5" x1="514.2857142857143" x2="695.8730158730159" y1="232.00548214285715" y2="365.0" /><line fill="none" stroke="#0000FF" stroke-dasharray="1,1" stroke-width="0.5" x1="514.2857142857143" x2="695.8730158730159" y1="232.00548214285715" y2="365.0" /><line fill="none" stroke="#0000FF" stroke-dasharray="100,0" stroke-width="0.5" x1="68.57142857142858" x2="228.57142857142858" y1="345.0" y2="268.5315" /><line fill="none" stroke="#0000FF" stroke-dasharray="100,0" stroke-width="0.5" x1="228.57142857142858" x2="388.57142857142856" y1="268.5315" y2="255.0" /><line fill="none" stroke="#0000FF" stroke-dasharray="100,0" stroke-width="0.5" x1="388.57142857142856" x2="514.2857142857143" y1="255.0" y2="244.36810714285713" /><line fill="none" stroke="#0000FF" stroke-dasharray="100,0" stroke-width="0.5" x1="514.2857142857143" x2="695.8730158730159" y1="244.36810714285713" y2="365.00000000000006" /><line fill="none" stroke="#0000FF" stroke-dasharray="1,1" stroke-width="0.5" x1="514.2857142857143" x2="695.8730158730159" y1="244.36810714285713" y2="365.00000000000006" /><line fill="none" stroke="#0000FF" stroke-dasharray="100,0" stroke-width="0.5" x1="68.57142857142858" x2="228.57142857142858" y1="345.0" y2="252.79725" /><line fill="none" stroke="#0000FF" stroke-dasharray="100,0" stroke-width="0.5" x1="228.57142857142858" x2="388.57142857142856" y1="252.79725" y2="255.0" /><line fill="none" stroke="#0000FF" stroke-dasharray="100,0" stroke-width="0.5" x1="388.57142857142856" x2="514.2857142857143" y1="255.0" y2="256.73073214285716" /><line fill="none" stroke="#0000FF" stroke-dasharray="100,0" stroke-width="0.5" x1="514.2857142857143" x2="695.8730158730159" y1="256.73073214285716" y2="365.00000000000006" /><line fill="none" stroke="#0000FF" stroke-dasharray="1,1" stroke-width="0.5" x1="514.2857142857143" x2="695.8730158730159" y1="256.73073214285716" y2="365.00000000000006" /><line fill="none" stroke="#0000FF" stroke-dasharray="100,0" stroke-width="0.5" x1="68.57142857142858" x2="228.57142857142858" y1="345.0" y2="237.063" /><line fill="none" stroke="#0000FF" stroke-dasharray="100,0" stroke-width="0.5" x1="228.57142857142858" x2="388.57142857142856" y1="237.063" y2="255.0" /><line fill="none" stroke="#0000FF" stroke-dasharray="100,0" stroke-width="0.5" x1="388.57142857142856" x2="514.2857142857143" y1="255.0" y2="269.09335714285714" /><line fill="none" stroke="#0000FF" stroke-dasharray="100,0" stroke-width="0.5" x1="514.2857142857143" x2="695.8730158730159" y1="269.09335714285714" y2="365.0" /><line fill="none" stroke="#0000FF" stroke-dasharray="1,1" stroke-width="0.5" x1="514.2857142857143" x2="695.8730158730159" y1="269.09335714285714" y2="365.0" /></g><g inkscape:groupmode="layer" inkscape:label="rayGroup4"><line fill="none" stroke="#00FFFF" stroke-dasharray="100,0" stroke-width="0.5" x1="68.57142857142858" x2="228.57142857142858" y1="300.0" y2="239.51999999999998" /><line fill="none" stroke="#00FFFF" stroke-dasharray="100,0" stroke-width="0.5" x1="228.57142857142858" x2="388.57142857142856" y1="239.51999999999998" y2="300.0" /><line fill="none" stroke="#00FFFF" stroke-dasharray="100,0" stroke-width="0.5" x1="388.57142857142856" x2="514.2857142857143" y1="300.0" y2="347.52" /><line fill="none" stroke="#00FFFF" stroke-dasharray="100,0" stroke-width="0.5" x1="514.2857142857143" x2="695.8730158730159" y1="347.52" y2="300.0" /><line fill="none" stroke="#00FFFF" stroke-dasharray="1,1" stroke-width="0.5" x1="514.2857142857143" x2="695.8730158730159" y1="347.52" y2="300.0" /></g></svg>