<?xml version="1.0" encoding="utf-8" ?>
<svg baseProfile="full" height="600" version="1.1" width="800" xmlns="http://www.w3.org/2000/svg" xmlns:ev="http://www.w3.org/2001/xml-events" xmlns:inkscape="http://www.inkscape.org/namespaces/inkscape" xmlns:sodipodi="http://sodipodi.sourceforge.net/DTD/sodipodi-0.dtd" xmlns:xlink="http://www.w3.org/1999/xlink"><defs /><g inkscape:groupmode="layer" inkscape:label="axis"><line fill="none" stroke="#040404" stroke-dasharray="10,4" stroke-width="2.0" x1="0" x2="800" y1="300.0" y2="300.0" /></g><g inkscape:groupmode="layer" inkscape:label="optics"><path d="M 228.57142857142858,300.0 m -5.0,-72.0 a 727.9999999999998,727.9999999999998 0 0 0    0,144.0 h   10 a 727.9999999999998,727.9999999999998 0 0 0    0,-144.0 z" fill="#CCCCCC" id="objective" stroke="#000000" stroke-dasharray="100,0" stroke-width="1.0" /><path d="M 271.42857142857144,300.0 m -5.0,36.0 h   10 m    0,-72.0 h  -10 m  5.0,   0 v -144.0 m    0,216.0 v 144.0 " fill="none" id="ap1" stroke="#000000" stroke-dasharray="100,0" stroke-width="1.5" /><path d="M 514.2857142857143,300.0 m -5.0,-72.0 a 676.0,676.0 0 0 0    0,144.0 h   10 a 676.0,676.0 0 0 0    0,-144.0 z" fill="#CCCCCC" id="eyepiece" stroke="#000000" stroke-dasharray="100,0" stroke-width="1.0" /></g><g inkscape:groupmode="layer" inkscape:label="stops"><path d="M 271.42857142857144,300.0 m -5.0,36.0 h   10 m    0,-72.0 h  -10 m  5.0,   0 v -144.0 m    0,216.0 v 144.0 " fill="none" id="ap1" stroke="#FF0000" stroke-dasharray="100,0" stroke-width="2" /><path d="M 514.2857142857143,300.0 m -5.0,72.0 h   10 m    0,-144.0 h  -10 m  5.0,   0 v -108.0 m    0,252.0 v 108.0 " fill="none" id="eyepiece" stroke="#00FF00" stroke-dasharray="100,0" stroke-width="2" /></g><g inkscape:groupmode="layer" inkscape:label="pupils"><path d="M 320.8791208791209,300.0 m -5.0,77.53846153846153 h   10 m    0,-155.07692307692307 h  -10 m  5.0,   0 v -102.46153846153847 m    0,257.53846153846155 v 102.46153846153847 " fill="none" id="__entrance_pupil__" stroke="#FF2020" stroke-dasharray="100,0" stroke-width="1.5" /><path d="M 621.3075060532688,300.0 m -5.0,15.864406779661014 h   10 m    0,-31.728813559322028 h  -10 m  5.0,   0 v -164.135593220339 m    0,195.864406779661 v 164.135593220339 " fill="none" id="__exit_pupil__" stroke="#FF1010" stroke-dasharray="100,0" stroke-width="1.5" /></g><g inkscape:groupmode="layer" inkscape:label="windows"><path d="M 117.46031746031746,300.0 m -5.0,28.000000000000014 h   10 m    0,-56.00000000000003 h  -10 m  5.0,   0 v -152.0 m    0,208.00000000000003 v 152.0 " fill="none" id="__entrance_window__" stroke="#20FF20" stroke-dasharray="100,0" stroke-width="1.5" /><path d="M 514.2857142857143,300.0 m -5.0,72.0 h   10 m    0,-144.0 h  -10 m  5.0,   0 v -108.0 m    0,252.0 v 108.0 " fill="none" id="__exit_window__" stroke="#10FF10" stroke-dasharray="100,0" stroke-width="1.5" /></g><g inkscape:groupmode="layer" inkscape:label="objects"><path d="M 68.57142857142858,300.0 m    0,45.0 v -90.0 l   -3, 7.0 l    6,   0 l   -3,-7.0 " fill="#000000" stroke="#000000" stroke-dasharray="100,0" stroke-width="1.0" /></g><g inkscape:groupmode="layer" inkscape:label="images"><path d="M 695.8730158730159,300.0 m    0,65.00000000000009 v -130.00000000000017 l   -3, 7.0 l    6,   0 l   -3,-7.0 " fill="#020202" stroke="#020202" stroke-dasharray="100,0" stroke-width="1.0" /></g><g inkscape:groupmode="layer" inkscape:label="rayGroup1"><line fill="none" stroke="#E00000" stroke-dasharray="100,0" stroke-width="0.5" x1="68.57142857142858" x2="228.57142857142858" y1="300.0" y2="349.1215609756098" /><line fill="none" stroke="#E00000" stroke-dasharray="100,0" stroke-width="0.5" x1="228.57142857142858" x2="271.42857142857144" y1="349.1215609756098" y2="335.964" /><line fill="none" stroke="#E00000" stroke-dasharray="100,0" stroke-width="0.5" x1="271.42857142857144" x2="514.2857142857143" y1="335.964" y2="261.40448780487804" /><line fill="none" stroke="#E00000" stroke-dasharray="100,0" stroke-width="0.5" x1="514.2857142857143" x2="695.8730158730159" y1="261.40448780487804" y2="300.0" /><line fill="none" stroke="#E00000" stroke-dasharray="1,1" stroke-width="0.5" x1="514.2857142857143" x2="695.8730158730159" y1="261.40448780487804" y2="300.0" /><line fill="none" stroke="#E00000" stroke-dasharray="100,0" stroke-width="0.5" x1="68.57142857142858" x2="228.57142857142858" y1="300.0" y2="250.87843902439025" /><line fill="none" stroke="#E00000" stroke-dasharray="100,0" stroke-width="0.5" x1="228.57142857142858" x2="271.42857142857144" y1="250.87843902439025" y2="264.036" /><line fill="none" stroke="#E00000" stroke-dasharray="100,0" stroke-width="0.5" x1="271.42857142857144" x2="514.2857142857143" y1="264.036" y2="338.59551219512196" /><line fill="none" stroke="#E00000" stroke-dasharray="100,0" stroke-width="0.5" x1="514.2857142857143" x2="695.8730158730159" y1="338.59551219512196" y2="300.0" /><line fill="none" stroke="#E00000" stroke-dasharray="1,1" stroke-width="0.5" x1="514.2857142857143" x2="695.8730158730159" y1="338.59551219512196" y2="300.0" /></g><g inkscape:groupmode="layer" inkscape:label="rayGroup2"><line fill="none" stroke="#29ab93" stroke-dasharray="100,0" stroke-width="0.5" x1="68.57142857142858" x2="228.57142857142858" y1="334.38211764705886" y2="312.57882352941175" /><line fill="none" stroke="#29ab93" stroke-dasharray="100,0" stroke-width="0.5" x1="228.57142857142858" x2="271.42857142857144" y1="312.57882352941175" y2="300.0" /><line fill="none" stroke="#29ab93" stroke-dasharray="100,0" stroke-width="0.5" x1="271.42857142857144" x2="514.2857142857143" y1="300.0" y2="228.72" /><line fill="none" stroke="#29ab93" stroke-dasharray="100,0" stroke-width="0.5" x1="514.2857142857143" x2="695.8730158730159" y1="228.72" y2="349.6630588235294" /><line fill="none" stroke="#29ab93" stroke-dasharray="1,1" stroke-width="0.5" x1="514.2857142857143" x2="695.8730158730159" y1="228.72" y2="349.6630588235294" /><line fill="none" stroke="#29ab93" stroke-dasharray="100,0" stroke-width="0.5" x1="68.57142857142858" x2="228.57142857142858" y1="265.61788235294114" y2="287.42117647058825" /><line fill="none" stroke="#29ab93" stroke-dasharray="100,0" stroke-width="0.5" x1="228.57142857142858" x2="271.42857142857144" y1="287.42117647058825" y2="300.0" /><line fill="none" stroke="#29ab93" stroke-dasharray="100,0" stroke-width="0.5" x1="271.42857142857144" x2="514.2857142857143" y1="300.0" y2="371.28" /><line fill="none" stroke="#29ab93" stroke-dasharray="100,0" stroke-width="0.5" x1="514.2857142857143" x2="695.8730158730159" y1="371.28" y2="250.33694117647056" /><line fill="none" stroke="#29ab93" stroke-dasharray="1,1" stroke-width="0.5" x1="514.2857142857143" x2="695.8730158730159" y1="371.28" y2="250.33694117647056" /></g><g inkscape:groupmode="layer" inkscape:label="rayGroup3"><line fill="none" stroke="#0000FF" stroke-dasharray="100,0" stroke-width="0.5" x1="68.57142857142858" x2="228.57142857142858" y1="300.0" y2="228.0288" /><line fill="none" stroke="#0000FF" stroke-dasharray="100,0" stroke-width="0.5" x1="228.57142857142858" x2="271.42857142857144" y1="228.0288" y2="247.3068" /></g></svg>