<?xml version="1.0" encoding="utf-8" ?>
<svg baseProfile="full" height="600" version="1.1" width="800" xmlns="http://www.w3.org/2000/svg" xmlns:ev="http://www.w3.org/2001/xml-events" xmlns:inkscape="http://www.inkscape.org/namespaces/inkscape" xmlns:sodipodi="http://sodipodi.sourceforge.net/DTD/sodipodi-0.dtd" xmlns:xlink="http://www.w3.org/1999/xlink"><defs /><g inkscape:groupmode="layer" inkscape:label="axis"><line fill="none" stroke="#040404" stroke-dasharray="10,4" stroke-width="2.0" x1="0" x2="800" y1="300.0" y2="300.0" /></g><g inkscape:groupmode="layer" inkscape:label="optics"><path d="M 228.57142857142858,300.0 m -5.0,-72.0 a 727.9999999999998,727.9999999999998 0 0 0    0,144.0 h   10 a 727.9999999999998,727.9999999999998 0 0 0    0,-144.0 z" fill="#CCCCCC" id="objective" stroke="#000000" stroke-dasharray="100,0" stroke-width="1.0" /><path d="M 514.2857142857143,300.0 m -5.0,-72.0 a 676.0,676.0 0 0 0    0,144.0 h   10 a 676.0,676.0 0 0 0    0,-144.0 z" fill="#CCCCCC" id="eyepiece" stroke="#000000" stroke-dasharray="100,0" stroke-width="1.0" /></g><g inkscape:groupmode="layer" inkscape:label="stops"><path d="M 228.57142857142858,300.0 m -5.0,72.0 h   10 m    0,-144.0 h  -10 m  5.0,   0 v -108.0 m    0,252.0 v 108.0 " fill="none" id="objective" stroke="#FF0000" stroke-dasharray="100,0" stroke-width="2" /><path d="M 514.2857142857143,300.0 m -5.0,72.0 h   10 m    0,-144.0 h  -10 m  5.0,   0 v -108.0 m    0,252.0 v 108.0 " fill="none" id="eyepiece" stroke="#00FF00" stroke-dasharray="100,0" stroke-width="2" /></g><g inkscape:groupmode="layer" inkscape:label="pupils"><path d="M 228.57142857142858,300.0 m -5.0,72.0 h   10 m    0,-144.0 h  -10 m  5.0,   0 v -108.0 m    0,252.0 v 108.0 " fill="none" id="__entrance_pupil__" stroke="#FF2020" stroke-dasharray="100,0" stroke-width="1.5" /><path d="M 614.6718146718147,300.0 m -5.0,25.297297297297312 h   10 m    0,-50.594594594594625 h  -10 m  5.0,   0 v -154.70270270270268 m    0,205.2972972972973 v 154.70270270270268 " fill="none" id="__exit_pupil__" stroke="#FF1010" stroke-dasharray="100,0" stroke-width="1.5" /></g><g inkscape:groupmode="layer" inkscape:label="windows"><path d="M 117.46031746031746,300.0 m -5.0,28.000000000000014 h   10 m    0,-56.00000000000003 h  -10 m  5.0,   0 v -152.0 m    0,208.00000000000003 v 152.0 " fill="none" id="__entrance_window__" stroke="#20FF20" stroke-dasharray="100,0" stroke-width="1.5" /><path d="M 514.2857142857143,300.0 m -5.0,72.0 h   10 m    0,-144.0 h  -10 m  5.0,   0 v -108.0 m    0,252.0 v 108.0 " fill="none" id="__exit_window__" stroke="#10FF10" stroke-dasharray="100,0" stroke-width="1.5" /></g><g inkscape:groupmode="layer" inkscape:label="objects"><path d="M 85.71428571428572,300.0 m    0,45.0 v -90.0 l   -3, 7.0 l    6,   0 l   -3,-7.0 " fill="#000000" stroke="#000000" stroke-dasharray="100,0" stroke-width="1.0" /></g><g inkscape:groupmode="layer" inkscape:label="images"><path d="M 774.937343358396,300.0 m    0,143.6842105263158 v -287.3684210526316 l   -3, 7.0 l    6,   0 l   -3,-7.0 " fill="#020202" stroke="#020202" stroke-dasharray="100,0" stroke-width="1.0" /></g><g inkscape:groupmode="layer" inkscape:label="rayGroup2"><line fill="none" stroke="#29ab93" stroke-dasharray="100,0" stroke-width="0.5" x1="85.71428571428572" x2="228.57142857142858" y1="300.0" y2="371.928" /><line fill="none" stroke="#29ab93" stroke-dasharray="100,0" stroke-width="0.5" x1="228.57142857142858" x2="514.2857142857143" y1="371.928" y2="258.89828571428575" /><line fill="none" stroke="#29ab93" stroke-dasharray="100,0" stroke-width="0.5" x1="514.2857142857143" x2="1060.6516290726818" y1="258.89828571428575" y2="345.05380219780204" /><line fill="none" stroke="#29ab93" stroke-dasharray="1,1" stroke-width="0.5" x1="514.2857142857143" x2="774.937343358396" y1="258.89828571428575" y2="299.99999999999994" /><line fill="none" stroke="#29ab93" stroke-dasharray="100,0" stroke-width="0.5" x1="85.71428571428572" x2="228.57142857142858" y1="300.0" y2="228.072" /><line fill="none" stroke="#29ab93" stroke-dasharray="100,0" stroke-width="0.5" x1="228.57142857142858" x2="514.2857142857143" y1="228.072" y2="341.10171428571425" /><line fill="none" stroke="#29ab93" stroke-dasharray="100,0" stroke-width="0.5" x1="514.2857142857143" x2="1060.6516290726818" y1="341.10171428571425" y2="254.94619780219793" /><line fill="none" stroke="#29ab93" stroke-dasharray="1,1" stroke-width="0.5" x1="514.2857142857143" x2="774.937343358396" y1="341.10171428571425" y2="300.00000000000006" /></g></svg>