<?xml version="1.0" encoding="utf-8" ?>
<svg baseProfile="full" height="600" version="1.1" width="800" xmlns="http://www.w3.org/2000/svg" xmlns:ev="http://www.w3.org/2001/xml-events" xmlns:inkscape="http://www.inkscape.org/namespaces/inkscape" xmlns:sodipodi="http://sodipodi.sourceforge.net/DTD/sodipodi-0.dtd" xmlns:xlink="http://www.w3.org/1999/xlink"><defs /><g inkscape:groupmode="layer" inkscape:label="axis"><line fill="none" stroke="#040404" stroke-dasharray="10,4" stroke-width="2.0" x1="0" x2="800" y1="300.0" y2="300.0" /></g><g inkscape:groupmode="layer" inkscape:label="optics"><path d="M 228.57142857142858,300.0 m -5.0,-72.0 a 727.9999999999998,727.9999999999998 0 0 0    0,144.0 h   10 a 727.9999999999998,727.9999999999998 0 0 0    0,-144.0 z" fill="#CCCCCC" id="objective" stroke="#000000" stroke-dasharray="100,0" stroke-width="1.0" /><path d="M 271.42857142857144,300.0 m -5.0,54.0 h   10 m    0,-108.0 h  -10 m  5.0,   0 v -126.0 m    0,234.0 v 126.0 " fill="none" id="ap1" stroke="#000000" stroke-dasharray="100,0" stroke-width="1.5" /><path d="M 514.2857142857143,300.0 m -5.0,-36.0 a 676.0,676.0 0 0 0    0,72.0 h   10 a 676.0,676.0 0 0 0    0,-72.0 z" fill="#CCCCCC" id="eyepiece" stroke="#000000" stroke-dasharray="100,0" stroke-width="1.0" /></g><g inkscape:groupmode="layer" inkscape:label="stops"><path d="M 514.2857142857143,300.0 m -5.0,36.0 h   10 m    0,-72.0 h  -10 m  5.0,   0 v -144.0 m    0,216.0 v 144.0 " fill="none" id="eyepiece" stroke="#FF0000" stroke-dasharray="100,0" stroke-width="2" /><path d="M 271.42857142857144,300.0 m -5.0,54.0 h   10 m    0,-108.0 h  -10 m  5.0,   0 v -126.0 m    0,234.0 v 126.0 " fill="none" id="ap1" stroke="#00FF00" stroke-dasharray="100,0" stroke-width="2" /></g><g inkscape:groupmode="layer" inkscape:label="pupils"><path d="M 117.46031746031746,300.0 m -5.0,14.000000000000007 h   10 m    0,-28.000000000000014 h  -10 m  5.0,   0 v -166.0 m    0,194.0 v 166.0 " fill="none" id="__entrance_pupil__" stroke="#FF2020" stroke-dasharray="100,0" stroke-width="1.5" /><path d="M 514.2857142857143,300.0 m -5.0,36.0 h   10 m    0,-72.0 h  -10 m  5.0,   0 v -144.0 m    0,216.0 v 144.0 " fill="none" id="__exit_pupil__" stroke="#FF1010" stroke-dasharray="100,0" stroke-width="1.5" /></g><g inkscape:groupmode="layer" inkscape:label="windows"><path d="M 320.8791208791209,300.0 m -5.0,116.3076923076923 h   10 m    0,-232.6153846153846 h  -10 m  5.0,   0 v -63.69230769230769 m    0,296.3076923076923 v 63.69230769230769 " fill="none" id="__entrance_window__" stroke="#20FF20" stroke-dasharray="100,0" stroke-width="1.5" /><path d="M 621.3075060532688,300.0 m -5.0,23.796610169491522 h   10 m    0,-47.593220338983045 h  -10 m  5.0,   0 v -156.20338983050848 m    0,203.79661016949154 v 156.20338983050848 " fill="none" id="__exit_window__" stroke="#10FF10" stroke-dasharray="100,0" stroke-width="1.5" /></g><g inkscape:groupmode="layer" inkscape:label="objects"><path d="M 68.57142857142858,300.0 m    0,45.0 v -90.0 l   -3, 7.0 l    6,   0 l   -3,-7.0 " fill="#000000" stroke="#000000" stroke-dasharray="100,0" stroke-width="1.0" /></g><g inkscape:groupmode="layer" inkscape:label="images"><path d="M 695.8730158730159,300.0 m    0,65.00000000000009 v -130.00000000000017 l   -3, 7.0 l    6,   0 l   -3,-7.0 " fill="#020202" stroke="#020202" stroke-dasharray="100,0" stroke-width="1.0" /></g><g inkscape:groupmode="layer" inkscape:label="rayGroup1"><line fill="none" stroke="#E00000" stroke-dasharray="100,0" stroke-width="0.5" x1="68.57142857142858" x2="228.57142857142858" y1="300.0" y2="345.77236363636365" /><line fill="none" stroke="#E00000" stroke-dasharray="100,0" stroke-width="0.5" x1="228.57142857142858" x2="271.42857142857144" y1="345.77236363636365" y2="333.5119090909091" /><line fill="none" stroke="#E00000" stroke-dasharray="100,0" stroke-width="0.5" x1="271.42857142857144" x2="514.2857142857143" y1="333.5119090909091" y2="264.036" /><line fill="none" stroke="#E00000" stroke-dasharray="100,0" stroke-width="0.5" x1="514.2857142857143" x2="695.8730158730159" y1="264.036" y2="300.0" /><line fill="none" stroke="#E00000" stroke-dasharray="1,1" stroke-width="0.5" x1="514.2857142857143" x2="695.8730158730159" y1="264.036" y2="300.0" /><line fill="none" stroke="#E00000" stroke-dasharray="100,0" stroke-width="0.5" x1="68.57142857142858" x2="228.57142857142858" y1="300.0" y2="254.22763636363635" /><line fill="none" stroke="#E00000" stroke-dasharray="100,0" stroke-width="0.5" x1="228.57142857142858" x2="271.42857142857144" y1="254.22763636363635" y2="266.4880909090909" /><line fill="none" stroke="#E00000" stroke-dasharray="100,0" stroke-width="0.5" x1="271.42857142857144" x2="514.2857142857143" y1="266.4880909090909" y2="335.964" /><line fill="none" stroke="#E00000" stroke-dasharray="100,0" stroke-width="0.5" x1="514.2857142857143" x2="695.8730158730159" y1="335.964" y2="300.0" /><line fill="none" stroke="#E00000" stroke-dasharray="1,1" stroke-width="0.5" x1="514.2857142857143" x2="695.8730158730159" y1="335.964" y2="300.0" /></g><g inkscape:groupmode="layer" inkscape:label="rayGroup2"><line fill="none" stroke="#29ab93" stroke-dasharray="100,0" stroke-width="0.5" x1="68.57142857142858" x2="228.57142857142858" y1="327.67341176470586" y2="237.1058823529412" /><line fill="none" stroke="#29ab93" stroke-dasharray="100,0" stroke-width="0.5" x1="228.57142857142858" x2="271.42857142857144" y1="237.1058823529412" y2="246.54000000000002" /><line fill="none" stroke="#29ab93" stroke-dasharray="100,0" stroke-width="0.5" x1="271.42857142857144" x2="514.2857142857143" y1="246.54000000000002" y2="300.0" /><line fill="none" stroke="#29ab93" stroke-dasharray="100,0" stroke-width="0.5" x1="514.2857142857143" x2="695.8730158730159" y1="300.0" y2="339.97270588235295" /><line fill="none" stroke="#29ab93" stroke-dasharray="1,1" stroke-width="0.5" x1="514.2857142857143" x2="695.8730158730159" y1="300.0" y2="339.97270588235295" /><line fill="none" stroke="#29ab93" stroke-dasharray="100,0" stroke-width="0.5" x1="68.57142857142858" x2="228.57142857142858" y1="272.32658823529414" y2="362.8941176470588" /><line fill="none" stroke="#29ab93" stroke-dasharray="100,0" stroke-width="0.5" x1="228.57142857142858" x2="271.42857142857144" y1="362.8941176470588" y2="353.46" /><line fill="none" stroke="#29ab93" stroke-dasharray="100,0" stroke-width="0.5" x1="271.42857142857144" x2="514.2857142857143" y1="353.46" y2="300.0" /><line fill="none" stroke="#29ab93" stroke-dasharray="100,0" stroke-width="0.5" x1="514.2857142857143" x2="695.8730158730159" y1="300.0" y2="260.02729411764705" /><line fill="none" stroke="#29ab93" stroke-dasharray="1,1" stroke-width="0.5" x1="514.2857142857143" x2="695.8730158730159" y1="300.0" y2="260.02729411764705" /></g><g inkscape:groupmode="layer" inkscape:label="rayGroup3"><line fill="none" stroke="#0000FF" stroke-dasharray="100,0" stroke-width="0.5" x1="68.57142857142858" x2="228.57142857142858" y1="300.0" y2="228.0288" /><line fill="none" stroke="#0000FF" stroke-dasharray="100,0" stroke-width="0.5" x1="228.57142857142858" x2="271.42857142857144" y1="228.0288" y2="247.3068" /><line fill="none" stroke="#0000FF" stroke-dasharray="100,0" stroke-width="0.5" x1="271.42857142857144" x2="514.2857142857143" y1="247.3068" y2="356.54879999999997" /><line fill="none" stroke="#0000FF" stroke-dasharray="1,1" stroke-width="0.5" x1="514.2857142857143" x2="695.8730158730159" y1="356.54879999999997" y2="300.0" /></g></svg>