<?xml version="1.0" encoding="utf-8" ?>
<svg baseProfile="full" height="600" version="1.1" width="800" xmlns="http://www.w3.org/2000/svg" xmlns:ev="http://www.w3.org/2001/xml-events" xmlns:inkscape="http://www.inkscape.org/namespaces/inkscape" xmlns:sodipodi="http://sodipodi.sourceforge.net/DTD/sodipodi-0.dtd" xmlns:xlink="http://www.w3.org/1999/xlink"><defs /><g inkscape:groupmode="layer" inkscape:label="axis"><line fill="none" stroke="#040404" stroke-dasharray="10,4" stroke-width="2.0" x1="0" x2="800" y1="300.0" y2="300.0" /></g><g inkscape:groupmode="layer" inkscape:label="optics"><path d="M 228.57142857142858,300.0 m -5.0,-63.0 a 727.9999999999998,727.9999999999998 0 0 0    0,126.0 h   10 a 727.9999999999998,727.9999999999998 0 0 0    0,-126.0 z" fill="#CCCCCC" id="objective" stroke="#000000" stroke-dasharray="100,0" stroke-width="1.0" /><path d="M 268.57142857142856,300.0 m -5.0,36.0 h   10 m    0,-72.0 h  -10 m  5.0,   0 v -144.0 m    0,216.0 v 144.0 " fill="none" id="forceas" stroke="#000000" stroke-dasharray="100,0" stroke-width="1.5" /><path d="M 388.57142857142856,300.0 m -5.0,48.6 h   10 m    0,-97.2 h  -10 m  5.0,   0 v -131.4 m    0,228.60000000000002 v 131.4 " fill="none" id="forcefs" stroke="#000000" stroke-dasharray="100,0" stroke-width="1.5" /><path d="M 500.0,300.0 m -5.0,-144.0 a 676.0,676.0 0 0 0    0,288.0 h   10 a 676.0,676.0 0 0 0    0,-288.0 z" fill="#CCCCCC" id="eyepiece" stroke="#000000" stroke-dasharray="100,0" stroke-width="1.0" /></g><g inkscape:groupmode="layer" inkscape:label="stops"><path d="M 268.57142857142856,300.0 m -5.0,36.0 h   10 m    0,-72.0 h  -10 m  5.0,   0 v -144.0 m    0,216.0 v 144.0 " fill="none" id="forceas" stroke="#FF0000" stroke-dasharray="100,0" stroke-width="2" /><path d="M 388.57142857142856,300.0 m -5.0,48.6 h   10 m    0,-97.2 h  -10 m  5.0,   0 v -131.4 m    0,228.60000000000002 v 131.4 " fill="none" id="forcefs" stroke="#00FF00" stroke-dasharray="100,0" stroke-width="2" /></g><g inkscape:groupmode="layer" inkscape:label="pupils"><path d="M 308.57142857142856,300.0 m -5.0,72.0 h   10 m    0,-144.0 h  -10 m  5.0,   0 v -108.0 m    0,252.0 v 108.0 " fill="none" id="__entrance_pupil__" stroke="#FF2020" stroke-dasharray="100,0" stroke-width="1.5" /><path d="M 609.4025974025974,300.0 m -5.0,17.018181818181816 h   10 m    0,-34.03636363636363 h  -10 m  5.0,   0 v -162.9818181818182 m    0,197.01818181818183 v 162.9818181818182 " fill="none" id="__exit_pupil__" stroke="#FF1010" stroke-dasharray="100,0" stroke-width="1.5" /></g><g inkscape:groupmode="layer" inkscape:label="windows"><path d="M 68.57142857142858,300.0 m -5.0,48.6 h   10 m    0,-97.2 h  -10 m  5.0,   0 v -131.4 m    0,228.60000000000002 v 131.4 " fill="none" id="__entrance_window__" stroke="#20FF20" stroke-dasharray="100,0" stroke-width="1.5" /><path d="M 722.8571428571429,300.0 m -5.0,97.2 h   10 m    0,-194.4 h  -10 m  5.0,   0 v -82.8 m    0,277.2 v 82.8 " fill="none" id="__exit_window__" stroke="#10FF10" stroke-dasharray="100,0" stroke-width="1.5" /></g><g inkscape:groupmode="layer" inkscape:label="objects"><path d="M 68.57142857142858,300.0 m    0,45.0 v -90.0 l   -3, 7.0 l    6,   0 l   -3,-7.0 " fill="#000000" stroke="#000000" stroke-dasharray="100,0" stroke-width="1.0" /></g><g inkscape:groupmode="layer" inkscape:label="images"><path d="M 722.8571428571429,300.0 m    0,90.00000000000003 v -180.00000000000006 l   -3, 7.0 l    6,   0 l   -3,-7.0 " fill="#020202" stroke="#020202" stroke-dasharray="100,0" stroke-width="1.0" /></g><g inkscape:groupmode="layer" inkscape:label="rayGroup1"><line fill="none" stroke="#E00000" stroke-dasharray="100,0" stroke-width="0.5" x1="68.57142857142858" x2="228.57142857142858" y1="300.0" y2="347.952" /><line fill="none" stroke="#E00000" stroke-dasharray="100,0" stroke-width="0.5" x1="228.57142857142858" x2="268.57142857142856" y1="347.952" y2="335.964" /><line fill="none" stroke="#E00000" stroke-dasharray="100,0" stroke-width="0.5" x1="268.57142857142856" x2="388.57142857142856" y1="335.964" y2="300.0" /><line fill="none" stroke="#E00000" stroke-dasharray="100,0" stroke-width="0.5" x1="388.57142857142856" x2="500.0" y1="300.0" y2="266.60485714285716" /><line fill="none" stroke="#E00000" stroke-dasharray="100,0" stroke-width="0.5" x1="500.0" x2="722.8571428571429" y1="266.60485714285716" y2="300.0" /><line fill="none" stroke="#E00000" stroke-dasharray="1,1" stroke-width="0.5" x1="500.0" x2="722.8571428571429" y1="266.60485714285716" y2="300.0" /><line fill="none" stroke="#E00000" stroke-dasharray="100,0" stroke-width="0.5" x1="68.57142857142858" x2="228.57142857142858" y1="300.0" y2="335.964" /><line fill="none" stroke="#E00000" stroke-dasharray="100,0" stroke-width="0.5" x1="228.57142857142858" x2="268.57142857142856" y1="335.964" y2="326.973" /><line fill="none" stroke="#E00000" stroke-dasharray="100,0" stroke-width="0.5" x1="268.57142857142856" x2="388.57142857142856" y1="326.973" y2="300.0" /><line fill="none" stroke="#E00000" stroke-dasharray="100,0" stroke-width="0.5" x1="388.57142857142856" x2="500.0" y1="300.0" y2="274.9536428571429" /><line fill="none" stroke="#E00000" stroke-dasharray="100,0" stroke-width="0.5" x1="500.0" x2="722.8571428571429" y1="274.9536428571429" y2="300.0" /><line fill="none" stroke="#E00000" stroke-dasharray="1,1" stroke-width="0.5" x1="500.0" x2="722.8571428571429" y1="274.9536428571429" y2="300.0" /><line fill="none" stroke="#E00000" stroke-dasharray="100,0" stroke-width="0.5" x1="68.57142857142858" x2="228.57142857142858" y1="300.0" y2="323.976" /><line fill="none" stroke="#E00000" stroke-dasharray="100,0" stroke-width="0.5" x1="228.57142857142858" x2="268.57142857142856" y1="323.976" y2="317.98199999999997" /><line fill="none" stroke="#E00000" stroke-dasharray="100,0" stroke-width="0.5" x1="268.57142857142856" x2="388.57142857142856" y1="317.98199999999997" y2="300.0" /><line fill="none" stroke="#E00000" stroke-dasharray="100,0" stroke-width="0.5" x1="388.57142857142856" x2="500.0" y1="300.0" y2="283.30242857142855" /><line fill="none" stroke="#E00000" stroke-dasharray="100,0" stroke-width="0.5" x1="500.0" x2="722.8571428571429" y1="283.30242857142855" y2="300.0" /><line fill="none" stroke="#E00000" stroke-dasharray="1,1" stroke-width="0.5" x1="500.0" x2="722.8571428571429" y1="283.30242857142855" y2="300.0" /><line fill="none" stroke="#E00000" stroke-dasharray="100,0" stroke-width="0.5" x1="68.57142857142858" x2="228.57142857142858" y1="300.0" y2="311.988" /><line fill="none" stroke="#E00000" stroke-dasharray="100,0" stroke-width="0.5" x1="228.57142857142858" x2="268.57142857142856" y1="311.988" y2="308.991" /><line fill="none" stroke="#E00000" stroke-dasharray="100,0" stroke-width="0.5" x1="268.57142857142856" x2="388.57142857142856" y1="308.991" y2="300.0" /><line fill="none" stroke="#E00000" stroke-dasharray="100,0" stroke-width="0.5" x1="388.57142857142856" x2="500.0" y1="300.0" y2="291.6512142857143" /><line fill="none" stroke="#E00000" stroke-dasharray="100,0" stroke-width="0.5" x1="500.0" x2="722.8571428571429" y1="291.6512142857143" y2="300.0" /><line fill="none" stroke="#E00000" stroke-dasharray="1,1" stroke-width="0.5" x1="500.0" x2="722.8571428571429" y1="291.6512142857143" y2="300.0" /><line fill="none" stroke="#E00000" stroke-dasharray="100,0" stroke-width="0.5" x1="68.57142857142858" x2="228.57142857142858" y1="300.0" y2="300.0" /><line fill="none" stroke="#E00000" stroke-dasharray="100,0" stroke-width="0.5" x1="228.57142857142858" x2="268.57142857142856" y1="300.0" y2="300.0" /><line fill="none" stroke="#E00000" stroke-dasharray="100,0" stroke-width="0.5" x1="268.57142857142856" x2="388.57142857142856" y1="300.0" y2="300.0" /><line fill="none" stroke="#E00000" stroke-dasharray="100,0" stroke-width="0.5" x1="388.57142857142856" x2="500.0" y1="300.0" y2="300.0" /><line fill="none" stroke="#E00000" stroke-dasharray="100,0" stroke-width="0.5" x1="500.0" x2="722.8571428571429" y1="300.0" y2="300.0" /><line fill="none" stroke="#E00000" stroke-dasharray="1,1" stroke-width="0.5" x1="500.0" x2="722.8571428571429" y1="300.0" y2="300.0" /><line fill="none" stroke="#E00000" stroke-dasharray="100,0" stroke-width="0.5" x1="68.57142857142858" x2="228.57142857142858" y1="300.0" y2="288.012" /><line fill="none" stroke="#E00000" stroke-dasharray="100,0" stroke-width="0.5" x1="228.57142857142858" x2="268.57142857142856" y1="288.012" y2="291.009" /><line fill="none" stroke="#E00000" stroke-dasharray="100,0" stroke-width="0.5" x1="268.57142857142856" x2="388.57142857142856" y1="291.009" y2="300.0" /><line fill="none" stroke="#E00000" stroke-dasharray="100,0" stroke-width="0.5" x1="388.57142857142856" x2="500.0" y1="300.0" y2="308.3487857142857" /><line fill="none" stroke="#E00000" stroke-dasharray="100,0" stroke-width="0.5" x1="500.0" x2="722.8571428571429" y1="308.3487857142857" y2="300.0" /><line fill="none" stroke="#E00000" stroke-dasharray="1,1" stroke-width="0.5" x1="500.0" x2="722.8571428571429" y1="308.3487857142857" y2="300.0" /><line fill="none" stroke="#E00000" stroke-dasharray="100,0" stroke-width="0.5" x1="68.57142857142858" x2="228.57142857142858" y1="300.0" y2="276.024" /><line fill="none" stroke="#E00000" stroke-dasharray="100,0" stroke-width="0.5" x1="228.57142857142858" x2="268.57142857142856" y1="276.024" y2="282.01800000000003" /><line fill="none" stroke="#E00000" stroke-dasharray="100,0" stroke-width="0.5" x1="268.57142857142856" x2="388.57142857142856" y1="282.01800000000003" y2="300.0" /><line fill="none" stroke="#E00000" stroke-dasharray="100,0" stroke-width="0.5" x1="388.57142857142856" x2="500.0" y1="300.0" y2="316.69757142857145" /><line fill="none" stroke="#E00000" stroke-dasharray="100,0" stroke-width="0.5" x1="500.0" x2="722.8571428571429" y1="316.69757142857145" y2="300.0" /><line fill="none" stroke="#E00000" stroke-dasharray="1,1" stroke-width="0.5" x1="500.0" x2="722.8571428571429" y1="316.69757142857145" y2="300.0" /><line fill="none" stroke="#E00000" stroke-dasharray="100,0" stroke-width="0.5" x1="68.57142857142858" x2="228.57142857142858" y1="300.0" y2="264.036" /><line fill="none" stroke="#E00000" stroke-dasharray="100,0" stroke-width="0.5" x1="228.57142857142858" x2="268.57142857142856" y1="264.036" y2="273.027" /><line fill="none" stroke="#E00000" stroke-dasharray="100,0" stroke-width="0.5" x1="268.57142857142856" x2="388.57142857142856" y1="273.027" y2="300.0" /><line fill="none" stroke="#E00000" stroke-dasharray="100,0" stroke-width="0.5" x1="388.57142857142856" x2="500.0" y1="300.0" y2="325.0463571428571" /><line fill="none" stroke="#E00000" stroke-dasharray="100,0" stroke-width="0.5" x1="500.0" x2="722.8571428571429" y1="325.0463571428571" y2="300.0" /><line fill="none" stroke="#E00000" stroke-dasharray="1,1" stroke-width="0.5" x1="500.0" x2="722.8571428571429" y1="325.0463571428571" y2="300.0" /><line fill="none" stroke="#E00000" stroke-dasharray="100,0" stroke-width="0.5" x1="68.57142857142858" x2="228.57142857142858" y1="300.0" y2="252.048" /><line fill="none" stroke="#E00000" stroke-dasharray="100,0" stroke-width="0.5" x1="228.57142857142858" x2="268.57142857142856" y1="252.048" y2="264.036" /><line fill="none" stroke="#E00000" stroke-dasharray="100,0" stroke-width="0.5" x1="268.57142857142856" x2="388.57142857142856" y1="264.036" y2="300.0" /><line fill="none" stroke="#E00000" stroke-dasharray="100,0" stroke-width="0.5" x1="388.57142857142856" x2="500.0" y1="300.0" y2="333.39514285714284" /><line fill="none" stroke="#E00000" stroke-dasharray="100,0" stroke-width="0.5" x1="500.0" x2="722.8571428571429" y1="333.39514285714284" y2="300.0" /><line fill="none" stroke="#E00000" stroke-dasharray="1,1" stroke-width="0.5" x1="500.0" x2="722.8571428571429" y1="333.39514285714284" y2="300.0" /></g><g inkscape:groupmode="layer" inkscape:label="rayGroup2"><line fill="none" stroke="#29ab93" stroke-dasharray="100,0" stroke-width="0.5" x1="68.57142857142858" x2="228.57142857142858" y1="348.11400000000003" y2="363.99" /><line fill="none" stroke="#29ab93" stroke-dasharray="100,0" stroke-width="0.5" x1="68.57142857142858" x2="228.57142857142858" y1="348.11400000000003" y2="352.002" /><line fill="none" stroke="#29ab93" stroke-dasharray="100,0" stroke-width="0.5" x1="228.57142857142858" x2="268.57142857142856" y1="352.002" y2="326.973" /><line fill="none" stroke="#29ab93" stroke-dasharray="100,0" stroke-width="0.5" x1="268.57142857142856" x2="388.57142857142856" y1="326.973" y2="251.886" /><line fill="none" stroke="#29ab93" stroke-dasharray="100,0" stroke-width="0.5" x1="388.57142857142856" x2="500.0" y1="251.886" y2="182.16235714285713" /><line fill="none" stroke="#29ab93" stroke-dasharray="100,0" stroke-width="0.5" x1="500.0" x2="722.8571428571429" y1="182.16235714285713" y2="396.22800000000007" /><line fill="none" stroke="#29ab93" stroke-dasharray="1,1" stroke-width="0.5" x1="500.0" x2="722.8571428571429" y1="182.16235714285713" y2="396.22800000000007" /><line fill="none" stroke="#29ab93" stroke-dasharray="100,0" stroke-width="0.5" x1="68.57142857142858" x2="228.57142857142858" y1="348.11400000000003" y2="340.014" /><line fill="none" stroke="#29ab93" stroke-dasharray="100,0" stroke-width="0.5" x1="228.57142857142858" x2="268.57142857142856" y1="340.014" y2="317.98199999999997" /><line fill="none" stroke="#29ab93" stroke-dasharray="100,0" stroke-width="0.5" x1="268.57142857142856" x2="388.57142857142856" y1="317.98199999999997" y2="251.886" /><line fill="none" stroke="#29ab93" stroke-dasharray="100,0" stroke-width="0.5" x1="388.57142857142856" x2="500.0" y1="251.886" y2="190.51114285714286" /><line fill="none" stroke="#29ab93" stroke-dasharray="100,0" stroke-width="0.5" x1="500.0" x2="722.8571428571429" y1="190.51114285714286" y2="396.22799999999995" /><line fill="none" stroke="#29ab93" stroke-dasharray="1,1" stroke-width="0.5" x1="500.0" x2="722.8571428571429" y1="190.51114285714286" y2="396.22799999999995" /><line fill="none" stroke="#29ab93" stroke-dasharray="100,0" stroke-width="0.5" x1="68.57142857142858" x2="228.57142857142858" y1="348.11400000000003" y2="328.026" /><line fill="none" stroke="#29ab93" stroke-dasharray="100,0" stroke-width="0.5" x1="228.57142857142858" x2="268.57142857142856" y1="328.026" y2="308.991" /><line fill="none" stroke="#29ab93" stroke-dasharray="100,0" stroke-width="0.5" x1="268.57142857142856" x2="388.57142857142856" y1="308.991" y2="251.886" /><line fill="none" stroke="#29ab93" stroke-dasharray="100,0" stroke-width="0.5" x1="388.57142857142856" x2="500.0" y1="251.886" y2="198.85992857142855" /><line fill="none" stroke="#29ab93" stroke-dasharray="100,0" stroke-width="0.5" x1="500.0" x2="722.8571428571429" y1="198.85992857142855" y2="396.228" /><line fill="none" stroke="#29ab93" stroke-dasharray="1,1" stroke-width="0.5" x1="500.0" x2="722.8571428571429" y1="198.85992857142855" y2="396.228" /><line fill="none" stroke="#29ab93" stroke-dasharray="100,0" stroke-width="0.5" x1="68.57142857142858" x2="228.57142857142858" y1="348.11400000000003" y2="316.038" /><line fill="none" stroke="#29ab93" stroke-dasharray="100,0" stroke-width="0.5" x1="228.57142857142858" x2="268.57142857142856" y1="316.038" y2="300.0" /><line fill="none" stroke="#29ab93" stroke-dasharray="100,0" stroke-width="0.5" x1="268.57142857142856" x2="388.57142857142856" y1="300.0" y2="251.886" /><line fill="none" stroke="#29ab93" stroke-dasharray="100,0" stroke-width="0.5" x1="388.57142857142856" x2="500.0" y1="251.886" y2="207.20871428571428" /><line fill="none" stroke="#29ab93" stroke-dasharray="100,0" stroke-width="0.5" x1="500.0" x2="722.8571428571429" y1="207.20871428571428" y2="396.22800000000007" /><line fill="none" stroke="#29ab93" stroke-dasharray="1,1" stroke-width="0.5" x1="500.0" x2="722.8571428571429" y1="207.20871428571428" y2="396.22800000000007" /><line fill="none" stroke="#29ab93" stroke-dasharray="100,0" stroke-width="0.5" x1="68.57142857142858" x2="228.57142857142858" y1="348.11400000000003" y2="304.05" /><line fill="none" stroke="#29ab93" stroke-dasharray="100,0" stroke-width="0.5" x1="228.57142857142858" x2="268.57142857142856" y1="304.05" y2="291.009" /><line fill="none" stroke="#29ab93" stroke-dasharray="100,0" stroke-width="0.5" x1="268.57142857142856" x2="388.57142857142856" y1="291.009" y2="251.886" /><line fill="none" stroke="#29ab93" stroke-dasharray="100,0" stroke-width="0.5" x1="388.57142857142856" x2="500.0" y1="251.886" y2="215.55749999999998" /><line fill="none" stroke="#29ab93" stroke-dasharray="100,0" stroke-width="0.5" x1="500.0" x2="722.8571428571429" y1="215.55749999999998" y2="396.228" /><line fill="none" stroke="#29ab93" stroke-dasharray="1,1" stroke-width="0.5" x1="500.0" x2="722.8571428571429" y1="215.55749999999998" y2="396.228" /><line fill="none" stroke="#29ab93" stroke-dasharray="100,0" stroke-width="0.5" x1="68.57142857142858" x2="228.57142857142858" y1="348.11400000000003" y2="292.062" /><line fill="none" stroke="#29ab93" stroke-dasharray="100,0" stroke-width="0.5" x1="228.57142857142858" x2="268.57142857142856" y1="292.062" y2="282.01800000000003" /><line fill="none" stroke="#29ab93" stroke-dasharray="100,0" stroke-width="0.5" x1="268.57142857142856" x2="388.57142857142856" y1="282.01800000000003" y2="251.886" /><line fill="none" stroke="#29ab93" stroke-dasharray="100,0" stroke-width="0.5" x1="388.57142857142856" x2="500.0" y1="251.886" y2="223.9062857142857" /><line fill="none" stroke="#29ab93" stroke-dasharray="100,0" stroke-width="0.5" x1="500.0" x2="722.8571428571429" y1="223.9062857142857" y2="396.228" /><line fill="none" stroke="#29ab93" stroke-dasharray="1,1" stroke-width="0.5" x1="500.0" x2="722.8571428571429" y1="223.9062857142857" y2="396.228" /><line fill="none" stroke="#29ab93" stroke-dasharray="100,0" stroke-width="0.5" x1="68.57142857142858" x2="228.57142857142858" y1="348.11400000000003" y2="280.074" /><line fill="none" stroke="#29ab93" stroke-dasharray="100,0" stroke-width="0.5" x1="228.57142857142858" x2="268.57142857142856" y1="280.074" y2="273.027" /><line fill="none" stroke="#29ab93" stroke-dasharray="100,0" stroke-width="0.5" x1="268.57142857142856" x2="388.57142857142856" y1="273.027" y2="251.886" /><line fill="none" stroke="#29ab93" stroke-dasharray="100,0" stroke-width="0.5" x1="388.57142857142856" x2="500.0" y1="251.886" y2="232.25507142857143" /><line fill="none" stroke="#29ab93" stroke-dasharray="100,0" stroke-width="0.5" x1="500.0" x2="722.8571428571429" y1="232.25507142857143" y2="396.228" /><line fill="none" stroke="#29ab93" stroke-dasharray="1,1" stroke-width="0.5" x1="500.0" x2="722.8571428571429" y1="232.25507142857143" y2="396.228" /><line fill="none" stroke="#29ab93" stroke-dasharray="100,0" stroke-width="0.5" x1="68.57142857142858" x2="228.57142857142858" y1="348.11400000000003" y2="268.086" /><line fill="none" stroke="#29ab93" stroke-dasharray="100,0" stroke-width="0.5" x1="228.57142857142858" x2="268.57142857142856" y1="268.086" y2="264.036" /><line fill="none" stroke="#29ab93" stroke-dasharray="100,0" stroke-width="0.5" x1="268.57142857142856" x2="388.57142857142856" y1="264.036" y2="251.886" /><line fill="none" stroke="#29ab93" stroke-dasharray="100,0" stroke-width="0.5" x1="388.57142857142856" x2="500.0" y1="251.886" y2="240.60385714285715" /><line fill="none" stroke="#29ab93" stroke-dasharray="100,0" stroke-width="0.5" x1="500.0" x2="722.8571428571429" y1="240.60385714285715" y2="396.22800000000007" /><line fill="none" stroke="#29ab93" stroke-dasharray="1,1" stroke-width="0.5" x1="500.0" x2="722.8571428571429" y1="240.60385714285715" y2="396.22800000000007" /><line fill="none" stroke="#29ab93" stroke-dasharray="100,0" stroke-width="0.5" x1="68.57142857142858" x2="228.57142857142858" y1="251.886" y2="331.914" /><line fill="none" stroke="#29ab93" stroke-dasharray="100,0" stroke-width="0.5" x1="228.57142857142858" x2="268.57142857142856" y1="331.914" y2="335.964" /><line fill="none" stroke="#29ab93" stroke-dasharray="100,0" stroke-width="0.5" x1="268.57142857142856" x2="388.57142857142856" y1="335.964" y2="348.11400000000003" /><line fill="none" stroke="#29ab93" stroke-dasharray="100,0" stroke-width="0.5" x1="388.57142857142856" x2="500.0" y1="348.11400000000003" y2="359.3961428571429" /><line fill="none" stroke="#29ab93" stroke-dasharray="100,0" stroke-width="0.5" x1="500.0" x2="722.8571428571429" y1="359.3961428571429" y2="203.77199999999996" /><line fill="none" stroke="#29ab93" stroke-dasharray="1,1" stroke-width="0.5" x1="500.0" x2="722.8571428571429" y1="359.3961428571429" y2="203.77199999999996" /><line fill="none" stroke="#29ab93" stroke-dasharray="100,0" stroke-width="0.5" x1="68.57142857142858" x2="228.57142857142858" y1="251.886" y2="319.926" /><line fill="none" stroke="#29ab93" stroke-dasharray="100,0" stroke-width="0.5" x1="228.57142857142858" x2="268.57142857142856" y1="319.926" y2="326.973" /><line fill="none" stroke="#29ab93" stroke-dasharray="100,0" stroke-width="0.5" x1="268.57142857142856" x2="388.57142857142856" y1="326.973" y2="348.11400000000003" /><line fill="none" stroke="#29ab93" stroke-dasharray="100,0" stroke-width="0.5" x1="388.57142857142856" x2="500.0" y1="348.11400000000003" y2="367.74492857142855" /><line fill="none" stroke="#29ab93" stroke-dasharray="100,0" stroke-width="0.5" x1="500.0" x2="722.8571428571429" y1="367.74492857142855" y2="203.772" /><line fill="none" stroke="#29ab93" stroke-dasharray="1,1" stroke-width="0.5" x1="500.0" x2="722.8571428571429" y1="367.74492857142855" y2="203.772" /><line fill="none" stroke="#29ab93" stroke-dasharray="100,0" stroke-width="0.5" x1="68.57142857142858" x2="228.57142857142858" y1="251.886" y2="307.938" /><line fill="none" stroke="#29ab93" stroke-dasharray="100,0" stroke-width="0.5" x1="228.57142857142858" x2="268.57142857142856" y1="307.938" y2="317.98199999999997" /><line fill="none" stroke="#29ab93" stroke-dasharray="100,0" stroke-width="0.5" x1="268.57142857142856" x2="388.57142857142856" y1="317.98199999999997" y2="348.11400000000003" /><line fill="none" stroke="#29ab93" stroke-dasharray="100,0" stroke-width="0.5" x1="388.57142857142856" x2="500.0" y1="348.11400000000003" y2="376.0937142857143" /><line fill="none" stroke="#29ab93" stroke-dasharray="100,0" stroke-width="0.5" x1="500.0" x2="722.8571428571429" y1="376.0937142857143" y2="203.772" /><line fill="none" stroke="#29ab93" stroke-dasharray="1,1" stroke-width="0.5" x1="500.0" x2="722.8571428571429" y1="376.0937142857143" y2="203.772" /><line fill="none" stroke="#29ab93" stroke-dasharray="100,0" stroke-width="0.5" x1="68.57142857142858" x2="228.57142857142858" y1="251.886" y2="295.95" /><line fill="none" stroke="#29ab93" stroke-dasharray="100,0" stroke-width="0.5" x1="228.57142857142858" x2="268.57142857142856" y1="295.95" y2="308.991" /><line fill="none" stroke="#29ab93" stroke-dasharray="100,0" stroke-width="0.5" x1="268.57142857142856" x2="388.57142857142856" y1="308.991" y2="348.11400000000003" /><line fill="none" stroke="#29ab93" stroke-dasharray="100,0" stroke-width="0.5" x1="388.57142857142856" x2="500.0" y1="348.11400000000003" y2="384.4425" /><line fill="none" stroke="#29ab93" stroke-dasharray="100,0" stroke-width="0.5" x1="500.0" x2="722.8571428571429" y1="384.4425" y2="203.772" /><line fill="none" stroke="#29ab93" stroke-dasharray="1,1" stroke-width="0.5" x1="500.0" x2="722.8571428571429" y1="384.4425" y2="203.772" /><line fill="none" stroke="#29ab93" stroke-dasharray="100,0" stroke-width="0.5" x1="68.57142857142858" x2="228.57142857142858" y1="251.886" y2="283.962" /><line fill="none" stroke="#29ab93" stroke-dasharray="100,0" stroke-width="0.5" x1="228.57142857142858" x2="268.57142857142856" y1="283.962" y2="300.0" /><line fill="none" stroke="#29ab93" stroke-dasharray="100,0" stroke-width="0.5" x1="268.57142857142856" x2="388.57142857142856" y1="300.0" y2="348.11400000000003" /><line fill="none" stroke="#29ab93" stroke-dasharray="100,0" stroke-width="0.5" x1="388.57142857142856" x2="500.0" y1="348.11400000000003" y2="392.7912857142857" /><line fill="none" stroke="#29ab93" stroke-dasharray="100,0" stroke-width="0.5" x1="500.0" x2="722.8571428571429" y1="392.7912857142857" y2="203.77199999999996" /><line fill="none" stroke="#29ab93" stroke-dasharray="1,1" stroke-width="0.5" x1="500.0" x2="722.8571428571429" y1="392.7912857142857" y2="203.77199999999996" /><line fill="none" stroke="#29ab93" stroke-dasharray="100,0" stroke-width="0.5" x1="68.57142857142858" x2="228.57142857142858" y1="251.886" y2="271.974" /><line fill="none" stroke="#29ab93" stroke-dasharray="100,0" stroke-width="0.5" x1="228.57142857142858" x2="268.57142857142856" y1="271.974" y2="291.009" /><line fill="none" stroke="#29ab93" stroke-dasharray="100,0" stroke-width="0.5" x1="268.57142857142856" x2="388.57142857142856" y1="291.009" y2="348.114" /><line fill="none" stroke="#29ab93" stroke-dasharray="100,0" stroke-width="0.5" x1="388.57142857142856" x2="500.0" y1="348.114" y2="401.14007142857145" /><line fill="none" stroke="#29ab93" stroke-dasharray="100,0" stroke-width="0.5" x1="500.0" x2="722.8571428571429" y1="401.14007142857145" y2="203.772" /><line fill="none" stroke="#29ab93" stroke-dasharray="1,1" stroke-width="0.5" x1="500.0" x2="722.8571428571429" y1="401.14007142857145" y2="203.772" /><line fill="none" stroke="#29ab93" stroke-dasharray="100,0" stroke-width="0.5" x1="68.57142857142858" x2="228.57142857142858" y1="251.886" y2="259.986" /><line fill="none" stroke="#29ab93" stroke-dasharray="100,0" stroke-width="0.5" x1="228.57142857142858" x2="268.57142857142856" y1="259.986" y2="282.01800000000003" /><line fill="none" stroke="#29ab93" stroke-dasharray="100,0" stroke-width="0.5" x1="268.57142857142856" x2="388.57142857142856" y1="282.01800000000003" y2="348.11400000000003" /><line fill="none" stroke="#29ab93" stroke-dasharray="100,0" stroke-width="0.5" x1="388.57142857142856" x2="500.0" y1="348.11400000000003" y2="409.48885714285717" /><line fill="none" stroke="#29ab93" stroke-dasharray="100,0" stroke-width="0.5" x1="500.0" x2="722.8571428571429" y1="409.48885714285717" y2="203.77199999999996" /><line fill="none" stroke="#29ab93" stroke-dasharray="1,1" stroke-width="0.5" x1="500.0" x2="722.8571428571429" y1="409.48885714285717" y2="203.77199999999996" /><line fill="none" stroke="#29ab93" stroke-dasharray="100,0" stroke-width="0.5" x1="68.57142857142858" x2="228.57142857142858" y1="251.886" y2="247.998" /><line fill="none" stroke="#29ab93" stroke-dasharray="100,0" stroke-width="0.5" x1="228.57142857142858" x2="268.57142857142856" y1="247.998" y2="273.027" /><line fill="none" stroke="#29ab93" stroke-dasharray="100,0" stroke-width="0.5" x1="268.57142857142856" x2="388.57142857142856" y1="273.027" y2="348.11400000000003" /><line fill="none" stroke="#29ab93" stroke-dasharray="100,0" stroke-width="0.5" x1="388.57142857142856" x2="500.0" y1="348.11400000000003" y2="417.8376428571429" /><line fill="none" stroke="#29ab93" stroke-dasharray="100,0" stroke-width="0.5" x1="500.0" x2="722.8571428571429" y1="417.8376428571429" y2="203.77199999999993" /><line fill="none" stroke="#29ab93" stroke-dasharray="1,1" stroke-width="0.5" x1="500.0" x2="722.8571428571429" y1="417.8376428571429" y2="203.77199999999993" /><line fill="none" stroke="#29ab93" stroke-dasharray="100,0" stroke-width="0.5" x1="68.57142857142858" x2="228.57142857142858" y1="251.886" y2="236.01" /></g><g inkscape:groupmode="layer" inkscape:label="rayGroup3"><line fill="none" stroke="#0000FF" stroke-dasharray="100,0" stroke-width="0.5" x1="68.57142857142858" x2="228.57142857142858" y1="255.0" y2="332.952" /><line fill="none" stroke="#0000FF" stroke-dasharray="100,0" stroke-width="0.5" x1="228.57142857142858" x2="268.57142857142856" y1="332.952" y2="335.964" /><line fill="none" stroke="#0000FF" stroke-dasharray="100,0" stroke-width="0.5" x1="268.57142857142856" x2="388.57142857142856" y1="335.964" y2="345.0" /><line fill="none" stroke="#0000FF" stroke-dasharray="100,0" stroke-width="0.5" x1="388.57142857142856" x2="500.0" y1="345.0" y2="353.39057142857143" /><line fill="none" stroke="#0000FF" stroke-dasharray="100,0" stroke-width="0.5" x1="500.0" x2="722.8571428571429" y1="353.39057142857143" y2="209.99999999999997" /><line fill="none" stroke="#0000FF" stroke-dasharray="1,1" stroke-width="0.5" x1="500.0" x2="722.8571428571429" y1="353.39057142857143" y2="209.99999999999997" /><line fill="none" stroke="#0000FF" stroke-dasharray="100,0" stroke-width="0.5" x1="68.57142857142858" x2="228.57142857142858" y1="255.0" y2="320.964" /><line fill="none" stroke="#0000FF" stroke-dasharray="100,0" stroke-width="0.5" x1="228.57142857142858" x2="268.57142857142856" y1="320.964" y2="326.973" /><line fill="none" stroke="#0000FF" stroke-dasharray="100,0" stroke-width="0.5" x1="268.57142857142856" x2="388.57142857142856" y1="326.973" y2="345.0" /><line fill="none" stroke="#0000FF" stroke-dasharray="100,0" stroke-width="0.5" x1="388.57142857142856" x2="500.0" y1="345.0" y2="361.73935714285716" /><line fill="none" stroke="#0000FF" stroke-dasharray="100,0" stroke-width="0.5" x1="500.0" x2="722.8571428571429" y1="361.73935714285716" y2="209.99999999999994" /><line fill="none" stroke="#0000FF" stroke-dasharray="1,1" stroke-width="0.5" x1="500.0" x2="722.8571428571429" y1="361.73935714285716" y2="209.99999999999994" /><line fill="none" stroke="#0000FF" stroke-dasharray="100,0" stroke-width="0.5" x1="68.57142857142858" x2="228.57142857142858" y1="255.0" y2="308.976" /><line fill="none" stroke="#0000FF" stroke-dasharray="100,0" stroke-width="0.5" x1="228.57142857142858" x2="268.57142857142856" y1="308.976" y2="317.98199999999997" /><line fill="none" stroke="#0000FF" stroke-dasharray="100,0" stroke-width="0.5" x1="268.57142857142856" x2="388.57142857142856" y1="317.98199999999997" y2="345.0" /><line fill="none" stroke="#0000FF" stroke-dasharray="100,0" stroke-width="0.5" x1="388.57142857142856" x2="500.0" y1="345.0" y2="370.0881428571429" /><line fill="none" stroke="#0000FF" stroke-dasharray="100,0" stroke-width="0.5" x1="500.0" x2="722.8571428571429" y1="370.0881428571429" y2="209.99999999999994" /><line fill="none" stroke="#0000FF" stroke-dasharray="1,1" stroke-width="0.5" x1="500.0" x2="722.8571428571429" y1="370.0881428571429" y2="209.99999999999994" /><line fill="none" stroke="#0000FF" stroke-dasharray="100,0" stroke-width="0.5" x1="68.57142857142858" x2="228.57142857142858" y1="255.0" y2="296.988" /><line fill="none" stroke="#0000FF" stroke-dasharray="100,0" stroke-width="0.5" x1="228.57142857142858" x2="268.57142857142856" y1="296.988" y2="308.991" /><line fill="none" stroke="#0000FF" stroke-dasharray="100,0" stroke-width="0.5" x1="268.57142857142856" x2="388.57142857142856" y1="308.991" y2="345.0" /><line fill="none" stroke="#0000FF" stroke-dasharray="100,0" stroke-width="0.5" x1="388.57142857142856" x2="500.0" y1="345.0" y2="378.43692857142855" /><line fill="none" stroke="#0000FF" stroke-dasharray="100,0" stroke-width="0.5" x1="500.0" x2="722.8571428571429" y1="378.43692857142855" y2="210.0" /><line fill="none" stroke="#0000FF" stroke-dasharray="1,1" stroke-width="0.5" x1="500.0" x2="722.8571428571429" y1="378.43692857142855" y2="210.0" /><line fill="none" stroke="#0000FF" stroke-dasharray="100,0" stroke-width="0.5" x1="68.57142857142858" x2="228.57142857142858" y1="255.0" y2="285.0" /><line fill="none" stroke="#0000FF" stroke-dasharray="100,0" stroke-width="0.5" x1="228.57142857142858" x2="268.57142857142856" y1="285.0" y2="300.0" /><line fill="none" stroke="#0000FF" stroke-dasharray="100,0" stroke-width="0.5" x1="268.57142857142856" x2="388.57142857142856" y1="300.0" y2="345.0" /><line fill="none" stroke="#0000FF" stroke-dasharray="100,0" stroke-width="0.5" x1="388.57142857142856" x2="500.0" y1="345.0" y2="386.7857142857143" /><line fill="none" stroke="#0000FF" stroke-dasharray="100,0" stroke-width="0.5" x1="500.0" x2="722.8571428571429" y1="386.7857142857143" y2="210.0" /><line fill="none" stroke="#0000FF" stroke-dasharray="1,1" stroke-width="0.5" x1="500.0" x2="722.8571428571429" y1="386.7857142857143" y2="210.0" /><line fill="none" stroke="#0000FF" stroke-dasharray="100,0" stroke-width="0.5" x1="68.57142857142858" x2="228.57142857142858" y1="255.0" y2="273.012" /><line fill="none" stroke="#0000FF" stroke-dasharray="100,0" stroke-width="0.5" x1="228.57142857142858" x2="268.57142857142856" y1="273.012" y2="291.009" /><line fill="none" stroke="#0000FF" stroke-dasharray="100,0" stroke-width="0.5" x1="268.57142857142856" x2="388.57142857142856" y1="291.009" y2="345.0" /><line fill="none" stroke="#0000FF" stroke-dasharray="100,0" stroke-width="0.5" x1="388.57142857142856" x2="500.0" y1="345.0" y2="395.1345" /><line fill="none" stroke="#0000FF" stroke-dasharray="100,0" stroke-width="0.5" x1="500.0" x2="722.8571428571429" y1="395.1345" y2="210.00000000000003" /><line fill="none" stroke="#0000FF" stroke-dasharray="1,1" stroke-width="0.5" x1="500.0" x2="722.8571428571429" y1="395.1345" y2="210.00000000000003" /><line fill="none" stroke="#0000FF" stroke-dasharray="100,0" stroke-width="0.5" x1="68.57142857142858" x2="228.57142857142858" y1="255.0" y2="261.024" /><line fill="none" stroke="#0000FF" stroke-dasharray="100,0" stroke-width="0.5" x1="228.57142857142858" x2="268.57142857142856" y1="261.024" y2="282.01800000000003" /><line fill="none" stroke="#0000FF" stroke-dasharray="100,0" stroke-width="0.5" x1="268.57142857142856" x2="388.57142857142856" y1="282.01800000000003" y2="345.0" /><line fill="none" stroke="#0000FF" stroke-dasharray="100,0" stroke-width="0.5" x1="388.57142857142856" x2="500.0" y1="345.0" y2="403.48328571428567" /><line fill="none" stroke="#0000FF" stroke-dasharray="100,0" stroke-width="0.5" x1="500.0" x2="722.8571428571429" y1="403.48328571428567" y2="209.99999999999997" /><line fill="none" stroke="#0000FF" stroke-dasharray="1,1" stroke-width="0.5" x1="500.0" x2="722.8571428571429" y1="403.48328571428567" y2="209.99999999999997" /><line fill="none" stroke="#0000FF" stroke-dasharray="100,0" stroke-width="0.5" x1="68.57142857142858" x2="228.57142857142858" y1="255.0" y2="249.036" /><line fill="none" stroke="#0000FF" stroke-dasharray="100,0" stroke-width="0.5" x1="228.57142857142858" x2="268.57142857142856" y1="249.036" y2="273.027" /><line fill="none" stroke="#0000FF" stroke-dasharray="100,0" stroke-width="0.5" x1="268.57142857142856" x2="388.57142857142856" y1="273.027" y2="345.0" /><line fill="none" stroke="#0000FF" stroke-dasharray="100,0" stroke-width="0.5" x1="388.57142857142856" x2="500.0" y1="345.0" y2="411.8320714285714" /><line fill="none" stroke="#0000FF" stroke-dasharray="100,0" stroke-width="0.5" x1="500.0" x2="722.8571428571429" y1="411.8320714285714" y2="210.00000000000003" /><line fill="none" stroke="#0000FF" stroke-dasharray="1,1" stroke-width="0.5" x1="500.0" x2="722.8571428571429" y1="411.8320714285714" y2="210.00000000000003" /><line fill="none" stroke="#0000FF" stroke-dasharray="100,0" stroke-width="0.5" x1="68.57142857142858" x2="228.57142857142858" y1="255.0" y2="237.048" /><line fill="none" stroke="#0000FF" stroke-dasharray="100,0" stroke-width="0.5" x1="228.57142857142858" x2="268.57142857142856" y1="237.048" y2="264.036" /><line fill="none" stroke="#0000FF" stroke-dasharray="100,0" stroke-width="0.5" x1="268.57142857142856" x2="388.57142857142856" y1="264.036" y2="345.0" /><line fill="none" stroke="#0000FF" stroke-dasharray="100,0" stroke-width="0.5" x1="388.57142857142856" x2="500.0" y1="345.0" y2="420.1808571428571" /><line fill="none" stroke="#0000FF" stroke-dasharray="100,0" stroke-width="0.5" x1="500.0" x2="722.8571428571429" y1="420.1808571428571" y2="210.00000000000003" /><line fill="none" stroke="#0000FF" stroke-dasharray="1,1" stroke-width="0.5" x1="500.0" x2="722.8571428571429" y1="420.1808571428571" y2="210.00000000000003" /><line fill="none" stroke="#0000FF" stroke-dasharray="100,0" stroke-width="0.5" x1="68.57142857142858" x2="228.57142857142858" y1="345.0" y2="362.952" /><line fill="none" stroke="#0000FF" stroke-dasharray="100,0" stroke-width="0.5" x1="228.57142857142858" x2="268.57142857142856" y1="362.952" y2="335.964" /><line fill="none" stroke="#0000FF" stroke-dasharray="100,0" stroke-width="0.5" x1="268.57142857142856" x2="388.57142857142856" y1="335.964" y2="255.00000000000003" /><line fill="none" stroke="#0000FF" stroke-dasharray="100,0" stroke-width="0.5" x1="388.57142857142856" x2="500.0" y1="255.00000000000003" y2="179.8191428571429" /><line fill="none" stroke="#0000FF" stroke-dasharray="100,0" stroke-width="0.5" x1="500.0" x2="722.8571428571429" y1="179.8191428571429" y2="390.0" /><line fill="none" stroke="#0000FF" stroke-dasharray="1,1" stroke-width="0.5" x1="500.0" x2="722.8571428571429" y1="179.8191428571429" y2="390.0" /><line fill="none" stroke="#0000FF" stroke-dasharray="100,0" stroke-width="0.5" x1="68.57142857142858" x2="228.57142857142858" y1="345.0" y2="350.964" /><line fill="none" stroke="#0000FF" stroke-dasharray="100,0" stroke-width="0.5" x1="228.57142857142858" x2="268.57142857142856" y1="350.964" y2="326.973" /><line fill="none" stroke="#0000FF" stroke-dasharray="100,0" stroke-width="0.5" x1="268.57142857142856" x2="388.57142857142856" y1="326.973" y2="255.0" /><line fill="none" stroke="#0000FF" stroke-dasharray="100,0" stroke-width="0.5" x1="388.57142857142856" x2="500.0" y1="255.0" y2="188.16792857142858" /><line fill="none" stroke="#0000FF" stroke-dasharray="100,0" stroke-width="0.5" x1="500.0" x2="722.8571428571429" y1="188.16792857142858" y2="390.0" /><line fill="none" stroke="#0000FF" stroke-dasharray="1,1" stroke-width="0.5" x1="500.0" x2="722.8571428571429" y1="188.16792857142858" y2="390.0" /><line fill="none" stroke="#0000FF" stroke-dasharray="100,0" stroke-width="0.5" x1="68.57142857142858" x2="228.57142857142858" y1="345.0" y2="338.976" /><line fill="none" stroke="#0000FF" stroke-dasharray="100,0" stroke-width="0.5" x1="228.57142857142858" x2="268.57142857142856" y1="338.976" y2="317.98199999999997" /><line fill="none" stroke="#0000FF" stroke-dasharray="100,0" stroke-width="0.5" x1="268.57142857142856" x2="388.57142857142856" y1="317.98199999999997" y2="255.0" /><line fill="none" stroke="#0000FF" stroke-dasharray="100,0" stroke-width="0.5" x1="388.57142857142856" x2="500.0" y1="255.0" y2="196.5167142857143" /><line fill="none" stroke="#0000FF" stroke-dasharray="100,0" stroke-width="0.5" x1="500.0" x2="722.8571428571429" y1="196.5167142857143" y2="390.0" /><line fill="none" stroke="#0000FF" stroke-dasharray="1,1" stroke-width="0.5" x1="500.0" x2="722.8571428571429" y1="196.5167142857143" y2="390.0" /><line fill="none" stroke="#0000FF" stroke-dasharray="100,0" stroke-width="0.5" x1="68.57142857142858" x2="228.57142857142858" y1="345.0" y2="326.988" /><line fill="none" stroke="#0000FF" stroke-dasharray="100,0" stroke-width="0.5" x1="228.57142857142858" x2="268.57142857142856" y1="326.988" y2="308.991" /><line fill="none" stroke="#0000FF" stroke-dasharray="100,0" stroke-width="0.5" x1="268.57142857142856" x2="388.57142857142856" y1="308.991" y2="255.0" /><line fill="none" stroke="#0000FF" stroke-dasharray="100,0" stroke-width="0.5" x1="388.57142857142856" x2="500.0" y1="255.0" y2="204.8655" /><line fill="none" stroke="#0000FF" stroke-dasharray="100,0" stroke-width="0.5" x1="500.0" x2="722.8571428571429" y1="204.8655" y2="390.0" /><line fill="none" stroke="#0000FF" stroke-dasharray="1,1" stroke-width="0.5" x1="500.0" x2="722.8571428571429" y1="204.8655" y2="390.0" /><line fill="none" stroke="#0000FF" stroke-dasharray="100,0" stroke-width="0.5" x1="68.57142857142858" x2="228.57142857142858" y1="345.0" y2="315.0" /><line fill="none" stroke="#0000FF" stroke-dasharray="100,0" stroke-width="0.5" x1="228.57142857142858" x2="268.57142857142856" y1="315.0" y2="300.0" /><line fill="none" stroke="#0000FF" stroke-dasharray="100,0" stroke-width="0.5" x1="268.57142857142856" x2="388.57142857142856" y1="300.0" y2="255.0" /><line fill="none" stroke="#0000FF" stroke-dasharray="100,0" stroke-width="0.5" x1="388.57142857142856" x2="500.0" y1="255.0" y2="213.21428571428572" /><line fill="none" stroke="#0000FF" stroke-dasharray="100,0" stroke-width="0.5" x1="500.0" x2="722.8571428571429" y1="213.21428571428572" y2="390.0" /><line fill="none" stroke="#0000FF" stroke-dasharray="1,1" stroke-width="0.5" x1="500.0" x2="722.8571428571429" y1="213.21428571428572" y2="390.0" /><line fill="none" stroke="#0000FF" stroke-dasharray="100,0" stroke-width="0.5" x1="68.57142857142858" x2="228.57142857142858" y1="345.0" y2="303.012" /><line fill="none" stroke="#0000FF" stroke-dasharray="100,0" stroke-width="0.5" x1="228.57142857142858" x2="268.57142857142856" y1="303.012" y2="291.009" /><line fill="none" stroke="#0000FF" stroke-dasharray="100,0" stroke-width="0.5" x1="268.57142857142856" x2="388.57142857142856" y1="291.009" y2="255.0" /><line fill="none" stroke="#0000FF" stroke-dasharray="100,0" stroke-width="0.5" x1="388.57142857142856" x2="500.0" y1="255.0" y2="221.56307142857145" /><line fill="none" stroke="#0000FF" stroke-dasharray="100,0" stroke-width="0.5" x1="500.0" x2="722.8571428571429" y1="221.56307142857145" y2="390.0" /><line fill="none" stroke="#0000FF" stroke-dasharray="1,1" stroke-width="0.5" x1="500.0" x2="722.8571428571429" y1="221.56307142857145" y2="390.0" /><line fill="none" stroke="#0000FF" stroke-dasharray="100,0" stroke-width="0.5" x1="68.57142857142858" x2="228.57142857142858" y1="345.0" y2="291.024" /><line fill="none" stroke="#0000FF" stroke-dasharray="100,0" stroke-width="0.5" x1="228.57142857142858" x2="268.57142857142856" y1="291.024" y2="282.01800000000003" /><line fill="none" stroke="#0000FF" stroke-dasharray="100,0" stroke-width="0.5" x1="268.57142857142856" x2="388.57142857142856" y1="282.01800000000003" y2="255.0" /><line fill="none" stroke="#0000FF" stroke-dasharray="100,0" stroke-width="0.5" x1="388.57142857142856" x2="500.0" y1="255.0" y2="229.91185714285712" /><line fill="none" stroke="#0000FF" stroke-dasharray="100,0" stroke-width="0.5" x1="500.0" x2="722.8571428571429" y1="229.91185714285712" y2="390.00000000000006" /><line fill="none" stroke="#0000FF" stroke-dasharray="1,1" stroke-width="0.5" x1="500.0" x2="722.8571428571429" y1="229.91185714285712" y2="390.00000000000006" /><line fill="none" stroke="#0000FF" stroke-dasharray="100,0" stroke-width="0.5" x1="68.57142857142858" x2="228.57142857142858" y1="345.0" y2="279.036" /><line fill="none" stroke="#0000FF" stroke-dasharray="100,0" stroke-width="0.5" x1="228.57142857142858" x2="268.57142857142856" y1="279.036" y2="273.027" /><line fill="none" stroke="#0000FF" stroke-dasharray="100,0" stroke-width="0.5" x1="268.57142857142856" x2="388.57142857142856" y1="273.027" y2="255.0" /><line fill="none" stroke="#0000FF" stroke-dasharray="100,0" stroke-width="0.5" x1="388.57142857142856" x2="500.0" y1="255.0" y2="238.26064285714284" /><line fill="none" stroke="#0000FF" stroke-dasharray="100,0" stroke-width="0.5" x1="500.0" x2="722.8571428571429" y1="238.26064285714284" y2="390.00000000000006" /><line fill="none" stroke="#0000FF" stroke-dasharray="1,1" stroke-width="0.5" x1="500.0" x2="722.8571428571429" y1="238.26064285714284" y2="390.00000000000006" /><line fill="none" stroke="#0000FF" stroke-dasharray="100,0" stroke-width="0.5" x1="68.57142857142858" x2="228.57142857142858" y1="345.0" y2="267.048" /><line fill="none" stroke="#0000FF" stroke-dasharray="100,0" stroke-width="0.5" x1="228.57142857142858" x2="268.57142857142856" y1="267.048" y2="264.036" /><line fill="none" stroke="#0000FF" stroke-dasharray="100,0" stroke-width="0.5" x1="268.57142857142856" x2="388.57142857142856" y1="264.036" y2="255.0" /><line fill="none" stroke="#0000FF" stroke-dasharray="100,0" stroke-width="0.5" x1="388.57142857142856" x2="500.0" y1="255.0" y2="246.60942857142857" /><line fill="none" stroke="#0000FF" stroke-dasharray="100,0" stroke-width="0.5" x1="500.0" x2="722.8571428571429" y1="246.60942857142857" y2="390.0" /><line fill="none" stroke="#0000FF" stroke-dasharray="1,1" stroke-width="0.5" x1="500.0" x2="722.8571428571429" y1="246.60942857142857" y2="390.0" /></g><g inkscape:groupmode="layer" inkscape:label="rayGroup4"><line fill="none" stroke="#00FFFF" stroke-dasharray="100,0" stroke-width="0.5" x1="68.57142857142858" x2="228.57142857142858" y1="300.0" y2="239.51999999999998" /><line fill="none" stroke="#00FFFF" stroke-dasharray="100,0" stroke-width="0.5" x1="228.57142857142858" x2="268.57142857142856" y1="239.51999999999998" y2="254.64" /></g></svg>