<?xml version="1.0" encoding="utf-8" ?>
<svg baseProfile="full" height="600" version="1.1" width="800" xmlns="http://www.w3.org/2000/svg" xmlns:ev="http://www.w3.org/2001/xml-events" xmlns:inkscape="http://www.inkscape.org/namespaces/inkscape" xmlns:sodipodi="http://sodipodi.sourceforge.net/DTD/sodipodi-0.dtd" xmlns:xlink="http://www.w3.org/1999/xlink"><defs /><g inkscape:groupmode="layer" inkscape:label="axis"><line fill="none" stroke="#040404" stroke-dasharray="10,4" stroke-width="2.0" x1="0" x2="800" y1="300.0" y2="300.0" /></g><g inkscape:groupmode="layer" inkscape:label="optics"><path d="M 228.57142857142858,300.0 m -5.0,-72.0 a 727.9999999999998,727.9999999999998 0 0 0    0,144.0 h   10 a 727.9999999999998,727.9999999999998 0 0 0    0,-144.0 z" fill="#CCCCCC" id="objective" stroke="#000000" stroke-dasharray="100,0" stroke-width="1.0" /><path d="M 514.2857142857143,300.0 m -5.0,-144.0 a 676.0,676.0 0 0 0    0,288.0 h   10 a 676.0,676.0 0 0 0    0,-288.0 z" fill="#CCCCCC" id="eyepiece" stroke="#000000" stroke-dasharray="100,0" stroke-width="1.0" /></g><g inkscape:groupmode="layer" inkscape:label="stops"><path d="M 228.57142857142858,300.0 m -5.0,72.0 h   10 m    0,-144.0 h  -10 m  5.0,   0 v -108.0 m    0,252.0 v 108.0 " fill="none" id="objective" stroke="#FF0000" stroke-dasharray="100,0" stroke-width="2" /><path d="M 514.2857142857143,300.0 m -5.0,144.0 h   10 m    0,-288.0 h  -10 m  5.0,   0 v -36.0 m    0,324.0 v 36.0 " fill="none" id="eyepiece" stroke="#00FF00" stroke-dasharray="100,0" stroke-width="2" /></g><g inkscape:groupmode="layer" inkscape:label="pupils"><path d="M 228.57142857142858,300.0 m -5.0,72.0 h   10 m    0,-144.0 h  -10 m  5.0,   0 v -108.0 m    0,252.0 v 108.0 " fill="none" id="__entrance_pupil__" stroke="#FF2020" stroke-dasharray="100,0" stroke-width="1.5" /><path d="M 614.6718146718147,300.0 m -5.0,25.297297297297312 h   10 m    0,-50.594594594594625 h  -10 m  5.0,   0 v -154.70270270270268 m    0,205.2972972972973 v 154.70270270270268 " fill="none" id="__exit_pupil__" stroke="#FF1010" stroke-dasharray="100,0" stroke-width="1.5" /></g><g inkscape:groupmode="layer" inkscape:label="windows"><path d="M 117.46031746031746,300.0 m -5.0,56.00000000000003 h   10 m    0,-112.00000000000006 h  -10 m  5.0,   0 v -123.99999999999997 m    0,236.00000000000003 v 123.99999999999997 " fill="none" id="__entrance_window__" stroke="#20FF20" stroke-dasharray="100,0" stroke-width="1.5" /><path d="M 514.2857142857143,300.0 m -5.0,144.0 h   10 m    0,-288.0 h  -10 m  5.0,   0 v -36.0 m    0,324.0 v 36.0 " fill="none" id="__exit_window__" stroke="#10FF10" stroke-dasharray="100,0" stroke-width="1.5" /></g><g inkscape:groupmode="layer" inkscape:label="objects"><path d="M 68.57142857142858,300.0 m    0,45.0 v -90.0 l   -3, 7.0 l    6,   0 l   -3,-7.0 " fill="#000000" stroke="#000000" stroke-dasharray="100,0" stroke-width="1.0" /></g><g inkscape:groupmode="layer" inkscape:label="images"><path d="M 695.8730158730159,300.0 m    0,65.00000000000009 v -130.00000000000017 l   -3, 7.0 l    6,   0 l   -3,-7.0 " fill="#020202" stroke="#020202" stroke-dasharray="100,0" stroke-width="1.0" /></g><g inkscape:groupmode="layer" inkscape:label="rayGroup1"><line fill="none" stroke="#E00000" stroke-dasharray="100,0" stroke-width="0.5" x1="68.57142857142858" x2="228.57142857142858" y1="300.0" y2="371.928" /><line fill="none" stroke="#E00000" stroke-dasharray="100,0" stroke-width="0.5" x1="228.57142857142858" x2="514.2857142857143" y1="371.928" y2="243.48514285714288" /><line fill="none" stroke="#E00000" stroke-dasharray="100,0" stroke-width="0.5" x1="514.2857142857143" x2="695.8730158730159" y1="243.48514285714288" y2="300.0" /><line fill="none" stroke="#E00000" stroke-dasharray="1,1" stroke-width="0.5" x1="514.2857142857143" x2="695.8730158730159" y1="243.48514285714288" y2="300.0" /><line fill="none" stroke="#E00000" stroke-dasharray="100,0" stroke-width="0.5" x1="68.57142857142858" x2="228.57142857142858" y1="300.0" y2="353.946" /><line fill="none" stroke="#E00000" stroke-dasharray="100,0" stroke-width="0.5" x1="228.57142857142858" x2="514.2857142857143" y1="353.946" y2="257.6138571428571" /><line fill="none" stroke="#E00000" stroke-dasharray="100,0" stroke-width="0.5" x1="514.2857142857143" x2="695.8730158730159" y1="257.6138571428571" y2="300.0" /><line fill="none" stroke="#E00000" stroke-dasharray="1,1" stroke-width="0.5" x1="514.2857142857143" x2="695.8730158730159" y1="257.6138571428571" y2="300.0" /><line fill="none" stroke="#E00000" stroke-dasharray="100,0" stroke-width="0.5" x1="68.57142857142858" x2="228.57142857142858" y1="300.0" y2="335.964" /><line fill="none" stroke="#E00000" stroke-dasharray="100,0" stroke-width="0.5" x1="228.57142857142858" x2="514.2857142857143" y1="335.964" y2="271.7425714285714" /><line fill="none" stroke="#E00000" stroke-dasharray="100,0" stroke-width="0.5" x1="514.2857142857143" x2="695.8730158730159" y1="271.7425714285714" y2="300.0" /><line fill="none" stroke="#E00000" stroke-dasharray="1,1" stroke-width="0.5" x1="514.2857142857143" x2="695.8730158730159" y1="271.7425714285714" y2="300.0" /><line fill="none" stroke="#E00000" stroke-dasharray="100,0" stroke-width="0.5" x1="68.57142857142858" x2="228.57142857142858" y1="300.0" y2="317.98199999999997" /><line fill="none" stroke="#E00000" stroke-dasharray="100,0" stroke-width="0.5" x1="228.57142857142858" x2="514.2857142857143" y1="317.98199999999997" y2="285.8712857142857" /><line fill="none" stroke="#E00000" stroke-dasharray="100,0" stroke-width="0.5" x1="514.2857142857143" x2="695.8730158730159" y1="285.8712857142857" y2="300.0" /><line fill="none" stroke="#E00000" stroke-dasharray="1,1" stroke-width="0.5" x1="514.2857142857143" x2="695.8730158730159" y1="285.8712857142857" y2="300.0" /><line fill="none" stroke="#E00000" stroke-dasharray="100,0" stroke-width="0.5" x1="68.57142857142858" x2="228.57142857142858" y1="300.0" y2="300.0" /><line fill="none" stroke="#E00000" stroke-dasharray="100,0" stroke-width="0.5" x1="228.57142857142858" x2="514.2857142857143" y1="300.0" y2="300.0" /><line fill="none" stroke="#E00000" stroke-dasharray="100,0" stroke-width="0.5" x1="514.2857142857143" x2="695.8730158730159" y1="300.0" y2="300.0" /><line fill="none" stroke="#E00000" stroke-dasharray="1,1" stroke-width="0.5" x1="514.2857142857143" x2="695.8730158730159" y1="300.0" y2="300.0" /><line fill="none" stroke="#E00000" stroke-dasharray="100,0" stroke-width="0.5" x1="68.57142857142858" x2="228.57142857142858" y1="300.0" y2="282.01800000000003" /><line fill="none" stroke="#E00000" stroke-dasharray="100,0" stroke-width="0.5" x1="228.57142857142858" x2="514.2857142857143" y1="282.01800000000003" y2="314.1287142857143" /><line fill="none" stroke="#E00000" stroke-dasharray="100,0" stroke-width="0.5" x1="514.2857142857143" x2="695.8730158730159" y1="314.1287142857143" y2="300.0" /><line fill="none" stroke="#E00000" stroke-dasharray="1,1" stroke-width="0.5" x1="514.2857142857143" x2="695.8730158730159" y1="314.1287142857143" y2="300.0" /><line fill="none" stroke="#E00000" stroke-dasharray="100,0" stroke-width="0.5" x1="68.57142857142858" x2="228.57142857142858" y1="300.0" y2="264.036" /><line fill="none" stroke="#E00000" stroke-dasharray="100,0" stroke-width="0.5" x1="228.57142857142858" x2="514.2857142857143" y1="264.036" y2="328.25742857142853" /><line fill="none" stroke="#E00000" stroke-dasharray="100,0" stroke-width="0.5" x1="514.2857142857143" x2="695.8730158730159" y1="328.25742857142853" y2="300.0" /><line fill="none" stroke="#E00000" stroke-dasharray="1,1" stroke-width="0.5" x1="514.2857142857143" x2="695.8730158730159" y1="328.25742857142853" y2="300.0" /><line fill="none" stroke="#E00000" stroke-dasharray="100,0" stroke-width="0.5" x1="68.57142857142858" x2="228.57142857142858" y1="300.0" y2="246.054" /><line fill="none" stroke="#E00000" stroke-dasharray="100,0" stroke-width="0.5" x1="228.57142857142858" x2="514.2857142857143" y1="246.054" y2="342.38614285714283" /><line fill="none" stroke="#E00000" stroke-dasharray="100,0" stroke-width="0.5" x1="514.2857142857143" x2="695.8730158730159" y1="342.38614285714283" y2="300.0" /><line fill="none" stroke="#E00000" stroke-dasharray="1,1" stroke-width="0.5" x1="514.2857142857143" x2="695.8730158730159" y1="342.38614285714283" y2="300.0" /><line fill="none" stroke="#E00000" stroke-dasharray="100,0" stroke-width="0.5" x1="68.57142857142858" x2="228.57142857142858" y1="300.0" y2="228.072" /><line fill="none" stroke="#E00000" stroke-dasharray="100,0" stroke-width="0.5" x1="228.57142857142858" x2="514.2857142857143" y1="228.072" y2="356.5148571428571" /><line fill="none" stroke="#E00000" stroke-dasharray="100,0" stroke-width="0.5" x1="514.2857142857143" x2="695.8730158730159" y1="356.5148571428571" y2="300.0" /><line fill="none" stroke="#E00000" stroke-dasharray="1,1" stroke-width="0.5" x1="514.2857142857143" x2="695.8730158730159" y1="356.5148571428571" y2="300.0" /></g><g inkscape:groupmode="layer" inkscape:label="rayGroup2"><line fill="none" stroke="#29ab93" stroke-dasharray="100,0" stroke-width="0.5" x1="68.57142857142858" x2="228.57142857142858" y1="379.83360000000005" y2="371.928" /><line fill="none" stroke="#29ab93" stroke-dasharray="100,0" stroke-width="0.5" x1="228.57142857142858" x2="514.2857142857143" y1="371.928" y2="100.92514285714282" /><line fill="none" stroke="#29ab93" stroke-dasharray="1,1" stroke-width="0.5" x1="514.2857142857143" x2="695.8730158730159" y1="100.92514285714282" y2="415.3152000000001" /><line fill="none" stroke="#29ab93" stroke-dasharray="100,0" stroke-width="0.5" x1="68.57142857142858" x2="228.57142857142858" y1="379.83360000000005" y2="353.946" /><line fill="none" stroke="#29ab93" stroke-dasharray="100,0" stroke-width="0.5" x1="228.57142857142858" x2="514.2857142857143" y1="353.946" y2="115.05385714285705" /><line fill="none" stroke="#29ab93" stroke-dasharray="1,1" stroke-width="0.5" x1="514.2857142857143" x2="695.8730158730159" y1="115.05385714285705" y2="415.3152000000001" /><line fill="none" stroke="#29ab93" stroke-dasharray="100,0" stroke-width="0.5" x1="68.57142857142858" x2="228.57142857142858" y1="379.83360000000005" y2="335.964" /><line fill="none" stroke="#29ab93" stroke-dasharray="100,0" stroke-width="0.5" x1="228.57142857142858" x2="514.2857142857143" y1="335.964" y2="129.18257142857135" /><line fill="none" stroke="#29ab93" stroke-dasharray="1,1" stroke-width="0.5" x1="514.2857142857143" x2="695.8730158730159" y1="129.18257142857135" y2="415.3152000000001" /><line fill="none" stroke="#29ab93" stroke-dasharray="100,0" stroke-width="0.5" x1="68.57142857142858" x2="228.57142857142858" y1="379.83360000000005" y2="317.982" /><line fill="none" stroke="#29ab93" stroke-dasharray="100,0" stroke-width="0.5" x1="228.57142857142858" x2="514.2857142857143" y1="317.982" y2="143.31128571428562" /><line fill="none" stroke="#29ab93" stroke-dasharray="1,1" stroke-width="0.5" x1="514.2857142857143" x2="695.8730158730159" y1="143.31128571428562" y2="415.3152000000001" /><line fill="none" stroke="#29ab93" stroke-dasharray="100,0" stroke-width="0.5" x1="68.57142857142858" x2="228.57142857142858" y1="379.83360000000005" y2="300.0" /><line fill="none" stroke="#29ab93" stroke-dasharray="100,0" stroke-width="0.5" x1="228.57142857142858" x2="514.2857142857143" y1="300.0" y2="157.43999999999997" /><line fill="none" stroke="#29ab93" stroke-dasharray="100,0" stroke-width="0.5" x1="514.2857142857143" x2="695.8730158730159" y1="157.43999999999997" y2="415.3152000000001" /><line fill="none" stroke="#29ab93" stroke-dasharray="1,1" stroke-width="0.5" x1="514.2857142857143" x2="695.8730158730159" y1="157.43999999999997" y2="415.3152000000001" /><line fill="none" stroke="#29ab93" stroke-dasharray="100,0" stroke-width="0.5" x1="68.57142857142858" x2="228.57142857142858" y1="379.83360000000005" y2="282.01800000000003" /><line fill="none" stroke="#29ab93" stroke-dasharray="100,0" stroke-width="0.5" x1="228.57142857142858" x2="514.2857142857143" y1="282.01800000000003" y2="171.5687142857142" /><line fill="none" stroke="#29ab93" stroke-dasharray="100,0" stroke-width="0.5" x1="514.2857142857143" x2="695.8730158730159" y1="171.5687142857142" y2="415.3152000000001" /><line fill="none" stroke="#29ab93" stroke-dasharray="1,1" stroke-width="0.5" x1="514.2857142857143" x2="695.8730158730159" y1="171.5687142857142" y2="415.3152000000001" /><line fill="none" stroke="#29ab93" stroke-dasharray="100,0" stroke-width="0.5" x1="68.57142857142858" x2="228.57142857142858" y1="379.83360000000005" y2="264.03600000000006" /><line fill="none" stroke="#29ab93" stroke-dasharray="100,0" stroke-width="0.5" x1="228.57142857142858" x2="514.2857142857143" y1="264.03600000000006" y2="185.69742857142845" /><line fill="none" stroke="#29ab93" stroke-dasharray="100,0" stroke-width="0.5" x1="514.2857142857143" x2="695.8730158730159" y1="185.69742857142845" y2="415.3152000000001" /><line fill="none" stroke="#29ab93" stroke-dasharray="1,1" stroke-width="0.5" x1="514.2857142857143" x2="695.8730158730159" y1="185.69742857142845" y2="415.3152000000001" /><line fill="none" stroke="#29ab93" stroke-dasharray="100,0" stroke-width="0.5" x1="68.57142857142858" x2="228.57142857142858" y1="379.83360000000005" y2="246.05400000000003" /><line fill="none" stroke="#29ab93" stroke-dasharray="100,0" stroke-width="0.5" x1="228.57142857142858" x2="514.2857142857143" y1="246.05400000000003" y2="199.82614285714277" /><line fill="none" stroke="#29ab93" stroke-dasharray="100,0" stroke-width="0.5" x1="514.2857142857143" x2="695.8730158730159" y1="199.82614285714277" y2="415.3152000000001" /><line fill="none" stroke="#29ab93" stroke-dasharray="1,1" stroke-width="0.5" x1="514.2857142857143" x2="695.8730158730159" y1="199.82614285714277" y2="415.3152000000001" /><line fill="none" stroke="#29ab93" stroke-dasharray="100,0" stroke-width="0.5" x1="68.57142857142858" x2="228.57142857142858" y1="379.83360000000005" y2="228.072" /><line fill="none" stroke="#29ab93" stroke-dasharray="100,0" stroke-width="0.5" x1="228.57142857142858" x2="514.2857142857143" y1="228.072" y2="213.95485714285707" /><line fill="none" stroke="#29ab93" stroke-dasharray="100,0" stroke-width="0.5" x1="514.2857142857143" x2="695.8730158730159" y1="213.95485714285707" y2="415.3152000000001" /><line fill="none" stroke="#29ab93" stroke-dasharray="1,1" stroke-width="0.5" x1="514.2857142857143" x2="695.8730158730159" y1="213.95485714285707" y2="415.3152000000001" /><line fill="none" stroke="#29ab93" stroke-dasharray="100,0" stroke-width="0.5" x1="68.57142857142858" x2="228.57142857142858" y1="220.16639999999995" y2="371.928" /><line fill="none" stroke="#29ab93" stroke-dasharray="100,0" stroke-width="0.5" x1="228.57142857142858" x2="514.2857142857143" y1="371.928" y2="386.04514285714293" /><line fill="none" stroke="#29ab93" stroke-dasharray="100,0" stroke-width="0.5" x1="514.2857142857143" x2="695.8730158730159" y1="386.04514285714293" y2="184.68479999999988" /><line fill="none" stroke="#29ab93" stroke-dasharray="1,1" stroke-width="0.5" x1="514.2857142857143" x2="695.8730158730159" y1="386.04514285714293" y2="184.68479999999988" /><line fill="none" stroke="#29ab93" stroke-dasharray="100,0" stroke-width="0.5" x1="68.57142857142858" x2="228.57142857142858" y1="220.16639999999995" y2="353.94599999999997" /><line fill="none" stroke="#29ab93" stroke-dasharray="100,0" stroke-width="0.5" x1="228.57142857142858" x2="514.2857142857143" y1="353.94599999999997" y2="400.17385714285723" /><line fill="none" stroke="#29ab93" stroke-dasharray="100,0" stroke-width="0.5" x1="514.2857142857143" x2="695.8730158730159" y1="400.17385714285723" y2="184.68479999999988" /><line fill="none" stroke="#29ab93" stroke-dasharray="1,1" stroke-width="0.5" x1="514.2857142857143" x2="695.8730158730159" y1="400.17385714285723" y2="184.68479999999988" /><line fill="none" stroke="#29ab93" stroke-dasharray="100,0" stroke-width="0.5" x1="68.57142857142858" x2="228.57142857142858" y1="220.16639999999995" y2="335.964" /><line fill="none" stroke="#29ab93" stroke-dasharray="100,0" stroke-width="0.5" x1="228.57142857142858" x2="514.2857142857143" y1="335.964" y2="414.3025714285715" /><line fill="none" stroke="#29ab93" stroke-dasharray="100,0" stroke-width="0.5" x1="514.2857142857143" x2="695.8730158730159" y1="414.3025714285715" y2="184.68479999999983" /><line fill="none" stroke="#29ab93" stroke-dasharray="1,1" stroke-width="0.5" x1="514.2857142857143" x2="695.8730158730159" y1="414.3025714285715" y2="184.68479999999983" /><line fill="none" stroke="#29ab93" stroke-dasharray="100,0" stroke-width="0.5" x1="68.57142857142858" x2="228.57142857142858" y1="220.16639999999995" y2="317.98199999999997" /><line fill="none" stroke="#29ab93" stroke-dasharray="100,0" stroke-width="0.5" x1="228.57142857142858" x2="514.2857142857143" y1="317.98199999999997" y2="428.43128571428576" /><line fill="none" stroke="#29ab93" stroke-dasharray="100,0" stroke-width="0.5" x1="514.2857142857143" x2="695.8730158730159" y1="428.43128571428576" y2="184.68479999999988" /><line fill="none" stroke="#29ab93" stroke-dasharray="1,1" stroke-width="0.5" x1="514.2857142857143" x2="695.8730158730159" y1="428.43128571428576" y2="184.68479999999988" /><line fill="none" stroke="#29ab93" stroke-dasharray="100,0" stroke-width="0.5" x1="68.57142857142858" x2="228.57142857142858" y1="220.16639999999995" y2="300.0" /><line fill="none" stroke="#29ab93" stroke-dasharray="100,0" stroke-width="0.5" x1="228.57142857142858" x2="514.2857142857143" y1="300.0" y2="442.56000000000006" /><line fill="none" stroke="#29ab93" stroke-dasharray="100,0" stroke-width="0.5" x1="514.2857142857143" x2="695.8730158730159" y1="442.56000000000006" y2="184.68479999999988" /><line fill="none" stroke="#29ab93" stroke-dasharray="1,1" stroke-width="0.5" x1="514.2857142857143" x2="695.8730158730159" y1="442.56000000000006" y2="184.68479999999988" /><line fill="none" stroke="#29ab93" stroke-dasharray="100,0" stroke-width="0.5" x1="68.57142857142858" x2="228.57142857142858" y1="220.16639999999995" y2="282.018" /><line fill="none" stroke="#29ab93" stroke-dasharray="100,0" stroke-width="0.5" x1="228.57142857142858" x2="514.2857142857143" y1="282.018" y2="456.68871428571435" /><line fill="none" stroke="#29ab93" stroke-dasharray="1,1" stroke-width="0.5" x1="514.2857142857143" x2="695.8730158730159" y1="456.68871428571435" y2="184.68479999999985" /><line fill="none" stroke="#29ab93" stroke-dasharray="100,0" stroke-width="0.5" x1="68.57142857142858" x2="228.57142857142858" y1="220.16639999999995" y2="264.036" /><line fill="none" stroke="#29ab93" stroke-dasharray="100,0" stroke-width="0.5" x1="228.57142857142858" x2="514.2857142857143" y1="264.036" y2="470.81742857142865" /><line fill="none" stroke="#29ab93" stroke-dasharray="1,1" stroke-width="0.5" x1="514.2857142857143" x2="695.8730158730159" y1="470.81742857142865" y2="184.68479999999985" /><line fill="none" stroke="#29ab93" stroke-dasharray="100,0" stroke-width="0.5" x1="68.57142857142858" x2="228.57142857142858" y1="220.16639999999995" y2="246.054" /><line fill="none" stroke="#29ab93" stroke-dasharray="100,0" stroke-width="0.5" x1="228.57142857142858" x2="514.2857142857143" y1="246.054" y2="484.9461428571429" /><line fill="none" stroke="#29ab93" stroke-dasharray="1,1" stroke-width="0.5" x1="514.2857142857143" x2="695.8730158730159" y1="484.9461428571429" y2="184.68479999999985" /><line fill="none" stroke="#29ab93" stroke-dasharray="100,0" stroke-width="0.5" x1="68.57142857142858" x2="228.57142857142858" y1="220.16639999999995" y2="228.072" /><line fill="none" stroke="#29ab93" stroke-dasharray="100,0" stroke-width="0.5" x1="228.57142857142858" x2="514.2857142857143" y1="228.072" y2="499.0748571428572" /><line fill="none" stroke="#29ab93" stroke-dasharray="1,1" stroke-width="0.5" x1="514.2857142857143" x2="695.8730158730159" y1="499.0748571428572" y2="184.68479999999985" /></g></svg>