<?xml version="1.0" encoding="utf-8" ?>
<svg baseProfile="full" height="600" version="1.1" width="800" xmlns="http://www.w3.org/2000/svg" xmlns:ev="http://www.w3.org/2001/xml-events" xmlns:inkscape="http://www.inkscape.org/namespaces/inkscape" xmlns:sodipodi="http://sodipodi.sourceforge.net/DTD/sodipodi-0.dtd" xmlns:xlink="http://www.w3.org/1999/xlink"><defs /><g inkscape:groupmode="layer" inkscape:label="axis"><line fill="none" stroke="#040404" stroke-dasharray="10,4" stroke-width="2.0" x1="0" x2="800" y1="300.0" y2="300.0" /></g><g inkscape:groupmode="layer" inkscape:label="optics"><path d="M 228.57142857142858,300.0 m -5.0,-72.0 a 727.9999999999998,727.9999999999998 0 0 0    0,144.0 h   10 a 727.9999999999998,727.9999999999998 0 0 0    0,-144.0 z" fill="#CCCCCC" id="objective" stroke="#000000" stroke-dasharray="100,0" stroke-width="1.0" /><path d="M 268.57142857142856,300.0 m -5.0,18.0 h   10 m    0,-36.0 h  -10 m  5.0,   0 v -162.0 m    0,198.0 v 162.0 " fill="none" id="as1" stroke="#000000" stroke-dasharray="100,0" stroke-width="1.5" /><path d="M 388.57142857142856,300.0 m -5.0,36.0 h   10 m    0,-72.0 h  -10 m  5.0,   0 v -144.0 m    0,216.0 v 144.0 " fill="none" id="fs1" stroke="#000000" stroke-dasharray="100,0" stroke-width="1.5" /><path d="M 514.2857142857143,300.0 m -5.0,-144.0 a 676.0,676.0 0 0 0    0,288.0 h   10 a 676.0,676.0 0 0 0    0,-288.0 z" fill="#CCCCCC" id="eyepiece" stroke="#000000" stroke-dasharray="100,0" stroke-width="1.0" /></g><g inkscape:groupmode="layer" inkscape:label="stops"><path d="M 268.57142857142856,300.0 m -5.0,18.0 h   10 m    0,-36.0 h  -10 m  5.0,   0 v -162.0 m    0,198.0 v 162.0 " fill="none" id="as1" stroke="#FF0000" stroke-dasharray="100,0" stroke-width="2" /><path d="M 388.57142857142856,300.0 m -5.0,36.0 h   10 m    0,-72.0 h  -10 m  5.0,   0 v -144.0 m    0,216.0 v 144.0 " fill="none" id="fs1" stroke="#00FF00" stroke-dasharray="100,0" stroke-width="2" /></g><g inkscape:groupmode="layer" inkscape:label="pupils"><path d="M 308.57142857142856,300.0 m -5.0,36.0 h   10 m    0,-72.0 h  -10 m  5.0,   0 v -144.0 m    0,216.0 v 144.0 " fill="none" id="__entrance_pupil__" stroke="#FF2020" stroke-dasharray="100,0" stroke-width="1.5" /><path d="M 620.7619047619047,300.0 m -5.0,7.800000000000002 h   10 m    0,-15.600000000000003 h  -10 m  5.0,   0 v -172.2 m    0,187.79999999999998 v 172.2 " fill="none" id="__exit_pupil__" stroke="#FF1010" stroke-dasharray="100,0" stroke-width="1.5" /></g><g inkscape:groupmode="layer" inkscape:label="windows"><path d="M 68.57142857142858,300.0 m -5.0,36.0 h   10 m    0,-72.0 h  -10 m  5.0,   0 v -144.0 m    0,216.0 v 144.0 " fill="none" id="__entrance_window__" stroke="#20FF20" stroke-dasharray="100,0" stroke-width="1.5" /><path d="M 695.8730158730159,300.0 m -5.0,51.99999999999998 h   10 m    0,-103.99999999999996 h  -10 m  5.0,   0 v -128.00000000000003 m    0,232.0 v 128.00000000000003 " fill="none" id="__exit_window__" stroke="#10FF10" stroke-dasharray="100,0" stroke-width="1.5" /></g><g inkscape:groupmode="layer" inkscape:label="objects"><path d="M 68.57142857142858,300.0 m    0,45.0 v -90.0 l   -3, 7.0 l    6,   0 l   -3,-7.0 " fill="#000000" stroke="#000000" stroke-dasharray="100,0" stroke-width="1.0" /></g><g inkscape:groupmode="layer" inkscape:label="images"><path d="M 695.8730158730159,300.0 m    0,65.00000000000009 v -130.00000000000017 l   -3, 7.0 l    6,   0 l   -3,-7.0 " fill="#020202" stroke="#020202" stroke-dasharray="100,0" stroke-width="1.0" /></g><g inkscape:groupmode="layer" inkscape:label="rayGroup1"><line fill="none" stroke="#E00000" stroke-dasharray="100,0" stroke-width="0.5" x1="68.57142857142858" x2="228.57142857142858" y1="300.0" y2="323.976" /><line fill="none" stroke="#E00000" stroke-dasharray="100,0" stroke-width="0.5" x1="228.57142857142858" x2="268.57142857142856" y1="323.976" y2="317.98199999999997" /><line fill="none" stroke="#E00000" stroke-dasharray="100,0" stroke-width="0.5" x1="268.57142857142856" x2="388.57142857142856" y1="317.98199999999997" y2="300.0" /><line fill="none" stroke="#E00000" stroke-dasharray="100,0" stroke-width="0.5" x1="388.57142857142856" x2="514.2857142857143" y1="300.0" y2="281.1617142857143" /><line fill="none" stroke="#E00000" stroke-dasharray="100,0" stroke-width="0.5" x1="514.2857142857143" x2="695.8730158730159" y1="281.1617142857143" y2="300.0" /><line fill="none" stroke="#E00000" stroke-dasharray="1,1" stroke-width="0.5" x1="514.2857142857143" x2="695.8730158730159" y1="281.1617142857143" y2="300.0" /><line fill="none" stroke="#E00000" stroke-dasharray="100,0" stroke-width="0.5" x1="68.57142857142858" x2="228.57142857142858" y1="300.0" y2="317.98199999999997" /><line fill="none" stroke="#E00000" stroke-dasharray="100,0" stroke-width="0.5" x1="228.57142857142858" x2="268.57142857142856" y1="317.98199999999997" y2="313.4865" /><line fill="none" stroke="#E00000" stroke-dasharray="100,0" stroke-width="0.5" x1="268.57142857142856" x2="388.57142857142856" y1="313.4865" y2="300.0" /><line fill="none" stroke="#E00000" stroke-dasharray="100,0" stroke-width="0.5" x1="388.57142857142856" x2="514.2857142857143" y1="300.0" y2="285.8712857142857" /><line fill="none" stroke="#E00000" stroke-dasharray="100,0" stroke-width="0.5" x1="514.2857142857143" x2="695.8730158730159" y1="285.8712857142857" y2="300.0" /><line fill="none" stroke="#E00000" stroke-dasharray="1,1" stroke-width="0.5" x1="514.2857142857143" x2="695.8730158730159" y1="285.8712857142857" y2="300.0" /><line fill="none" stroke="#E00000" stroke-dasharray="100,0" stroke-width="0.5" x1="68.57142857142858" x2="228.57142857142858" y1="300.0" y2="311.988" /><line fill="none" stroke="#E00000" stroke-dasharray="100,0" stroke-width="0.5" x1="228.57142857142858" x2="268.57142857142856" y1="311.988" y2="308.991" /><line fill="none" stroke="#E00000" stroke-dasharray="100,0" stroke-width="0.5" x1="268.57142857142856" x2="388.57142857142856" y1="308.991" y2="300.0" /><line fill="none" stroke="#E00000" stroke-dasharray="100,0" stroke-width="0.5" x1="388.57142857142856" x2="514.2857142857143" y1="300.0" y2="290.58085714285716" /><line fill="none" stroke="#E00000" stroke-dasharray="100,0" stroke-width="0.5" x1="514.2857142857143" x2="695.8730158730159" y1="290.58085714285716" y2="300.0" /><line fill="none" stroke="#E00000" stroke-dasharray="1,1" stroke-width="0.5" x1="514.2857142857143" x2="695.8730158730159" y1="290.58085714285716" y2="300.0" /><line fill="none" stroke="#E00000" stroke-dasharray="100,0" stroke-width="0.5" x1="68.57142857142858" x2="228.57142857142858" y1="300.0" y2="305.994" /><line fill="none" stroke="#E00000" stroke-dasharray="100,0" stroke-width="0.5" x1="228.57142857142858" x2="268.57142857142856" y1="305.994" y2="304.4955" /><line fill="none" stroke="#E00000" stroke-dasharray="100,0" stroke-width="0.5" x1="268.57142857142856" x2="388.57142857142856" y1="304.4955" y2="300.0" /><line fill="none" stroke="#E00000" stroke-dasharray="100,0" stroke-width="0.5" x1="388.57142857142856" x2="514.2857142857143" y1="300.0" y2="295.29042857142855" /><line fill="none" stroke="#E00000" stroke-dasharray="100,0" stroke-width="0.5" x1="514.2857142857143" x2="695.8730158730159" y1="295.29042857142855" y2="300.0" /><line fill="none" stroke="#E00000" stroke-dasharray="1,1" stroke-width="0.5" x1="514.2857142857143" x2="695.8730158730159" y1="295.29042857142855" y2="300.0" /><line fill="none" stroke="#E00000" stroke-dasharray="100,0" stroke-width="0.5" x1="68.57142857142858" x2="228.57142857142858" y1="300.0" y2="300.0" /><line fill="none" stroke="#E00000" stroke-dasharray="100,0" stroke-width="0.5" x1="228.57142857142858" x2="268.57142857142856" y1="300.0" y2="300.0" /><line fill="none" stroke="#E00000" stroke-dasharray="100,0" stroke-width="0.5" x1="268.57142857142856" x2="388.57142857142856" y1="300.0" y2="300.0" /><line fill="none" stroke="#E00000" stroke-dasharray="100,0" stroke-width="0.5" x1="388.57142857142856" x2="514.2857142857143" y1="300.0" y2="300.0" /><line fill="none" stroke="#E00000" stroke-dasharray="100,0" stroke-width="0.5" x1="514.2857142857143" x2="695.8730158730159" y1="300.0" y2="300.0" /><line fill="none" stroke="#E00000" stroke-dasharray="1,1" stroke-width="0.5" x1="514.2857142857143" x2="695.8730158730159" y1="300.0" y2="300.0" /><line fill="none" stroke="#E00000" stroke-dasharray="100,0" stroke-width="0.5" x1="68.57142857142858" x2="228.57142857142858" y1="300.0" y2="294.006" /><line fill="none" stroke="#E00000" stroke-dasharray="100,0" stroke-width="0.5" x1="228.57142857142858" x2="268.57142857142856" y1="294.006" y2="295.5045" /><line fill="none" stroke="#E00000" stroke-dasharray="100,0" stroke-width="0.5" x1="268.57142857142856" x2="388.57142857142856" y1="295.5045" y2="300.0" /><line fill="none" stroke="#E00000" stroke-dasharray="100,0" stroke-width="0.5" x1="388.57142857142856" x2="514.2857142857143" y1="300.0" y2="304.70957142857145" /><line fill="none" stroke="#E00000" stroke-dasharray="100,0" stroke-width="0.5" x1="514.2857142857143" x2="695.8730158730159" y1="304.70957142857145" y2="300.0" /><line fill="none" stroke="#E00000" stroke-dasharray="1,1" stroke-width="0.5" x1="514.2857142857143" x2="695.8730158730159" y1="304.70957142857145" y2="300.0" /><line fill="none" stroke="#E00000" stroke-dasharray="100,0" stroke-width="0.5" x1="68.57142857142858" x2="228.57142857142858" y1="300.0" y2="288.012" /><line fill="none" stroke="#E00000" stroke-dasharray="100,0" stroke-width="0.5" x1="228.57142857142858" x2="268.57142857142856" y1="288.012" y2="291.009" /><line fill="none" stroke="#E00000" stroke-dasharray="100,0" stroke-width="0.5" x1="268.57142857142856" x2="388.57142857142856" y1="291.009" y2="300.0" /><line fill="none" stroke="#E00000" stroke-dasharray="100,0" stroke-width="0.5" x1="388.57142857142856" x2="514.2857142857143" y1="300.0" y2="309.41914285714284" /><line fill="none" stroke="#E00000" stroke-dasharray="100,0" stroke-width="0.5" x1="514.2857142857143" x2="695.8730158730159" y1="309.41914285714284" y2="300.0" /><line fill="none" stroke="#E00000" stroke-dasharray="1,1" stroke-width="0.5" x1="514.2857142857143" x2="695.8730158730159" y1="309.41914285714284" y2="300.0" /><line fill="none" stroke="#E00000" stroke-dasharray="100,0" stroke-width="0.5" x1="68.57142857142858" x2="228.57142857142858" y1="300.0" y2="282.01800000000003" /><line fill="none" stroke="#E00000" stroke-dasharray="100,0" stroke-width="0.5" x1="228.57142857142858" x2="268.57142857142856" y1="282.01800000000003" y2="286.5135" /><line fill="none" stroke="#E00000" stroke-dasharray="100,0" stroke-width="0.5" x1="268.57142857142856" x2="388.57142857142856" y1="286.5135" y2="300.0" /><line fill="none" stroke="#E00000" stroke-dasharray="100,0" stroke-width="0.5" x1="388.57142857142856" x2="514.2857142857143" y1="300.0" y2="314.1287142857143" /><line fill="none" stroke="#E00000" stroke-dasharray="100,0" stroke-width="0.5" x1="514.2857142857143" x2="695.8730158730159" y1="314.1287142857143" y2="300.0" /><line fill="none" stroke="#E00000" stroke-dasharray="1,1" stroke-width="0.5" x1="514.2857142857143" x2="695.8730158730159" y1="314.1287142857143" y2="300.0" /><line fill="none" stroke="#E00000" stroke-dasharray="100,0" stroke-width="0.5" x1="68.57142857142858" x2="228.57142857142858" y1="300.0" y2="276.024" /><line fill="none" stroke="#E00000" stroke-dasharray="100,0" stroke-width="0.5" x1="228.57142857142858" x2="268.57142857142856" y1="276.024" y2="282.01800000000003" /><line fill="none" stroke="#E00000" stroke-dasharray="100,0" stroke-width="0.5" x1="268.57142857142856" x2="388.57142857142856" y1="282.01800000000003" y2="300.0" /><line fill="none" stroke="#E00000" stroke-dasharray="100,0" stroke-width="0.5" x1="388.57142857142856" x2="514.2857142857143" y1="300.0" y2="318.8382857142857" /><line fill="none" stroke="#E00000" stroke-dasharray="100,0" stroke-width="0.5" x1="514.2857142857143" x2="695.8730158730159" y1="318.8382857142857" y2="300.0" /><line fill="none" stroke="#E00000" stroke-dasharray="1,1" stroke-width="0.5" x1="514.2857142857143" x2="695.8730158730159" y1="318.8382857142857" y2="300.0" /></g><g inkscape:groupmode="layer" inkscape:label="rayGroup2"><line fill="none" stroke="#29ab93" stroke-dasharray="100,0" stroke-width="0.5" x1="68.57142857142858" x2="228.57142857142858" y1="335.64" y2="335.856" /><line fill="none" stroke="#29ab93" stroke-dasharray="100,0" stroke-width="0.5" x1="228.57142857142858" x2="268.57142857142856" y1="335.856" y2="317.982" /><line fill="none" stroke="#29ab93" stroke-dasharray="100,0" stroke-width="0.5" x1="268.57142857142856" x2="388.57142857142856" y1="317.982" y2="264.36" /><line fill="none" stroke="#29ab93" stroke-dasharray="100,0" stroke-width="0.5" x1="388.57142857142856" x2="514.2857142857143" y1="264.36" y2="208.18457142857142" /><line fill="none" stroke="#29ab93" stroke-dasharray="100,0" stroke-width="0.5" x1="514.2857142857143" x2="695.8730158730159" y1="208.18457142857142" y2="351.48" /><line fill="none" stroke="#29ab93" stroke-dasharray="1,1" stroke-width="0.5" x1="514.2857142857143" x2="695.8730158730159" y1="208.18457142857142" y2="351.48" /><line fill="none" stroke="#29ab93" stroke-dasharray="100,0" stroke-width="0.5" x1="68.57142857142858" x2="228.57142857142858" y1="335.64" y2="329.862" /><line fill="none" stroke="#29ab93" stroke-dasharray="100,0" stroke-width="0.5" x1="228.57142857142858" x2="268.57142857142856" y1="329.862" y2="313.4865" /><line fill="none" stroke="#29ab93" stroke-dasharray="100,0" stroke-width="0.5" x1="268.57142857142856" x2="388.57142857142856" y1="313.4865" y2="264.36" /><line fill="none" stroke="#29ab93" stroke-dasharray="100,0" stroke-width="0.5" x1="388.57142857142856" x2="514.2857142857143" y1="264.36" y2="212.89414285714287" /><line fill="none" stroke="#29ab93" stroke-dasharray="100,0" stroke-width="0.5" x1="514.2857142857143" x2="695.8730158730159" y1="212.89414285714287" y2="351.48" /><line fill="none" stroke="#29ab93" stroke-dasharray="1,1" stroke-width="0.5" x1="514.2857142857143" x2="695.8730158730159" y1="212.89414285714287" y2="351.48" /><line fill="none" stroke="#29ab93" stroke-dasharray="100,0" stroke-width="0.5" x1="68.57142857142858" x2="228.57142857142858" y1="335.64" y2="323.868" /><line fill="none" stroke="#29ab93" stroke-dasharray="100,0" stroke-width="0.5" x1="228.57142857142858" x2="268.57142857142856" y1="323.868" y2="308.991" /><line fill="none" stroke="#29ab93" stroke-dasharray="100,0" stroke-width="0.5" x1="268.57142857142856" x2="388.57142857142856" y1="308.991" y2="264.36" /><line fill="none" stroke="#29ab93" stroke-dasharray="100,0" stroke-width="0.5" x1="388.57142857142856" x2="514.2857142857143" y1="264.36" y2="217.6037142857143" /><line fill="none" stroke="#29ab93" stroke-dasharray="100,0" stroke-width="0.5" x1="514.2857142857143" x2="695.8730158730159" y1="217.6037142857143" y2="351.4800000000001" /><line fill="none" stroke="#29ab93" stroke-dasharray="1,1" stroke-width="0.5" x1="514.2857142857143" x2="695.8730158730159" y1="217.6037142857143" y2="351.4800000000001" /><line fill="none" stroke="#29ab93" stroke-dasharray="100,0" stroke-width="0.5" x1="68.57142857142858" x2="228.57142857142858" y1="335.64" y2="317.874" /><line fill="none" stroke="#29ab93" stroke-dasharray="100,0" stroke-width="0.5" x1="228.57142857142858" x2="268.57142857142856" y1="317.874" y2="304.4955" /><line fill="none" stroke="#29ab93" stroke-dasharray="100,0" stroke-width="0.5" x1="268.57142857142856" x2="388.57142857142856" y1="304.4955" y2="264.36" /><line fill="none" stroke="#29ab93" stroke-dasharray="100,0" stroke-width="0.5" x1="388.57142857142856" x2="514.2857142857143" y1="264.36" y2="222.3132857142857" /><line fill="none" stroke="#29ab93" stroke-dasharray="100,0" stroke-width="0.5" x1="514.2857142857143" x2="695.8730158730159" y1="222.3132857142857" y2="351.48" /><line fill="none" stroke="#29ab93" stroke-dasharray="1,1" stroke-width="0.5" x1="514.2857142857143" x2="695.8730158730159" y1="222.3132857142857" y2="351.48" /><line fill="none" stroke="#29ab93" stroke-dasharray="100,0" stroke-width="0.5" x1="68.57142857142858" x2="228.57142857142858" y1="335.64" y2="311.88" /><line fill="none" stroke="#29ab93" stroke-dasharray="100,0" stroke-width="0.5" x1="228.57142857142858" x2="268.57142857142856" y1="311.88" y2="300.0" /><line fill="none" stroke="#29ab93" stroke-dasharray="100,0" stroke-width="0.5" x1="268.57142857142856" x2="388.57142857142856" y1="300.0" y2="264.36" /><line fill="none" stroke="#29ab93" stroke-dasharray="100,0" stroke-width="0.5" x1="388.57142857142856" x2="514.2857142857143" y1="264.36" y2="227.0228571428571" /><line fill="none" stroke="#29ab93" stroke-dasharray="100,0" stroke-width="0.5" x1="514.2857142857143" x2="695.8730158730159" y1="227.0228571428571" y2="351.4800000000001" /><line fill="none" stroke="#29ab93" stroke-dasharray="1,1" stroke-width="0.5" x1="514.2857142857143" x2="695.8730158730159" y1="227.0228571428571" y2="351.4800000000001" /><line fill="none" stroke="#29ab93" stroke-dasharray="100,0" stroke-width="0.5" x1="68.57142857142858" x2="228.57142857142858" y1="335.64" y2="305.886" /><line fill="none" stroke="#29ab93" stroke-dasharray="100,0" stroke-width="0.5" x1="228.57142857142858" x2="268.57142857142856" y1="305.886" y2="295.5045" /><line fill="none" stroke="#29ab93" stroke-dasharray="100,0" stroke-width="0.5" x1="268.57142857142856" x2="388.57142857142856" y1="295.5045" y2="264.36" /><line fill="none" stroke="#29ab93" stroke-dasharray="100,0" stroke-width="0.5" x1="388.57142857142856" x2="514.2857142857143" y1="264.36" y2="231.73242857142856" /><line fill="none" stroke="#29ab93" stroke-dasharray="100,0" stroke-width="0.5" x1="514.2857142857143" x2="695.8730158730159" y1="231.73242857142856" y2="351.48" /><line fill="none" stroke="#29ab93" stroke-dasharray="1,1" stroke-width="0.5" x1="514.2857142857143" x2="695.8730158730159" y1="231.73242857142856" y2="351.48" /><line fill="none" stroke="#29ab93" stroke-dasharray="100,0" stroke-width="0.5" x1="68.57142857142858" x2="228.57142857142858" y1="335.64" y2="299.892" /><line fill="none" stroke="#29ab93" stroke-dasharray="100,0" stroke-width="0.5" x1="228.57142857142858" x2="268.57142857142856" y1="299.892" y2="291.009" /><line fill="none" stroke="#29ab93" stroke-dasharray="100,0" stroke-width="0.5" x1="268.57142857142856" x2="388.57142857142856" y1="291.009" y2="264.36" /><line fill="none" stroke="#29ab93" stroke-dasharray="100,0" stroke-width="0.5" x1="388.57142857142856" x2="514.2857142857143" y1="264.36" y2="236.442" /><line fill="none" stroke="#29ab93" stroke-dasharray="100,0" stroke-width="0.5" x1="514.2857142857143" x2="695.8730158730159" y1="236.442" y2="351.48" /><line fill="none" stroke="#29ab93" stroke-dasharray="1,1" stroke-width="0.5" x1="514.2857142857143" x2="695.8730158730159" y1="236.442" y2="351.48" /><line fill="none" stroke="#29ab93" stroke-dasharray="100,0" stroke-width="0.5" x1="68.57142857142858" x2="228.57142857142858" y1="335.64" y2="293.898" /><line fill="none" stroke="#29ab93" stroke-dasharray="100,0" stroke-width="0.5" x1="228.57142857142858" x2="268.57142857142856" y1="293.898" y2="286.5135" /><line fill="none" stroke="#29ab93" stroke-dasharray="100,0" stroke-width="0.5" x1="268.57142857142856" x2="388.57142857142856" y1="286.5135" y2="264.36" /><line fill="none" stroke="#29ab93" stroke-dasharray="100,0" stroke-width="0.5" x1="388.57142857142856" x2="514.2857142857143" y1="264.36" y2="241.15157142857143" /><line fill="none" stroke="#29ab93" stroke-dasharray="100,0" stroke-width="0.5" x1="514.2857142857143" x2="695.8730158730159" y1="241.15157142857143" y2="351.48" /><line fill="none" stroke="#29ab93" stroke-dasharray="1,1" stroke-width="0.5" x1="514.2857142857143" x2="695.8730158730159" y1="241.15157142857143" y2="351.48" /><line fill="none" stroke="#29ab93" stroke-dasharray="100,0" stroke-width="0.5" x1="68.57142857142858" x2="228.57142857142858" y1="335.64" y2="287.904" /><line fill="none" stroke="#29ab93" stroke-dasharray="100,0" stroke-width="0.5" x1="228.57142857142858" x2="268.57142857142856" y1="287.904" y2="282.01800000000003" /><line fill="none" stroke="#29ab93" stroke-dasharray="100,0" stroke-width="0.5" x1="268.57142857142856" x2="388.57142857142856" y1="282.01800000000003" y2="264.36" /><line fill="none" stroke="#29ab93" stroke-dasharray="100,0" stroke-width="0.5" x1="388.57142857142856" x2="514.2857142857143" y1="264.36" y2="245.86114285714285" /><line fill="none" stroke="#29ab93" stroke-dasharray="100,0" stroke-width="0.5" x1="514.2857142857143" x2="695.8730158730159" y1="245.86114285714285" y2="351.48" /><line fill="none" stroke="#29ab93" stroke-dasharray="1,1" stroke-width="0.5" x1="514.2857142857143" x2="695.8730158730159" y1="245.86114285714285" y2="351.48" /><line fill="none" stroke="#29ab93" stroke-dasharray="100,0" stroke-width="0.5" x1="68.57142857142858" x2="228.57142857142858" y1="264.36" y2="312.096" /><line fill="none" stroke="#29ab93" stroke-dasharray="100,0" stroke-width="0.5" x1="228.57142857142858" x2="268.57142857142856" y1="312.096" y2="317.98199999999997" /><line fill="none" stroke="#29ab93" stroke-dasharray="100,0" stroke-width="0.5" x1="268.57142857142856" x2="388.57142857142856" y1="317.98199999999997" y2="335.64" /><line fill="none" stroke="#29ab93" stroke-dasharray="100,0" stroke-width="0.5" x1="388.57142857142856" x2="514.2857142857143" y1="335.64" y2="354.13885714285715" /><line fill="none" stroke="#29ab93" stroke-dasharray="100,0" stroke-width="0.5" x1="514.2857142857143" x2="695.8730158730159" y1="354.13885714285715" y2="248.51999999999998" /><line fill="none" stroke="#29ab93" stroke-dasharray="1,1" stroke-width="0.5" x1="514.2857142857143" x2="695.8730158730159" y1="354.13885714285715" y2="248.51999999999998" /><line fill="none" stroke="#29ab93" stroke-dasharray="100,0" stroke-width="0.5" x1="68.57142857142858" x2="228.57142857142858" y1="264.36" y2="306.102" /><line fill="none" stroke="#29ab93" stroke-dasharray="100,0" stroke-width="0.5" x1="228.57142857142858" x2="268.57142857142856" y1="306.102" y2="313.4865" /><line fill="none" stroke="#29ab93" stroke-dasharray="100,0" stroke-width="0.5" x1="268.57142857142856" x2="388.57142857142856" y1="313.4865" y2="335.64" /><line fill="none" stroke="#29ab93" stroke-dasharray="100,0" stroke-width="0.5" x1="388.57142857142856" x2="514.2857142857143" y1="335.64" y2="358.8484285714286" /><line fill="none" stroke="#29ab93" stroke-dasharray="100,0" stroke-width="0.5" x1="514.2857142857143" x2="695.8730158730159" y1="358.8484285714286" y2="248.51999999999995" /><line fill="none" stroke="#29ab93" stroke-dasharray="1,1" stroke-width="0.5" x1="514.2857142857143" x2="695.8730158730159" y1="358.8484285714286" y2="248.51999999999995" /><line fill="none" stroke="#29ab93" stroke-dasharray="100,0" stroke-width="0.5" x1="68.57142857142858" x2="228.57142857142858" y1="264.36" y2="300.108" /><line fill="none" stroke="#29ab93" stroke-dasharray="100,0" stroke-width="0.5" x1="228.57142857142858" x2="268.57142857142856" y1="300.108" y2="308.991" /><line fill="none" stroke="#29ab93" stroke-dasharray="100,0" stroke-width="0.5" x1="268.57142857142856" x2="388.57142857142856" y1="308.991" y2="335.64" /><line fill="none" stroke="#29ab93" stroke-dasharray="100,0" stroke-width="0.5" x1="388.57142857142856" x2="514.2857142857143" y1="335.64" y2="363.558" /><line fill="none" stroke="#29ab93" stroke-dasharray="100,0" stroke-width="0.5" x1="514.2857142857143" x2="695.8730158730159" y1="363.558" y2="248.51999999999998" /><line fill="none" stroke="#29ab93" stroke-dasharray="1,1" stroke-width="0.5" x1="514.2857142857143" x2="695.8730158730159" y1="363.558" y2="248.51999999999998" /><line fill="none" stroke="#29ab93" stroke-dasharray="100,0" stroke-width="0.5" x1="68.57142857142858" x2="228.57142857142858" y1="264.36" y2="294.114" /><line fill="none" stroke="#29ab93" stroke-dasharray="100,0" stroke-width="0.5" x1="228.57142857142858" x2="268.57142857142856" y1="294.114" y2="304.4955" /><line fill="none" stroke="#29ab93" stroke-dasharray="100,0" stroke-width="0.5" x1="268.57142857142856" x2="388.57142857142856" y1="304.4955" y2="335.64" /><line fill="none" stroke="#29ab93" stroke-dasharray="100,0" stroke-width="0.5" x1="388.57142857142856" x2="514.2857142857143" y1="335.64" y2="368.26757142857144" /><line fill="none" stroke="#29ab93" stroke-dasharray="100,0" stroke-width="0.5" x1="514.2857142857143" x2="695.8730158730159" y1="368.26757142857144" y2="248.51999999999998" /><line fill="none" stroke="#29ab93" stroke-dasharray="1,1" stroke-width="0.5" x1="514.2857142857143" x2="695.8730158730159" y1="368.26757142857144" y2="248.51999999999998" /><line fill="none" stroke="#29ab93" stroke-dasharray="100,0" stroke-width="0.5" x1="68.57142857142858" x2="228.57142857142858" y1="264.36" y2="288.12" /><line fill="none" stroke="#29ab93" stroke-dasharray="100,0" stroke-width="0.5" x1="228.57142857142858" x2="268.57142857142856" y1="288.12" y2="300.0" /><line fill="none" stroke="#29ab93" stroke-dasharray="100,0" stroke-width="0.5" x1="268.57142857142856" x2="388.57142857142856" y1="300.0" y2="335.64" /><line fill="none" stroke="#29ab93" stroke-dasharray="100,0" stroke-width="0.5" x1="388.57142857142856" x2="514.2857142857143" y1="335.64" y2="372.9771428571429" /><line fill="none" stroke="#29ab93" stroke-dasharray="100,0" stroke-width="0.5" x1="514.2857142857143" x2="695.8730158730159" y1="372.9771428571429" y2="248.51999999999995" /><line fill="none" stroke="#29ab93" stroke-dasharray="1,1" stroke-width="0.5" x1="514.2857142857143" x2="695.8730158730159" y1="372.9771428571429" y2="248.51999999999995" /><line fill="none" stroke="#29ab93" stroke-dasharray="100,0" stroke-width="0.5" x1="68.57142857142858" x2="228.57142857142858" y1="264.36" y2="282.126" /><line fill="none" stroke="#29ab93" stroke-dasharray="100,0" stroke-width="0.5" x1="228.57142857142858" x2="268.57142857142856" y1="282.126" y2="295.5045" /><line fill="none" stroke="#29ab93" stroke-dasharray="100,0" stroke-width="0.5" x1="268.57142857142856" x2="388.57142857142856" y1="295.5045" y2="335.64" /><line fill="none" stroke="#29ab93" stroke-dasharray="100,0" stroke-width="0.5" x1="388.57142857142856" x2="514.2857142857143" y1="335.64" y2="377.6867142857143" /><line fill="none" stroke="#29ab93" stroke-dasharray="100,0" stroke-width="0.5" x1="514.2857142857143" x2="695.8730158730159" y1="377.6867142857143" y2="248.51999999999995" /><line fill="none" stroke="#29ab93" stroke-dasharray="1,1" stroke-width="0.5" x1="514.2857142857143" x2="695.8730158730159" y1="377.6867142857143" y2="248.51999999999995" /><line fill="none" stroke="#29ab93" stroke-dasharray="100,0" stroke-width="0.5" x1="68.57142857142858" x2="228.57142857142858" y1="264.36" y2="276.132" /><line fill="none" stroke="#29ab93" stroke-dasharray="100,0" stroke-width="0.5" x1="228.57142857142858" x2="268.57142857142856" y1="276.132" y2="291.009" /><line fill="none" stroke="#29ab93" stroke-dasharray="100,0" stroke-width="0.5" x1="268.57142857142856" x2="388.57142857142856" y1="291.009" y2="335.64" /><line fill="none" stroke="#29ab93" stroke-dasharray="100,0" stroke-width="0.5" x1="388.57142857142856" x2="514.2857142857143" y1="335.64" y2="382.3962857142857" /><line fill="none" stroke="#29ab93" stroke-dasharray="100,0" stroke-width="0.5" x1="514.2857142857143" x2="695.8730158730159" y1="382.3962857142857" y2="248.51999999999995" /><line fill="none" stroke="#29ab93" stroke-dasharray="1,1" stroke-width="0.5" x1="514.2857142857143" x2="695.8730158730159" y1="382.3962857142857" y2="248.51999999999995" /><line fill="none" stroke="#29ab93" stroke-dasharray="100,0" stroke-width="0.5" x1="68.57142857142858" x2="228.57142857142858" y1="264.36" y2="270.138" /><line fill="none" stroke="#29ab93" stroke-dasharray="100,0" stroke-width="0.5" x1="228.57142857142858" x2="268.57142857142856" y1="270.138" y2="286.5135" /><line fill="none" stroke="#29ab93" stroke-dasharray="100,0" stroke-width="0.5" x1="268.57142857142856" x2="388.57142857142856" y1="286.5135" y2="335.64" /><line fill="none" stroke="#29ab93" stroke-dasharray="100,0" stroke-width="0.5" x1="388.57142857142856" x2="514.2857142857143" y1="335.64" y2="387.10585714285713" /><line fill="none" stroke="#29ab93" stroke-dasharray="100,0" stroke-width="0.5" x1="514.2857142857143" x2="695.8730158730159" y1="387.10585714285713" y2="248.51999999999995" /><line fill="none" stroke="#29ab93" stroke-dasharray="1,1" stroke-width="0.5" x1="514.2857142857143" x2="695.8730158730159" y1="387.10585714285713" y2="248.51999999999995" /><line fill="none" stroke="#29ab93" stroke-dasharray="100,0" stroke-width="0.5" x1="68.57142857142858" x2="228.57142857142858" y1="264.36" y2="264.144" /><line fill="none" stroke="#29ab93" stroke-dasharray="100,0" stroke-width="0.5" x1="228.57142857142858" x2="268.57142857142856" y1="264.144" y2="282.018" /><line fill="none" stroke="#29ab93" stroke-dasharray="100,0" stroke-width="0.5" x1="268.57142857142856" x2="388.57142857142856" y1="282.018" y2="335.64" /><line fill="none" stroke="#29ab93" stroke-dasharray="100,0" stroke-width="0.5" x1="388.57142857142856" x2="514.2857142857143" y1="335.64" y2="391.8154285714286" /><line fill="none" stroke="#29ab93" stroke-dasharray="100,0" stroke-width="0.5" x1="514.2857142857143" x2="695.8730158730159" y1="391.8154285714286" y2="248.51999999999995" /><line fill="none" stroke="#29ab93" stroke-dasharray="1,1" stroke-width="0.5" x1="514.2857142857143" x2="695.8730158730159" y1="391.8154285714286" y2="248.51999999999995" /></g></svg>