<?xml version="1.0" encoding="utf-8" ?>
<svg baseProfile="full" height="600" version="1.1" width="800" xmlns="http://www.w3.org/2000/svg" xmlns:ev="http://www.w3.org/2001/xml-events" xmlns:inkscape="http://www.inkscape.org/namespaces/inkscape" xmlns:sodipodi="http://sodipodi.sourceforge.net/DTD/sodipodi-0.dtd" xmlns:xlink="http://www.w3.org/1999/xlink"><defs /><g inkscape:groupmode="layer" inkscape:label="axis"><line fill="none" stroke="#040404" stroke-dasharray="10,4" stroke-width="2.0" x1="0" x2="800" y1="300.0" y2="300.0" /></g><g inkscape:groupmode="layer" inkscape:label="optics"><path d="M 228.57142857142858,300.0 m -5.0,-72.0 a 727.9999999999998,727.9999999999998 0 0 0    0,144.0 h   10 a 727.9999999999998,727.9999999999998 0 0 0    0,-144.0 z" fill="#CCCCCC" id="objective" stroke="#000000" stroke-dasharray="100,0" stroke-width="1.0" /><path d="M 268.57142857142856,300.0 m -5.0,18.0 h   10 m    0,-36.0 h  -10 m  5.0,   0 v -162.0 m    0,198.0 v 162.0 " fill="none" id="as1" stroke="#000000" stroke-dasharray="100,0" stroke-width="1.5" /><path d="M 388.57142857142856,300.0 m -5.0,18.0 h   10 m    0,-36.0 h  -10 m  5.0,   0 v -162.0 m    0,198.0 v 162.0 " fill="none" id="fs1" stroke="#000000" stroke-dasharray="100,0" stroke-width="1.5" /><path d="M 514.2857142857143,300.0 m -5.0,-144.0 a 676.0,676.0 0 0 0    0,288.0 h   10 a 676.0,676.0 0 0 0    0,-288.0 z" fill="#CCCCCC" id="eyepiece" stroke="#000000" stroke-dasharray="100,0" stroke-width="1.0" /></g><g inkscape:groupmode="layer" inkscape:label="stops"><path d="M 268.57142857142856,300.0 m -5.0,18.0 h   10 m    0,-36.0 h  -10 m  5.0,   0 v -162.0 m    0,198.0 v 162.0 " fill="none" id="as1" stroke="#FF0000" stroke-dasharray="100,0" stroke-width="2" /><path d="M 388.57142857142856,300.0 m -5.0,18.0 h   10 m    0,-36.0 h  -10 m  5.0,   0 v -162.0 m    0,198.0 v 162.0 " fill="none" id="fs1" stroke="#00FF00" stroke-dasharray="100,0" stroke-width="2" /></g><g inkscape:groupmode="layer" inkscape:label="pupils"><path d="M 308.57142857142856,300.0 m -5.0,36.0 h   10 m    0,-72.0 h  -10 m  5.0,   0 v -144.0 m    0,216.0 v 144.0 " fill="none" id="__entrance_pupil__" stroke="#FF2020" stroke-dasharray="100,0" stroke-width="1.5" /><path d="M 620.7619047619047,300.0 m -5.0,7.800000000000002 h   10 m    0,-15.600000000000003 h  -10 m  5.0,   0 v -172.2 m    0,187.79999999999998 v 172.2 " fill="none" id="__exit_pupil__" stroke="#FF1010" stroke-dasharray="100,0" stroke-width="1.5" /></g><g inkscape:groupmode="layer" inkscape:label="windows"><path d="M 68.57142857142858,300.0 m -5.0,18.0 h   10 m    0,-36.0 h  -10 m  5.0,   0 v -162.0 m    0,198.0 v 162.0 " fill="none" id="__entrance_window__" stroke="#20FF20" stroke-dasharray="100,0" stroke-width="1.5" /><path d="M 695.8730158730159,300.0 m -5.0,25.99999999999999 h   10 m    0,-51.99999999999998 h  -10 m  5.0,   0 v -154.0 m    0,205.99999999999997 v 154.0 " fill="none" id="__exit_window__" stroke="#10FF10" stroke-dasharray="100,0" stroke-width="1.5" /></g><g inkscape:groupmode="layer" inkscape:label="objects"><path d="M 68.57142857142858,300.0 m    0,45.0 v -90.0 l   -3, 7.0 l    6,   0 l   -3,-7.0 " fill="#000000" stroke="#000000" stroke-dasharray="100,0" stroke-width="1.0" /></g><g inkscape:groupmode="layer" inkscape:label="images"><path d="M 695.8730158730159,300.0 m    0,65.00000000000009 v -130.00000000000017 l   -3, 7.0 l    6,   0 l   -3,-7.0 " fill="#020202" stroke="#020202" stroke-dasharray="100,0" stroke-width="1.0" /></g><g inkscape:groupmode="layer" inkscape:label="rayGroup1"><line fill="none" stroke="#E00000" stroke-dasharray="100,0" stroke-width="0.5" x1="68.57142857142858" x2="228.57142857142858" y1="300.0" y2="323.976" /><line fill="none" stroke="#E00000" stroke-dasharray="100,0" stroke-width="0.5" x1="228.57142857142858" x2="268.57142857142856" y1="323.976" y2="317.98199999999997" /><line fill="none" stroke="#E00000" stroke-dasharray="100,0" stroke-width="0.5" x1="268.57142857142856" x2="388.57142857142856" y1="317.98199999999997" y2="300.0" /><line fill="none" stroke="#E00000" stroke-dasharray="100,0" stroke-width="0.5" x1="388.57142857142856" x2="514.2857142857143" y1="300.0" y2="281.1617142857143" /><line fill="none" stroke="#E00000" stroke-dasharray="100,0" stroke-width="0.5" x1="514.2857142857143" x2="695.8730158730159" y1="281.1617142857143" y2="300.0" /><line fill="none" stroke="#E00000" stroke-dasharray="1,1" stroke-width="0.5" x1="514.2857142857143" x2="695.8730158730159" y1="281.1617142857143" y2="300.0" /><line fill="none" stroke="#E00000" stroke-dasharray="100,0" stroke-width="0.5" x1="68.57142857142858" x2="228.57142857142858" y1="300.0" y2="317.98199999999997" /><line fill="none" stroke="#E00000" stroke-dasharray="100,0" stroke-width="0.5" x1="228.57142857142858" x2="268.57142857142856" y1="317.98199999999997" y2="313.4865" /><line fill="none" stroke="#E00000" stroke-dasharray="100,0" stroke-width="0.5" x1="268.57142857142856" x2="388.57142857142856" y1="313.4865" y2="300.0" /><line fill="none" stroke="#E00000" stroke-dasharray="100,0" stroke-width="0.5" x1="388.57142857142856" x2="514.2857142857143" y1="300.0" y2="285.8712857142857" /><line fill="none" stroke="#E00000" stroke-dasharray="100,0" stroke-width="0.5" x1="514.2857142857143" x2="695.8730158730159" y1="285.8712857142857" y2="300.0" /><line fill="none" stroke="#E00000" stroke-dasharray="1,1" stroke-width="0.5" x1="514.2857142857143" x2="695.8730158730159" y1="285.8712857142857" y2="300.0" /><line fill="none" stroke="#E00000" stroke-dasharray="100,0" stroke-width="0.5" x1="68.57142857142858" x2="228.57142857142858" y1="300.0" y2="311.988" /><line fill="none" stroke="#E00000" stroke-dasharray="100,0" stroke-width="0.5" x1="228.57142857142858" x2="268.57142857142856" y1="311.988" y2="308.991" /><line fill="none" stroke="#E00000" stroke-dasharray="100,0" stroke-width="0.5" x1="268.57142857142856" x2="388.57142857142856" y1="308.991" y2="300.0" /><line fill="none" stroke="#E00000" stroke-dasharray="100,0" stroke-width="0.5" x1="388.57142857142856" x2="514.2857142857143" y1="300.0" y2="290.58085714285716" /><line fill="none" stroke="#E00000" stroke-dasharray="100,0" stroke-width="0.5" x1="514.2857142857143" x2="695.8730158730159" y1="290.58085714285716" y2="300.0" /><line fill="none" stroke="#E00000" stroke-dasharray="1,1" stroke-width="0.5" x1="514.2857142857143" x2="695.8730158730159" y1="290.58085714285716" y2="300.0" /><line fill="none" stroke="#E00000" stroke-dasharray="100,0" stroke-width="0.5" x1="68.57142857142858" x2="228.57142857142858" y1="300.0" y2="305.994" /><line fill="none" stroke="#E00000" stroke-dasharray="100,0" stroke-width="0.5" x1="228.57142857142858" x2="268.57142857142856" y1="305.994" y2="304.4955" /><line fill="none" stroke="#E00000" stroke-dasharray="100,0" stroke-width="0.5" x1="268.57142857142856" x2="388.57142857142856" y1="304.4955" y2="300.0" /><line fill="none" stroke="#E00000" stroke-dasharray="100,0" stroke-width="0.5" x1="388.57142857142856" x2="514.2857142857143" y1="300.0" y2="295.29042857142855" /><line fill="none" stroke="#E00000" stroke-dasharray="100,0" stroke-width="0.5" x1="514.2857142857143" x2="695.8730158730159" y1="295.29042857142855" y2="300.0" /><line fill="none" stroke="#E00000" stroke-dasharray="1,1" stroke-width="0.5" x1="514.2857142857143" x2="695.8730158730159" y1="295.29042857142855" y2="300.0" /><line fill="none" stroke="#E00000" stroke-dasharray="100,0" stroke-width="0.5" x1="68.57142857142858" x2="228.57142857142858" y1="300.0" y2="300.0" /><line fill="none" stroke="#E00000" stroke-dasharray="100,0" stroke-width="0.5" x1="228.57142857142858" x2="268.57142857142856" y1="300.0" y2="300.0" /><line fill="none" stroke="#E00000" stroke-dasharray="100,0" stroke-width="0.5" x1="268.57142857142856" x2="388.57142857142856" y1="300.0" y2="300.0" /><line fill="none" stroke="#E00000" stroke-dasharray="100,0" stroke-width="0.5" x1="388.57142857142856" x2="514.2857142857143" y1="300.0" y2="300.0" /><line fill="none" stroke="#E00000" stroke-dasharray="100,0" stroke-width="0.5" x1="514.2857142857143" x2="695.8730158730159" y1="300.0" y2="300.0" /><line fill="none" stroke="#E00000" stroke-dasharray="1,1" stroke-width="0.5" x1="514.2857142857143" x2="695.8730158730159" y1="300.0" y2="300.0" /><line fill="none" stroke="#E00000" stroke-dasharray="100,0" stroke-width="0.5" x1="68.57142857142858" x2="228.57142857142858" y1="300.0" y2="294.006" /><line fill="none" stroke="#E00000" stroke-dasharray="100,0" stroke-width="0.5" x1="228.57142857142858" x2="268.57142857142856" y1="294.006" y2="295.5045" /><line fill="none" stroke="#E00000" stroke-dasharray="100,0" stroke-width="0.5" x1="268.57142857142856" x2="388.57142857142856" y1="295.5045" y2="300.0" /><line fill="none" stroke="#E00000" stroke-dasharray="100,0" stroke-width="0.5" x1="388.57142857142856" x2="514.2857142857143" y1="300.0" y2="304.70957142857145" /><line fill="none" stroke="#E00000" stroke-dasharray="100,0" stroke-width="0.5" x1="514.2857142857143" x2="695.8730158730159" y1="304.70957142857145" y2="300.0" /><line fill="none" stroke="#E00000" stroke-dasharray="1,1" stroke-width="0.5" x1="514.2857142857143" x2="695.8730158730159" y1="304.70957142857145" y2="300.0" /><line fill="none" stroke="#E00000" stroke-dasharray="100,0" stroke-width="0.5" x1="68.57142857142858" x2="228.57142857142858" y1="300.0" y2="288.012" /><line fill="none" stroke="#E00000" stroke-dasharray="100,0" stroke-width="0.5" x1="228.57142857142858" x2="268.57142857142856" y1="288.012" y2="291.009" /><line fill="none" stroke="#E00000" stroke-dasharray="100,0" stroke-width="0.5" x1="268.57142857142856" x2="388.57142857142856" y1="291.009" y2="300.0" /><line fill="none" stroke="#E00000" stroke-dasharray="100,0" stroke-width="0.5" x1="388.57142857142856" x2="514.2857142857143" y1="300.0" y2="309.41914285714284" /><line fill="none" stroke="#E00000" stroke-dasharray="100,0" stroke-width="0.5" x1="514.2857142857143" x2="695.8730158730159" y1="309.41914285714284" y2="300.0" /><line fill="none" stroke="#E00000" stroke-dasharray="1,1" stroke-width="0.5" x1="514.2857142857143" x2="695.8730158730159" y1="309.41914285714284" y2="300.0" /><line fill="none" stroke="#E00000" stroke-dasharray="100,0" stroke-width="0.5" x1="68.57142857142858" x2="228.57142857142858" y1="300.0" y2="282.01800000000003" /><line fill="none" stroke="#E00000" stroke-dasharray="100,0" stroke-width="0.5" x1="228.57142857142858" x2="268.57142857142856" y1="282.01800000000003" y2="286.5135" /><line fill="none" stroke="#E00000" stroke-dasharray="100,0" stroke-width="0.5" x1="268.57142857142856" x2="388.57142857142856" y1="286.5135" y2="300.0" /><line fill="none" stroke="#E00000" stroke-dasharray="100,0" stroke-width="0.5" x1="388.57142857142856" x2="514.2857142857143" y1="300.0" y2="314.1287142857143" /><line fill="none" stroke="#E00000" stroke-dasharray="100,0" stroke-width="0.5" x1="514.2857142857143" x2="695.8730158730159" y1="314.1287142857143" y2="300.0" /><line fill="none" stroke="#E00000" stroke-dasharray="1,1" stroke-width="0.5" x1="514.2857142857143" x2="695.8730158730159" y1="314.1287142857143" y2="300.0" /><line fill="none" stroke="#E00000" stroke-dasharray="100,0" stroke-width="0.5" x1="68.57142857142858" x2="228.57142857142858" y1="300.0" y2="276.024" /><line fill="none" stroke="#E00000" stroke-dasharray="100,0" stroke-width="0.5" x1="228.57142857142858" x2="268.57142857142856" y1="276.024" y2="282.01800000000003" /><line fill="none" stroke="#E00000" stroke-dasharray="100,0" stroke-width="0.5" x1="268.57142857142856" x2="388.57142857142856" y1="282.01800000000003" y2="300.0" /><line fill="none" stroke="#E00000" stroke-dasharray="100,0" stroke-width="0.5" x1="388.57142857142856" x2="514.2857142857143" y1="300.0" y2="318.8382857142857" /><line fill="none" stroke="#E00000" stroke-dasharray="100,0" stroke-width="0.5" x1="514.2857142857143" x2="695.8730158730159" y1="318.8382857142857" y2="300.0" /><line fill="none" stroke="#E00000" stroke-dasharray="1,1" stroke-width="0.5" x1="514.2857142857143" x2="695.8730158730159" y1="318.8382857142857" y2="300.0" /></g><g inkscape:groupmode="layer" inkscape:label="rayGroup2"><line fill="none" stroke="#29ab93" stroke-dasharray="100,0" stroke-width="0.5" x1="68.57142857142858" x2="228.57142857142858" y1="317.82" y2="329.916" /><line fill="none" stroke="#29ab93" stroke-dasharray="100,0" stroke-width="0.5" x1="228.57142857142858" x2="268.57142857142856" y1="329.916" y2="317.982" /><line fill="none" stroke="#29ab93" stroke-dasharray="100,0" stroke-width="0.5" x1="268.57142857142856" x2="388.57142857142856" y1="317.982" y2="282.18" /><line fill="none" stroke="#29ab93" stroke-dasharray="100,0" stroke-width="0.5" x1="388.57142857142856" x2="514.2857142857143" y1="282.18" y2="244.67314285714286" /><line fill="none" stroke="#29ab93" stroke-dasharray="100,0" stroke-width="0.5" x1="514.2857142857143" x2="695.8730158730159" y1="244.67314285714286" y2="325.74" /><line fill="none" stroke="#29ab93" stroke-dasharray="1,1" stroke-width="0.5" x1="514.2857142857143" x2="695.8730158730159" y1="244.67314285714286" y2="325.74" /><line fill="none" stroke="#29ab93" stroke-dasharray="100,0" stroke-width="0.5" x1="68.57142857142858" x2="228.57142857142858" y1="317.82" y2="323.922" /><line fill="none" stroke="#29ab93" stroke-dasharray="100,0" stroke-width="0.5" x1="228.57142857142858" x2="268.57142857142856" y1="323.922" y2="313.4865" /><line fill="none" stroke="#29ab93" stroke-dasharray="100,0" stroke-width="0.5" x1="268.57142857142856" x2="388.57142857142856" y1="313.4865" y2="282.18" /><line fill="none" stroke="#29ab93" stroke-dasharray="100,0" stroke-width="0.5" x1="388.57142857142856" x2="514.2857142857143" y1="282.18" y2="249.3827142857143" /><line fill="none" stroke="#29ab93" stroke-dasharray="100,0" stroke-width="0.5" x1="514.2857142857143" x2="695.8730158730159" y1="249.3827142857143" y2="325.74" /><line fill="none" stroke="#29ab93" stroke-dasharray="1,1" stroke-width="0.5" x1="514.2857142857143" x2="695.8730158730159" y1="249.3827142857143" y2="325.74" /><line fill="none" stroke="#29ab93" stroke-dasharray="100,0" stroke-width="0.5" x1="68.57142857142858" x2="228.57142857142858" y1="317.82" y2="317.928" /><line fill="none" stroke="#29ab93" stroke-dasharray="100,0" stroke-width="0.5" x1="228.57142857142858" x2="268.57142857142856" y1="317.928" y2="308.991" /><line fill="none" stroke="#29ab93" stroke-dasharray="100,0" stroke-width="0.5" x1="268.57142857142856" x2="388.57142857142856" y1="308.991" y2="282.18" /><line fill="none" stroke="#29ab93" stroke-dasharray="100,0" stroke-width="0.5" x1="388.57142857142856" x2="514.2857142857143" y1="282.18" y2="254.0922857142857" /><line fill="none" stroke="#29ab93" stroke-dasharray="100,0" stroke-width="0.5" x1="514.2857142857143" x2="695.8730158730159" y1="254.0922857142857" y2="325.74" /><line fill="none" stroke="#29ab93" stroke-dasharray="1,1" stroke-width="0.5" x1="514.2857142857143" x2="695.8730158730159" y1="254.0922857142857" y2="325.74" /><line fill="none" stroke="#29ab93" stroke-dasharray="100,0" stroke-width="0.5" x1="68.57142857142858" x2="228.57142857142858" y1="317.82" y2="311.934" /><line fill="none" stroke="#29ab93" stroke-dasharray="100,0" stroke-width="0.5" x1="228.57142857142858" x2="268.57142857142856" y1="311.934" y2="304.4955" /><line fill="none" stroke="#29ab93" stroke-dasharray="100,0" stroke-width="0.5" x1="268.57142857142856" x2="388.57142857142856" y1="304.4955" y2="282.18" /><line fill="none" stroke="#29ab93" stroke-dasharray="100,0" stroke-width="0.5" x1="388.57142857142856" x2="514.2857142857143" y1="282.18" y2="258.80185714285716" /><line fill="none" stroke="#29ab93" stroke-dasharray="100,0" stroke-width="0.5" x1="514.2857142857143" x2="695.8730158730159" y1="258.80185714285716" y2="325.74" /><line fill="none" stroke="#29ab93" stroke-dasharray="1,1" stroke-width="0.5" x1="514.2857142857143" x2="695.8730158730159" y1="258.80185714285716" y2="325.74" /><line fill="none" stroke="#29ab93" stroke-dasharray="100,0" stroke-width="0.5" x1="68.57142857142858" x2="228.57142857142858" y1="317.82" y2="305.94" /><line fill="none" stroke="#29ab93" stroke-dasharray="100,0" stroke-width="0.5" x1="228.57142857142858" x2="268.57142857142856" y1="305.94" y2="300.0" /><line fill="none" stroke="#29ab93" stroke-dasharray="100,0" stroke-width="0.5" x1="268.57142857142856" x2="388.57142857142856" y1="300.0" y2="282.18" /><line fill="none" stroke="#29ab93" stroke-dasharray="100,0" stroke-width="0.5" x1="388.57142857142856" x2="514.2857142857143" y1="282.18" y2="263.51142857142855" /><line fill="none" stroke="#29ab93" stroke-dasharray="100,0" stroke-width="0.5" x1="514.2857142857143" x2="695.8730158730159" y1="263.51142857142855" y2="325.74" /><line fill="none" stroke="#29ab93" stroke-dasharray="1,1" stroke-width="0.5" x1="514.2857142857143" x2="695.8730158730159" y1="263.51142857142855" y2="325.74" /><line fill="none" stroke="#29ab93" stroke-dasharray="100,0" stroke-width="0.5" x1="68.57142857142858" x2="228.57142857142858" y1="317.82" y2="299.946" /><line fill="none" stroke="#29ab93" stroke-dasharray="100,0" stroke-width="0.5" x1="228.57142857142858" x2="268.57142857142856" y1="299.946" y2="295.5045" /><line fill="none" stroke="#29ab93" stroke-dasharray="100,0" stroke-width="0.5" x1="268.57142857142856" x2="388.57142857142856" y1="295.5045" y2="282.18" /><line fill="none" stroke="#29ab93" stroke-dasharray="100,0" stroke-width="0.5" x1="388.57142857142856" x2="514.2857142857143" y1="282.18" y2="268.221" /><line fill="none" stroke="#29ab93" stroke-dasharray="100,0" stroke-width="0.5" x1="514.2857142857143" x2="695.8730158730159" y1="268.221" y2="325.74" /><line fill="none" stroke="#29ab93" stroke-dasharray="1,1" stroke-width="0.5" x1="514.2857142857143" x2="695.8730158730159" y1="268.221" y2="325.74" /><line fill="none" stroke="#29ab93" stroke-dasharray="100,0" stroke-width="0.5" x1="68.57142857142858" x2="228.57142857142858" y1="317.82" y2="293.952" /><line fill="none" stroke="#29ab93" stroke-dasharray="100,0" stroke-width="0.5" x1="228.57142857142858" x2="268.57142857142856" y1="293.952" y2="291.009" /><line fill="none" stroke="#29ab93" stroke-dasharray="100,0" stroke-width="0.5" x1="268.57142857142856" x2="388.57142857142856" y1="291.009" y2="282.18" /><line fill="none" stroke="#29ab93" stroke-dasharray="100,0" stroke-width="0.5" x1="388.57142857142856" x2="514.2857142857143" y1="282.18" y2="272.9305714285714" /><line fill="none" stroke="#29ab93" stroke-dasharray="100,0" stroke-width="0.5" x1="514.2857142857143" x2="695.8730158730159" y1="272.9305714285714" y2="325.74" /><line fill="none" stroke="#29ab93" stroke-dasharray="1,1" stroke-width="0.5" x1="514.2857142857143" x2="695.8730158730159" y1="272.9305714285714" y2="325.74" /><line fill="none" stroke="#29ab93" stroke-dasharray="100,0" stroke-width="0.5" x1="68.57142857142858" x2="228.57142857142858" y1="317.82" y2="287.958" /><line fill="none" stroke="#29ab93" stroke-dasharray="100,0" stroke-width="0.5" x1="228.57142857142858" x2="268.57142857142856" y1="287.958" y2="286.5135" /><line fill="none" stroke="#29ab93" stroke-dasharray="100,0" stroke-width="0.5" x1="268.57142857142856" x2="388.57142857142856" y1="286.5135" y2="282.18" /><line fill="none" stroke="#29ab93" stroke-dasharray="100,0" stroke-width="0.5" x1="388.57142857142856" x2="514.2857142857143" y1="282.18" y2="277.64014285714285" /><line fill="none" stroke="#29ab93" stroke-dasharray="100,0" stroke-width="0.5" x1="514.2857142857143" x2="695.8730158730159" y1="277.64014285714285" y2="325.74" /><line fill="none" stroke="#29ab93" stroke-dasharray="1,1" stroke-width="0.5" x1="514.2857142857143" x2="695.8730158730159" y1="277.64014285714285" y2="325.74" /><line fill="none" stroke="#29ab93" stroke-dasharray="100,0" stroke-width="0.5" x1="68.57142857142858" x2="228.57142857142858" y1="317.82" y2="281.964" /><line fill="none" stroke="#29ab93" stroke-dasharray="100,0" stroke-width="0.5" x1="228.57142857142858" x2="268.57142857142856" y1="281.964" y2="282.01800000000003" /><line fill="none" stroke="#29ab93" stroke-dasharray="100,0" stroke-width="0.5" x1="268.57142857142856" x2="388.57142857142856" y1="282.01800000000003" y2="282.18" /><line fill="none" stroke="#29ab93" stroke-dasharray="100,0" stroke-width="0.5" x1="388.57142857142856" x2="514.2857142857143" y1="282.18" y2="282.3497142857143" /><line fill="none" stroke="#29ab93" stroke-dasharray="100,0" stroke-width="0.5" x1="514.2857142857143" x2="695.8730158730159" y1="282.3497142857143" y2="325.74" /><line fill="none" stroke="#29ab93" stroke-dasharray="1,1" stroke-width="0.5" x1="514.2857142857143" x2="695.8730158730159" y1="282.3497142857143" y2="325.74" /><line fill="none" stroke="#29ab93" stroke-dasharray="100,0" stroke-width="0.5" x1="68.57142857142858" x2="228.57142857142858" y1="282.18" y2="318.036" /><line fill="none" stroke="#29ab93" stroke-dasharray="100,0" stroke-width="0.5" x1="228.57142857142858" x2="268.57142857142856" y1="318.036" y2="317.98199999999997" /><line fill="none" stroke="#29ab93" stroke-dasharray="100,0" stroke-width="0.5" x1="268.57142857142856" x2="388.57142857142856" y1="317.98199999999997" y2="317.82" /><line fill="none" stroke="#29ab93" stroke-dasharray="100,0" stroke-width="0.5" x1="388.57142857142856" x2="514.2857142857143" y1="317.82" y2="317.6502857142857" /><line fill="none" stroke="#29ab93" stroke-dasharray="100,0" stroke-width="0.5" x1="514.2857142857143" x2="695.8730158730159" y1="317.6502857142857" y2="274.26" /><line fill="none" stroke="#29ab93" stroke-dasharray="1,1" stroke-width="0.5" x1="514.2857142857143" x2="695.8730158730159" y1="317.6502857142857" y2="274.26" /><line fill="none" stroke="#29ab93" stroke-dasharray="100,0" stroke-width="0.5" x1="68.57142857142858" x2="228.57142857142858" y1="282.18" y2="312.042" /><line fill="none" stroke="#29ab93" stroke-dasharray="100,0" stroke-width="0.5" x1="228.57142857142858" x2="268.57142857142856" y1="312.042" y2="313.4865" /><line fill="none" stroke="#29ab93" stroke-dasharray="100,0" stroke-width="0.5" x1="268.57142857142856" x2="388.57142857142856" y1="313.4865" y2="317.82" /><line fill="none" stroke="#29ab93" stroke-dasharray="100,0" stroke-width="0.5" x1="388.57142857142856" x2="514.2857142857143" y1="317.82" y2="322.35985714285715" /><line fill="none" stroke="#29ab93" stroke-dasharray="100,0" stroke-width="0.5" x1="514.2857142857143" x2="695.8730158730159" y1="322.35985714285715" y2="274.26" /><line fill="none" stroke="#29ab93" stroke-dasharray="1,1" stroke-width="0.5" x1="514.2857142857143" x2="695.8730158730159" y1="322.35985714285715" y2="274.26" /><line fill="none" stroke="#29ab93" stroke-dasharray="100,0" stroke-width="0.5" x1="68.57142857142858" x2="228.57142857142858" y1="282.18" y2="306.048" /><line fill="none" stroke="#29ab93" stroke-dasharray="100,0" stroke-width="0.5" x1="228.57142857142858" x2="268.57142857142856" y1="306.048" y2="308.991" /><line fill="none" stroke="#29ab93" stroke-dasharray="100,0" stroke-width="0.5" x1="268.57142857142856" x2="388.57142857142856" y1="308.991" y2="317.82" /><line fill="none" stroke="#29ab93" stroke-dasharray="100,0" stroke-width="0.5" x1="388.57142857142856" x2="514.2857142857143" y1="317.82" y2="327.0694285714286" /><line fill="none" stroke="#29ab93" stroke-dasharray="100,0" stroke-width="0.5" x1="514.2857142857143" x2="695.8730158730159" y1="327.0694285714286" y2="274.26" /><line fill="none" stroke="#29ab93" stroke-dasharray="1,1" stroke-width="0.5" x1="514.2857142857143" x2="695.8730158730159" y1="327.0694285714286" y2="274.26" /><line fill="none" stroke="#29ab93" stroke-dasharray="100,0" stroke-width="0.5" x1="68.57142857142858" x2="228.57142857142858" y1="282.18" y2="300.054" /><line fill="none" stroke="#29ab93" stroke-dasharray="100,0" stroke-width="0.5" x1="228.57142857142858" x2="268.57142857142856" y1="300.054" y2="304.4955" /><line fill="none" stroke="#29ab93" stroke-dasharray="100,0" stroke-width="0.5" x1="268.57142857142856" x2="388.57142857142856" y1="304.4955" y2="317.82" /><line fill="none" stroke="#29ab93" stroke-dasharray="100,0" stroke-width="0.5" x1="388.57142857142856" x2="514.2857142857143" y1="317.82" y2="331.779" /><line fill="none" stroke="#29ab93" stroke-dasharray="100,0" stroke-width="0.5" x1="514.2857142857143" x2="695.8730158730159" y1="331.779" y2="274.26" /><line fill="none" stroke="#29ab93" stroke-dasharray="1,1" stroke-width="0.5" x1="514.2857142857143" x2="695.8730158730159" y1="331.779" y2="274.26" /><line fill="none" stroke="#29ab93" stroke-dasharray="100,0" stroke-width="0.5" x1="68.57142857142858" x2="228.57142857142858" y1="282.18" y2="294.06" /><line fill="none" stroke="#29ab93" stroke-dasharray="100,0" stroke-width="0.5" x1="228.57142857142858" x2="268.57142857142856" y1="294.06" y2="300.0" /><line fill="none" stroke="#29ab93" stroke-dasharray="100,0" stroke-width="0.5" x1="268.57142857142856" x2="388.57142857142856" y1="300.0" y2="317.82" /><line fill="none" stroke="#29ab93" stroke-dasharray="100,0" stroke-width="0.5" x1="388.57142857142856" x2="514.2857142857143" y1="317.82" y2="336.48857142857145" /><line fill="none" stroke="#29ab93" stroke-dasharray="100,0" stroke-width="0.5" x1="514.2857142857143" x2="695.8730158730159" y1="336.48857142857145" y2="274.26" /><line fill="none" stroke="#29ab93" stroke-dasharray="1,1" stroke-width="0.5" x1="514.2857142857143" x2="695.8730158730159" y1="336.48857142857145" y2="274.26" /><line fill="none" stroke="#29ab93" stroke-dasharray="100,0" stroke-width="0.5" x1="68.57142857142858" x2="228.57142857142858" y1="282.18" y2="288.066" /><line fill="none" stroke="#29ab93" stroke-dasharray="100,0" stroke-width="0.5" x1="228.57142857142858" x2="268.57142857142856" y1="288.066" y2="295.5045" /><line fill="none" stroke="#29ab93" stroke-dasharray="100,0" stroke-width="0.5" x1="268.57142857142856" x2="388.57142857142856" y1="295.5045" y2="317.82" /><line fill="none" stroke="#29ab93" stroke-dasharray="100,0" stroke-width="0.5" x1="388.57142857142856" x2="514.2857142857143" y1="317.82" y2="341.19814285714284" /><line fill="none" stroke="#29ab93" stroke-dasharray="100,0" stroke-width="0.5" x1="514.2857142857143" x2="695.8730158730159" y1="341.19814285714284" y2="274.26" /><line fill="none" stroke="#29ab93" stroke-dasharray="1,1" stroke-width="0.5" x1="514.2857142857143" x2="695.8730158730159" y1="341.19814285714284" y2="274.26" /><line fill="none" stroke="#29ab93" stroke-dasharray="100,0" stroke-width="0.5" x1="68.57142857142858" x2="228.57142857142858" y1="282.18" y2="282.072" /><line fill="none" stroke="#29ab93" stroke-dasharray="100,0" stroke-width="0.5" x1="228.57142857142858" x2="268.57142857142856" y1="282.072" y2="291.009" /><line fill="none" stroke="#29ab93" stroke-dasharray="100,0" stroke-width="0.5" x1="268.57142857142856" x2="388.57142857142856" y1="291.009" y2="317.82" /><line fill="none" stroke="#29ab93" stroke-dasharray="100,0" stroke-width="0.5" x1="388.57142857142856" x2="514.2857142857143" y1="317.82" y2="345.9077142857143" /><line fill="none" stroke="#29ab93" stroke-dasharray="100,0" stroke-width="0.5" x1="514.2857142857143" x2="695.8730158730159" y1="345.9077142857143" y2="274.26" /><line fill="none" stroke="#29ab93" stroke-dasharray="1,1" stroke-width="0.5" x1="514.2857142857143" x2="695.8730158730159" y1="345.9077142857143" y2="274.26" /><line fill="none" stroke="#29ab93" stroke-dasharray="100,0" stroke-width="0.5" x1="68.57142857142858" x2="228.57142857142858" y1="282.18" y2="276.078" /><line fill="none" stroke="#29ab93" stroke-dasharray="100,0" stroke-width="0.5" x1="228.57142857142858" x2="268.57142857142856" y1="276.078" y2="286.5135" /><line fill="none" stroke="#29ab93" stroke-dasharray="100,0" stroke-width="0.5" x1="268.57142857142856" x2="388.57142857142856" y1="286.5135" y2="317.82" /><line fill="none" stroke="#29ab93" stroke-dasharray="100,0" stroke-width="0.5" x1="388.57142857142856" x2="514.2857142857143" y1="317.82" y2="350.6172857142857" /><line fill="none" stroke="#29ab93" stroke-dasharray="100,0" stroke-width="0.5" x1="514.2857142857143" x2="695.8730158730159" y1="350.6172857142857" y2="274.26" /><line fill="none" stroke="#29ab93" stroke-dasharray="1,1" stroke-width="0.5" x1="514.2857142857143" x2="695.8730158730159" y1="350.6172857142857" y2="274.26" /><line fill="none" stroke="#29ab93" stroke-dasharray="100,0" stroke-width="0.5" x1="68.57142857142858" x2="228.57142857142858" y1="282.18" y2="270.084" /><line fill="none" stroke="#29ab93" stroke-dasharray="100,0" stroke-width="0.5" x1="228.57142857142858" x2="268.57142857142856" y1="270.084" y2="282.018" /><line fill="none" stroke="#29ab93" stroke-dasharray="100,0" stroke-width="0.5" x1="268.57142857142856" x2="388.57142857142856" y1="282.018" y2="317.82" /><line fill="none" stroke="#29ab93" stroke-dasharray="100,0" stroke-width="0.5" x1="388.57142857142856" x2="514.2857142857143" y1="317.82" y2="355.32685714285714" /><line fill="none" stroke="#29ab93" stroke-dasharray="100,0" stroke-width="0.5" x1="514.2857142857143" x2="695.8730158730159" y1="355.32685714285714" y2="274.26" /><line fill="none" stroke="#29ab93" stroke-dasharray="1,1" stroke-width="0.5" x1="514.2857142857143" x2="695.8730158730159" y1="355.32685714285714" y2="274.26" /></g></svg>