<?xml version="1.0" encoding="utf-8" ?>
<svg baseProfile="full" height="600" version="1.1" width="800" xmlns="http://www.w3.org/2000/svg" xmlns:ev="http://www.w3.org/2001/xml-events" xmlns:inkscape="http://www.inkscape.org/namespaces/inkscape" xmlns:sodipodi="http://sodipodi.sourceforge.net/DTD/sodipodi-0.dtd" xmlns:xlink="http://www.w3.org/1999/xlink"><defs /><g inkscape:groupmode="layer" inkscape:label="axis"><line fill="none" stroke="#040404" stroke-dasharray="10,4" stroke-width="2.0" x1="0" x2="800" y1="300.0" y2="300.0" /></g><g inkscape:groupmode="layer" inkscape:label="optics"><path d="M 200.0,300.0 m -1.0,-60.0 a 389.9999999999999,389.9999999999999 0 0 0    0,120.0 h    2 a 389.9999999999999,389.9999999999999 0 0 0    0,-120.0 z" fill="#CCCCCC" stroke="#000000" stroke-dasharray="100,0" stroke-width="0.5" /></g><g inkscape:groupmode="layer" inkscape:label="stops"><path d="M 200.0,300.0 m -1.0,60.0 h    2 m    0,-120.0 h   -2 m  1.0,   0 v -60.0 m    0,180.0 v 60.0 " fill="none" stroke="#009900" stroke-dasharray="100,0" stroke-width="1.5" /></g><g inkscape:groupmode="layer" inkscape:label="pupils"><path d="M 200.0,300.0 m -1.0,60.0 h    2 m    0,-120.0 h   -2 m  1.0,   0 v -60.0 m    0,180.0 v 60.0 " fill="none" stroke="#009900" stroke-dasharray="100,0" stroke-width="1.5" /><path d="M 200.0,300.0 m -1.0,60.0 h    2 m    0,-120.0 h   -2 m  1.0,   0 v -60.0 m    0,180.0 v 60.0 " fill="none" stroke="#009900" stroke-dasharray="100,0" stroke-width="1.5" /></g><g inkscape:groupmode="layer" inkscape:label="windows" /><g inkscape:groupmode="layer" inkscape:label="objects"><path d="M 130.0,300.0 m    0,30.479999999999997 v -60.959999999999994 l   -3, 7.0 l    6,   0 l   -3,-7.0 " fill="#000000" stroke="#000000" stroke-dasharray="100,0" stroke-width="1.0" /></g><g inkscape:groupmode="layer" inkscape:label="images"><path d="M -33.33333333333337,300.0 m    0,101.60000000000001 v -203.20000000000002 l   -3, 7.0 l    6,   0 l   -3,-7.0 " fill="#020202" stroke="#020202" stroke-dasharray="100,0" stroke-width="1.0" /></g><g inkscape:groupmode="layer" inkscape:label="rayGroup1"><line fill="none" stroke="#FF0000" stroke-dasharray="100,0" stroke-width="0.5" x1="130.0" x2="200.0" y1="269.52" y2="354.0" /><line fill="none" stroke="#FF0000" stroke-dasharray="100,0" stroke-width="0.5" x1="200.0" x2="600.0" y1="354.0" y2="620.7428571428571" /><line fill="none" stroke="#FF0000" stroke-dasharray="1,1" stroke-width="0.5" x1="200.0" x2="-33.33333333333337" y1="354.0" y2="198.39999999999998" /><line fill="none" stroke="#FF0000" stroke-dasharray="100,0" stroke-width="0.5" x1="130.0" x2="200.0" y1="269.52" y2="342.0" /><line fill="none" stroke="#FF0000" stroke-dasharray="100,0" stroke-width="0.5" x1="200.0" x2="600.0" y1="342.0" y2="588.1714285714286" /><line fill="none" stroke="#FF0000" stroke-dasharray="1,1" stroke-width="0.5" x1="200.0" x2="-33.33333333333337" y1="342.0" y2="198.39999999999998" /><line fill="none" stroke="#FF0000" stroke-dasharray="100,0" stroke-width="0.5" x1="130.0" x2="200.0" y1="269.52" y2="330.0" /><line fill="none" stroke="#FF0000" stroke-dasharray="100,0" stroke-width="0.5" x1="200.0" x2="600.0" y1="330.0" y2="555.6" /><line fill="none" stroke="#FF0000" stroke-dasharray="1,1" stroke-width="0.5" x1="200.0" x2="-33.33333333333337" y1="330.0" y2="198.39999999999998" /><line fill="none" stroke="#FF0000" stroke-dasharray="100,0" stroke-width="0.5" x1="130.0" x2="200.0" y1="269.52" y2="318.0" /><line fill="none" stroke="#FF0000" stroke-dasharray="100,0" stroke-width="0.5" x1="200.0" x2="600.0" y1="318.0" y2="523.0285714285714" /><line fill="none" stroke="#FF0000" stroke-dasharray="1,1" stroke-width="0.5" x1="200.0" x2="-33.33333333333337" y1="318.0" y2="198.40000000000003" /><line fill="none" stroke="#FF0000" stroke-dasharray="100,0" stroke-width="0.5" x1="130.0" x2="200.0" y1="269.52" y2="306.0" /><line fill="none" stroke="#FF0000" stroke-dasharray="100,0" stroke-width="0.5" x1="200.0" x2="600.0" y1="306.0" y2="490.45714285714286" /><line fill="none" stroke="#FF0000" stroke-dasharray="1,1" stroke-width="0.5" x1="200.0" x2="-33.33333333333337" y1="306.0" y2="198.39999999999998" /><line fill="none" stroke="#FF0000" stroke-dasharray="100,0" stroke-width="0.5" x1="130.0" x2="200.0" y1="269.52" y2="294.0" /><line fill="none" stroke="#FF0000" stroke-dasharray="100,0" stroke-width="0.5" x1="200.0" x2="600.0" y1="294.0" y2="457.88571428571424" /><line fill="none" stroke="#FF0000" stroke-dasharray="1,1" stroke-width="0.5" x1="200.0" x2="-33.33333333333337" y1="294.0" y2="198.39999999999998" /><line fill="none" stroke="#FF0000" stroke-dasharray="100,0" stroke-width="0.5" x1="130.0" x2="200.0" y1="269.52" y2="282.0" /><line fill="none" stroke="#FF0000" stroke-dasharray="100,0" stroke-width="0.5" x1="200.0" x2="600.0" y1="282.0" y2="425.31428571428575" /><line fill="none" stroke="#FF0000" stroke-dasharray="1,1" stroke-width="0.5" x1="200.0" x2="-33.33333333333337" y1="282.0" y2="198.39999999999998" /><line fill="none" stroke="#FF0000" stroke-dasharray="100,0" stroke-width="0.5" x1="130.0" x2="200.0" y1="269.52" y2="270.0" /><line fill="none" stroke="#FF0000" stroke-dasharray="100,0" stroke-width="0.5" x1="200.0" x2="600.0" y1="270.0" y2="392.7428571428571" /><line fill="none" stroke="#FF0000" stroke-dasharray="1,1" stroke-width="0.5" x1="200.0" x2="-33.33333333333337" y1="270.0" y2="198.39999999999998" /><line fill="none" stroke="#FF0000" stroke-dasharray="100,0" stroke-width="0.5" x1="130.0" x2="200.0" y1="269.52" y2="258.0" /><line fill="none" stroke="#FF0000" stroke-dasharray="100,0" stroke-width="0.5" x1="200.0" x2="600.0" y1="258.0" y2="360.1714285714286" /><line fill="none" stroke="#FF0000" stroke-dasharray="1,1" stroke-width="0.5" x1="200.0" x2="-33.33333333333337" y1="258.0" y2="198.39999999999998" /><line fill="none" stroke="#FF0000" stroke-dasharray="100,0" stroke-width="0.5" x1="130.0" x2="200.0" y1="269.52" y2="246.0" /><line fill="none" stroke="#FF0000" stroke-dasharray="100,0" stroke-width="0.5" x1="200.0" x2="600.0" y1="246.0" y2="327.6" /><line fill="none" stroke="#FF0000" stroke-dasharray="1,1" stroke-width="0.5" x1="200.0" x2="-33.33333333333337" y1="246.0" y2="198.39999999999998" /></g><g inkscape:groupmode="layer" inkscape:label="rayGroup2"><line fill="none" stroke="#00FF00" stroke-dasharray="100,0" stroke-width="0.5" x1="130.0" x2="200.0" y1="330.48" y2="354.0" /><line fill="none" stroke="#00FF00" stroke-dasharray="100,0" stroke-width="0.5" x1="200.0" x2="600.0" y1="354.0" y2="272.4" /><line fill="none" stroke="#00FF00" stroke-dasharray="1,1" stroke-width="0.5" x1="200.0" x2="-33.33333333333337" y1="354.0" y2="401.6" /><line fill="none" stroke="#00FF00" stroke-dasharray="100,0" stroke-width="0.5" x1="130.0" x2="200.0" y1="330.48" y2="342.0" /><line fill="none" stroke="#00FF00" stroke-dasharray="100,0" stroke-width="0.5" x1="200.0" x2="600.0" y1="342.0" y2="239.82857142857142" /><line fill="none" stroke="#00FF00" stroke-dasharray="1,1" stroke-width="0.5" x1="200.0" x2="-33.33333333333337" y1="342.0" y2="401.6" /><line fill="none" stroke="#00FF00" stroke-dasharray="100,0" stroke-width="0.5" x1="130.0" x2="200.0" y1="330.48" y2="330.0" /><line fill="none" stroke="#00FF00" stroke-dasharray="100,0" stroke-width="0.5" x1="200.0" x2="600.0" y1="330.0" y2="207.25714285714287" /><line fill="none" stroke="#00FF00" stroke-dasharray="1,1" stroke-width="0.5" x1="200.0" x2="-33.33333333333337" y1="330.0" y2="401.59999999999997" /><line fill="none" stroke="#00FF00" stroke-dasharray="100,0" stroke-width="0.5" x1="130.0" x2="200.0" y1="330.48" y2="318.0" /><line fill="none" stroke="#00FF00" stroke-dasharray="100,0" stroke-width="0.5" x1="200.0" x2="600.0" y1="318.0" y2="174.68571428571425" /><line fill="none" stroke="#00FF00" stroke-dasharray="1,1" stroke-width="0.5" x1="200.0" x2="-33.33333333333337" y1="318.0" y2="401.6" /><line fill="none" stroke="#00FF00" stroke-dasharray="100,0" stroke-width="0.5" x1="130.0" x2="200.0" y1="330.48" y2="306.0" /><line fill="none" stroke="#00FF00" stroke-dasharray="100,0" stroke-width="0.5" x1="200.0" x2="600.0" y1="306.0" y2="142.1142857142857" /><line fill="none" stroke="#00FF00" stroke-dasharray="1,1" stroke-width="0.5" x1="200.0" x2="-33.33333333333337" y1="306.0" y2="401.6" /><line fill="none" stroke="#00FF00" stroke-dasharray="100,0" stroke-width="0.5" x1="130.0" x2="200.0" y1="330.48" y2="294.0" /><line fill="none" stroke="#00FF00" stroke-dasharray="100,0" stroke-width="0.5" x1="200.0" x2="600.0" y1="294.0" y2="109.54285714285714" /><line fill="none" stroke="#00FF00" stroke-dasharray="1,1" stroke-width="0.5" x1="200.0" x2="-33.33333333333337" y1="294.0" y2="401.6" /><line fill="none" stroke="#00FF00" stroke-dasharray="100,0" stroke-width="0.5" x1="130.0" x2="200.0" y1="330.48" y2="282.0" /><line fill="none" stroke="#00FF00" stroke-dasharray="100,0" stroke-width="0.5" x1="200.0" x2="600.0" y1="282.0" y2="76.97142857142862" /><line fill="none" stroke="#00FF00" stroke-dasharray="1,1" stroke-width="0.5" x1="200.0" x2="-33.33333333333337" y1="282.0" y2="401.59999999999997" /><line fill="none" stroke="#00FF00" stroke-dasharray="100,0" stroke-width="0.5" x1="130.0" x2="200.0" y1="330.48" y2="270.0" /><line fill="none" stroke="#00FF00" stroke-dasharray="100,0" stroke-width="0.5" x1="200.0" x2="600.0" y1="270.0" y2="44.400000000000006" /><line fill="none" stroke="#00FF00" stroke-dasharray="1,1" stroke-width="0.5" x1="200.0" x2="-33.33333333333337" y1="270.0" y2="401.6" /><line fill="none" stroke="#00FF00" stroke-dasharray="100,0" stroke-width="0.5" x1="130.0" x2="200.0" y1="330.48" y2="258.0" /><line fill="none" stroke="#00FF00" stroke-dasharray="100,0" stroke-width="0.5" x1="200.0" x2="600.0" y1="258.0" y2="11.828571428571422" /><line fill="none" stroke="#00FF00" stroke-dasharray="1,1" stroke-width="0.5" x1="200.0" x2="-33.33333333333337" y1="258.0" y2="401.6" /><line fill="none" stroke="#00FF00" stroke-dasharray="100,0" stroke-width="0.5" x1="130.0" x2="200.0" y1="330.48" y2="246.0" /><line fill="none" stroke="#00FF00" stroke-dasharray="100,0" stroke-width="0.5" x1="200.0" x2="600.0" y1="246.0" y2="-20.742857142857133" /><line fill="none" stroke="#00FF00" stroke-dasharray="1,1" stroke-width="0.5" x1="200.0" x2="-33.33333333333337" y1="246.0" y2="401.6" /></g></svg>