<?xml version="1.0" encoding="utf-8" ?>
<svg baseProfile="full" height="600" version="1.1" width="800" xmlns="http://www.w3.org/2000/svg" xmlns:ev="http://www.w3.org/2001/xml-events" xmlns:inkscape="http://www.inkscape.org/namespaces/inkscape" xmlns:sodipodi="http://sodipodi.sourceforge.net/DTD/sodipodi-0.dtd" xmlns:xlink="http://www.w3.org/1999/xlink"><defs /><g inkscape:groupmode="layer" inkscape:label="axis"><line fill="none" stroke="#040404" stroke-dasharray="10,4" stroke-width="2.0" x1="0" x2="800" y1="300.0" y2="300.0" /></g><g inkscape:groupmode="layer" inkscape:label="optics"><path d="M 200.0,300.0 m -1.0,-60.0 a 389.9999999999999,389.9999999999999 0 0 0    0,120.0 h    2 a 389.9999999999999,389.9999999999999 0 0 0    0,-120.0 z" fill="#CCCCCC" stroke="#000000" stroke-dasharray="100,0" stroke-width="0.5" /><path d="M 220.0,300.0 m -1.0,66.0 h    2 m    0,-132.0 h   -2 m  1.0,   0 v -54.0 m    0,186.0 v 54.0 " fill="none" stroke="#000000" stroke-dasharray="100,0" stroke-width="1.5" /></g><g inkscape:groupmode="layer" inkscape:label="stops" /><g inkscape:groupmode="layer" inkscape:label="pupils"><path d="M 200.0,300.0 m -1.0,60.0 h    2 m    0,-120.0 h   -2 m  1.0,   0 v -60.0 m    0,180.0 v 60.0 " fill="none" stroke="#009900" stroke-dasharray="100,0" stroke-width="1.5" /><path d="M 200.0,300.0 m -1.0,60.0 h    2 m    0,-120.0 h   -2 m  1.0,   0 v -60.0 m    0,180.0 v 60.0 " fill="none" stroke="#009900" stroke-dasharray="100,0" stroke-width="1.5" /></g><g inkscape:groupmode="layer" inkscape:label="windows"><path d="M 225.0,300.0 m -1.0,82.5 h    2 m    0,-165.0 h   -2 m  1.0,   0 v -37.5 m    0,202.5 v 37.5 " fill="none" stroke="#009900" stroke-dasharray="100,0" stroke-width="1.5" /><path d="M 220.0,300.0 m -1.0,66.0 h    2 m    0,-132.0 h   -2 m  1.0,   0 v -54.0 m    0,186.0 v 54.0 " fill="none" stroke="#009900" stroke-dasharray="100,0" stroke-width="1.5" /></g><g inkscape:groupmode="layer" inkscape:label="objects"><path d="M 70.0,300.0 m    0,30.479999999999997 v -60.959999999999994 l   -3,   7 l    6,   0 l   -3,  -7 " fill="#000000" stroke="#000000" stroke-dasharray="100,0" stroke-width="1.0" /></g><g inkscape:groupmode="layer" inkscape:label="images"><path d="M 70.0,300.0 m    0,-101.59999999999998 v 203.19999999999996 l 10.0,-23.333333333333332 l -20.0,   0 l 10.0,23.333333333333332 " fill="#020202" stroke="#020202" stroke-dasharray="100,0" stroke-width="1.0" /></g><g inkscape:groupmode="layer" inkscape:label="rayGroup1"><line fill="none" stroke="#FF0000" stroke-dasharray="100,0" stroke-width="0.5" x1="70.0" x2="200.0" y1="269.52" y2="354.0" /><line fill="none" stroke="#FF0000" stroke-dasharray="100,0" stroke-width="0.5" x1="200.0" x2="220.0" y1="354.0" y2="356.1969230769231" /><line fill="none" stroke="#FF0000" stroke-dasharray="100,0" stroke-width="0.5" x1="220.0" x2="633.3333333333333" y1="356.1969230769231" y2="401.6" /><line fill="none" stroke="#FF0000" stroke-dasharray="100,0" stroke-width="0.5" x1="70.0" x2="200.0" y1="269.52" y2="342.0" /><line fill="none" stroke="#FF0000" stroke-dasharray="100,0" stroke-width="0.5" x1="200.0" x2="220.0" y1="342.0" y2="344.75076923076927" /><line fill="none" stroke="#FF0000" stroke-dasharray="100,0" stroke-width="0.5" x1="220.0" x2="633.3333333333333" y1="344.75076923076927" y2="401.59999999999997" /><line fill="none" stroke="#FF0000" stroke-dasharray="100,0" stroke-width="0.5" x1="70.0" x2="200.0" y1="269.52" y2="330.0" /><line fill="none" stroke="#FF0000" stroke-dasharray="100,0" stroke-width="0.5" x1="200.0" x2="220.0" y1="330.0" y2="333.3046153846154" /><line fill="none" stroke="#FF0000" stroke-dasharray="100,0" stroke-width="0.5" x1="220.0" x2="633.3333333333333" y1="333.3046153846154" y2="401.59999999999997" /><line fill="none" stroke="#FF0000" stroke-dasharray="100,0" stroke-width="0.5" x1="70.0" x2="200.0" y1="269.52" y2="318.0" /><line fill="none" stroke="#FF0000" stroke-dasharray="100,0" stroke-width="0.5" x1="200.0" x2="220.0" y1="318.0" y2="321.85846153846154" /><line fill="none" stroke="#FF0000" stroke-dasharray="100,0" stroke-width="0.5" x1="220.0" x2="633.3333333333333" y1="321.85846153846154" y2="401.59999999999997" /><line fill="none" stroke="#FF0000" stroke-dasharray="100,0" stroke-width="0.5" x1="70.0" x2="200.0" y1="269.52" y2="306.0" /><line fill="none" stroke="#FF0000" stroke-dasharray="100,0" stroke-width="0.5" x1="200.0" x2="220.0" y1="306.0" y2="310.4123076923077" /><line fill="none" stroke="#FF0000" stroke-dasharray="100,0" stroke-width="0.5" x1="220.0" x2="633.3333333333333" y1="310.4123076923077" y2="401.59999999999997" /><line fill="none" stroke="#FF0000" stroke-dasharray="100,0" stroke-width="0.5" x1="70.0" x2="200.0" y1="269.52" y2="294.0" /><line fill="none" stroke="#FF0000" stroke-dasharray="100,0" stroke-width="0.5" x1="200.0" x2="220.0" y1="294.0" y2="298.9661538461539" /><line fill="none" stroke="#FF0000" stroke-dasharray="100,0" stroke-width="0.5" x1="220.0" x2="633.3333333333333" y1="298.9661538461539" y2="401.59999999999997" /><line fill="none" stroke="#FF0000" stroke-dasharray="100,0" stroke-width="0.5" x1="70.0" x2="200.0" y1="269.52" y2="282.0" /><line fill="none" stroke="#FF0000" stroke-dasharray="100,0" stroke-width="0.5" x1="200.0" x2="220.0" y1="282.0" y2="287.52" /><line fill="none" stroke="#FF0000" stroke-dasharray="100,0" stroke-width="0.5" x1="220.0" x2="633.3333333333333" y1="287.52" y2="401.59999999999997" /><line fill="none" stroke="#FF0000" stroke-dasharray="100,0" stroke-width="0.5" x1="70.0" x2="200.0" y1="269.52" y2="270.0" /><line fill="none" stroke="#FF0000" stroke-dasharray="100,0" stroke-width="0.5" x1="200.0" x2="220.0" y1="270.0" y2="276.07384615384615" /><line fill="none" stroke="#FF0000" stroke-dasharray="100,0" stroke-width="0.5" x1="220.0" x2="633.3333333333333" y1="276.07384615384615" y2="401.59999999999997" /><line fill="none" stroke="#FF0000" stroke-dasharray="100,0" stroke-width="0.5" x1="70.0" x2="200.0" y1="269.52" y2="258.0" /><line fill="none" stroke="#FF0000" stroke-dasharray="100,0" stroke-width="0.5" x1="200.0" x2="220.0" y1="258.0" y2="264.6276923076923" /><line fill="none" stroke="#FF0000" stroke-dasharray="100,0" stroke-width="0.5" x1="220.0" x2="633.3333333333333" y1="264.6276923076923" y2="401.59999999999997" /><line fill="none" stroke="#FF0000" stroke-dasharray="100,0" stroke-width="0.5" x1="70.0" x2="200.0" y1="269.52" y2="246.0" /><line fill="none" stroke="#FF0000" stroke-dasharray="100,0" stroke-width="0.5" x1="200.0" x2="220.0" y1="246.0" y2="253.18153846153845" /><line fill="none" stroke="#FF0000" stroke-dasharray="100,0" stroke-width="0.5" x1="220.0" x2="633.3333333333333" y1="253.18153846153845" y2="401.59999999999997" /></g><g inkscape:groupmode="layer" inkscape:label="rayGroup2"><line fill="none" stroke="#00FF00" stroke-dasharray="100,0" stroke-width="0.5" x1="70.0" x2="200.0" y1="330.48" y2="354.0" /><line fill="none" stroke="#00FF00" stroke-dasharray="100,0" stroke-width="0.5" x1="200.0" x2="220.0" y1="354.0" y2="346.8184615384615" /><line fill="none" stroke="#00FF00" stroke-dasharray="100,0" stroke-width="0.5" x1="220.0" x2="633.3333333333333" y1="346.8184615384615" y2="198.40000000000003" /><line fill="none" stroke="#00FF00" stroke-dasharray="100,0" stroke-width="0.5" x1="70.0" x2="200.0" y1="330.48" y2="342.0" /><line fill="none" stroke="#00FF00" stroke-dasharray="100,0" stroke-width="0.5" x1="200.0" x2="220.0" y1="342.0" y2="335.3723076923077" /><line fill="none" stroke="#00FF00" stroke-dasharray="100,0" stroke-width="0.5" x1="220.0" x2="633.3333333333333" y1="335.3723076923077" y2="198.39999999999998" /><line fill="none" stroke="#00FF00" stroke-dasharray="100,0" stroke-width="0.5" x1="70.0" x2="200.0" y1="330.48" y2="330.0" /><line fill="none" stroke="#00FF00" stroke-dasharray="100,0" stroke-width="0.5" x1="200.0" x2="220.0" y1="330.0" y2="323.92615384615385" /><line fill="none" stroke="#00FF00" stroke-dasharray="100,0" stroke-width="0.5" x1="220.0" x2="633.3333333333333" y1="323.92615384615385" y2="198.40000000000003" /><line fill="none" stroke="#00FF00" stroke-dasharray="100,0" stroke-width="0.5" x1="70.0" x2="200.0" y1="330.48" y2="318.0" /><line fill="none" stroke="#00FF00" stroke-dasharray="100,0" stroke-width="0.5" x1="200.0" x2="220.0" y1="318.0" y2="312.48" /><line fill="none" stroke="#00FF00" stroke-dasharray="100,0" stroke-width="0.5" x1="220.0" x2="633.3333333333333" y1="312.48" y2="198.40000000000003" /><line fill="none" stroke="#00FF00" stroke-dasharray="100,0" stroke-width="0.5" x1="70.0" x2="200.0" y1="330.48" y2="306.0" /><line fill="none" stroke="#00FF00" stroke-dasharray="100,0" stroke-width="0.5" x1="200.0" x2="220.0" y1="306.0" y2="301.0338461538461" /><line fill="none" stroke="#00FF00" stroke-dasharray="100,0" stroke-width="0.5" x1="220.0" x2="633.3333333333333" y1="301.0338461538461" y2="198.40000000000003" /><line fill="none" stroke="#00FF00" stroke-dasharray="100,0" stroke-width="0.5" x1="70.0" x2="200.0" y1="330.48" y2="294.0" /><line fill="none" stroke="#00FF00" stroke-dasharray="100,0" stroke-width="0.5" x1="200.0" x2="220.0" y1="294.0" y2="289.5876923076923" /><line fill="none" stroke="#00FF00" stroke-dasharray="100,0" stroke-width="0.5" x1="220.0" x2="633.3333333333333" y1="289.5876923076923" y2="198.40000000000003" /><line fill="none" stroke="#00FF00" stroke-dasharray="100,0" stroke-width="0.5" x1="70.0" x2="200.0" y1="330.48" y2="282.0" /><line fill="none" stroke="#00FF00" stroke-dasharray="100,0" stroke-width="0.5" x1="200.0" x2="220.0" y1="282.0" y2="278.14153846153846" /><line fill="none" stroke="#00FF00" stroke-dasharray="100,0" stroke-width="0.5" x1="220.0" x2="633.3333333333333" y1="278.14153846153846" y2="198.40000000000003" /><line fill="none" stroke="#00FF00" stroke-dasharray="100,0" stroke-width="0.5" x1="70.0" x2="200.0" y1="330.48" y2="270.0" /><line fill="none" stroke="#00FF00" stroke-dasharray="100,0" stroke-width="0.5" x1="200.0" x2="220.0" y1="270.0" y2="266.6953846153846" /><line fill="none" stroke="#00FF00" stroke-dasharray="100,0" stroke-width="0.5" x1="220.0" x2="633.3333333333333" y1="266.6953846153846" y2="198.40000000000003" /><line fill="none" stroke="#00FF00" stroke-dasharray="100,0" stroke-width="0.5" x1="70.0" x2="200.0" y1="330.48" y2="258.0" /><line fill="none" stroke="#00FF00" stroke-dasharray="100,0" stroke-width="0.5" x1="200.0" x2="220.0" y1="258.0" y2="255.24923076923076" /><line fill="none" stroke="#00FF00" stroke-dasharray="100,0" stroke-width="0.5" x1="220.0" x2="633.3333333333333" y1="255.24923076923076" y2="198.40000000000003" /><line fill="none" stroke="#00FF00" stroke-dasharray="100,0" stroke-width="0.5" x1="70.0" x2="200.0" y1="330.48" y2="246.0" /><line fill="none" stroke="#00FF00" stroke-dasharray="100,0" stroke-width="0.5" x1="200.0" x2="220.0" y1="246.0" y2="243.80307692307693" /><line fill="none" stroke="#00FF00" stroke-dasharray="100,0" stroke-width="0.5" x1="220.0" x2="633.3333333333333" y1="243.80307692307693" y2="198.39999999999998" /></g></svg>