<?xml version="1.0" encoding="utf-8" ?>
<svg baseProfile="full" height="140" version="1.1" width="960" xmlns="http://www.w3.org/2000/svg" xmlns:ev="http://www.w3.org/2001/xml-events" xmlns:inkscape="http://www.inkscape.org/namespaces/inkscape" xmlns:sodipodi="http://sodipodi.sourceforge.net/DTD/sodipodi-0.dtd" xmlns:xlink="http://www.w3.org/1999/xlink"><defs /><g inkscape:groupmode="layer" inkscape:label="axis"><line fill="none" stroke="#040404" stroke-dasharray="10,4" stroke-width="2.0" x1="0" x2="960" y1="70.0" y2="70.0" /></g><g inkscape:groupmode="layer" inkscape:label="optics"><path d="M   30,70.0 m -1.0,-100.0 a 233.99999999999994,233.99999999999994 0 0 0    0, 200 h    2 v -200 z" fill="#CCCCCC" stroke="#000000" stroke-dasharray="100,0" stroke-width="0.5" /><path d="M  150,70.0 m -1.0,-62.5 a  150, 150 0 0 0    0, 125 h    2 a  300, 300 0 0 0    0,-125 z" fill="#CCCCCC" stroke="#000000" stroke-dasharray="100,0" stroke-width="0.5" /><path d="M  360,70.0 m -5.444646714522477,-75.0 a  900, 900 0 0 0    0, 150 h 10.889293429044955 a  240, 240 0 0 0    0,-150 z" fill="#CCCCCC" stroke="#000000" stroke-dasharray="100,0" stroke-width="0.5" /></g><g inkscape:groupmode="layer" inkscape:label="stops" /><g inkscape:groupmode="layer" inkscape:label="pupils"><path d="M 28.623326959847017,70.0 m -1.0,43.021032504780095 h    2 m    0,-86.04206500956019 h   -2 m  1.0,   0 v -26.978967495219905 m    0,113.0210325047801 v 26.978967495219905 " fill="none" stroke="#009900" stroke-dasharray="100,0" stroke-width="1.5" /><path d="M  360,70.0 m -1.0,75.0 h    2 m    0,-150 h   -2 m  1.0,   0 v   -5 m    0, 155 v    5 " fill="none" stroke="#009900" stroke-dasharray="100,0" stroke-width="1.5" /></g><g inkscape:groupmode="layer" inkscape:label="windows"><path d="M 389.99999999999994,70.0 m -1.0,187.5 h    2 m    0,-375.0 h   -2 m  1.0,   0 v   -5 m    0,380.0 v    5 " fill="none" stroke="#009900" stroke-dasharray="100,0" stroke-width="1.5" /><path d="M 836.3705103969756,70.0 m -1.0,141.77693761814749 h    2 m    0,-283.55387523629497 h   -2 m  1.0,   0 v   -5 m    0,288.55387523629497 v    5 " fill="none" stroke="#009900" stroke-dasharray="100,0" stroke-width="1.5" /></g><g inkscape:groupmode="layer" inkscape:label="rayGroup1"><line fill="none" stroke="#FF0000" stroke-dasharray="100,0" stroke-width="0.5" x1="-270.0" x2="30.0" y1="20.0" y2="120.0" /><line fill="none" stroke="#FF0000" stroke-dasharray="100,0" stroke-width="0.5" x1="30.0" x2="150.0" y1="120.0" y2="126.66666666666667" /><line fill="none" stroke="#FF0000" stroke-dasharray="100,0" stroke-width="0.5" x1="150.0" x2="360.0" y1="126.66666666666667" y2="-16.36666666666663" /><line fill="none" stroke="#FF0000" stroke-dasharray="100,0" stroke-width="0.5" x1="-270.0" x2="30.0" y1="20.0" y2="110.00000000000001" /><line fill="none" stroke="#FF0000" stroke-dasharray="100,0" stroke-width="0.5" x1="30.0" x2="150.0" y1="110.00000000000001" y2="119.33333333333334" /><line fill="none" stroke="#FF0000" stroke-dasharray="100,0" stroke-width="0.5" x1="150.0" x2="360.0" y1="119.33333333333334" y2="0.9866666666666504" /><line fill="none" stroke="#FF0000" stroke-dasharray="100,0" stroke-width="0.5" x1="360.0" x2="450.0" y1="0.9866666666666504" y2="-7.11760000000001" /><line fill="none" stroke="#FF0000" stroke-dasharray="100,0" stroke-width="0.5" x1="-270.0" x2="30.0" y1="20.0" y2="100.00000000000001" /><line fill="none" stroke="#FF0000" stroke-dasharray="100,0" stroke-width="0.5" x1="30.0" x2="150.0" y1="100.00000000000001" y2="112.00000000000001" /><line fill="none" stroke="#FF0000" stroke-dasharray="100,0" stroke-width="0.5" x1="150.0" x2="360.0" y1="112.00000000000001" y2="18.339999999999996" /><line fill="none" stroke="#FF0000" stroke-dasharray="100,0" stroke-width="0.5" x1="360.0" x2="450.0" y1="18.339999999999996" y2="10.100049999999989" /><line fill="none" stroke="#FF0000" stroke-dasharray="100,0" stroke-width="0.5" x1="-270.0" x2="30.0" y1="20.0" y2="90.00000000000001" /><line fill="none" stroke="#FF0000" stroke-dasharray="100,0" stroke-width="0.5" x1="30.0" x2="150.0" y1="90.00000000000001" y2="104.66666666666669" /><line fill="none" stroke="#FF0000" stroke-dasharray="100,0" stroke-width="0.5" x1="150.0" x2="360.0" y1="104.66666666666669" y2="35.69333333333331" /><line fill="none" stroke="#FF0000" stroke-dasharray="100,0" stroke-width="0.5" x1="360.0" x2="450.0" y1="35.69333333333331" y2="27.317699999999974" /><line fill="none" stroke="#FF0000" stroke-dasharray="100,0" stroke-width="0.5" x1="-270.0" x2="30.0" y1="20.0" y2="80.00000000000003" /><line fill="none" stroke="#FF0000" stroke-dasharray="100,0" stroke-width="0.5" x1="30.0" x2="150.0" y1="80.00000000000003" y2="97.33333333333334" /><line fill="none" stroke="#FF0000" stroke-dasharray="100,0" stroke-width="0.5" x1="150.0" x2="360.0" y1="97.33333333333334" y2="53.046666666666624" /><line fill="none" stroke="#FF0000" stroke-dasharray="100,0" stroke-width="0.5" x1="360.0" x2="450.0" y1="53.046666666666624" y2="44.53534999999996" /><line fill="none" stroke="#FF0000" stroke-dasharray="100,0" stroke-width="0.5" x1="-270.0" x2="30.0" y1="20.0" y2="70.00000000000003" /><line fill="none" stroke="#FF0000" stroke-dasharray="100,0" stroke-width="0.5" x1="30.0" x2="150.0" y1="70.00000000000003" y2="90.00000000000003" /><line fill="none" stroke="#FF0000" stroke-dasharray="100,0" stroke-width="0.5" x1="150.0" x2="360.0" y1="90.00000000000003" y2="70.39999999999996" /><line fill="none" stroke="#FF0000" stroke-dasharray="100,0" stroke-width="0.5" x1="360.0" x2="450.0" y1="70.39999999999996" y2="61.752999999999965" /><line fill="none" stroke="#FF0000" stroke-dasharray="100,0" stroke-width="0.5" x1="-270.0" x2="30.0" y1="20.0" y2="60.000000000000036" /><line fill="none" stroke="#FF0000" stroke-dasharray="100,0" stroke-width="0.5" x1="30.0" x2="150.0" y1="60.000000000000036" y2="82.66666666666669" /><line fill="none" stroke="#FF0000" stroke-dasharray="100,0" stroke-width="0.5" x1="150.0" x2="360.0" y1="82.66666666666669" y2="87.75333333333327" /><line fill="none" stroke="#FF0000" stroke-dasharray="100,0" stroke-width="0.5" x1="360.0" x2="450.0" y1="87.75333333333327" y2="78.97064999999995" /><line fill="none" stroke="#FF0000" stroke-dasharray="100,0" stroke-width="0.5" x1="-270.0" x2="30.0" y1="20.0" y2="50.00000000000004" /><line fill="none" stroke="#FF0000" stroke-dasharray="100,0" stroke-width="0.5" x1="30.0" x2="150.0" y1="50.00000000000004" y2="75.33333333333336" /><line fill="none" stroke="#FF0000" stroke-dasharray="100,0" stroke-width="0.5" x1="150.0" x2="360.0" y1="75.33333333333336" y2="105.1066666666666" /><line fill="none" stroke="#FF0000" stroke-dasharray="100,0" stroke-width="0.5" x1="360.0" x2="450.0" y1="105.1066666666666" y2="96.18829999999994" /><line fill="none" stroke="#FF0000" stroke-dasharray="100,0" stroke-width="0.5" x1="-270.0" x2="30.0" y1="20.0" y2="40.00000000000004" /><line fill="none" stroke="#FF0000" stroke-dasharray="100,0" stroke-width="0.5" x1="30.0" x2="150.0" y1="40.00000000000004" y2="68.00000000000003" /><line fill="none" stroke="#FF0000" stroke-dasharray="100,0" stroke-width="0.5" x1="150.0" x2="360.0" y1="68.00000000000003" y2="122.45999999999992" /><line fill="none" stroke="#FF0000" stroke-dasharray="100,0" stroke-width="0.5" x1="360.0" x2="450.0" y1="122.45999999999992" y2="113.40594999999993" /><line fill="none" stroke="#FF0000" stroke-dasharray="100,0" stroke-width="0.5" x1="-270.0" x2="30.0" y1="20.0" y2="30.000000000000057" /><line fill="none" stroke="#FF0000" stroke-dasharray="100,0" stroke-width="0.5" x1="30.0" x2="150.0" y1="30.000000000000057" y2="60.66666666666671" /><line fill="none" stroke="#FF0000" stroke-dasharray="100,0" stroke-width="0.5" x1="150.0" x2="360.0" y1="60.66666666666671" y2="139.81333333333322" /><line fill="none" stroke="#FF0000" stroke-dasharray="100,0" stroke-width="0.5" x1="360.0" x2="450.0" y1="139.81333333333322" y2="130.6235999999999" /><line fill="none" stroke="#FF0000" stroke-dasharray="100,0" stroke-width="0.5" x1="-270.0" x2="30.0" y1="20.0" y2="20.000000000000057" /><line fill="none" stroke="#FF0000" stroke-dasharray="100,0" stroke-width="0.5" x1="30.0" x2="150.0" y1="20.000000000000057" y2="53.33333333333337" /><line fill="none" stroke="#FF0000" stroke-dasharray="100,0" stroke-width="0.5" x1="150.0" x2="360.0" y1="53.33333333333337" y2="157.16666666666657" /><line fill="none" stroke="#FF0000" stroke-dasharray="100,0" stroke-width="0.5" x1="-270.0" x2="30.0" y1="20.0" y2="10.000000000000064" /><line fill="none" stroke="#FF0000" stroke-dasharray="100,0" stroke-width="0.5" x1="30.0" x2="150.0" y1="10.000000000000064" y2="46.00000000000004" /><line fill="none" stroke="#FF0000" stroke-dasharray="100,0" stroke-width="0.5" x1="150.0" x2="360.0" y1="46.00000000000004" y2="174.51999999999987" /><line fill="none" stroke="#FF0000" stroke-dasharray="100,0" stroke-width="0.5" x1="-270.0" x2="30.0" y1="20.0" y2="7.105427357601002e-14" /><line fill="none" stroke="#FF0000" stroke-dasharray="100,0" stroke-width="0.5" x1="30.0" x2="150.0" y1="7.105427357601002e-14" y2="38.666666666666714" /><line fill="none" stroke="#FF0000" stroke-dasharray="100,0" stroke-width="0.5" x1="150.0" x2="360.0" y1="38.666666666666714" y2="191.87333333333316" /><line fill="none" stroke="#FF0000" stroke-dasharray="100,0" stroke-width="0.5" x1="-270.0" x2="30.0" y1="20.0" y2="-9.999999999999943" /><line fill="none" stroke="#FF0000" stroke-dasharray="100,0" stroke-width="0.5" x1="30.0" x2="150.0" y1="-9.999999999999943" y2="31.33333333333337" /><line fill="none" stroke="#FF0000" stroke-dasharray="100,0" stroke-width="0.5" x1="150.0" x2="360.0" y1="31.33333333333337" y2="209.22666666666655" /><line fill="none" stroke="#FF0000" stroke-dasharray="100,0" stroke-width="0.5" x1="-270.0" x2="30.0" y1="20.0" y2="-19.99999999999993" /><line fill="none" stroke="#FF0000" stroke-dasharray="100,0" stroke-width="0.5" x1="30.0" x2="150.0" y1="-19.99999999999993" y2="24.000000000000057" /><line fill="none" stroke="#FF0000" stroke-dasharray="100,0" stroke-width="0.5" x1="150.0" x2="360.0" y1="24.000000000000057" y2="226.57999999999987" /><line fill="none" stroke="#FF0000" stroke-dasharray="100,0" stroke-width="0.5" x1="-270.0" x2="30.0" y1="20.0" y2="-29.999999999999886" /><line fill="none" stroke="#FF0000" stroke-dasharray="100,0" stroke-width="0.5" x1="30.0" x2="150.0" y1="-29.999999999999886" y2="16.666666666666742" /><line fill="none" stroke="#FF0000" stroke-dasharray="100,0" stroke-width="0.5" x1="150.0" x2="360.0" y1="16.666666666666742" y2="243.93333333333314" /></g><g inkscape:groupmode="layer" inkscape:label="rayGroup2"><line fill="none" stroke="#00FF00" stroke-dasharray="100,0" stroke-width="0.5" x1="-270.0" x2="30.0" y1="120.0" y2="20.0" /><line fill="none" stroke="#00FF00" stroke-dasharray="100,0" stroke-width="0.5" x1="30.0" x2="150.0" y1="20.0" y2="13.333333333333329" /><line fill="none" stroke="#00FF00" stroke-dasharray="100,0" stroke-width="0.5" x1="150.0" x2="360.0" y1="13.333333333333329" y2="156.36666666666662" /><line fill="none" stroke="#00FF00" stroke-dasharray="100,0" stroke-width="0.5" x1="-270.0" x2="30.0" y1="120.0" y2="29.999999999999986" /><line fill="none" stroke="#00FF00" stroke-dasharray="100,0" stroke-width="0.5" x1="30.0" x2="150.0" y1="29.999999999999986" y2="20.666666666666657" /><line fill="none" stroke="#00FF00" stroke-dasharray="100,0" stroke-width="0.5" x1="150.0" x2="360.0" y1="20.666666666666657" y2="139.01333333333335" /><line fill="none" stroke="#00FF00" stroke-dasharray="100,0" stroke-width="0.5" x1="360.0" x2="450.0" y1="139.01333333333335" y2="147.1176" /><line fill="none" stroke="#00FF00" stroke-dasharray="100,0" stroke-width="0.5" x1="-270.0" x2="30.0" y1="120.0" y2="39.999999999999986" /><line fill="none" stroke="#00FF00" stroke-dasharray="100,0" stroke-width="0.5" x1="30.0" x2="150.0" y1="39.999999999999986" y2="27.999999999999986" /><line fill="none" stroke="#00FF00" stroke-dasharray="100,0" stroke-width="0.5" x1="150.0" x2="360.0" y1="27.999999999999986" y2="121.66" /><line fill="none" stroke="#00FF00" stroke-dasharray="100,0" stroke-width="0.5" x1="360.0" x2="450.0" y1="121.66" y2="129.89995000000002" /><line fill="none" stroke="#00FF00" stroke-dasharray="100,0" stroke-width="0.5" x1="-270.0" x2="30.0" y1="120.0" y2="49.999999999999986" /><line fill="none" stroke="#00FF00" stroke-dasharray="100,0" stroke-width="0.5" x1="30.0" x2="150.0" y1="49.999999999999986" y2="35.33333333333332" /><line fill="none" stroke="#00FF00" stroke-dasharray="100,0" stroke-width="0.5" x1="150.0" x2="360.0" y1="35.33333333333332" y2="104.3066666666667" /><line fill="none" stroke="#00FF00" stroke-dasharray="100,0" stroke-width="0.5" x1="360.0" x2="450.0" y1="104.3066666666667" y2="112.68230000000003" /><line fill="none" stroke="#00FF00" stroke-dasharray="100,0" stroke-width="0.5" x1="-270.0" x2="30.0" y1="120.0" y2="59.99999999999997" /><line fill="none" stroke="#00FF00" stroke-dasharray="100,0" stroke-width="0.5" x1="30.0" x2="150.0" y1="59.99999999999997" y2="42.66666666666665" /><line fill="none" stroke="#00FF00" stroke-dasharray="100,0" stroke-width="0.5" x1="150.0" x2="360.0" y1="42.66666666666665" y2="86.95333333333338" /><line fill="none" stroke="#00FF00" stroke-dasharray="100,0" stroke-width="0.5" x1="360.0" x2="450.0" y1="86.95333333333338" y2="95.46465000000003" /><line fill="none" stroke="#00FF00" stroke-dasharray="100,0" stroke-width="0.5" x1="-270.0" x2="30.0" y1="120.0" y2="69.99999999999997" /><line fill="none" stroke="#00FF00" stroke-dasharray="100,0" stroke-width="0.5" x1="30.0" x2="150.0" y1="69.99999999999997" y2="49.99999999999998" /><line fill="none" stroke="#00FF00" stroke-dasharray="100,0" stroke-width="0.5" x1="150.0" x2="360.0" y1="49.99999999999998" y2="69.60000000000004" /><line fill="none" stroke="#00FF00" stroke-dasharray="100,0" stroke-width="0.5" x1="360.0" x2="450.0" y1="69.60000000000004" y2="78.24700000000004" /><line fill="none" stroke="#00FF00" stroke-dasharray="100,0" stroke-width="0.5" x1="-270.0" x2="30.0" y1="120.0" y2="79.99999999999997" /><line fill="none" stroke="#00FF00" stroke-dasharray="100,0" stroke-width="0.5" x1="30.0" x2="150.0" y1="79.99999999999997" y2="57.33333333333331" /><line fill="none" stroke="#00FF00" stroke-dasharray="100,0" stroke-width="0.5" x1="150.0" x2="360.0" y1="57.33333333333331" y2="52.24666666666672" /><line fill="none" stroke="#00FF00" stroke-dasharray="100,0" stroke-width="0.5" x1="360.0" x2="450.0" y1="52.24666666666672" y2="61.02935000000005" /><line fill="none" stroke="#00FF00" stroke-dasharray="100,0" stroke-width="0.5" x1="-270.0" x2="30.0" y1="120.0" y2="89.99999999999996" /><line fill="none" stroke="#00FF00" stroke-dasharray="100,0" stroke-width="0.5" x1="30.0" x2="150.0" y1="89.99999999999996" y2="64.66666666666664" /><line fill="none" stroke="#00FF00" stroke-dasharray="100,0" stroke-width="0.5" x1="150.0" x2="360.0" y1="64.66666666666664" y2="34.8933333333334" /><line fill="none" stroke="#00FF00" stroke-dasharray="100,0" stroke-width="0.5" x1="360.0" x2="450.0" y1="34.8933333333334" y2="43.81170000000006" /><line fill="none" stroke="#00FF00" stroke-dasharray="100,0" stroke-width="0.5" x1="-270.0" x2="30.0" y1="120.0" y2="99.99999999999996" /><line fill="none" stroke="#00FF00" stroke-dasharray="100,0" stroke-width="0.5" x1="30.0" x2="150.0" y1="99.99999999999996" y2="71.99999999999997" /><line fill="none" stroke="#00FF00" stroke-dasharray="100,0" stroke-width="0.5" x1="150.0" x2="360.0" y1="71.99999999999997" y2="17.540000000000077" /><line fill="none" stroke="#00FF00" stroke-dasharray="100,0" stroke-width="0.5" x1="360.0" x2="450.0" y1="17.540000000000077" y2="26.594050000000074" /><line fill="none" stroke="#00FF00" stroke-dasharray="100,0" stroke-width="0.5" x1="-270.0" x2="30.0" y1="120.0" y2="109.99999999999994" /><line fill="none" stroke="#00FF00" stroke-dasharray="100,0" stroke-width="0.5" x1="30.0" x2="150.0" y1="109.99999999999994" y2="79.33333333333329" /><line fill="none" stroke="#00FF00" stroke-dasharray="100,0" stroke-width="0.5" x1="150.0" x2="360.0" y1="79.33333333333329" y2="0.1866666666667669" /><line fill="none" stroke="#00FF00" stroke-dasharray="100,0" stroke-width="0.5" x1="360.0" x2="450.0" y1="0.1866666666667669" y2="9.376400000000096" /><line fill="none" stroke="#00FF00" stroke-dasharray="100,0" stroke-width="0.5" x1="-270.0" x2="30.0" y1="120.0" y2="119.99999999999994" /><line fill="none" stroke="#00FF00" stroke-dasharray="100,0" stroke-width="0.5" x1="30.0" x2="150.0" y1="119.99999999999994" y2="86.66666666666663" /><line fill="none" stroke="#00FF00" stroke-dasharray="100,0" stroke-width="0.5" x1="150.0" x2="360.0" y1="86.66666666666663" y2="-17.166666666666558" /><line fill="none" stroke="#00FF00" stroke-dasharray="100,0" stroke-width="0.5" x1="-270.0" x2="30.0" y1="120.0" y2="129.99999999999994" /><line fill="none" stroke="#00FF00" stroke-dasharray="100,0" stroke-width="0.5" x1="30.0" x2="150.0" y1="129.99999999999994" y2="93.99999999999996" /><line fill="none" stroke="#00FF00" stroke-dasharray="100,0" stroke-width="0.5" x1="150.0" x2="360.0" y1="93.99999999999996" y2="-34.51999999999987" /><line fill="none" stroke="#00FF00" stroke-dasharray="100,0" stroke-width="0.5" x1="-270.0" x2="30.0" y1="120.0" y2="139.99999999999994" /><line fill="none" stroke="#00FF00" stroke-dasharray="100,0" stroke-width="0.5" x1="30.0" x2="150.0" y1="139.99999999999994" y2="101.33333333333329" /><line fill="none" stroke="#00FF00" stroke-dasharray="100,0" stroke-width="0.5" x1="150.0" x2="360.0" y1="101.33333333333329" y2="-51.873333333333164" /><line fill="none" stroke="#00FF00" stroke-dasharray="100,0" stroke-width="0.5" x1="-270.0" x2="30.0" y1="120.0" y2="149.99999999999994" /><line fill="none" stroke="#00FF00" stroke-dasharray="100,0" stroke-width="0.5" x1="30.0" x2="150.0" y1="149.99999999999994" y2="108.66666666666663" /><line fill="none" stroke="#00FF00" stroke-dasharray="100,0" stroke-width="0.5" x1="150.0" x2="360.0" y1="108.66666666666663" y2="-69.22666666666655" /><line fill="none" stroke="#00FF00" stroke-dasharray="100,0" stroke-width="0.5" x1="-270.0" x2="30.0" y1="120.0" y2="159.99999999999994" /><line fill="none" stroke="#00FF00" stroke-dasharray="100,0" stroke-width="0.5" x1="30.0" x2="150.0" y1="159.99999999999994" y2="115.99999999999994" /><line fill="none" stroke="#00FF00" stroke-dasharray="100,0" stroke-width="0.5" x1="150.0" x2="360.0" y1="115.99999999999994" y2="-86.57999999999987" /><line fill="none" stroke="#00FF00" stroke-dasharray="100,0" stroke-width="0.5" x1="-270.0" x2="30.0" y1="120.0" y2="169.9999999999999" /><line fill="none" stroke="#00FF00" stroke-dasharray="100,0" stroke-width="0.5" x1="30.0" x2="150.0" y1="169.9999999999999" y2="123.33333333333326" /><line fill="none" stroke="#00FF00" stroke-dasharray="100,0" stroke-width="0.5" x1="150.0" x2="360.0" y1="123.33333333333326" y2="-103.93333333333314" /></g></svg>